<svg width="30" height="30" viewBox="0 0 30 30" fill="none" xmlns="http://www.w3.org/2000/svg">
<mask id="mask0_399_1224" style="mask-type:luminance" maskUnits="userSpaceOnUse" x="0" y="0" width="30" height="30">
<path d="M30 0H0V30H30V0Z" fill="white"/>
</mask>
<g mask="url(#mask0_399_1224)">
<path d="M27.2399 23.3796C26.7863 24.4278 26.2493 25.3925 25.6271 26.2796C24.7789 27.4888 24.0845 28.3258 23.5493 28.7906C22.7198 29.5535 21.8309 29.9443 20.8791 29.9664C20.1958 29.9664 19.3717 29.772 18.4124 29.3776C17.4501 28.985 16.5657 28.7906 15.757 28.7906C14.9089 28.7906 13.9993 28.985 13.0263 29.3776C12.0519 29.772 11.2669 29.9776 10.6667 29.9979C9.754 30.0368 8.84425 29.635 7.93612 28.7906C7.3565 28.2851 6.63156 27.4184 5.76304 26.1906C4.83122 24.8796 4.06514 23.3593 3.46497 21.626C2.82221 19.7538 2.5 17.9409 2.5 16.1858C2.5 14.1753 2.93443 12.4413 3.80459 10.9881C4.48846 9.82094 5.39824 8.90026 6.53694 8.22432C7.67556 7.54844 8.90594 7.20401 10.2309 7.18194C10.9558 7.18194 11.9066 7.40626 13.088 7.84694C14.2661 8.28913 15.0226 8.51344 15.3542 8.51344C15.6022 8.51344 16.4425 8.25119 17.8671 7.72844C19.2143 7.24363 20.3512 7.04288 21.2827 7.12194C23.8067 7.32569 25.7029 8.32063 26.9641 10.1132C24.7067 11.4809 23.5901 13.3966 23.6123 15.8541C23.6327 17.7683 24.3271 19.3613 25.6919 20.626C26.3104 21.213 27.0011 21.6667 27.7696 21.9889C27.6029 22.4723 27.427 22.9352 27.2399 23.3796ZM21.4512 0.60069C21.4512 2.10103 20.9031 3.5019 19.8106 4.79853C18.4921 6.33994 16.8973 7.23069 15.1679 7.09013C15.1459 6.91013 15.1331 6.7207 15.1331 6.52163C15.1331 5.0813 15.7601 3.53986 16.8736 2.27953C17.4295 1.6414 18.1366 1.1108 18.9939 0.687538C19.8494 0.270588 20.6587 0.0400051 21.4198 0.000518799C21.442 0.201091 21.4512 0.401696 21.4512 0.60069Z" fill="black"/>
</g>
</svg>
