<svg xmlns="http://www.w3.org/2000/svg" xmlns:xlink="http://www.w3.org/1999/xlink" width="277" zoomAndPan="magnify" viewBox="0 0 207.75 207.75" height="277" preserveAspectRatio="xMidYMid meet" version="1.0"><defs><g/><clipPath id="416218a2b2"><path d="M 0 0 L 207.5 0 L 207.5 207.5 L 0 207.5 Z M 0 0 " clip-rule="nonzero"/></clipPath><clipPath id="29775a4ba0"><path d="M 87.046875 29.410156 L 128.246094 29.410156 L 128.246094 101.324219 L 87.046875 101.324219 Z M 87.046875 29.410156 " clip-rule="nonzero"/></clipPath></defs><g clip-path="url(#416218a2b2)"><path fill="#000000" d="M 207.464844 103.734375 C 207.464844 105.429688 207.421875 107.125 207.339844 108.824219 C 207.257812 110.519531 207.132812 112.210938 206.964844 113.898438 C 206.800781 115.589844 206.589844 117.273438 206.34375 118.953125 C 206.09375 120.632812 205.804688 122.304688 205.472656 123.96875 C 205.140625 125.636719 204.769531 127.289062 204.355469 128.9375 C 203.945312 130.585938 203.492188 132.21875 203 133.84375 C 202.503906 135.46875 201.972656 137.082031 201.402344 138.679688 C 200.828125 140.277344 200.21875 141.859375 199.570312 143.429688 C 198.917969 144.996094 198.230469 146.550781 197.503906 148.082031 C 196.78125 149.617188 196.015625 151.132812 195.214844 152.632812 C 194.417969 154.128906 193.578125 155.605469 192.707031 157.0625 C 191.835938 158.519531 190.925781 159.953125 189.984375 161.363281 C 189.039062 162.773438 188.0625 164.164062 187.050781 165.527344 C 186.039062 166.890625 184.996094 168.226562 183.917969 169.539062 C 182.84375 170.851562 181.734375 172.136719 180.59375 173.394531 C 179.453125 174.652344 178.28125 175.882812 177.082031 177.082031 C 175.882812 178.28125 174.652344 179.453125 173.394531 180.59375 C 172.136719 181.734375 170.851562 182.84375 169.539062 183.917969 C 168.226562 184.996094 166.890625 186.039062 165.527344 187.050781 C 164.164062 188.0625 162.773438 189.039062 161.363281 189.984375 C 159.953125 190.925781 158.519531 191.835938 157.0625 192.707031 C 155.605469 193.578125 154.128906 194.417969 152.632812 195.214844 C 151.132812 196.015625 149.617188 196.78125 148.082031 197.503906 C 146.550781 198.230469 144.996094 198.917969 143.429688 199.570312 C 141.859375 200.21875 140.277344 200.828125 138.679688 201.402344 C 137.082031 201.972656 135.46875 202.503906 133.84375 203 C 132.21875 203.492188 130.585938 203.945312 128.9375 204.355469 C 127.289062 204.769531 125.636719 205.140625 123.96875 205.472656 C 122.304688 205.804688 120.632812 206.09375 118.953125 206.34375 C 117.273438 206.589844 115.589844 206.800781 113.898438 206.964844 C 112.210938 207.132812 110.519531 207.257812 108.824219 207.339844 C 107.125 207.421875 105.429688 207.464844 103.734375 207.464844 C 102.035156 207.464844 100.339844 207.421875 98.644531 207.339844 C 96.945312 207.257812 95.253906 207.132812 93.566406 206.964844 C 91.875 206.800781 90.191406 206.589844 88.511719 206.34375 C 86.832031 206.09375 85.160156 205.804688 83.496094 205.472656 C 81.832031 205.140625 80.175781 204.769531 78.527344 204.355469 C 76.878906 203.945312 75.246094 203.492188 73.621094 203 C 71.996094 202.503906 70.382812 201.972656 68.785156 201.402344 C 67.1875 200.828125 65.605469 200.21875 64.035156 199.570312 C 62.46875 198.917969 60.914062 198.230469 59.382812 197.503906 C 57.847656 196.78125 56.332031 196.015625 54.832031 195.214844 C 53.335938 194.417969 51.859375 193.578125 50.402344 192.707031 C 48.945312 191.835938 47.511719 190.925781 46.101562 189.984375 C 44.691406 189.039062 43.300781 188.0625 41.9375 187.050781 C 40.574219 186.039062 39.238281 184.996094 37.925781 183.917969 C 36.613281 182.84375 35.328125 181.734375 34.070312 180.59375 C 32.8125 179.453125 31.582031 178.28125 30.382812 177.082031 C 29.183594 175.882812 28.011719 174.652344 26.871094 173.394531 C 25.730469 172.136719 24.625 170.851562 23.546875 169.539062 C 22.46875 168.226562 21.425781 166.890625 20.414062 165.527344 C 19.402344 164.164062 18.425781 162.773438 17.480469 161.363281 C 16.539062 159.953125 15.632812 158.519531 14.757812 157.0625 C 13.886719 155.605469 13.050781 154.128906 12.25 152.632812 C 11.449219 151.132812 10.683594 149.617188 9.960938 148.082031 C 9.234375 146.550781 8.546875 144.996094 7.894531 143.429688 C 7.246094 141.859375 6.636719 140.277344 6.0625 138.679688 C 5.492188 137.082031 4.960938 135.46875 4.464844 133.84375 C 3.972656 132.21875 3.519531 130.585938 3.109375 128.9375 C 2.695312 127.289062 2.324219 125.636719 1.992188 123.96875 C 1.660156 122.304688 1.371094 120.632812 1.121094 118.953125 C 0.875 117.273438 0.664062 115.589844 0.5 113.898438 C 0.332031 112.210938 0.207031 110.519531 0.125 108.824219 C 0.0429688 107.125 0 105.429688 0 103.734375 C 0 102.035156 0.0429688 100.339844 0.125 98.644531 C 0.207031 96.945312 0.332031 95.253906 0.5 93.566406 C 0.664062 91.875 0.875 90.191406 1.121094 88.511719 C 1.371094 86.832031 1.660156 85.160156 1.992188 83.496094 C 2.324219 81.832031 2.695312 80.175781 3.109375 78.527344 C 3.519531 76.878906 3.972656 75.246094 4.464844 73.621094 C 4.960938 71.996094 5.492188 70.382812 6.0625 68.785156 C 6.636719 67.1875 7.246094 65.605469 7.894531 64.035156 C 8.546875 62.46875 9.234375 60.914062 9.960938 59.382812 C 10.683594 57.847656 11.449219 56.332031 12.25 54.832031 C 13.050781 53.335938 13.886719 51.859375 14.757812 50.402344 C 15.632812 48.945312 16.539062 47.511719 17.480469 46.101562 C 18.425781 44.691406 19.402344 43.304688 20.414062 41.9375 C 21.425781 40.574219 22.46875 39.238281 23.546875 37.925781 C 24.625 36.613281 25.730469 35.328125 26.871094 34.070312 C 28.011719 32.8125 29.183594 31.582031 30.382812 30.382812 C 31.582031 29.183594 32.8125 28.011719 34.070312 26.871094 C 35.328125 25.730469 36.613281 24.625 37.925781 23.546875 C 39.238281 22.46875 40.574219 21.425781 41.9375 20.414062 C 43.300781 19.402344 44.691406 18.425781 46.101562 17.480469 C 47.511719 16.539062 48.945312 15.632812 50.402344 14.757812 C 51.859375 13.886719 53.335938 13.050781 54.832031 12.25 C 56.332031 11.449219 57.847656 10.683594 59.382812 9.960938 C 60.914062 9.234375 62.46875 8.546875 64.035156 7.894531 C 65.605469 7.246094 67.1875 6.636719 68.785156 6.0625 C 70.382812 5.492188 71.996094 4.960938 73.621094 4.464844 C 75.246094 3.972656 76.878906 3.519531 78.527344 3.109375 C 80.175781 2.695312 81.832031 2.324219 83.496094 1.992188 C 85.160156 1.660156 86.832031 1.371094 88.511719 1.121094 C 90.191406 0.875 91.875 0.664062 93.566406 0.5 C 95.253906 0.332031 96.945312 0.207031 98.644531 0.125 C 100.339844 0.0429688 102.035156 0 103.734375 0 C 105.429688 0 107.125 0.0429688 108.824219 0.125 C 110.519531 0.207031 112.210938 0.332031 113.898438 0.5 C 115.589844 0.664062 117.273438 0.875 118.953125 1.121094 C 120.632812 1.371094 122.304688 1.660156 123.96875 1.992188 C 125.636719 2.324219 127.289062 2.695312 128.9375 3.109375 C 130.585938 3.519531 132.21875 3.972656 133.84375 4.464844 C 135.46875 4.960938 137.082031 5.492188 138.679688 6.0625 C 140.277344 6.636719 141.859375 7.246094 143.429688 7.894531 C 144.996094 8.546875 146.550781 9.234375 148.082031 9.960938 C 149.617188 10.683594 151.132812 11.449219 152.632812 12.25 C 154.128906 13.050781 155.605469 13.886719 157.0625 14.757812 C 158.519531 15.632812 159.953125 16.539062 161.363281 17.480469 C 162.773438 18.425781 164.164062 19.402344 165.527344 20.414062 C 166.890625 21.425781 168.226562 22.46875 169.539062 23.546875 C 170.851562 24.625 172.136719 25.730469 173.394531 26.871094 C 174.652344 28.011719 175.882812 29.183594 177.082031 30.382812 C 178.28125 31.582031 179.453125 32.8125 180.59375 34.070312 C 181.734375 35.328125 182.84375 36.613281 183.917969 37.925781 C 184.996094 39.238281 186.039062 40.574219 187.050781 41.9375 C 188.0625 43.304688 189.039062 44.691406 189.984375 46.101562 C 190.925781 47.511719 191.835938 48.945312 192.707031 50.402344 C 193.578125 51.859375 194.417969 53.335938 195.214844 54.832031 C 196.015625 56.332031 196.78125 57.847656 197.503906 59.382812 C 198.230469 60.914062 198.917969 62.46875 199.570312 64.035156 C 200.21875 65.605469 200.828125 67.1875 201.402344 68.785156 C 201.972656 70.382812 202.503906 71.996094 203 73.621094 C 203.492188 75.246094 203.945312 76.878906 204.355469 78.527344 C 204.769531 80.175781 205.140625 81.832031 205.472656 83.496094 C 205.804688 85.160156 206.09375 86.832031 206.34375 88.511719 C 206.589844 90.191406 206.800781 91.875 206.964844 93.566406 C 207.132812 95.253906 207.257812 96.945312 207.339844 98.644531 C 207.421875 100.339844 207.464844 102.035156 207.464844 103.734375 Z M 207.464844 103.734375 " fill-opacity="1" fill-rule="nonzero"/></g><path fill="#ffffff" d="M 103.734375 197.570312 C 51.945312 197.570312 9.894531 155.523438 9.894531 103.734375 C 9.894531 51.945312 51.945312 9.894531 103.734375 9.894531 C 155.523438 9.894531 197.570312 51.945312 197.570312 103.734375 C 197.570312 155.523438 155.523438 197.570312 103.734375 197.570312 Z M 103.734375 12.214844 C 53.179688 12.214844 12.214844 53.179688 12.214844 103.734375 C 12.214844 154.285156 53.335938 195.253906 103.734375 195.253906 C 154.285156 195.253906 195.253906 154.128906 195.253906 103.734375 C 195.253906 53.179688 154.285156 12.214844 103.734375 12.214844 Z M 103.734375 12.214844 " fill-opacity="1" fill-rule="nonzero"/><g clip-path="url(#29775a4ba0)"><path fill="#ffde59" d="M 91.394531 101.09375 C 90.804688 101.09375 90.277344 100.910156 89.808594 100.546875 C 89.5625 100.363281 89.351562 100.140625 89.183594 99.878906 C 89.015625 99.617188 88.898438 99.335938 88.832031 99.03125 C 88.769531 98.726562 88.757812 98.421875 88.804688 98.113281 C 88.851562 97.804688 88.949219 97.515625 89.101562 97.246094 L 89.113281 97.222656 L 104.65625 69.699219 L 89.835938 69.699219 C 89.316406 69.699219 88.835938 69.554688 88.402344 69.265625 C 87.96875 68.976562 87.648438 68.59375 87.445312 68.113281 C 87.242188 67.628906 87.1875 67.132812 87.285156 66.621094 C 87.382812 66.109375 87.613281 65.664062 87.976562 65.289062 L 119.550781 30.492188 L 119.597656 30.441406 C 119.808594 30.230469 120.054688 30.058594 120.328125 29.929688 C 120.601562 29.800781 120.890625 29.722656 121.191406 29.695312 C 121.496094 29.667969 121.792969 29.691406 122.085938 29.765625 C 122.378906 29.84375 122.652344 29.964844 122.902344 30.136719 C 123.152344 30.308594 123.363281 30.515625 123.542969 30.761719 C 123.71875 31.007812 123.847656 31.277344 123.933594 31.566406 C 124.015625 31.859375 124.046875 32.15625 124.027344 32.457031 C 124.007812 32.761719 123.9375 33.050781 123.816406 33.328125 L 123.796875 33.367188 L 111.519531 59.042969 L 124.558594 59.042969 C 124.917969 59.046875 125.269531 59.097656 125.613281 59.199219 C 125.957031 59.304688 126.28125 59.457031 126.578125 59.65625 C 126.878906 59.851562 127.144531 60.089844 127.375 60.367188 C 127.601562 60.644531 127.789062 60.945312 127.929688 61.277344 C 128.066406 61.609375 128.15625 61.953125 128.195312 62.308594 C 128.234375 62.667969 128.222656 63.023438 128.15625 63.375 C 128.089844 63.730469 127.976562 64.066406 127.8125 64.382812 C 127.644531 64.703125 127.4375 64.992188 127.1875 65.25 L 93.21875 100.316406 L 93.179688 100.355469 C 92.683594 100.84375 92.089844 101.089844 91.394531 101.09375 Z M 91.324219 98.429688 Z M 90.015625 67.019531 L 104.792969 67.019531 C 105.015625 67.019531 105.238281 67.046875 105.457031 67.105469 C 105.671875 67.164062 105.878906 67.25 106.074219 67.359375 C 106.273438 67.46875 106.449219 67.605469 106.609375 67.761719 C 106.769531 67.917969 106.910156 68.09375 107.023438 68.289062 C 107.140625 68.480469 107.226562 68.6875 107.289062 68.902344 C 107.351562 69.117188 107.386719 69.339844 107.390625 69.566406 C 107.394531 69.789062 107.371094 70.011719 107.320312 70.230469 C 107.265625 70.449219 107.1875 70.65625 107.078125 70.855469 L 107.066406 70.875 L 91.757812 97.984375 L 125.261719 63.390625 C 125.398438 63.246094 125.488281 63.078125 125.523438 62.886719 C 125.558594 62.691406 125.539062 62.503906 125.460938 62.320312 C 125.386719 62.140625 125.265625 61.996094 125.097656 61.886719 C 124.933594 61.777344 124.753906 61.722656 124.554688 61.722656 L 111.394531 61.722656 C 111.175781 61.722656 110.964844 61.695312 110.753906 61.644531 C 110.546875 61.589844 110.34375 61.511719 110.15625 61.410156 C 109.964844 61.304688 109.789062 61.183594 109.632812 61.035156 C 109.472656 60.890625 109.335938 60.726562 109.214844 60.542969 C 109.097656 60.363281 109.003906 60.171875 108.933594 59.96875 C 108.863281 59.761719 108.820312 59.550781 108.800781 59.335938 C 108.785156 59.121094 108.792969 58.90625 108.828125 58.695312 C 108.863281 58.480469 108.925781 58.277344 109.011719 58.078125 L 109.03125 58.039062 L 121.132812 32.734375 Z M 122.589844 32.789062 Z M 122.589844 32.789062 " fill-opacity="1" fill-rule="nonzero"/></g><g fill="#ffffff" fill-opacity="1"><g transform="translate(28.596979, 139.69135)"><g><path d="M 2.265625 -27.75 L 10.5625 -27.75 L 10.5625 -25.046875 L 5.53125 -25.046875 L 5.53125 -15.546875 L 10.296875 -15.546875 L 10.296875 -12.84375 L 5.53125 -12.84375 L 5.53125 -2.71875 L 10.625 -2.71875 L 10.625 0 L 2.265625 0 Z M 2.265625 -27.75 "/></g></g></g><g fill="#ffffff" fill-opacity="1"><g transform="translate(40.752796, 139.69135)"><g><path d="M 2.265625 -27.75 L 5.53125 -27.75 L 5.53125 -2.703125 L 10.65625 -2.703125 L 10.65625 0 L 2.265625 0 Z M 2.265625 -27.75 "/></g></g></g><g fill="#ffffff" fill-opacity="1"><g transform="translate(51.978403, 139.69135)"><g><path d="M 2.265625 -27.75 L 10.5625 -27.75 L 10.5625 -25.046875 L 5.53125 -25.046875 L 5.53125 -15.546875 L 10.296875 -15.546875 L 10.296875 -12.84375 L 5.53125 -12.84375 L 5.53125 -2.71875 L 10.625 -2.71875 L 10.625 0 L 2.265625 0 Z M 2.265625 -27.75 "/></g></g></g><g fill="#ffffff" fill-opacity="1"><g transform="translate(64.13422, 139.69135)"><g><path d="M 1.953125 -19.75 C 1.953125 -21.84375 2.125 -23.382812 2.46875 -24.375 C 2.820312 -25.363281 3.203125 -26.09375 3.609375 -26.5625 C 4.503906 -27.570312 5.804688 -28.082031 7.515625 -28.09375 C 9.921875 -28.082031 11.46875 -27.023438 12.15625 -24.921875 C 12.5625 -23.710938 12.765625 -22.101562 12.765625 -20.09375 L 12.765625 -17.015625 L 9.5625 -17.015625 L 9.5625 -20.109375 C 9.5625 -21.878906 9.460938 -23.078125 9.265625 -23.703125 C 9.066406 -24.335938 8.832031 -24.753906 8.5625 -24.953125 C 8.289062 -25.160156 7.941406 -25.265625 7.515625 -25.265625 C 6.648438 -25.265625 6.050781 -24.847656 5.71875 -24.015625 C 5.382812 -23.191406 5.21875 -21.894531 5.21875 -20.125 L 5.21875 -8.109375 C 5.21875 -6.003906 5.367188 -4.53125 5.671875 -3.6875 C 5.972656 -2.851562 6.550781 -2.4375 7.40625 -2.4375 C 8.257812 -2.4375 8.832031 -2.859375 9.125 -3.703125 C 9.414062 -4.546875 9.5625 -6.019531 9.5625 -8.125 L 9.5625 -11.203125 L 12.796875 -11.203125 L 12.796875 -8.15625 C 12.796875 -5.238281 12.394531 -3.09375 11.59375 -1.71875 C 10.800781 -0.351562 9.414062 0.328125 7.4375 0.328125 C 5.46875 0.328125 4.0625 -0.375 3.21875 -1.78125 C 2.375 -3.195312 1.953125 -5.332031 1.953125 -8.1875 Z M 1.953125 -19.75 "/></g></g></g><g fill="#ffffff" fill-opacity="1"><g transform="translate(78.607684, 139.69135)"><g><path d="M 0.4375 -27.75 L 9.609375 -27.75 L 9.609375 -25.046875 L 6.75 -25.046875 L 6.75 0 L 3.5 0 L 3.5 -25.046875 L 0.4375 -25.046875 Z M 0.4375 -27.75 "/></g></g></g><g fill="#ffffff" fill-opacity="1"><g transform="translate(88.650818, 139.69135)"><g><path d="M 2.265625 -27.75 L 8.09375 -27.75 C 9.738281 -27.75 10.921875 -27.40625 11.640625 -26.71875 C 12.367188 -26.039062 12.8125 -24.882812 12.96875 -23.25 C 13.03125 -22.570312 13.0625 -21.519531 13.0625 -20.09375 C 13.0625 -18.675781 12.875 -17.484375 12.5 -16.515625 C 12.125 -15.546875 11.460938 -14.921875 10.515625 -14.640625 C 11.210938 -14.523438 11.738281 -14.15625 12.09375 -13.53125 C 12.445312 -12.914062 12.695312 -11.9375 12.84375 -10.59375 C 13 -9.257812 13.078125 -7.269531 13.078125 -4.625 C 13.078125 -1.976562 13.160156 -0.4375 13.328125 0 L 10.078125 0 C 9.910156 -0.332031 9.828125 -3.453125 9.828125 -9.359375 C 9.828125 -11.335938 9.628906 -12.488281 9.234375 -12.8125 C 8.847656 -13.132812 8.257812 -13.296875 7.46875 -13.296875 L 5.53125 -13.40625 L 5.53125 0 L 2.265625 0 Z M 9.828125 -20.953125 C 9.828125 -23.085938 9.632812 -24.320312 9.25 -24.65625 C 8.863281 -25 8.304688 -25.171875 7.578125 -25.171875 L 5.53125 -25.171875 L 5.53125 -15.796875 L 7.609375 -15.796875 C 8.242188 -15.796875 8.707031 -15.914062 9 -16.15625 C 9.300781 -16.40625 9.515625 -16.867188 9.640625 -17.546875 C 9.765625 -18.234375 9.828125 -19.304688 9.828125 -20.765625 Z M 9.828125 -20.953125 "/></g></g></g><g fill="#ffffff" fill-opacity="1"><g transform="translate(103.676102, 139.69135)"><g><path d="M 2.515625 -27.75 L 5.78125 -27.75 L 5.78125 0 L 2.515625 0 Z M 2.515625 -27.75 "/></g></g></g><g fill="#ffffff" fill-opacity="1"><g transform="translate(111.984942, 139.69135)"><g><path d="M 1.953125 -19.75 C 1.953125 -21.84375 2.125 -23.382812 2.46875 -24.375 C 2.820312 -25.363281 3.203125 -26.09375 3.609375 -26.5625 C 4.503906 -27.570312 5.804688 -28.082031 7.515625 -28.09375 C 9.921875 -28.082031 11.46875 -27.023438 12.15625 -24.921875 C 12.5625 -23.710938 12.765625 -22.101562 12.765625 -20.09375 L 12.765625 -17.015625 L 9.5625 -17.015625 L 9.5625 -20.109375 C 9.5625 -21.878906 9.460938 -23.078125 9.265625 -23.703125 C 9.066406 -24.335938 8.832031 -24.753906 8.5625 -24.953125 C 8.289062 -25.160156 7.941406 -25.265625 7.515625 -25.265625 C 6.648438 -25.265625 6.050781 -24.847656 5.71875 -24.015625 C 5.382812 -23.191406 5.21875 -21.894531 5.21875 -20.125 L 5.21875 -8.109375 C 5.21875 -6.003906 5.367188 -4.53125 5.671875 -3.6875 C 5.972656 -2.851562 6.550781 -2.4375 7.40625 -2.4375 C 8.257812 -2.4375 8.832031 -2.859375 9.125 -3.703125 C 9.414062 -4.546875 9.5625 -6.019531 9.5625 -8.125 L 9.5625 -11.203125 L 12.796875 -11.203125 L 12.796875 -8.15625 C 12.796875 -5.238281 12.394531 -3.09375 11.59375 -1.71875 C 10.800781 -0.351562 9.414062 0.328125 7.4375 0.328125 C 5.46875 0.328125 4.0625 -0.375 3.21875 -1.78125 C 2.375 -3.195312 1.953125 -5.332031 1.953125 -8.1875 Z M 1.953125 -19.75 "/></g></g></g><g fill="#ffffff" fill-opacity="1"><g transform="translate(126.458407, 139.69135)"><g/></g></g><g fill="#ffffff" fill-opacity="1"><g transform="translate(134.388856, 139.69135)"><g><path d="M 0.4375 -27.75 L 9.609375 -27.75 L 9.609375 -25.046875 L 6.75 -25.046875 L 6.75 0 L 3.5 0 L 3.5 -25.046875 L 0.4375 -25.046875 Z M 0.4375 -27.75 "/></g></g></g><g fill="#ffffff" fill-opacity="1"><g transform="translate(144.431989, 139.69135)"><g><path d="M 2.515625 -27.75 L 5.78125 -27.75 L 5.78125 0 L 2.515625 0 Z M 2.515625 -27.75 "/></g></g></g><g fill="#ffffff" fill-opacity="1"><g transform="translate(152.74083, 139.69135)"><g><path d="M 2.265625 -27.75 L 5.53125 -27.75 L 5.53125 -2.703125 L 10.65625 -2.703125 L 10.65625 0 L 2.265625 0 Z M 2.265625 -27.75 "/></g></g></g><g fill="#ffffff" fill-opacity="1"><g transform="translate(163.966436, 139.69135)"><g><path d="M 2.265625 -27.75 L 10.5625 -27.75 L 10.5625 -25.046875 L 5.53125 -25.046875 L 5.53125 -15.546875 L 10.296875 -15.546875 L 10.296875 -12.84375 L 5.53125 -12.84375 L 5.53125 -2.71875 L 10.625 -2.71875 L 10.625 0 L 2.265625 0 Z M 2.265625 -27.75 "/></g></g></g><g fill="#ffffff" fill-opacity="1"><g transform="translate(51.534631, 158.13074)"><g><path d="M 0.515625 -6.5625 L 3.0625 -6.5625 L 3.0625 -5.890625 L 1.421875 -5.890625 L 1.421875 -3.71875 L 2.75 -3.71875 L 2.75 -3.0625 L 1.421875 -3.0625 L 1.421875 -0.65625 L 3.078125 -0.65625 L 3.078125 0 L 0.515625 0 Z M 0.515625 -6.5625 "/></g></g></g><g fill="#ffffff" fill-opacity="1"><g transform="translate(55.654592, 158.13074)"><g><path d="M 0.4375 -4.6875 L 1.3125 -4.6875 L 1.3125 -4.21875 C 1.675781 -4.570312 2.054688 -4.75 2.453125 -4.75 C 2.703125 -4.75 2.878906 -4.65625 2.984375 -4.46875 C 3.097656 -4.289062 3.15625 -4.066406 3.15625 -3.796875 L 3.15625 0 L 2.28125 0 L 2.28125 -3.546875 C 2.28125 -3.722656 2.253906 -3.851562 2.203125 -3.9375 C 2.148438 -4.03125 2.050781 -4.078125 1.90625 -4.078125 C 1.738281 -4.078125 1.539062 -3.976562 1.3125 -3.78125 L 1.3125 0 L 0.4375 0 Z M 0.4375 -4.6875 "/></g></g></g><g fill="#ffffff" fill-opacity="1"><g transform="translate(60.034079, 158.13074)"><g><path d="M 1.734375 0.0625 C 1.367188 0.0625 1.085938 -0.00390625 0.890625 -0.140625 C 0.691406 -0.273438 0.550781 -0.476562 0.46875 -0.75 C 0.382812 -1.019531 0.34375 -1.375 0.34375 -1.8125 L 0.34375 -2.875 C 0.34375 -3.53125 0.441406 -4.003906 0.640625 -4.296875 C 0.847656 -4.597656 1.210938 -4.75 1.734375 -4.75 C 2.109375 -4.75 2.390625 -4.671875 2.578125 -4.515625 C 2.773438 -4.359375 2.90625 -4.140625 2.96875 -3.859375 C 3.03125 -3.578125 3.0625 -3.191406 3.0625 -2.703125 L 3.0625 -2.328125 L 1.21875 -2.328125 L 1.21875 -1.390625 C 1.21875 -1.097656 1.257812 -0.890625 1.34375 -0.765625 C 1.425781 -0.640625 1.5625 -0.578125 1.75 -0.578125 C 1.925781 -0.578125 2.046875 -0.640625 2.109375 -0.765625 C 2.179688 -0.890625 2.21875 -1.082031 2.21875 -1.34375 L 2.21875 -1.625 L 3.0625 -1.625 L 3.0625 -1.453125 C 3.0625 -0.960938 2.953125 -0.585938 2.734375 -0.328125 C 2.523438 -0.0664062 2.191406 0.0625 1.734375 0.0625 Z M 2.21875 -2.796875 L 2.21875 -3.21875 C 2.21875 -3.539062 2.1875 -3.769531 2.125 -3.90625 C 2.0625 -4.039062 1.929688 -4.109375 1.734375 -4.109375 C 1.585938 -4.109375 1.476562 -4.078125 1.40625 -4.015625 C 1.332031 -3.953125 1.28125 -3.84375 1.25 -3.6875 C 1.226562 -3.539062 1.21875 -3.328125 1.21875 -3.046875 L 1.21875 -2.796875 Z M 2.21875 -2.796875 "/></g></g></g><g fill="#ffffff" fill-opacity="1"><g transform="translate(64.267581, 158.13074)"><g><path d="M 0.46875 -4.6875 L 1.328125 -4.6875 L 1.328125 -4.015625 C 1.492188 -4.285156 1.660156 -4.472656 1.828125 -4.578125 C 1.992188 -4.691406 2.175781 -4.75 2.375 -4.75 C 2.414062 -4.75 2.457031 -4.742188 2.5 -4.734375 L 2.5 -3.78125 C 2.332031 -3.84375 2.175781 -3.875 2.03125 -3.875 C 1.882812 -3.875 1.753906 -3.835938 1.640625 -3.765625 C 1.535156 -3.703125 1.429688 -3.585938 1.328125 -3.421875 L 1.328125 0 L 0.46875 0 Z M 0.46875 -4.6875 "/></g></g></g><g fill="#ffffff" fill-opacity="1"><g transform="translate(67.690063, 158.13074)"><g><path d="M 1.65625 1.453125 C 1.195312 1.453125 0.832031 1.378906 0.5625 1.234375 C 0.289062 1.085938 0.15625 0.863281 0.15625 0.5625 C 0.15625 0.363281 0.21875 0.1875 0.34375 0.03125 C 0.476562 -0.113281 0.640625 -0.234375 0.828125 -0.328125 C 0.679688 -0.367188 0.566406 -0.4375 0.484375 -0.53125 C 0.410156 -0.625 0.375 -0.722656 0.375 -0.828125 C 0.375 -0.992188 0.414062 -1.132812 0.5 -1.25 C 0.582031 -1.375 0.71875 -1.519531 0.90625 -1.6875 C 0.71875 -1.820312 0.578125 -1.992188 0.484375 -2.203125 C 0.398438 -2.421875 0.359375 -2.710938 0.359375 -3.078125 C 0.359375 -3.628906 0.46875 -4.046875 0.6875 -4.328125 C 0.914062 -4.609375 1.242188 -4.75 1.671875 -4.75 C 1.921875 -4.75 2.125 -4.707031 2.28125 -4.625 C 2.4375 -4.539062 2.554688 -4.410156 2.640625 -4.234375 C 2.679688 -4.296875 2.757812 -4.375 2.875 -4.46875 C 3 -4.570312 3.132812 -4.65625 3.28125 -4.71875 L 3.40625 -4.78125 L 3.625 -4.21875 C 3.519531 -4.195312 3.367188 -4.148438 3.171875 -4.078125 C 2.984375 -4.003906 2.867188 -3.953125 2.828125 -3.921875 C 2.867188 -3.816406 2.898438 -3.675781 2.921875 -3.5 C 2.953125 -3.332031 2.96875 -3.1875 2.96875 -3.0625 C 2.96875 -2.539062 2.867188 -2.140625 2.671875 -1.859375 C 2.472656 -1.578125 2.140625 -1.4375 1.671875 -1.4375 C 1.523438 -1.4375 1.378906 -1.453125 1.234375 -1.484375 C 1.128906 -1.335938 1.078125 -1.222656 1.078125 -1.140625 C 1.078125 -1.078125 1.109375 -1.023438 1.171875 -0.984375 C 1.234375 -0.953125 1.332031 -0.929688 1.46875 -0.921875 L 2.203125 -0.859375 C 2.566406 -0.828125 2.835938 -0.71875 3.015625 -0.53125 C 3.191406 -0.34375 3.28125 -0.0703125 3.28125 0.28125 C 3.28125 1.0625 2.738281 1.453125 1.65625 1.453125 Z M 1.671875 -2.046875 C 1.910156 -2.046875 2.0625 -2.125 2.125 -2.28125 C 2.195312 -2.445312 2.234375 -2.710938 2.234375 -3.078125 C 2.234375 -3.453125 2.195312 -3.722656 2.125 -3.890625 C 2.0625 -4.066406 1.914062 -4.15625 1.6875 -4.15625 C 1.457031 -4.15625 1.300781 -4.066406 1.21875 -3.890625 C 1.144531 -3.722656 1.109375 -3.453125 1.109375 -3.078125 C 1.109375 -2.742188 1.144531 -2.488281 1.21875 -2.3125 C 1.300781 -2.132812 1.453125 -2.046875 1.671875 -2.046875 Z M 1.71875 0.765625 C 2.03125 0.765625 2.257812 0.726562 2.40625 0.65625 C 2.550781 0.582031 2.625 0.46875 2.625 0.3125 C 2.625 0.15625 2.578125 0.0390625 2.484375 -0.03125 C 2.390625 -0.101562 2.222656 -0.148438 1.984375 -0.171875 L 1.234375 -0.234375 C 1.128906 -0.117188 1.046875 -0.0195312 0.984375 0.0625 C 0.921875 0.144531 0.890625 0.238281 0.890625 0.34375 C 0.890625 0.488281 0.945312 0.59375 1.0625 0.65625 C 1.1875 0.726562 1.40625 0.765625 1.71875 0.765625 Z M 1.71875 0.765625 "/></g></g></g><g fill="#ffffff" fill-opacity="1"><g transform="translate(72.037106, 158.13074)"><g><path d="M 0.5 -4.6875 L 1.359375 -4.6875 L 1.359375 0 L 0.5 0 Z M 1.1875 -6.6875 L 2.0625 -6.6875 L 1.140625 -5.078125 L 0.703125 -5.078125 Z M 1.1875 -6.6875 "/></g></g></g><g fill="#ffffff" fill-opacity="1"><g transform="translate(74.672906, 158.13074)"><g><path d="M 1.28125 0.0625 C 1.101562 0.0625 0.941406 0.0078125 0.796875 -0.09375 C 0.648438 -0.195312 0.535156 -0.332031 0.453125 -0.5 C 0.378906 -0.664062 0.34375 -0.835938 0.34375 -1.015625 C 0.34375 -1.390625 0.421875 -1.691406 0.578125 -1.921875 C 0.734375 -2.148438 0.929688 -2.332031 1.171875 -2.46875 C 1.421875 -2.601562 1.757812 -2.753906 2.1875 -2.921875 L 2.1875 -3.265625 C 2.1875 -3.566406 2.15625 -3.78125 2.09375 -3.90625 C 2.03125 -4.039062 1.90625 -4.109375 1.71875 -4.109375 C 1.382812 -4.109375 1.21875 -3.882812 1.21875 -3.4375 L 1.21875 -3.203125 L 0.359375 -3.234375 C 0.367188 -3.753906 0.488281 -4.132812 0.71875 -4.375 C 0.945312 -4.625 1.300781 -4.75 1.78125 -4.75 C 2.226562 -4.75 2.550781 -4.625 2.75 -4.375 C 2.957031 -4.132812 3.0625 -3.765625 3.0625 -3.265625 L 3.0625 -1.125 C 3.0625 -0.769531 3.085938 -0.394531 3.140625 0 L 2.34375 0 C 2.28125 -0.3125 2.242188 -0.539062 2.234375 -0.6875 C 2.160156 -0.476562 2.046875 -0.300781 1.890625 -0.15625 C 1.734375 -0.0078125 1.53125 0.0625 1.28125 0.0625 Z M 1.625 -0.6875 C 1.738281 -0.6875 1.847656 -0.726562 1.953125 -0.8125 C 2.054688 -0.90625 2.132812 -0.992188 2.1875 -1.078125 L 2.1875 -2.40625 C 1.957031 -2.269531 1.773438 -2.15625 1.640625 -2.0625 C 1.515625 -1.96875 1.410156 -1.859375 1.328125 -1.734375 C 1.242188 -1.609375 1.203125 -1.460938 1.203125 -1.296875 C 1.203125 -1.097656 1.238281 -0.945312 1.3125 -0.84375 C 1.382812 -0.738281 1.488281 -0.6875 1.625 -0.6875 Z M 1.625 -0.6875 "/></g></g></g><g fill="#ffffff" fill-opacity="1"><g transform="translate(78.946958, 158.13074)"><g/></g></g><g fill="#ffffff" fill-opacity="1"><g transform="translate(81.623306, 158.13074)"><g><path d="M 1.28125 0.0625 C 1.101562 0.0625 0.941406 0.0078125 0.796875 -0.09375 C 0.648438 -0.195312 0.535156 -0.332031 0.453125 -0.5 C 0.378906 -0.664062 0.34375 -0.835938 0.34375 -1.015625 C 0.34375 -1.390625 0.421875 -1.691406 0.578125 -1.921875 C 0.734375 -2.148438 0.929688 -2.332031 1.171875 -2.46875 C 1.421875 -2.601562 1.757812 -2.753906 2.1875 -2.921875 L 2.1875 -3.265625 C 2.1875 -3.566406 2.15625 -3.78125 2.09375 -3.90625 C 2.03125 -4.039062 1.90625 -4.109375 1.71875 -4.109375 C 1.382812 -4.109375 1.21875 -3.882812 1.21875 -3.4375 L 1.21875 -3.203125 L 0.359375 -3.234375 C 0.367188 -3.753906 0.488281 -4.132812 0.71875 -4.375 C 0.945312 -4.625 1.300781 -4.75 1.78125 -4.75 C 2.226562 -4.75 2.550781 -4.625 2.75 -4.375 C 2.957031 -4.132812 3.0625 -3.765625 3.0625 -3.265625 L 3.0625 -1.125 C 3.0625 -0.769531 3.085938 -0.394531 3.140625 0 L 2.34375 0 C 2.28125 -0.3125 2.242188 -0.539062 2.234375 -0.6875 C 2.160156 -0.476562 2.046875 -0.300781 1.890625 -0.15625 C 1.734375 -0.0078125 1.53125 0.0625 1.28125 0.0625 Z M 1.625 -0.6875 C 1.738281 -0.6875 1.847656 -0.726562 1.953125 -0.8125 C 2.054688 -0.90625 2.132812 -0.992188 2.1875 -1.078125 L 2.1875 -2.40625 C 1.957031 -2.269531 1.773438 -2.15625 1.640625 -2.0625 C 1.515625 -1.96875 1.410156 -1.859375 1.328125 -1.734375 C 1.242188 -1.609375 1.203125 -1.460938 1.203125 -1.296875 C 1.203125 -1.097656 1.238281 -0.945312 1.3125 -0.84375 C 1.382812 -0.738281 1.488281 -0.6875 1.625 -0.6875 Z M 1.625 -0.6875 "/></g></g></g><g fill="#ffffff" fill-opacity="1"><g transform="translate(85.897355, 158.13074)"><g/></g></g><g fill="#ffffff" fill-opacity="1"><g transform="translate(88.573703, 158.13074)"><g><path d="M 1.109375 0.0625 C 0.859375 0.0625 0.675781 -0.0234375 0.5625 -0.203125 C 0.457031 -0.390625 0.40625 -0.617188 0.40625 -0.890625 L 0.40625 -4.6875 L 1.265625 -4.6875 L 1.265625 -1.15625 C 1.265625 -0.976562 1.289062 -0.84375 1.34375 -0.75 C 1.40625 -0.65625 1.503906 -0.609375 1.640625 -0.609375 C 1.816406 -0.609375 2.019531 -0.707031 2.25 -0.90625 L 2.25 -4.6875 L 3.125 -4.6875 L 3.125 0 L 2.25 0 L 2.25 -0.46875 C 1.875 -0.113281 1.492188 0.0625 1.109375 0.0625 Z M 1.109375 0.0625 "/></g></g></g><g fill="#ffffff" fill-opacity="1"><g transform="translate(92.961304, 158.13074)"><g><path d="M 0.4375 -4.6875 L 1.3125 -4.6875 L 1.3125 -4.21875 C 1.675781 -4.570312 2.054688 -4.75 2.453125 -4.75 C 2.703125 -4.75 2.878906 -4.65625 2.984375 -4.46875 C 3.097656 -4.289062 3.15625 -4.066406 3.15625 -3.796875 L 3.15625 0 L 2.28125 0 L 2.28125 -3.546875 C 2.28125 -3.722656 2.253906 -3.851562 2.203125 -3.9375 C 2.148438 -4.03125 2.050781 -4.078125 1.90625 -4.078125 C 1.738281 -4.078125 1.539062 -3.976562 1.3125 -3.78125 L 1.3125 0 L 0.4375 0 Z M 0.4375 -4.6875 "/></g></g></g><g fill="#ffffff" fill-opacity="1"><g transform="translate(97.340789, 158.13074)"><g/></g></g><g fill="#ffffff" fill-opacity="1"><g transform="translate(100.017136, 158.13074)"><g><path d="M 0.4375 -4.6875 L 1.3125 -4.6875 L 1.3125 -4.3125 C 1.5625 -4.601562 1.859375 -4.75 2.203125 -4.75 C 2.628906 -4.75 2.910156 -4.566406 3.046875 -4.203125 C 3.191406 -3.835938 3.265625 -3.4375 3.265625 -3 L 3.265625 -1.859375 C 3.265625 -1.285156 3.175781 -0.820312 3 -0.46875 C 2.820312 -0.113281 2.519531 0.0625 2.09375 0.0625 C 1.820312 0.0625 1.5625 -0.0703125 1.3125 -0.34375 L 1.3125 1.546875 L 0.4375 1.546875 Z M 1.9375 -0.609375 C 2.132812 -0.609375 2.257812 -0.707031 2.3125 -0.90625 C 2.375 -1.113281 2.40625 -1.429688 2.40625 -1.859375 L 2.40625 -3 C 2.40625 -3.34375 2.367188 -3.609375 2.296875 -3.796875 C 2.234375 -3.984375 2.097656 -4.078125 1.890625 -4.078125 C 1.691406 -4.078125 1.5 -3.992188 1.3125 -3.828125 L 1.3125 -0.828125 C 1.5 -0.679688 1.707031 -0.609375 1.9375 -0.609375 Z M 1.9375 -0.609375 "/></g></g></g><g fill="#ffffff" fill-opacity="1"><g transform="translate(104.453392, 158.13074)"><g><path d="M 1.28125 0.0625 C 1.101562 0.0625 0.941406 0.0078125 0.796875 -0.09375 C 0.648438 -0.195312 0.535156 -0.332031 0.453125 -0.5 C 0.378906 -0.664062 0.34375 -0.835938 0.34375 -1.015625 C 0.34375 -1.390625 0.421875 -1.691406 0.578125 -1.921875 C 0.734375 -2.148438 0.929688 -2.332031 1.171875 -2.46875 C 1.421875 -2.601562 1.757812 -2.753906 2.1875 -2.921875 L 2.1875 -3.265625 C 2.1875 -3.566406 2.15625 -3.78125 2.09375 -3.90625 C 2.03125 -4.039062 1.90625 -4.109375 1.71875 -4.109375 C 1.382812 -4.109375 1.21875 -3.882812 1.21875 -3.4375 L 1.21875 -3.203125 L 0.359375 -3.234375 C 0.367188 -3.753906 0.488281 -4.132812 0.71875 -4.375 C 0.945312 -4.625 1.300781 -4.75 1.78125 -4.75 C 2.226562 -4.75 2.550781 -4.625 2.75 -4.375 C 2.957031 -4.132812 3.0625 -3.765625 3.0625 -3.265625 L 3.0625 -1.125 C 3.0625 -0.769531 3.085938 -0.394531 3.140625 0 L 2.34375 0 C 2.28125 -0.3125 2.242188 -0.539062 2.234375 -0.6875 C 2.160156 -0.476562 2.046875 -0.300781 1.890625 -0.15625 C 1.734375 -0.0078125 1.53125 0.0625 1.28125 0.0625 Z M 1.625 -0.6875 C 1.738281 -0.6875 1.847656 -0.726562 1.953125 -0.8125 C 2.054688 -0.90625 2.132812 -0.992188 2.1875 -1.078125 L 2.1875 -2.40625 C 1.957031 -2.269531 1.773438 -2.15625 1.640625 -2.0625 C 1.515625 -1.96875 1.410156 -1.859375 1.328125 -1.734375 C 1.242188 -1.609375 1.203125 -1.460938 1.203125 -1.296875 C 1.203125 -1.097656 1.238281 -0.945312 1.3125 -0.84375 C 1.382812 -0.738281 1.488281 -0.6875 1.625 -0.6875 Z M 1.625 -0.6875 "/></g></g></g><g fill="#ffffff" fill-opacity="1"><g transform="translate(108.727442, 158.13074)"><g><path d="M 1.53125 0.0625 C 1.144531 0.0625 0.832031 -0.0546875 0.59375 -0.296875 C 0.363281 -0.535156 0.234375 -0.851562 0.203125 -1.25 L 0.921875 -1.46875 C 0.960938 -1.164062 1.035156 -0.941406 1.140625 -0.796875 C 1.253906 -0.648438 1.40625 -0.578125 1.59375 -0.578125 C 1.75 -0.578125 1.867188 -0.617188 1.953125 -0.703125 C 2.035156 -0.796875 2.078125 -0.921875 2.078125 -1.078125 C 2.078125 -1.203125 2.046875 -1.316406 1.984375 -1.421875 C 1.921875 -1.535156 1.820312 -1.648438 1.6875 -1.765625 L 0.890625 -2.453125 C 0.703125 -2.609375 0.554688 -2.773438 0.453125 -2.953125 C 0.359375 -3.128906 0.3125 -3.34375 0.3125 -3.59375 C 0.3125 -3.957031 0.421875 -4.238281 0.640625 -4.4375 C 0.859375 -4.644531 1.15625 -4.75 1.53125 -4.75 C 1.882812 -4.75 2.160156 -4.632812 2.359375 -4.40625 C 2.566406 -4.175781 2.6875 -3.878906 2.71875 -3.515625 L 2.125 -3.296875 C 2.09375 -3.566406 2.03125 -3.769531 1.9375 -3.90625 C 1.851562 -4.039062 1.726562 -4.109375 1.5625 -4.109375 C 1.414062 -4.109375 1.300781 -4.0625 1.21875 -3.96875 C 1.132812 -3.875 1.09375 -3.765625 1.09375 -3.640625 C 1.09375 -3.460938 1.171875 -3.300781 1.328125 -3.15625 L 2.15625 -2.40625 C 2.363281 -2.207031 2.523438 -2.015625 2.640625 -1.828125 C 2.765625 -1.640625 2.828125 -1.410156 2.828125 -1.140625 C 2.828125 -0.742188 2.707031 -0.441406 2.46875 -0.234375 C 2.238281 -0.0351562 1.925781 0.0625 1.53125 0.0625 Z M 1.53125 0.0625 "/></g></g></g><g fill="#ffffff" fill-opacity="1"><g transform="translate(112.57977, 158.13074)"><g><path d="M 1.734375 0.0625 C 1.234375 0.0625 0.878906 -0.0820312 0.671875 -0.375 C 0.460938 -0.664062 0.359375 -1.09375 0.359375 -1.65625 L 0.359375 -3.03125 C 0.359375 -3.59375 0.460938 -4.019531 0.671875 -4.3125 C 0.878906 -4.601562 1.234375 -4.75 1.734375 -4.75 C 2.222656 -4.75 2.570312 -4.601562 2.78125 -4.3125 C 2.988281 -4.019531 3.09375 -3.59375 3.09375 -3.03125 L 3.09375 -1.65625 C 3.09375 -1.09375 2.988281 -0.664062 2.78125 -0.375 C 2.570312 -0.0820312 2.222656 0.0625 1.734375 0.0625 Z M 1.734375 -0.578125 C 1.890625 -0.578125 2 -0.617188 2.0625 -0.703125 C 2.132812 -0.796875 2.175781 -0.910156 2.1875 -1.046875 C 2.207031 -1.179688 2.21875 -1.367188 2.21875 -1.609375 L 2.21875 -3.078125 C 2.21875 -3.304688 2.207031 -3.488281 2.1875 -3.625 C 2.175781 -3.757812 2.132812 -3.875 2.0625 -3.96875 C 2 -4.0625 1.890625 -4.109375 1.734375 -4.109375 C 1.566406 -4.109375 1.445312 -4.0625 1.375 -3.96875 C 1.300781 -3.875 1.253906 -3.757812 1.234375 -3.625 C 1.222656 -3.488281 1.21875 -3.304688 1.21875 -3.078125 L 1.21875 -1.609375 C 1.21875 -1.367188 1.222656 -1.179688 1.234375 -1.046875 C 1.253906 -0.910156 1.300781 -0.796875 1.375 -0.703125 C 1.445312 -0.617188 1.566406 -0.578125 1.734375 -0.578125 Z M 1.734375 -0.578125 "/></g></g></g><g fill="#ffffff" fill-opacity="1"><g transform="translate(116.845714, 158.13074)"><g/></g></g><g fill="#ffffff" fill-opacity="1"><g transform="translate(119.522062, 158.13074)"><g><path d="M 1.53125 0.0625 C 1.125 0.0625 0.820312 -0.0820312 0.625 -0.375 C 0.4375 -0.664062 0.34375 -1.15625 0.34375 -1.84375 L 0.34375 -2.75 C 0.34375 -3.375 0.425781 -3.863281 0.59375 -4.21875 C 0.757812 -4.570312 1.0625 -4.75 1.5 -4.75 C 1.769531 -4.75 2.03125 -4.628906 2.28125 -4.390625 L 2.28125 -6.5625 L 3.140625 -6.5625 L 3.140625 0 L 2.28125 0 L 2.28125 -0.296875 C 2.050781 -0.0546875 1.800781 0.0625 1.53125 0.0625 Z M 1.75 -0.609375 C 1.914062 -0.609375 2.09375 -0.671875 2.28125 -0.796875 L 2.28125 -3.875 C 2.082031 -4.007812 1.898438 -4.078125 1.734375 -4.078125 C 1.390625 -4.078125 1.21875 -3.75 1.21875 -3.09375 L 1.21875 -1.765625 C 1.21875 -1.390625 1.25 -1.101562 1.3125 -0.90625 C 1.382812 -0.707031 1.53125 -0.609375 1.75 -0.609375 Z M 1.75 -0.609375 "/></g></g></g><g fill="#ffffff" fill-opacity="1"><g transform="translate(123.925874, 158.13074)"><g><path d="M 1.734375 0.0625 C 1.367188 0.0625 1.085938 -0.00390625 0.890625 -0.140625 C 0.691406 -0.273438 0.550781 -0.476562 0.46875 -0.75 C 0.382812 -1.019531 0.34375 -1.375 0.34375 -1.8125 L 0.34375 -2.875 C 0.34375 -3.53125 0.441406 -4.003906 0.640625 -4.296875 C 0.847656 -4.597656 1.210938 -4.75 1.734375 -4.75 C 2.109375 -4.75 2.390625 -4.671875 2.578125 -4.515625 C 2.773438 -4.359375 2.90625 -4.140625 2.96875 -3.859375 C 3.03125 -3.578125 3.0625 -3.191406 3.0625 -2.703125 L 3.0625 -2.328125 L 1.21875 -2.328125 L 1.21875 -1.390625 C 1.21875 -1.097656 1.257812 -0.890625 1.34375 -0.765625 C 1.425781 -0.640625 1.5625 -0.578125 1.75 -0.578125 C 1.925781 -0.578125 2.046875 -0.640625 2.109375 -0.765625 C 2.179688 -0.890625 2.21875 -1.082031 2.21875 -1.34375 L 2.21875 -1.625 L 3.0625 -1.625 L 3.0625 -1.453125 C 3.0625 -0.960938 2.953125 -0.585938 2.734375 -0.328125 C 2.523438 -0.0664062 2.191406 0.0625 1.734375 0.0625 Z M 2.21875 -2.796875 L 2.21875 -3.21875 C 2.21875 -3.539062 2.1875 -3.769531 2.125 -3.90625 C 2.0625 -4.039062 1.929688 -4.109375 1.734375 -4.109375 C 1.585938 -4.109375 1.476562 -4.078125 1.40625 -4.015625 C 1.332031 -3.953125 1.28125 -3.84375 1.25 -3.6875 C 1.226562 -3.539062 1.21875 -3.328125 1.21875 -3.046875 L 1.21875 -2.796875 Z M 2.21875 -2.796875 "/></g></g></g><g fill="#ffffff" fill-opacity="1"><g transform="translate(128.159375, 158.13074)"><g/></g></g><g fill="#ffffff" fill-opacity="1"><g transform="translate(130.835722, 158.13074)"><g><path d="M 1.53125 0.0625 C 1.125 0.0625 0.820312 -0.0820312 0.625 -0.375 C 0.4375 -0.664062 0.34375 -1.15625 0.34375 -1.84375 L 0.34375 -2.75 C 0.34375 -3.375 0.425781 -3.863281 0.59375 -4.21875 C 0.757812 -4.570312 1.0625 -4.75 1.5 -4.75 C 1.769531 -4.75 2.03125 -4.628906 2.28125 -4.390625 L 2.28125 -6.5625 L 3.140625 -6.5625 L 3.140625 0 L 2.28125 0 L 2.28125 -0.296875 C 2.050781 -0.0546875 1.800781 0.0625 1.53125 0.0625 Z M 1.75 -0.609375 C 1.914062 -0.609375 2.09375 -0.671875 2.28125 -0.796875 L 2.28125 -3.875 C 2.082031 -4.007812 1.898438 -4.078125 1.734375 -4.078125 C 1.390625 -4.078125 1.21875 -3.75 1.21875 -3.09375 L 1.21875 -1.765625 C 1.21875 -1.390625 1.25 -1.101562 1.3125 -0.90625 C 1.382812 -0.707031 1.53125 -0.609375 1.75 -0.609375 Z M 1.75 -0.609375 "/></g></g></g><g fill="#ffffff" fill-opacity="1"><g transform="translate(135.239535, 158.13074)"><g><path d="M 0.5 -6.296875 L 1.359375 -6.296875 L 1.359375 -5.390625 L 0.5 -5.390625 Z M 0.5 -4.6875 L 1.359375 -4.6875 L 1.359375 0 L 0.5 0 Z M 0.5 -4.6875 "/></g></g></g><g fill="#ffffff" fill-opacity="1"><g transform="translate(137.915882, 158.13074)"><g><path d="M 1.53125 0.0625 C 1.144531 0.0625 0.832031 -0.0546875 0.59375 -0.296875 C 0.363281 -0.535156 0.234375 -0.851562 0.203125 -1.25 L 0.921875 -1.46875 C 0.960938 -1.164062 1.035156 -0.941406 1.140625 -0.796875 C 1.253906 -0.648438 1.40625 -0.578125 1.59375 -0.578125 C 1.75 -0.578125 1.867188 -0.617188 1.953125 -0.703125 C 2.035156 -0.796875 2.078125 -0.921875 2.078125 -1.078125 C 2.078125 -1.203125 2.046875 -1.316406 1.984375 -1.421875 C 1.921875 -1.535156 1.820312 -1.648438 1.6875 -1.765625 L 0.890625 -2.453125 C 0.703125 -2.609375 0.554688 -2.773438 0.453125 -2.953125 C 0.359375 -3.128906 0.3125 -3.34375 0.3125 -3.59375 C 0.3125 -3.957031 0.421875 -4.238281 0.640625 -4.4375 C 0.859375 -4.644531 1.15625 -4.75 1.53125 -4.75 C 1.882812 -4.75 2.160156 -4.632812 2.359375 -4.40625 C 2.566406 -4.175781 2.6875 -3.878906 2.71875 -3.515625 L 2.125 -3.296875 C 2.09375 -3.566406 2.03125 -3.769531 1.9375 -3.90625 C 1.851562 -4.039062 1.726562 -4.109375 1.5625 -4.109375 C 1.414062 -4.109375 1.300781 -4.0625 1.21875 -3.96875 C 1.132812 -3.875 1.09375 -3.765625 1.09375 -3.640625 C 1.09375 -3.460938 1.171875 -3.300781 1.328125 -3.15625 L 2.15625 -2.40625 C 2.363281 -2.207031 2.523438 -2.015625 2.640625 -1.828125 C 2.765625 -1.640625 2.828125 -1.410156 2.828125 -1.140625 C 2.828125 -0.742188 2.707031 -0.441406 2.46875 -0.234375 C 2.238281 -0.0351562 1.925781 0.0625 1.53125 0.0625 Z M 1.53125 0.0625 "/></g></g></g><g fill="#ffffff" fill-opacity="1"><g transform="translate(141.768211, 158.13074)"><g><path d="M 1.6875 0.0625 C 1.007812 0.0625 0.671875 -0.304688 0.671875 -1.046875 L 0.671875 -4.109375 L 0.171875 -4.109375 L 0.171875 -4.6875 L 0.671875 -4.6875 L 0.671875 -6.0625 L 1.546875 -6.0625 L 1.546875 -4.6875 L 2.296875 -4.6875 L 2.296875 -4.109375 L 1.546875 -4.109375 L 1.546875 -1.109375 C 1.546875 -0.921875 1.570312 -0.785156 1.625 -0.703125 C 1.6875 -0.628906 1.800781 -0.59375 1.96875 -0.59375 C 2.070312 -0.59375 2.175781 -0.601562 2.28125 -0.625 L 2.28125 0.015625 C 2.070312 0.046875 1.875 0.0625 1.6875 0.0625 Z M 1.6875 0.0625 "/></g></g></g><g fill="#ffffff" fill-opacity="1"><g transform="translate(145.085272, 158.13074)"><g><path d="M 1.28125 0.0625 C 1.101562 0.0625 0.941406 0.0078125 0.796875 -0.09375 C 0.648438 -0.195312 0.535156 -0.332031 0.453125 -0.5 C 0.378906 -0.664062 0.34375 -0.835938 0.34375 -1.015625 C 0.34375 -1.390625 0.421875 -1.691406 0.578125 -1.921875 C 0.734375 -2.148438 0.929688 -2.332031 1.171875 -2.46875 C 1.421875 -2.601562 1.757812 -2.753906 2.1875 -2.921875 L 2.1875 -3.265625 C 2.1875 -3.566406 2.15625 -3.78125 2.09375 -3.90625 C 2.03125 -4.039062 1.90625 -4.109375 1.71875 -4.109375 C 1.382812 -4.109375 1.21875 -3.882812 1.21875 -3.4375 L 1.21875 -3.203125 L 0.359375 -3.234375 C 0.367188 -3.753906 0.488281 -4.132812 0.71875 -4.375 C 0.945312 -4.625 1.300781 -4.75 1.78125 -4.75 C 2.226562 -4.75 2.550781 -4.625 2.75 -4.375 C 2.957031 -4.132812 3.0625 -3.765625 3.0625 -3.265625 L 3.0625 -1.125 C 3.0625 -0.769531 3.085938 -0.394531 3.140625 0 L 2.34375 0 C 2.28125 -0.3125 2.242188 -0.539062 2.234375 -0.6875 C 2.160156 -0.476562 2.046875 -0.300781 1.890625 -0.15625 C 1.734375 -0.0078125 1.53125 0.0625 1.28125 0.0625 Z M 1.625 -0.6875 C 1.738281 -0.6875 1.847656 -0.726562 1.953125 -0.8125 C 2.054688 -0.90625 2.132812 -0.992188 2.1875 -1.078125 L 2.1875 -2.40625 C 1.957031 -2.269531 1.773438 -2.15625 1.640625 -2.0625 C 1.515625 -1.96875 1.410156 -1.859375 1.328125 -1.734375 C 1.242188 -1.609375 1.203125 -1.460938 1.203125 -1.296875 C 1.203125 -1.097656 1.238281 -0.945312 1.3125 -0.84375 C 1.382812 -0.738281 1.488281 -0.6875 1.625 -0.6875 Z M 1.625 -0.6875 "/></g></g></g><g fill="#ffffff" fill-opacity="1"><g transform="translate(149.359326, 158.13074)"><g><path d="M 0.4375 -4.6875 L 1.3125 -4.6875 L 1.3125 -4.21875 C 1.675781 -4.570312 2.054688 -4.75 2.453125 -4.75 C 2.703125 -4.75 2.878906 -4.65625 2.984375 -4.46875 C 3.097656 -4.289062 3.15625 -4.066406 3.15625 -3.796875 L 3.15625 0 L 2.28125 0 L 2.28125 -3.546875 C 2.28125 -3.722656 2.253906 -3.851562 2.203125 -3.9375 C 2.148438 -4.03125 2.050781 -4.078125 1.90625 -4.078125 C 1.738281 -4.078125 1.539062 -3.976562 1.3125 -3.78125 L 1.3125 0 L 0.4375 0 Z M 0.4375 -4.6875 "/></g></g></g><g fill="#ffffff" fill-opacity="1"><g transform="translate(153.738816, 158.13074)"><g><path d="M 1.71875 0.0625 C 1.351562 0.0625 1.066406 -0.0078125 0.859375 -0.15625 C 0.660156 -0.300781 0.523438 -0.507812 0.453125 -0.78125 C 0.378906 -1.050781 0.34375 -1.390625 0.34375 -1.796875 L 0.34375 -2.875 C 0.34375 -3.300781 0.378906 -3.648438 0.453125 -3.921875 C 0.523438 -4.191406 0.660156 -4.394531 0.859375 -4.53125 C 1.066406 -4.675781 1.351562 -4.75 1.71875 -4.75 C 2.050781 -4.75 2.3125 -4.691406 2.5 -4.578125 C 2.6875 -4.472656 2.816406 -4.3125 2.890625 -4.09375 C 2.960938 -3.882812 3 -3.613281 3 -3.28125 L 3 -3 L 2.21875 -3 L 2.21875 -3.28125 C 2.21875 -3.59375 2.179688 -3.804688 2.109375 -3.921875 C 2.046875 -4.046875 1.921875 -4.109375 1.734375 -4.109375 C 1.585938 -4.109375 1.476562 -4.078125 1.40625 -4.015625 C 1.332031 -3.953125 1.28125 -3.847656 1.25 -3.703125 C 1.226562 -3.554688 1.21875 -3.34375 1.21875 -3.0625 L 1.21875 -1.578125 C 1.21875 -1.304688 1.234375 -1.097656 1.265625 -0.953125 C 1.296875 -0.816406 1.347656 -0.71875 1.421875 -0.65625 C 1.492188 -0.601562 1.597656 -0.578125 1.734375 -0.578125 C 1.929688 -0.578125 2.0625 -0.640625 2.125 -0.765625 C 2.1875 -0.898438 2.21875 -1.109375 2.21875 -1.390625 L 2.21875 -1.765625 L 3 -1.765625 L 3 -1.4375 C 3 -0.9375 2.90625 -0.5625 2.71875 -0.3125 C 2.53125 -0.0625 2.195312 0.0625 1.71875 0.0625 Z M 1.71875 0.0625 "/></g></g></g><g fill="#ffffff" fill-opacity="1"><g transform="translate(157.891224, 158.13074)"><g><path d="M 0.5 -6.296875 L 1.359375 -6.296875 L 1.359375 -5.390625 L 0.5 -5.390625 Z M 0.5 -4.6875 L 1.359375 -4.6875 L 1.359375 0 L 0.5 0 Z M 0.5 -4.6875 "/></g></g></g><g fill="#ffffff" fill-opacity="1"><g transform="translate(160.567577, 158.13074)"><g><path d="M 1.28125 0.0625 C 1.101562 0.0625 0.941406 0.0078125 0.796875 -0.09375 C 0.648438 -0.195312 0.535156 -0.332031 0.453125 -0.5 C 0.378906 -0.664062 0.34375 -0.835938 0.34375 -1.015625 C 0.34375 -1.390625 0.421875 -1.691406 0.578125 -1.921875 C 0.734375 -2.148438 0.929688 -2.332031 1.171875 -2.46875 C 1.421875 -2.601562 1.757812 -2.753906 2.1875 -2.921875 L 2.1875 -3.265625 C 2.1875 -3.566406 2.15625 -3.78125 2.09375 -3.90625 C 2.03125 -4.039062 1.90625 -4.109375 1.71875 -4.109375 C 1.382812 -4.109375 1.21875 -3.882812 1.21875 -3.4375 L 1.21875 -3.203125 L 0.359375 -3.234375 C 0.367188 -3.753906 0.488281 -4.132812 0.71875 -4.375 C 0.945312 -4.625 1.300781 -4.75 1.78125 -4.75 C 2.226562 -4.75 2.550781 -4.625 2.75 -4.375 C 2.957031 -4.132812 3.0625 -3.765625 3.0625 -3.265625 L 3.0625 -1.125 C 3.0625 -0.769531 3.085938 -0.394531 3.140625 0 L 2.34375 0 C 2.28125 -0.3125 2.242188 -0.539062 2.234375 -0.6875 C 2.160156 -0.476562 2.046875 -0.300781 1.890625 -0.15625 C 1.734375 -0.0078125 1.53125 0.0625 1.28125 0.0625 Z M 1.625 -0.6875 C 1.738281 -0.6875 1.847656 -0.726562 1.953125 -0.8125 C 2.054688 -0.90625 2.132812 -0.992188 2.1875 -1.078125 L 2.1875 -2.40625 C 1.957031 -2.269531 1.773438 -2.15625 1.640625 -2.0625 C 1.515625 -1.96875 1.410156 -1.859375 1.328125 -1.734375 C 1.242188 -1.609375 1.203125 -1.460938 1.203125 -1.296875 C 1.203125 -1.097656 1.238281 -0.945312 1.3125 -0.84375 C 1.382812 -0.738281 1.488281 -0.6875 1.625 -0.6875 Z M 1.625 -0.6875 "/></g></g></g></svg>