<svg width="30" height="30" viewBox="0 0 30 30" fill="none" xmlns="http://www.w3.org/2000/svg">
<g clip-path="url(#clip0_399_928)">
<mask id="mask0_399_928" style="mask-type:luminance" maskUnits="userSpaceOnUse" x="0" y="0" width="30" height="30">
<path d="M30 0H0V30H30V0Z" fill="white"/>
</mask>
<g mask="url(#mask0_399_928)">
<path d="M30 15C30 6.71581 23.2842 0 15 0C6.71581 0 0 6.71581 0 15C0 22.0344 4.8432 27.9372 11.3766 29.5584V19.584H8.28363V15H11.3766V13.0248C11.3766 7.91938 13.6872 5.553 18.6996 5.553C19.65 5.553 21.2898 5.7396 21.9606 5.9256V10.0806C21.6066 10.0434 20.9916 10.0248 20.2278 10.0248C17.7684 10.0248 16.818 10.9566 16.818 13.3788V15H21.7176L20.8758 19.584H16.818V29.8902C24.2454 28.9932 30 22.6692 30 15Z" fill="#0866FF"/>
<path d="M20.8751 19.584L21.717 15H16.8173V13.3788C16.8173 10.9566 17.7678 10.0248 20.2271 10.0248C20.991 10.0248 21.606 10.0434 21.96 10.0806V5.9256C21.2891 5.739 19.6493 5.553 18.699 5.553C13.6866 5.553 11.376 7.91938 11.376 13.0248V15H8.28296V19.584H11.376V29.5584C12.5363 29.8464 13.7501 30 14.9993 30C15.6143 30 16.221 29.9622 16.8168 29.8902V19.584H20.8751Z" fill="white"/>
</g>
</g>
<defs>
<clipPath id="clip0_399_928">
<rect width="30" height="30" fill="white"/>
</clipPath>
</defs>
</svg>
