<svg xmlns="http://www.w3.org/2000/svg" xmlns:xlink="http://www.w3.org/1999/xlink" width="1920" zoomAndPan="magnify" viewBox="0 0 1440 1439.999935" height="1920" preserveAspectRatio="xMidYMid meet" version="1.0"><path fill="#4285f4" d="M 1422.839844 733.472656 C 1422.839844 674.476562 1418.054688 631.421875 1407.695312 586.777344 L 734.015625 586.777344 L 734.015625 853.058594 L 1129.449219 853.058594 C 1121.480469 919.230469 1078.429688 1018.886719 982.757812 1085.851562 L 981.414062 1094.769531 L 1194.417969 1259.78125 L 1209.175781 1261.253906 C 1344.707031 1136.082031 1422.839844 951.917969 1422.839844 733.472656 " fill-opacity="1" fill-rule="nonzero"/><path fill="#34a853" d="M 734.015625 1435.054688 C 927.746094 1435.054688 1090.382812 1371.269531 1209.175781 1261.253906 L 982.757812 1085.851562 C 922.167969 1128.109375 840.84375 1157.605469 734.015625 1157.605469 C 544.269531 1157.605469 383.226562 1032.441406 325.820312 859.4375 L 317.40625 860.152344 L 95.917969 1031.5625 L 93.023438 1039.613281 C 211.015625 1274.003906 453.378906 1435.054688 734.015625 1435.054688 " fill-opacity="1" fill-rule="nonzero"/><path fill="#fbbc05" d="M 325.820312 859.4375 C 310.671875 814.792969 301.90625 766.953125 301.90625 717.527344 C 301.90625 668.09375 310.671875 620.261719 325.023438 575.613281 L 324.621094 566.105469 L 100.359375 391.945312 L 93.023438 395.433594 C 44.394531 492.699219 16.488281 601.925781 16.488281 717.527344 C 16.488281 833.128906 44.394531 942.347656 93.023438 1039.613281 L 325.820312 859.4375 " fill-opacity="1" fill-rule="nonzero"/><path fill="#eb4335" d="M 734.015625 277.441406 C 868.75 277.441406 959.632812 335.640625 1011.457031 384.277344 L 1213.957031 186.558594 C 1089.589844 70.957031 927.746094 0 734.015625 0 C 453.378906 0 211.015625 161.042969 93.023438 395.433594 L 325.023438 575.613281 C 383.226562 402.613281 544.269531 277.441406 734.015625 277.441406 " fill-opacity="1" fill-rule="nonzero"/></svg>