<svg width="30" height="30" viewBox="0 0 30 30" fill="none" xmlns="http://www.w3.org/2000/svg">
<path fill-rule="evenodd" clip-rule="evenodd" d="M25.9926 17.1524C25.9926 16.7067 25.6308 16.3451 25.1853 16.3451H17.1523C16.7066 16.3451 16.345 16.7069 16.345 17.1524V25.1855C16.345 25.6312 16.7068 25.9928 17.1523 25.9928H25.1853C25.6311 25.9928 25.9926 25.631 25.9926 25.1855V17.1524ZM17.9596 17.9597V24.3778H24.3777V17.9597H17.9596Z" fill="#14213D"/>
<path fill-rule="evenodd" clip-rule="evenodd" d="M14.6599 17.1524C14.6599 16.7067 14.2981 16.3451 13.8526 16.3451H5.81951C5.37299 16.3451 5.01221 16.7069 5.01221 17.1524V25.1855C5.01221 25.6312 5.3732 25.9928 5.81951 25.9928H13.8526C14.2983 25.9928 14.6599 25.631 14.6599 25.1855V17.1524ZM6.62682 17.9597V24.3778H13.045V17.9597H6.62682Z" fill="#14213D"/>
<path fill-rule="evenodd" clip-rule="evenodd" d="M25.9926 5.80731C25.9926 5.36158 25.6308 5 25.1853 5H17.1523C16.7066 5 16.345 5.36179 16.345 5.80731V13.8404C16.345 14.2861 16.7068 14.6477 17.1523 14.6477H25.1853C25.6311 14.6477 25.9926 14.2859 25.9926 13.8404V5.80731ZM17.9596 6.61461V13.0327H24.3777V6.61461H17.9596Z" fill="#14213D"/>
<path fill-rule="evenodd" clip-rule="evenodd" d="M5.80731 10.6315H13.8404C14.2861 10.6315 14.6477 10.2689 14.6477 9.82415C14.6477 9.37843 14.2859 9.01685 13.8404 9.01685H5.80731C5.36158 9.01685 5 9.37864 5 9.82415C5 10.2691 5.36179 10.6315 5.80731 10.6315Z" fill="#14213D"/>
<path fill-rule="evenodd" clip-rule="evenodd" d="M10.6315 13.8404V5.80731C10.6315 5.36158 10.2689 5 9.82415 5C9.37843 5 9.01685 5.36179 9.01685 5.80731V13.8404C9.01685 14.2861 9.37864 14.6477 9.82415 14.6477C10.2691 14.6477 10.6315 14.2859 10.6315 13.8404Z" fill="#14213D"/>
</svg>
