<svg width="30" height="30" viewBox="0 0 30 30" fill="none" xmlns="http://www.w3.org/2000/svg">
<g clip-path="url(#clip0_6_13)">
<path d="M9.7 20.3C8.3375 18.95 7.5 17.075 7.5 15C7.5 12.925 8.3375 11.05 9.7 9.69998L11.475 11.475C10.5625 12.375 10 13.625 10 15C10 16.375 10.5625 17.625 11.4625 18.5375L9.7 20.3ZM20.3 20.3C21.6625 18.95 22.5 17.075 22.5 15C22.5 12.925 21.6625 11.05 20.3 9.69998L18.525 11.475C19.4375 12.375 20 13.625 20 15C20 16.375 19.4375 17.625 18.5375 18.5375L20.3 20.3ZM15 12.5C13.625 12.5 12.5 13.625 12.5 15C12.5 16.375 13.625 22.5842 15 22.5842C16.375 22.5842 17.5 16.375 17.5 15C17.5 13.625 16.375 12.5 15 12.5ZM25 15C25 17.7625 23.875 20.2625 22.0625 22.0625L23.8375 23.8375C26.1 21.575 27.5 18.45 27.5 15C27.5 11.55 26.1 8.42498 23.8375 6.16248L22.0625 7.93748C23.875 9.73748 25 12.2375 25 15ZM7.9375 7.93748L6.1625 6.16248C3.9 8.42498 2.5 11.55 2.5 15C2.5 18.45 3.9 21.575 6.1625 23.8375L7.9375 22.0625C6.125 20.2625 5 17.7625 5 15C5 12.2375 6.125 9.73748 7.9375 7.93748Z" fill="#14213D"/>
</g>
<defs>
<clipPath id="clip0_6_13">
<rect width="30" height="30" fill="white"/>
</clipPath>
</defs>
</svg>
