<svg width="30" height="30" viewBox="0 0 30 30" fill="none" xmlns="http://www.w3.org/2000/svg">
<mask id="mask0_5_6" style="mask-type:luminance" maskUnits="userSpaceOnUse" x="3" y="3" width="24" height="24">
<path d="M3.70789 3.70789H26.1903V26.2166H3.70789V3.70789Z" fill="white"/>
</mask>
<g mask="url(#mask0_5_6)">
<path d="M4.75133 14.9682C4.75133 9.33524 9.32867 4.75237 14.9552 4.75237C15.7439 4.75237 16.512 4.84265 17.2502 5.01328L17.9446 4.10794C16.9827 3.84408 15.9793 3.70789 14.9552 3.70789C11.951 3.70789 9.12627 4.87917 7.00204 7.00606C4.8778 9.13261 3.70789 11.9606 3.70789 14.9682C3.70789 17.9759 4.8778 20.8039 7.00204 22.9304C7.88095 23.8106 8.87974 24.5267 9.96141 25.0639L10.3396 24.0783C7.02601 22.3885 4.75133 18.9393 4.75133 14.9682ZM22.908 7.00606C22.0292 6.12595 21.0305 5.40985 19.9488 4.87256L19.5706 5.85826C22.884 7.54805 25.159 10.9972 25.159 14.9682C25.159 20.6013 20.5815 25.1841 14.9552 25.1841C14.1663 25.1841 13.3982 25.0939 12.66 24.9232L11.9656 25.8286C12.9275 26.0924 13.9309 26.2286 14.9552 26.2286C17.9592 26.2286 20.7839 25.0573 22.908 22.9304C25.0324 20.8039 26.2023 17.9759 26.2023 14.9682C26.2023 11.9606 25.0324 9.13261 22.908 7.00606Z" fill="#14213D"/>
</g>
<path d="M20.2552 13.3118H15.591L18.9889 4.46155L9.65491 16.6247H14.3191L10.9212 25.475L20.2552 13.3118Z" fill="#14213D"/>
</svg>
