<svg width="360" height="330" viewBox="0 0 360 330" fill="none" xmlns="http://www.w3.org/2000/svg">
<g filter="url(#filter0_dd_259_1662)">
<rect x="7" y="7" width="346" height="308" rx="12" fill="white"/>
<path d="M37.0001 266.948V150.239V47.3625H343V187.413V266.948H37.0001Z" fill="#F9F9F9"/>
<path d="M342.253 164.546C334.825 196.304 313.769 255.879 288.966 240.109C257.963 220.397 269.589 85.6973 236.649 56.9505C210.296 33.953 191.436 96.1009 185.3 130.05C183.362 138.263 177.247 167.199 159.568 170.069C149.305 171.735 131.43 174.846 128.871 193.444C122.886 236.951 70.7184 234.862 70.7184 193.444C70.7184 148.486 46.8053 132.787 40.3464 130.05" stroke="url(#paint0_linear_259_1662)" stroke-width="2"/>
<path d="M288.446 239.887C313.249 255.656 334.305 196.082 341.733 164.324L341.733 277.984L39.8264 277.984L39.8264 129.827C46.2854 132.565 70.1984 148.264 70.1984 193.221C70.1984 234.639 122.366 236.728 128.351 193.221C130.91 174.623 148.785 171.513 159.048 169.847C176.727 166.976 182.842 138.041 184.78 129.827C190.916 95.8786 209.776 33.7307 236.129 56.7282C269.069 85.475 257.443 220.175 288.446 239.887Z" fill="url(#paint1_linear_259_1662)"/>
<line x1="226.756" y1="54.3376" x2="226.756" y2="278" stroke="url(#paint2_linear_259_1662)"/>
<g filter="url(#filter1_d_259_1662)">
<ellipse cx="226.672" cy="50.9331" rx="4.93936" ry="4.93306" fill="#39A826"/>
<path d="M231.111 50.9331C231.111 53.3808 229.124 55.3661 226.672 55.3661C224.219 55.3661 222.232 53.3808 222.232 50.9331C222.232 48.4853 224.219 46.5 226.672 46.5C229.124 46.5 231.111 48.4853 231.111 50.9331Z" stroke="white"/>
</g>
<rect x="62" y="282" width="39" height="23" rx="10" fill="white"/>
<path d="M69.7723 290.75V289.71H71.8523V297H70.7023V290.75H69.7723ZM78.0384 290.59L75.2584 297H74.1084L76.9184 290.71H73.2184V289.74H78.0384V290.59ZM79.6241 297.07C79.4174 297.07 79.2441 297 79.1041 296.86C78.9641 296.72 78.8941 296.547 78.8941 296.34C78.8941 296.133 78.9641 295.96 79.1041 295.82C79.2441 295.68 79.4174 295.61 79.6241 295.61C79.8241 295.61 79.9941 295.68 80.1341 295.82C80.2741 295.96 80.3441 296.133 80.3441 296.34C80.3441 296.547 80.2741 296.72 80.1341 296.86C79.9941 297 79.8241 297.07 79.6241 297.07ZM79.6241 292.87C79.4174 292.87 79.2441 292.8 79.1041 292.66C78.9641 292.52 78.8941 292.347 78.8941 292.14C78.8941 291.933 78.9641 291.76 79.1041 291.62C79.2441 291.48 79.4174 291.41 79.6241 291.41C79.8241 291.41 79.9941 291.48 80.1341 291.62C80.2741 291.76 80.3441 291.933 80.3441 292.14C80.3441 292.347 80.2741 292.52 80.1341 292.66C79.9941 292.8 79.8241 292.87 79.6241 292.87ZM81.4652 293.26C81.4652 292.107 81.6586 291.207 82.0452 290.56C82.4386 289.907 83.1119 289.58 84.0652 289.58C85.0186 289.58 85.6886 289.907 86.0752 290.56C86.4686 291.207 86.6652 292.107 86.6652 293.26C86.6652 294.427 86.4686 295.34 86.0752 296C85.6886 296.653 85.0186 296.98 84.0652 296.98C83.1119 296.98 82.4386 296.653 82.0452 296C81.6586 295.34 81.4652 294.427 81.4652 293.26ZM85.5452 293.26C85.5452 292.72 85.5086 292.263 85.4352 291.89C85.3686 291.517 85.2286 291.213 85.0152 290.98C84.8019 290.74 84.4852 290.62 84.0652 290.62C83.6452 290.62 83.3286 290.74 83.1152 290.98C82.9019 291.213 82.7586 291.517 82.6852 291.89C82.6186 292.263 82.5852 292.72 82.5852 293.26C82.5852 293.82 82.6186 294.29 82.6852 294.67C82.7519 295.05 82.8919 295.357 83.1052 295.59C83.3252 295.823 83.6452 295.94 84.0652 295.94C84.4852 295.94 84.8019 295.823 85.0152 295.59C85.2352 295.357 85.3786 295.05 85.4452 294.67C85.5119 294.29 85.5452 293.82 85.5452 293.26ZM87.8715 293.26C87.8715 292.107 88.0648 291.207 88.4515 290.56C88.8448 289.907 89.5182 289.58 90.4715 289.58C91.4248 289.58 92.0948 289.907 92.4815 290.56C92.8748 291.207 93.0715 292.107 93.0715 293.26C93.0715 294.427 92.8748 295.34 92.4815 296C92.0948 296.653 91.4248 296.98 90.4715 296.98C89.5182 296.98 88.8448 296.653 88.4515 296C88.0648 295.34 87.8715 294.427 87.8715 293.26ZM91.9515 293.26C91.9515 292.72 91.9148 292.263 91.8415 291.89C91.7748 291.517 91.6348 291.213 91.4215 290.98C91.2082 290.74 90.8915 290.62 90.4715 290.62C90.0515 290.62 89.7348 290.74 89.5215 290.98C89.3082 291.213 89.1648 291.517 89.0915 291.89C89.0248 292.263 88.9915 292.72 88.9915 293.26C88.9915 293.82 89.0248 294.29 89.0915 294.67C89.1582 295.05 89.2982 295.357 89.5115 295.59C89.7315 295.823 90.0515 295.94 90.4715 295.94C90.8915 295.94 91.2082 295.823 91.4215 295.59C91.6415 295.357 91.7848 295.05 91.8515 294.67C91.9182 294.29 91.9515 293.82 91.9515 293.26Z" fill="#999999" fill-opacity="0.75"/>
<rect x="126" y="282" width="40" height="23" rx="10" fill="white"/>
<path d="M133.882 290.75V289.71H135.962V297H134.812V290.75H133.882ZM138.758 293.19C138.064 292.843 137.718 292.297 137.718 291.55C137.718 291.19 137.808 290.86 137.988 290.56C138.168 290.26 138.438 290.023 138.798 289.85C139.158 289.67 139.598 289.58 140.118 289.58C140.631 289.58 141.068 289.67 141.428 289.85C141.794 290.023 142.068 290.26 142.248 290.56C142.428 290.86 142.518 291.19 142.518 291.55C142.518 291.923 142.421 292.253 142.228 292.54C142.041 292.82 141.791 293.037 141.478 293.19C141.858 293.33 142.158 293.56 142.378 293.88C142.598 294.193 142.708 294.563 142.708 294.99C142.708 295.423 142.598 295.807 142.378 296.14C142.158 296.473 141.851 296.73 141.458 296.91C141.064 297.09 140.618 297.18 140.118 297.18C139.618 297.18 139.171 297.09 138.778 296.91C138.391 296.73 138.088 296.473 137.868 296.14C137.648 295.807 137.538 295.423 137.538 294.99C137.538 294.557 137.648 294.183 137.868 293.87C138.088 293.557 138.384 293.33 138.758 293.19ZM141.428 291.69C141.428 291.317 141.311 291.03 141.078 290.83C140.844 290.63 140.524 290.53 140.118 290.53C139.718 290.53 139.401 290.63 139.168 290.83C138.934 291.03 138.818 291.32 138.818 291.7C138.818 292.033 138.938 292.307 139.178 292.52C139.424 292.727 139.738 292.83 140.118 292.83C140.498 292.83 140.811 292.723 141.058 292.51C141.304 292.297 141.428 292.023 141.428 291.69ZM140.118 293.69C139.678 293.69 139.318 293.8 139.038 294.02C138.764 294.233 138.628 294.543 138.628 294.95C138.628 295.33 138.761 295.64 139.028 295.88C139.294 296.113 139.658 296.23 140.118 296.23C140.571 296.23 140.928 296.11 141.188 295.87C141.454 295.63 141.588 295.323 141.588 294.95C141.588 294.55 141.451 294.24 141.178 294.02C140.911 293.8 140.558 293.69 140.118 293.69ZM144.515 297.07C144.308 297.07 144.135 297 143.995 296.86C143.855 296.72 143.785 296.547 143.785 296.34C143.785 296.133 143.855 295.96 143.995 295.82C144.135 295.68 144.308 295.61 144.515 295.61C144.715 295.61 144.885 295.68 145.025 295.82C145.165 295.96 145.235 296.133 145.235 296.34C145.235 296.547 145.165 296.72 145.025 296.86C144.885 297 144.715 297.07 144.515 297.07ZM144.515 292.87C144.308 292.87 144.135 292.8 143.995 292.66C143.855 292.52 143.785 292.347 143.785 292.14C143.785 291.933 143.855 291.76 143.995 291.62C144.135 291.48 144.308 291.41 144.515 291.41C144.715 291.41 144.885 291.48 145.025 291.62C145.165 291.76 145.235 291.933 145.235 292.14C145.235 292.347 145.165 292.52 145.025 292.66C144.885 292.8 144.715 292.87 144.515 292.87ZM146.356 293.26C146.356 292.107 146.549 291.207 146.936 290.56C147.329 289.907 148.003 289.58 148.956 289.58C149.909 289.58 150.579 289.907 150.966 290.56C151.359 291.207 151.556 292.107 151.556 293.26C151.556 294.427 151.359 295.34 150.966 296C150.579 296.653 149.909 296.98 148.956 296.98C148.003 296.98 147.329 296.653 146.936 296C146.549 295.34 146.356 294.427 146.356 293.26ZM150.436 293.26C150.436 292.72 150.399 292.263 150.326 291.89C150.259 291.517 150.119 291.213 149.906 290.98C149.693 290.74 149.376 290.62 148.956 290.62C148.536 290.62 148.219 290.74 148.006 290.98C147.793 291.213 147.649 291.517 147.576 291.89C147.509 292.263 147.476 292.72 147.476 293.26C147.476 293.82 147.509 294.29 147.576 294.67C147.643 295.05 147.783 295.357 147.996 295.59C148.216 295.823 148.536 295.94 148.956 295.94C149.376 295.94 149.693 295.823 149.906 295.59C150.126 295.357 150.269 295.05 150.336 294.67C150.403 294.29 150.436 293.82 150.436 293.26ZM152.762 293.26C152.762 292.107 152.955 291.207 153.342 290.56C153.735 289.907 154.409 289.58 155.362 289.58C156.315 289.58 156.985 289.907 157.372 290.56C157.765 291.207 157.962 292.107 157.962 293.26C157.962 294.427 157.765 295.34 157.372 296C156.985 296.653 156.315 296.98 155.362 296.98C154.409 296.98 153.735 296.653 153.342 296C152.955 295.34 152.762 294.427 152.762 293.26ZM156.842 293.26C156.842 292.72 156.805 292.263 156.732 291.89C156.665 291.517 156.525 291.213 156.312 290.98C156.099 290.74 155.782 290.62 155.362 290.62C154.942 290.62 154.625 290.74 154.412 290.98C154.199 291.213 154.055 291.517 153.982 291.89C153.915 292.263 153.882 292.72 153.882 293.26C153.882 293.82 153.915 294.29 153.982 294.67C154.049 295.05 154.189 295.357 154.402 295.59C154.622 295.823 154.942 295.94 155.362 295.94C155.782 295.94 156.099 295.823 156.312 295.59C156.532 295.357 156.675 295.05 156.742 294.67C156.809 294.29 156.842 293.82 156.842 293.26Z" fill="#999999" fill-opacity="0.75"/>
<rect x="191" y="282" width="40" height="23" rx="10" fill="#3FAA2C"/>
<path d="M198.896 290.75V289.71H200.976V297H199.826V290.75H198.896ZM203.962 295.02C204.029 295.353 204.172 295.607 204.392 295.78C204.612 295.953 204.909 296.04 205.282 296.04C205.756 296.04 206.102 295.853 206.322 295.48C206.542 295.107 206.652 294.47 206.652 293.57C206.492 293.797 206.266 293.973 205.972 294.1C205.686 294.22 205.372 294.28 205.032 294.28C204.599 294.28 204.206 294.193 203.852 294.02C203.499 293.84 203.219 293.577 203.012 293.23C202.812 292.877 202.712 292.45 202.712 291.95C202.712 291.217 202.926 290.633 203.352 290.2C203.786 289.76 204.379 289.54 205.132 289.54C206.039 289.54 206.682 289.843 207.062 290.45C207.449 291.05 207.642 291.973 207.642 293.22C207.642 294.08 207.569 294.783 207.422 295.33C207.282 295.877 207.036 296.29 206.682 296.57C206.329 296.85 205.839 296.99 205.212 296.99C204.499 296.99 203.949 296.803 203.562 296.43C203.176 296.057 202.959 295.587 202.912 295.02H203.962ZM205.232 293.32C205.632 293.32 205.946 293.197 206.172 292.95C206.406 292.697 206.522 292.363 206.522 291.95C206.522 291.49 206.399 291.133 206.152 290.88C205.912 290.62 205.582 290.49 205.162 290.49C204.742 290.49 204.409 290.623 204.162 290.89C203.922 291.15 203.802 291.493 203.802 291.92C203.802 292.327 203.919 292.663 204.152 292.93C204.392 293.19 204.752 293.32 205.232 293.32ZM209.5 297.07C209.293 297.07 209.12 297 208.98 296.86C208.84 296.72 208.77 296.547 208.77 296.34C208.77 296.133 208.84 295.96 208.98 295.82C209.12 295.68 209.293 295.61 209.5 295.61C209.7 295.61 209.87 295.68 210.01 295.82C210.15 295.96 210.22 296.133 210.22 296.34C210.22 296.547 210.15 296.72 210.01 296.86C209.87 297 209.7 297.07 209.5 297.07ZM209.5 292.87C209.293 292.87 209.12 292.8 208.98 292.66C208.84 292.52 208.77 292.347 208.77 292.14C208.77 291.933 208.84 291.76 208.98 291.62C209.12 291.48 209.293 291.41 209.5 291.41C209.7 291.41 209.87 291.48 210.01 291.62C210.15 291.76 210.22 291.933 210.22 292.14C210.22 292.347 210.15 292.52 210.01 292.66C209.87 292.8 209.7 292.87 209.5 292.87ZM211.341 293.26C211.341 292.107 211.535 291.207 211.921 290.56C212.315 289.907 212.988 289.58 213.941 289.58C214.895 289.58 215.565 289.907 215.951 290.56C216.345 291.207 216.541 292.107 216.541 293.26C216.541 294.427 216.345 295.34 215.951 296C215.565 296.653 214.895 296.98 213.941 296.98C212.988 296.98 212.315 296.653 211.921 296C211.535 295.34 211.341 294.427 211.341 293.26ZM215.421 293.26C215.421 292.72 215.385 292.263 215.311 291.89C215.245 291.517 215.105 291.213 214.891 290.98C214.678 290.74 214.361 290.62 213.941 290.62C213.521 290.62 213.205 290.74 212.991 290.98C212.778 291.213 212.635 291.517 212.561 291.89C212.495 292.263 212.461 292.72 212.461 293.26C212.461 293.82 212.495 294.29 212.561 294.67C212.628 295.05 212.768 295.357 212.981 295.59C213.201 295.823 213.521 295.94 213.941 295.94C214.361 295.94 214.678 295.823 214.891 295.59C215.111 295.357 215.255 295.05 215.321 294.67C215.388 294.29 215.421 293.82 215.421 293.26ZM217.747 293.26C217.747 292.107 217.941 291.207 218.327 290.56C218.721 289.907 219.394 289.58 220.347 289.58C221.301 289.58 221.971 289.907 222.357 290.56C222.751 291.207 222.947 292.107 222.947 293.26C222.947 294.427 222.751 295.34 222.357 296C221.971 296.653 221.301 296.98 220.347 296.98C219.394 296.98 218.721 296.653 218.327 296C217.941 295.34 217.747 294.427 217.747 293.26ZM221.827 293.26C221.827 292.72 221.791 292.263 221.717 291.89C221.651 291.517 221.511 291.213 221.297 290.98C221.084 290.74 220.767 290.62 220.347 290.62C219.927 290.62 219.611 290.74 219.397 290.98C219.184 291.213 219.041 291.517 218.967 291.89C218.901 292.263 218.867 292.72 218.867 293.26C218.867 293.82 218.901 294.29 218.967 294.67C219.034 295.05 219.174 295.357 219.387 295.59C219.607 295.823 219.927 295.94 220.347 295.94C220.767 295.94 221.084 295.823 221.297 295.59C221.517 295.357 221.661 295.05 221.727 294.67C221.794 294.29 221.827 293.82 221.827 293.26Z" fill="white"/>
<rect x="256" y="282" width="42" height="23" rx="10" fill="white"/>
<path d="M264.509 295.45C265.149 294.897 265.653 294.443 266.019 294.09C266.393 293.73 266.703 293.357 266.949 292.97C267.196 292.583 267.319 292.197 267.319 291.81C267.319 291.41 267.223 291.097 267.029 290.87C266.843 290.643 266.546 290.53 266.139 290.53C265.746 290.53 265.439 290.657 265.219 290.91C265.006 291.157 264.893 291.49 264.879 291.91H263.779C263.799 291.15 264.026 290.57 264.459 290.17C264.899 289.763 265.456 289.56 266.129 289.56C266.856 289.56 267.423 289.76 267.829 290.16C268.243 290.56 268.449 291.093 268.449 291.76C268.449 292.24 268.326 292.703 268.079 293.15C267.839 293.59 267.549 293.987 267.209 294.34C266.876 294.687 266.449 295.09 265.929 295.55L265.479 295.95H268.649V296.9H263.789V296.07L264.509 295.45ZM269.651 293.26C269.651 292.107 269.844 291.207 270.231 290.56C270.624 289.907 271.297 289.58 272.251 289.58C273.204 289.58 273.874 289.907 274.261 290.56C274.654 291.207 274.851 292.107 274.851 293.26C274.851 294.427 274.654 295.34 274.261 296C273.874 296.653 273.204 296.98 272.251 296.98C271.297 296.98 270.624 296.653 270.231 296C269.844 295.34 269.651 294.427 269.651 293.26ZM273.731 293.26C273.731 292.72 273.694 292.263 273.621 291.89C273.554 291.517 273.414 291.213 273.201 290.98C272.987 290.74 272.671 290.62 272.251 290.62C271.831 290.62 271.514 290.74 271.301 290.98C271.087 291.213 270.944 291.517 270.871 291.89C270.804 292.263 270.771 292.72 270.771 293.26C270.771 293.82 270.804 294.29 270.871 294.67C270.937 295.05 271.077 295.357 271.291 295.59C271.511 295.823 271.831 295.94 272.251 295.94C272.671 295.94 272.987 295.823 273.201 295.59C273.421 295.357 273.564 295.05 273.631 294.67C273.697 294.29 273.731 293.82 273.731 293.26ZM276.667 297.07C276.46 297.07 276.287 297 276.147 296.86C276.007 296.72 275.937 296.547 275.937 296.34C275.937 296.133 276.007 295.96 276.147 295.82C276.287 295.68 276.46 295.61 276.667 295.61C276.867 295.61 277.037 295.68 277.177 295.82C277.317 295.96 277.387 296.133 277.387 296.34C277.387 296.547 277.317 296.72 277.177 296.86C277.037 297 276.867 297.07 276.667 297.07ZM276.667 292.87C276.46 292.87 276.287 292.8 276.147 292.66C276.007 292.52 275.937 292.347 275.937 292.14C275.937 291.933 276.007 291.76 276.147 291.62C276.287 291.48 276.46 291.41 276.667 291.41C276.867 291.41 277.037 291.48 277.177 291.62C277.317 291.76 277.387 291.933 277.387 292.14C277.387 292.347 277.317 292.52 277.177 292.66C277.037 292.8 276.867 292.87 276.667 292.87ZM278.508 293.26C278.508 292.107 278.702 291.207 279.088 290.56C279.482 289.907 280.155 289.58 281.108 289.58C282.062 289.58 282.732 289.907 283.118 290.56C283.512 291.207 283.708 292.107 283.708 293.26C283.708 294.427 283.512 295.34 283.118 296C282.732 296.653 282.062 296.98 281.108 296.98C280.155 296.98 279.482 296.653 279.088 296C278.702 295.34 278.508 294.427 278.508 293.26ZM282.588 293.26C282.588 292.72 282.552 292.263 282.478 291.89C282.412 291.517 282.272 291.213 282.058 290.98C281.845 290.74 281.528 290.62 281.108 290.62C280.688 290.62 280.372 290.74 280.158 290.98C279.945 291.213 279.802 291.517 279.728 291.89C279.662 292.263 279.628 292.72 279.628 293.26C279.628 293.82 279.662 294.29 279.728 294.67C279.795 295.05 279.935 295.357 280.148 295.59C280.368 295.823 280.688 295.94 281.108 295.94C281.528 295.94 281.845 295.823 282.058 295.59C282.278 295.357 282.422 295.05 282.488 294.67C282.555 294.29 282.588 293.82 282.588 293.26ZM284.914 293.26C284.914 292.107 285.108 291.207 285.494 290.56C285.888 289.907 286.561 289.58 287.514 289.58C288.468 289.58 289.138 289.907 289.524 290.56C289.918 291.207 290.114 292.107 290.114 293.26C290.114 294.427 289.918 295.34 289.524 296C289.138 296.653 288.468 296.98 287.514 296.98C286.561 296.98 285.888 296.653 285.494 296C285.108 295.34 284.914 294.427 284.914 293.26ZM288.994 293.26C288.994 292.72 288.958 292.263 288.884 291.89C288.818 291.517 288.678 291.213 288.464 290.98C288.251 290.74 287.934 290.62 287.514 290.62C287.094 290.62 286.778 290.74 286.564 290.98C286.351 291.213 286.208 291.517 286.134 291.89C286.068 292.263 286.034 292.72 286.034 293.26C286.034 293.82 286.068 294.29 286.134 294.67C286.201 295.05 286.341 295.357 286.554 295.59C286.774 295.823 287.094 295.94 287.514 295.94C287.934 295.94 288.251 295.823 288.464 295.59C288.684 295.357 288.828 295.05 288.894 294.67C288.961 294.29 288.994 293.82 288.994 293.26Z" fill="#999999" fill-opacity="0.75"/>
<path d="M19.068 59.96C19.002 59.684 18.882 59.477 18.708 59.339C18.534 59.201 18.291 59.132 17.979 59.132C17.505 59.132 17.151 59.315 16.917 59.681C16.683 60.041 16.56 60.641 16.548 61.481C16.704 61.217 16.932 61.013 17.232 60.869C17.532 60.725 17.856 60.653 18.204 60.653C18.6 60.653 18.948 60.74 19.248 60.914C19.554 61.082 19.791 61.328 19.959 61.652C20.133 61.976 20.22 62.363 20.22 62.813C20.22 63.233 20.136 63.608 19.968 63.938C19.806 64.268 19.563 64.529 19.239 64.721C18.915 64.907 18.525 65 18.069 65C17.451 65 16.965 64.865 16.611 64.595C16.263 64.319 16.017 63.932 15.873 63.434C15.735 62.936 15.666 62.315 15.666 61.571C15.666 59.375 16.44 58.277 17.988 58.277C18.588 58.277 19.059 58.439 19.401 58.763C19.749 59.087 19.953 59.486 20.013 59.96H19.068ZM17.979 61.517C17.613 61.517 17.301 61.628 17.043 61.85C16.791 62.066 16.665 62.381 16.665 62.795C16.665 63.209 16.782 63.539 17.016 63.785C17.256 64.025 17.589 64.145 18.015 64.145C18.393 64.145 18.69 64.028 18.906 63.794C19.128 63.56 19.239 63.248 19.239 62.858C19.239 62.45 19.131 62.126 18.915 61.886C18.705 61.64 18.393 61.517 17.979 61.517ZM21.3144 61.634C21.3144 60.596 21.4884 59.786 21.8364 59.204C22.1904 58.616 22.7964 58.322 23.6544 58.322C24.5124 58.322 25.1154 58.616 25.4634 59.204C25.8174 59.786 25.9944 60.596 25.9944 61.634C25.9944 62.684 25.8174 63.506 25.4634 64.1C25.1154 64.688 24.5124 64.982 23.6544 64.982C22.7964 64.982 22.1904 64.688 21.8364 64.1C21.4884 63.506 21.3144 62.684 21.3144 61.634ZM24.9864 61.634C24.9864 61.148 24.9534 60.737 24.8874 60.401C24.8274 60.065 24.7014 59.792 24.5094 59.582C24.3174 59.366 24.0324 59.258 23.6544 59.258C23.2764 59.258 22.9914 59.366 22.7994 59.582C22.6074 59.792 22.4784 60.065 22.4124 60.401C22.3524 60.737 22.3224 61.148 22.3224 61.634C22.3224 62.138 22.3524 62.561 22.4124 62.903C22.4724 63.245 22.5984 63.521 22.7904 63.731C22.9884 63.941 23.2764 64.046 23.6544 64.046C24.0324 64.046 24.3174 63.941 24.5094 63.731C24.7074 63.521 24.8364 63.245 24.8964 62.903C24.9564 62.561 24.9864 62.138 24.9864 61.634Z" fill="#B6B6B6" fill-opacity="0.75"/>
<path d="M19.068 90.96C19.002 90.684 18.882 90.477 18.708 90.339C18.534 90.201 18.291 90.132 17.979 90.132C17.505 90.132 17.151 90.315 16.917 90.681C16.683 91.041 16.56 91.641 16.548 92.481C16.704 92.217 16.932 92.013 17.232 91.869C17.532 91.725 17.856 91.653 18.204 91.653C18.6 91.653 18.948 91.74 19.248 91.914C19.554 92.082 19.791 92.328 19.959 92.652C20.133 92.976 20.22 93.363 20.22 93.813C20.22 94.233 20.136 94.608 19.968 94.938C19.806 95.268 19.563 95.529 19.239 95.721C18.915 95.907 18.525 96 18.069 96C17.451 96 16.965 95.865 16.611 95.595C16.263 95.319 16.017 94.932 15.873 94.434C15.735 93.936 15.666 93.315 15.666 92.571C15.666 90.375 16.44 89.277 17.988 89.277C18.588 89.277 19.059 89.439 19.401 89.763C19.749 90.087 19.953 90.486 20.013 90.96H19.068ZM17.979 92.517C17.613 92.517 17.301 92.628 17.043 92.85C16.791 93.066 16.665 93.381 16.665 93.795C16.665 94.209 16.782 94.539 17.016 94.785C17.256 95.025 17.589 95.145 18.015 95.145C18.393 95.145 18.69 95.028 18.906 94.794C19.128 94.56 19.239 94.248 19.239 93.858C19.239 93.45 19.131 93.126 18.915 92.886C18.705 92.64 18.393 92.517 17.979 92.517ZM21.3144 92.634C21.3144 91.596 21.4884 90.786 21.8364 90.204C22.1904 89.616 22.7964 89.322 23.6544 89.322C24.5124 89.322 25.1154 89.616 25.4634 90.204C25.8174 90.786 25.9944 91.596 25.9944 92.634C25.9944 93.684 25.8174 94.506 25.4634 95.1C25.1154 95.688 24.5124 95.982 23.6544 95.982C22.7964 95.982 22.1904 95.688 21.8364 95.1C21.4884 94.506 21.3144 93.684 21.3144 92.634ZM24.9864 92.634C24.9864 92.148 24.9534 91.737 24.8874 91.401C24.8274 91.065 24.7014 90.792 24.5094 90.582C24.3174 90.366 24.0324 90.258 23.6544 90.258C23.2764 90.258 22.9914 90.366 22.7994 90.582C22.6074 90.792 22.4784 91.065 22.4124 91.401C22.3524 91.737 22.3224 92.148 22.3224 92.634C22.3224 93.138 22.3524 93.561 22.4124 93.903C22.4724 94.245 22.5984 94.521 22.7904 94.731C22.9884 94.941 23.2764 95.046 23.6544 95.046C24.0324 95.046 24.3174 94.941 24.5094 94.731C24.7074 94.521 24.8364 94.245 24.8964 93.903C24.9564 93.561 24.9864 93.138 24.9864 92.634Z" fill="#B6B6B6" fill-opacity="0.75"/>
<path d="M19.068 121.96C19.002 121.684 18.882 121.477 18.708 121.339C18.534 121.201 18.291 121.132 17.979 121.132C17.505 121.132 17.151 121.315 16.917 121.681C16.683 122.041 16.56 122.641 16.548 123.481C16.704 123.217 16.932 123.013 17.232 122.869C17.532 122.725 17.856 122.653 18.204 122.653C18.6 122.653 18.948 122.74 19.248 122.914C19.554 123.082 19.791 123.328 19.959 123.652C20.133 123.976 20.22 124.363 20.22 124.813C20.22 125.233 20.136 125.608 19.968 125.938C19.806 126.268 19.563 126.529 19.239 126.721C18.915 126.907 18.525 127 18.069 127C17.451 127 16.965 126.865 16.611 126.595C16.263 126.319 16.017 125.932 15.873 125.434C15.735 124.936 15.666 124.315 15.666 123.571C15.666 121.375 16.44 120.277 17.988 120.277C18.588 120.277 19.059 120.439 19.401 120.763C19.749 121.087 19.953 121.486 20.013 121.96H19.068ZM17.979 123.517C17.613 123.517 17.301 123.628 17.043 123.85C16.791 124.066 16.665 124.381 16.665 124.795C16.665 125.209 16.782 125.539 17.016 125.785C17.256 126.025 17.589 126.145 18.015 126.145C18.393 126.145 18.69 126.028 18.906 125.794C19.128 125.56 19.239 125.248 19.239 124.858C19.239 124.45 19.131 124.126 18.915 123.886C18.705 123.64 18.393 123.517 17.979 123.517ZM21.3144 123.634C21.3144 122.596 21.4884 121.786 21.8364 121.204C22.1904 120.616 22.7964 120.322 23.6544 120.322C24.5124 120.322 25.1154 120.616 25.4634 121.204C25.8174 121.786 25.9944 122.596 25.9944 123.634C25.9944 124.684 25.8174 125.506 25.4634 126.1C25.1154 126.688 24.5124 126.982 23.6544 126.982C22.7964 126.982 22.1904 126.688 21.8364 126.1C21.4884 125.506 21.3144 124.684 21.3144 123.634ZM24.9864 123.634C24.9864 123.148 24.9534 122.737 24.8874 122.401C24.8274 122.065 24.7014 121.792 24.5094 121.582C24.3174 121.366 24.0324 121.258 23.6544 121.258C23.2764 121.258 22.9914 121.366 22.7994 121.582C22.6074 121.792 22.4784 122.065 22.4124 122.401C22.3524 122.737 22.3224 123.148 22.3224 123.634C22.3224 124.138 22.3524 124.561 22.4124 124.903C22.4724 125.245 22.5984 125.521 22.7904 125.731C22.9884 125.941 23.2764 126.046 23.6544 126.046C24.0324 126.046 24.3174 125.941 24.5094 125.731C24.7074 125.521 24.8364 125.245 24.8964 124.903C24.9564 124.561 24.9864 124.138 24.9864 123.634Z" fill="#B6B6B6" fill-opacity="0.75"/>
<path d="M19.068 152.96C19.002 152.684 18.882 152.477 18.708 152.339C18.534 152.201 18.291 152.132 17.979 152.132C17.505 152.132 17.151 152.315 16.917 152.681C16.683 153.041 16.56 153.641 16.548 154.481C16.704 154.217 16.932 154.013 17.232 153.869C17.532 153.725 17.856 153.653 18.204 153.653C18.6 153.653 18.948 153.74 19.248 153.914C19.554 154.082 19.791 154.328 19.959 154.652C20.133 154.976 20.22 155.363 20.22 155.813C20.22 156.233 20.136 156.608 19.968 156.938C19.806 157.268 19.563 157.529 19.239 157.721C18.915 157.907 18.525 158 18.069 158C17.451 158 16.965 157.865 16.611 157.595C16.263 157.319 16.017 156.932 15.873 156.434C15.735 155.936 15.666 155.315 15.666 154.571C15.666 152.375 16.44 151.277 17.988 151.277C18.588 151.277 19.059 151.439 19.401 151.763C19.749 152.087 19.953 152.486 20.013 152.96H19.068ZM17.979 154.517C17.613 154.517 17.301 154.628 17.043 154.85C16.791 155.066 16.665 155.381 16.665 155.795C16.665 156.209 16.782 156.539 17.016 156.785C17.256 157.025 17.589 157.145 18.015 157.145C18.393 157.145 18.69 157.028 18.906 156.794C19.128 156.56 19.239 156.248 19.239 155.858C19.239 155.45 19.131 155.126 18.915 154.886C18.705 154.64 18.393 154.517 17.979 154.517ZM21.3144 154.634C21.3144 153.596 21.4884 152.786 21.8364 152.204C22.1904 151.616 22.7964 151.322 23.6544 151.322C24.5124 151.322 25.1154 151.616 25.4634 152.204C25.8174 152.786 25.9944 153.596 25.9944 154.634C25.9944 155.684 25.8174 156.506 25.4634 157.1C25.1154 157.688 24.5124 157.982 23.6544 157.982C22.7964 157.982 22.1904 157.688 21.8364 157.1C21.4884 156.506 21.3144 155.684 21.3144 154.634ZM24.9864 154.634C24.9864 154.148 24.9534 153.737 24.8874 153.401C24.8274 153.065 24.7014 152.792 24.5094 152.582C24.3174 152.366 24.0324 152.258 23.6544 152.258C23.2764 152.258 22.9914 152.366 22.7994 152.582C22.6074 152.792 22.4784 153.065 22.4124 153.401C22.3524 153.737 22.3224 154.148 22.3224 154.634C22.3224 155.138 22.3524 155.561 22.4124 155.903C22.4724 156.245 22.5984 156.521 22.7904 156.731C22.9884 156.941 23.2764 157.046 23.6544 157.046C24.0324 157.046 24.3174 156.941 24.5094 156.731C24.7074 156.521 24.8364 156.245 24.8964 155.903C24.9564 155.561 24.9864 155.138 24.9864 154.634Z" fill="#B6B6B6" fill-opacity="0.75"/>
<path d="M19.068 183.96C19.002 183.684 18.882 183.477 18.708 183.339C18.534 183.201 18.291 183.132 17.979 183.132C17.505 183.132 17.151 183.315 16.917 183.681C16.683 184.041 16.56 184.641 16.548 185.481C16.704 185.217 16.932 185.013 17.232 184.869C17.532 184.725 17.856 184.653 18.204 184.653C18.6 184.653 18.948 184.74 19.248 184.914C19.554 185.082 19.791 185.328 19.959 185.652C20.133 185.976 20.22 186.363 20.22 186.813C20.22 187.233 20.136 187.608 19.968 187.938C19.806 188.268 19.563 188.529 19.239 188.721C18.915 188.907 18.525 189 18.069 189C17.451 189 16.965 188.865 16.611 188.595C16.263 188.319 16.017 187.932 15.873 187.434C15.735 186.936 15.666 186.315 15.666 185.571C15.666 183.375 16.44 182.277 17.988 182.277C18.588 182.277 19.059 182.439 19.401 182.763C19.749 183.087 19.953 183.486 20.013 183.96H19.068ZM17.979 185.517C17.613 185.517 17.301 185.628 17.043 185.85C16.791 186.066 16.665 186.381 16.665 186.795C16.665 187.209 16.782 187.539 17.016 187.785C17.256 188.025 17.589 188.145 18.015 188.145C18.393 188.145 18.69 188.028 18.906 187.794C19.128 187.56 19.239 187.248 19.239 186.858C19.239 186.45 19.131 186.126 18.915 185.886C18.705 185.64 18.393 185.517 17.979 185.517ZM21.3144 185.634C21.3144 184.596 21.4884 183.786 21.8364 183.204C22.1904 182.616 22.7964 182.322 23.6544 182.322C24.5124 182.322 25.1154 182.616 25.4634 183.204C25.8174 183.786 25.9944 184.596 25.9944 185.634C25.9944 186.684 25.8174 187.506 25.4634 188.1C25.1154 188.688 24.5124 188.982 23.6544 188.982C22.7964 188.982 22.1904 188.688 21.8364 188.1C21.4884 187.506 21.3144 186.684 21.3144 185.634ZM24.9864 185.634C24.9864 185.148 24.9534 184.737 24.8874 184.401C24.8274 184.065 24.7014 183.792 24.5094 183.582C24.3174 183.366 24.0324 183.258 23.6544 183.258C23.2764 183.258 22.9914 183.366 22.7994 183.582C22.6074 183.792 22.4784 184.065 22.4124 184.401C22.3524 184.737 22.3224 185.148 22.3224 185.634C22.3224 186.138 22.3524 186.561 22.4124 186.903C22.4724 187.245 22.5984 187.521 22.7904 187.731C22.9884 187.941 23.2764 188.046 23.6544 188.046C24.0324 188.046 24.3174 187.941 24.5094 187.731C24.7074 187.521 24.8364 187.245 24.8964 186.903C24.9564 186.561 24.9864 186.138 24.9864 185.634Z" fill="#B6B6B6" fill-opacity="0.75"/>
<path d="M19.068 214.96C19.002 214.684 18.882 214.477 18.708 214.339C18.534 214.201 18.291 214.132 17.979 214.132C17.505 214.132 17.151 214.315 16.917 214.681C16.683 215.041 16.56 215.641 16.548 216.481C16.704 216.217 16.932 216.013 17.232 215.869C17.532 215.725 17.856 215.653 18.204 215.653C18.6 215.653 18.948 215.74 19.248 215.914C19.554 216.082 19.791 216.328 19.959 216.652C20.133 216.976 20.22 217.363 20.22 217.813C20.22 218.233 20.136 218.608 19.968 218.938C19.806 219.268 19.563 219.529 19.239 219.721C18.915 219.907 18.525 220 18.069 220C17.451 220 16.965 219.865 16.611 219.595C16.263 219.319 16.017 218.932 15.873 218.434C15.735 217.936 15.666 217.315 15.666 216.571C15.666 214.375 16.44 213.277 17.988 213.277C18.588 213.277 19.059 213.439 19.401 213.763C19.749 214.087 19.953 214.486 20.013 214.96H19.068ZM17.979 216.517C17.613 216.517 17.301 216.628 17.043 216.85C16.791 217.066 16.665 217.381 16.665 217.795C16.665 218.209 16.782 218.539 17.016 218.785C17.256 219.025 17.589 219.145 18.015 219.145C18.393 219.145 18.69 219.028 18.906 218.794C19.128 218.56 19.239 218.248 19.239 217.858C19.239 217.45 19.131 217.126 18.915 216.886C18.705 216.64 18.393 216.517 17.979 216.517ZM21.3144 216.634C21.3144 215.596 21.4884 214.786 21.8364 214.204C22.1904 213.616 22.7964 213.322 23.6544 213.322C24.5124 213.322 25.1154 213.616 25.4634 214.204C25.8174 214.786 25.9944 215.596 25.9944 216.634C25.9944 217.684 25.8174 218.506 25.4634 219.1C25.1154 219.688 24.5124 219.982 23.6544 219.982C22.7964 219.982 22.1904 219.688 21.8364 219.1C21.4884 218.506 21.3144 217.684 21.3144 216.634ZM24.9864 216.634C24.9864 216.148 24.9534 215.737 24.8874 215.401C24.8274 215.065 24.7014 214.792 24.5094 214.582C24.3174 214.366 24.0324 214.258 23.6544 214.258C23.2764 214.258 22.9914 214.366 22.7994 214.582C22.6074 214.792 22.4784 215.065 22.4124 215.401C22.3524 215.737 22.3224 216.148 22.3224 216.634C22.3224 217.138 22.3524 217.561 22.4124 217.903C22.4724 218.245 22.5984 218.521 22.7904 218.731C22.9884 218.941 23.2764 219.046 23.6544 219.046C24.0324 219.046 24.3174 218.941 24.5094 218.731C24.7074 218.521 24.8364 218.245 24.8964 217.903C24.9564 217.561 24.9864 217.138 24.9864 216.634Z" fill="#B6B6B6" fill-opacity="0.75"/>
<path d="M19.068 245.96C19.002 245.684 18.882 245.477 18.708 245.339C18.534 245.201 18.291 245.132 17.979 245.132C17.505 245.132 17.151 245.315 16.917 245.681C16.683 246.041 16.56 246.641 16.548 247.481C16.704 247.217 16.932 247.013 17.232 246.869C17.532 246.725 17.856 246.653 18.204 246.653C18.6 246.653 18.948 246.74 19.248 246.914C19.554 247.082 19.791 247.328 19.959 247.652C20.133 247.976 20.22 248.363 20.22 248.813C20.22 249.233 20.136 249.608 19.968 249.938C19.806 250.268 19.563 250.529 19.239 250.721C18.915 250.907 18.525 251 18.069 251C17.451 251 16.965 250.865 16.611 250.595C16.263 250.319 16.017 249.932 15.873 249.434C15.735 248.936 15.666 248.315 15.666 247.571C15.666 245.375 16.44 244.277 17.988 244.277C18.588 244.277 19.059 244.439 19.401 244.763C19.749 245.087 19.953 245.486 20.013 245.96H19.068ZM17.979 247.517C17.613 247.517 17.301 247.628 17.043 247.85C16.791 248.066 16.665 248.381 16.665 248.795C16.665 249.209 16.782 249.539 17.016 249.785C17.256 250.025 17.589 250.145 18.015 250.145C18.393 250.145 18.69 250.028 18.906 249.794C19.128 249.56 19.239 249.248 19.239 248.858C19.239 248.45 19.131 248.126 18.915 247.886C18.705 247.64 18.393 247.517 17.979 247.517ZM21.3144 247.634C21.3144 246.596 21.4884 245.786 21.8364 245.204C22.1904 244.616 22.7964 244.322 23.6544 244.322C24.5124 244.322 25.1154 244.616 25.4634 245.204C25.8174 245.786 25.9944 246.596 25.9944 247.634C25.9944 248.684 25.8174 249.506 25.4634 250.1C25.1154 250.688 24.5124 250.982 23.6544 250.982C22.7964 250.982 22.1904 250.688 21.8364 250.1C21.4884 249.506 21.3144 248.684 21.3144 247.634ZM24.9864 247.634C24.9864 247.148 24.9534 246.737 24.8874 246.401C24.8274 246.065 24.7014 245.792 24.5094 245.582C24.3174 245.366 24.0324 245.258 23.6544 245.258C23.2764 245.258 22.9914 245.366 22.7994 245.582C22.6074 245.792 22.4784 246.065 22.4124 246.401C22.3524 246.737 22.3224 247.148 22.3224 247.634C22.3224 248.138 22.3524 248.561 22.4124 248.903C22.4724 249.245 22.5984 249.521 22.7904 249.731C22.9884 249.941 23.2764 250.046 23.6544 250.046C24.0324 250.046 24.3174 249.941 24.5094 249.731C24.7074 249.521 24.8364 249.245 24.8964 248.903C24.9564 248.561 24.9864 248.138 24.9864 247.634Z" fill="#B6B6B6" fill-opacity="0.75"/>
<path d="M42.5859 22.1406L39.1875 32H37.1328L41.4141 20.625H42.7266L42.5859 22.1406ZM45.4297 32L42.0234 22.1406L41.875 20.625H43.1953L47.4922 32H45.4297ZM45.2656 27.7812V29.3359H39.0781V27.7812H45.2656ZM50.3203 25.2656V32H48.4375V23.5469H50.2109L50.3203 25.2656ZM50.0156 27.4609L49.375 27.4531C49.375 26.8698 49.4479 26.3307 49.5938 25.8359C49.7396 25.3411 49.9531 24.9115 50.2344 24.5469C50.5156 24.1771 50.8646 23.8932 51.2812 23.6953C51.7031 23.4922 52.1901 23.3906 52.7422 23.3906C53.1276 23.3906 53.4792 23.4479 53.7969 23.5625C54.1198 23.6719 54.3984 23.8464 54.6328 24.0859C54.8724 24.3255 55.0547 24.6328 55.1797 25.0078C55.3099 25.3828 55.375 25.8359 55.375 26.3672V32H53.4922V26.5312C53.4922 26.1198 53.4297 25.7969 53.3047 25.5625C53.1849 25.3281 53.0104 25.1615 52.7812 25.0625C52.5573 24.9583 52.2891 24.9062 51.9766 24.9062C51.6224 24.9062 51.3203 24.974 51.0703 25.1094C50.8255 25.2448 50.625 25.4297 50.4688 25.6641C50.3125 25.8984 50.1979 26.1693 50.125 26.4766C50.0521 26.7839 50.0156 27.112 50.0156 27.4609ZM55.2578 26.9609L54.375 27.1562C54.375 26.6458 54.4453 26.1641 54.5859 25.7109C54.7318 25.2526 54.9427 24.8516 55.2188 24.5078C55.5 24.1589 55.8464 23.8854 56.2578 23.6875C56.6693 23.4896 57.1406 23.3906 57.6719 23.3906C58.1042 23.3906 58.4896 23.4505 58.8281 23.5703C59.1719 23.6849 59.4635 23.8672 59.7031 24.1172C59.9427 24.3672 60.125 24.6927 60.25 25.0938C60.375 25.4896 60.4375 25.9688 60.4375 26.5312V32H58.5469V26.5234C58.5469 26.0964 58.4844 25.7656 58.3594 25.5312C58.2396 25.2969 58.0677 25.1354 57.8438 25.0469C57.6198 24.9531 57.3516 24.9062 57.0391 24.9062C56.7474 24.9062 56.4896 24.9609 56.2656 25.0703C56.0469 25.1745 55.862 25.3229 55.7109 25.5156C55.5599 25.7031 55.4453 25.9193 55.3672 26.1641C55.2943 26.4089 55.2578 26.6745 55.2578 26.9609ZM64.2656 25.1719V35.25H62.3828V23.5469H64.1172L64.2656 25.1719ZM69.7734 27.6953V27.8594C69.7734 28.474 69.7005 29.0443 69.5547 29.5703C69.4141 30.0911 69.2031 30.5469 68.9219 30.9375C68.6458 31.3229 68.3047 31.6224 67.8984 31.8359C67.4922 32.0495 67.0234 32.1562 66.4922 32.1562C65.9661 32.1562 65.5052 32.0599 65.1094 31.8672C64.7188 31.6693 64.388 31.3906 64.1172 31.0312C63.8464 30.6719 63.6276 30.25 63.4609 29.7656C63.2995 29.276 63.1849 28.7396 63.1172 28.1562V27.5234C63.1849 26.9036 63.2995 26.3411 63.4609 25.8359C63.6276 25.3307 63.8464 24.8958 64.1172 24.5312C64.388 24.1667 64.7188 23.8854 65.1094 23.6875C65.5 23.4896 65.9557 23.3906 66.4766 23.3906C67.0078 23.3906 67.4792 23.4948 67.8906 23.7031C68.3021 23.9062 68.6484 24.1979 68.9297 24.5781C69.2109 24.9531 69.4219 25.4062 69.5625 25.9375C69.7031 26.4635 69.7734 27.0495 69.7734 27.6953ZM67.8906 27.8594V27.6953C67.8906 27.3047 67.8542 26.9427 67.7812 26.6094C67.7083 26.2708 67.5938 25.974 67.4375 25.7188C67.2812 25.4635 67.0807 25.2656 66.8359 25.125C66.5964 24.9792 66.3073 24.9062 65.9688 24.9062C65.6354 24.9062 65.349 24.9635 65.1094 25.0781C64.8698 25.1875 64.6693 25.3411 64.5078 25.5391C64.3464 25.737 64.2214 25.9688 64.1328 26.2344C64.0443 26.4948 63.9818 26.7786 63.9453 27.0859V28.6016C64.0078 28.9766 64.1146 29.3203 64.2656 29.6328C64.4167 29.9453 64.6302 30.1953 64.9062 30.3828C65.1875 30.5651 65.5469 30.6562 65.9844 30.6562C66.3229 30.6562 66.612 30.5833 66.8516 30.4375C67.0911 30.2917 67.2865 30.0911 67.4375 29.8359C67.5938 29.5755 67.7083 29.276 67.7812 28.9375C67.8542 28.599 67.8906 28.2396 67.8906 27.8594ZM75.1016 32.1562C74.4766 32.1562 73.9115 32.0547 73.4062 31.8516C72.9062 31.6432 72.4792 31.3542 72.125 30.9844C71.776 30.6146 71.5078 30.1797 71.3203 29.6797C71.1328 29.1797 71.0391 28.6406 71.0391 28.0625V27.75C71.0391 27.0885 71.1354 26.4896 71.3281 25.9531C71.5208 25.4167 71.7891 24.9583 72.1328 24.5781C72.4766 24.1927 72.8828 23.8984 73.3516 23.6953C73.8203 23.4922 74.3281 23.3906 74.875 23.3906C75.4792 23.3906 76.0078 23.4922 76.4609 23.6953C76.9141 23.8984 77.2891 24.1849 77.5859 24.5547C77.888 24.9193 78.112 25.3542 78.2578 25.8594C78.4089 26.3646 78.4844 26.9219 78.4844 27.5312V28.3359H71.9531V26.9844H76.625V26.8359C76.6146 26.4974 76.5469 26.1797 76.4219 25.8828C76.3021 25.5859 76.1172 25.3464 75.8672 25.1641C75.6172 24.9818 75.2839 24.8906 74.8672 24.8906C74.5547 24.8906 74.276 24.9583 74.0312 25.0938C73.7917 25.224 73.5911 25.4141 73.4297 25.6641C73.2682 25.9141 73.1432 26.2161 73.0547 26.5703C72.9714 26.9193 72.9297 27.3125 72.9297 27.75V28.0625C72.9297 28.4323 72.9792 28.776 73.0781 29.0938C73.1823 29.4062 73.3333 29.6797 73.5312 29.9141C73.7292 30.1484 73.9688 30.3333 74.25 30.4688C74.5312 30.599 74.8516 30.6641 75.2109 30.6641C75.6641 30.6641 76.0677 30.5729 76.4219 30.3906C76.776 30.2083 77.0833 29.9505 77.3438 29.6172L78.3359 30.5781C78.1536 30.8438 77.9167 31.099 77.625 31.3438C77.3333 31.5833 76.9766 31.7786 76.5547 31.9297C76.138 32.0807 75.6536 32.1562 75.1016 32.1562ZM81.8438 25.1562V32H79.9609V23.5469H81.7578L81.8438 25.1562ZM84.4297 23.4922L84.4141 25.2422C84.2995 25.2214 84.1745 25.2057 84.0391 25.1953C83.9089 25.1849 83.7786 25.1797 83.6484 25.1797C83.3255 25.1797 83.0417 25.2266 82.7969 25.3203C82.5521 25.4089 82.3464 25.5391 82.1797 25.7109C82.0182 25.8776 81.8932 26.0807 81.8047 26.3203C81.7161 26.5599 81.6641 26.8281 81.6484 27.125L81.2188 27.1562C81.2188 26.625 81.2708 26.1328 81.375 25.6797C81.4792 25.2266 81.6354 24.8281 81.8438 24.4844C82.0573 24.1406 82.3229 23.8724 82.6406 23.6797C82.9635 23.487 83.3359 23.3906 83.7578 23.3906C83.8724 23.3906 83.9948 23.401 84.125 23.4219C84.2604 23.4427 84.362 23.4661 84.4297 23.4922ZM90.0938 30.3047V26.2734C90.0938 25.9714 90.0391 25.7109 89.9297 25.4922C89.8203 25.2734 89.6536 25.1042 89.4297 24.9844C89.2109 24.8646 88.9349 24.8047 88.6016 24.8047C88.2943 24.8047 88.0286 24.8568 87.8047 24.9609C87.5807 25.0651 87.4062 25.2057 87.2812 25.3828C87.1562 25.5599 87.0938 25.7604 87.0938 25.9844H85.2188C85.2188 25.651 85.2995 25.3281 85.4609 25.0156C85.6224 24.7031 85.8568 24.4245 86.1641 24.1797C86.4714 23.9349 86.8385 23.7422 87.2656 23.6016C87.6927 23.4609 88.1719 23.3906 88.7031 23.3906C89.3385 23.3906 89.901 23.4974 90.3906 23.7109C90.8854 23.9245 91.2734 24.2474 91.5547 24.6797C91.8411 25.1068 91.9844 25.6432 91.9844 26.2891V30.0469C91.9844 30.4323 92.0104 30.7786 92.0625 31.0859C92.1198 31.388 92.2005 31.651 92.3047 31.875V32H90.375C90.2865 31.7969 90.2161 31.5391 90.1641 31.2266C90.1172 30.9089 90.0938 30.6016 90.0938 30.3047ZM90.3672 26.8594L90.3828 28.0234H89.0312C88.6823 28.0234 88.375 28.0573 88.1094 28.125C87.8438 28.1875 87.6224 28.2812 87.4453 28.4062C87.2682 28.5312 87.1354 28.6823 87.0469 28.8594C86.9583 29.0365 86.9141 29.237 86.9141 29.4609C86.9141 29.6849 86.9661 29.8906 87.0703 30.0781C87.1745 30.2604 87.3255 30.4036 87.5234 30.5078C87.7266 30.612 87.9714 30.6641 88.2578 30.6641C88.6432 30.6641 88.9792 30.5859 89.2656 30.4297C89.5573 30.2682 89.7865 30.0729 89.9531 29.8438C90.1198 29.6094 90.2083 29.388 90.2188 29.1797L90.8281 30.0156C90.7656 30.2292 90.6589 30.4583 90.5078 30.7031C90.3568 30.9479 90.1589 31.1823 89.9141 31.4062C89.6745 31.625 89.3854 31.8047 89.0469 31.9453C88.7135 32.0859 88.3281 32.1562 87.8906 32.1562C87.3385 32.1562 86.8464 32.0469 86.4141 31.8281C85.9818 31.6042 85.6432 31.3047 85.3984 30.9297C85.1536 30.5495 85.0312 30.1198 85.0312 29.6406C85.0312 29.1927 85.1146 28.7969 85.2812 28.4531C85.4531 28.1042 85.7031 27.8125 86.0312 27.5781C86.3646 27.3438 86.7708 27.1667 87.25 27.0469C87.7292 26.9219 88.276 26.8594 88.8906 26.8594H90.3672ZM94.0469 23.5469H95.9375V32.7344C95.9375 33.3125 95.8385 33.7995 95.6406 34.1953C95.4427 34.5964 95.151 34.8984 94.7656 35.1016C94.3802 35.3099 93.9089 35.4141 93.3516 35.4141C93.1849 35.4141 93.013 35.401 92.8359 35.375C92.6536 35.3542 92.4818 35.3229 92.3203 35.2812L92.3281 33.8125C92.4375 33.8333 92.5547 33.849 92.6797 33.8594C92.7995 33.875 92.9141 33.8828 93.0234 33.8828C93.2474 33.8828 93.4349 33.8438 93.5859 33.7656C93.737 33.6875 93.8516 33.5651 93.9297 33.3984C94.0078 33.2318 94.0469 33.0104 94.0469 32.7344V23.5469ZM93.8828 21.3281C93.8828 21.0417 93.9792 20.8047 94.1719 20.6172C94.3646 20.4245 94.6276 20.3281 94.9609 20.3281C95.2995 20.3281 95.5625 20.4245 95.75 20.6172C95.9427 20.8047 96.0391 21.0417 96.0391 21.3281C96.0391 21.6094 95.9427 21.8438 95.75 22.0312C95.5625 22.2188 95.2995 22.3125 94.9609 22.3125C94.6276 22.3125 94.3646 22.2188 94.1719 22.0312C93.9792 21.8438 93.8828 21.6094 93.8828 21.3281ZM101.695 32.1562C101.07 32.1562 100.505 32.0547 100 31.8516C99.5 31.6432 99.0729 31.3542 98.7188 30.9844C98.3698 30.6146 98.1016 30.1797 97.9141 29.6797C97.7266 29.1797 97.6328 28.6406 97.6328 28.0625V27.75C97.6328 27.0885 97.7292 26.4896 97.9219 25.9531C98.1146 25.4167 98.3828 24.9583 98.7266 24.5781C99.0703 24.1927 99.4766 23.8984 99.9453 23.6953C100.414 23.4922 100.922 23.3906 101.469 23.3906C102.073 23.3906 102.602 23.4922 103.055 23.6953C103.508 23.8984 103.883 24.1849 104.18 24.5547C104.482 24.9193 104.706 25.3542 104.852 25.8594C105.003 26.3646 105.078 26.9219 105.078 27.5312V28.3359H98.5469V26.9844H103.219V26.8359C103.208 26.4974 103.141 26.1797 103.016 25.8828C102.896 25.5859 102.711 25.3464 102.461 25.1641C102.211 24.9818 101.878 24.8906 101.461 24.8906C101.148 24.8906 100.87 24.9583 100.625 25.0938C100.385 25.224 100.185 25.4141 100.023 25.6641C99.862 25.9141 99.737 26.2161 99.6484 26.5703C99.5651 26.9193 99.5234 27.3125 99.5234 27.75V28.0625C99.5234 28.4323 99.5729 28.776 99.6719 29.0938C99.776 29.4062 99.9271 29.6797 100.125 29.9141C100.323 30.1484 100.562 30.3333 100.844 30.4688C101.125 30.599 101.445 30.6641 101.805 30.6641C102.258 30.6641 102.661 30.5729 103.016 30.3906C103.37 30.2083 103.677 29.9505 103.938 29.6172L104.93 30.5781C104.747 30.8438 104.51 31.099 104.219 31.3438C103.927 31.5833 103.57 31.7786 103.148 31.9297C102.732 32.0807 102.247 32.1562 101.695 32.1562ZM115.945 23.5469H117.656V31.7656C117.656 32.526 117.495 33.1719 117.172 33.7031C116.849 34.2344 116.398 34.638 115.82 34.9141C115.242 35.1953 114.573 35.3359 113.812 35.3359C113.49 35.3359 113.13 35.2891 112.734 35.1953C112.344 35.1016 111.964 34.9505 111.594 34.7422C111.229 34.5391 110.924 34.2708 110.68 33.9375L111.562 32.8281C111.865 33.1875 112.198 33.4505 112.562 33.6172C112.927 33.7839 113.31 33.8672 113.711 33.8672C114.143 33.8672 114.51 33.7865 114.812 33.625C115.12 33.4688 115.357 33.237 115.523 32.9297C115.69 32.6224 115.773 32.2474 115.773 31.8047V25.4609L115.945 23.5469ZM110.203 27.8672V27.7031C110.203 27.0625 110.281 26.4792 110.438 25.9531C110.594 25.4219 110.818 24.9661 111.109 24.5859C111.401 24.2005 111.755 23.9062 112.172 23.7031C112.589 23.4948 113.06 23.3906 113.586 23.3906C114.133 23.3906 114.599 23.4896 114.984 23.6875C115.375 23.8854 115.701 24.1693 115.961 24.5391C116.221 24.9036 116.424 25.3411 116.57 25.8516C116.721 26.3568 116.833 26.9193 116.906 27.5391V28.0625C116.839 28.6667 116.724 29.2188 116.562 29.7188C116.401 30.2188 116.188 30.651 115.922 31.0156C115.656 31.3802 115.328 31.6615 114.938 31.8594C114.552 32.0573 114.096 32.1562 113.57 32.1562C113.055 32.1562 112.589 32.0495 112.172 31.8359C111.76 31.6224 111.406 31.3229 111.109 30.9375C110.818 30.5521 110.594 30.099 110.438 29.5781C110.281 29.0521 110.203 28.4818 110.203 27.8672ZM112.086 27.7031V27.8672C112.086 28.2526 112.122 28.612 112.195 28.9453C112.273 29.2786 112.391 29.5729 112.547 29.8281C112.708 30.0781 112.911 30.276 113.156 30.4219C113.406 30.5625 113.701 30.6328 114.039 30.6328C114.482 30.6328 114.844 30.5391 115.125 30.3516C115.411 30.1641 115.63 29.9115 115.781 29.5938C115.938 29.2708 116.047 28.9115 116.109 28.5156V27.1016C116.078 26.7943 116.013 26.5078 115.914 26.2422C115.82 25.9766 115.693 25.7448 115.531 25.5469C115.37 25.3438 115.167 25.1875 114.922 25.0781C114.677 24.9635 114.388 24.9062 114.055 24.9062C113.716 24.9062 113.422 24.9792 113.172 25.125C112.922 25.2708 112.716 25.4714 112.555 25.7266C112.398 25.9818 112.281 26.2786 112.203 26.6172C112.125 26.9557 112.086 27.3177 112.086 27.7031ZM123.336 32.1562C122.711 32.1562 122.146 32.0547 121.641 31.8516C121.141 31.6432 120.714 31.3542 120.359 30.9844C120.01 30.6146 119.742 30.1797 119.555 29.6797C119.367 29.1797 119.273 28.6406 119.273 28.0625V27.75C119.273 27.0885 119.37 26.4896 119.562 25.9531C119.755 25.4167 120.023 24.9583 120.367 24.5781C120.711 24.1927 121.117 23.8984 121.586 23.6953C122.055 23.4922 122.562 23.3906 123.109 23.3906C123.714 23.3906 124.242 23.4922 124.695 23.6953C125.148 23.8984 125.523 24.1849 125.82 24.5547C126.122 24.9193 126.346 25.3542 126.492 25.8594C126.643 26.3646 126.719 26.9219 126.719 27.5312V28.3359H120.188V26.9844H124.859V26.8359C124.849 26.4974 124.781 26.1797 124.656 25.8828C124.536 25.5859 124.352 25.3464 124.102 25.1641C123.852 24.9818 123.518 24.8906 123.102 24.8906C122.789 24.8906 122.51 24.9583 122.266 25.0938C122.026 25.224 121.826 25.4141 121.664 25.6641C121.503 25.9141 121.378 26.2161 121.289 26.5703C121.206 26.9193 121.164 27.3125 121.164 27.75V28.0625C121.164 28.4323 121.214 28.776 121.312 29.0938C121.417 29.4062 121.568 29.6797 121.766 29.9141C121.964 30.1484 122.203 30.3333 122.484 30.4688C122.766 30.599 123.086 30.6641 123.445 30.6641C123.898 30.6641 124.302 30.5729 124.656 30.3906C125.01 30.2083 125.318 29.9505 125.578 29.6172L126.57 30.5781C126.388 30.8438 126.151 31.099 125.859 31.3438C125.568 31.5833 125.211 31.7786 124.789 31.9297C124.372 32.0807 123.888 32.1562 123.336 32.1562ZM130.055 25.3516V32H128.172V23.5469H129.945L130.055 25.3516ZM129.719 27.4609L129.109 27.4531C129.115 26.8542 129.198 26.3047 129.359 25.8047C129.526 25.3047 129.755 24.875 130.047 24.5156C130.344 24.1562 130.698 23.8802 131.109 23.6875C131.521 23.4896 131.979 23.3906 132.484 23.3906C132.891 23.3906 133.258 23.4479 133.586 23.5625C133.919 23.6719 134.203 23.8516 134.438 24.1016C134.677 24.3516 134.859 24.6771 134.984 25.0781C135.109 25.474 135.172 25.9609 135.172 26.5391V32H133.281V26.5312C133.281 26.125 133.221 25.8047 133.102 25.5703C132.987 25.3307 132.818 25.1615 132.594 25.0625C132.375 24.9583 132.102 24.9062 131.773 24.9062C131.451 24.9062 131.161 24.974 130.906 25.1094C130.651 25.2448 130.435 25.4297 130.258 25.6641C130.086 25.8984 129.953 26.1693 129.859 26.4766C129.766 26.7839 129.719 27.112 129.719 27.4609ZM140.82 32.1562C140.195 32.1562 139.63 32.0547 139.125 31.8516C138.625 31.6432 138.198 31.3542 137.844 30.9844C137.495 30.6146 137.227 30.1797 137.039 29.6797C136.852 29.1797 136.758 28.6406 136.758 28.0625V27.75C136.758 27.0885 136.854 26.4896 137.047 25.9531C137.24 25.4167 137.508 24.9583 137.852 24.5781C138.195 24.1927 138.602 23.8984 139.07 23.6953C139.539 23.4922 140.047 23.3906 140.594 23.3906C141.198 23.3906 141.727 23.4922 142.18 23.6953C142.633 23.8984 143.008 24.1849 143.305 24.5547C143.607 24.9193 143.831 25.3542 143.977 25.8594C144.128 26.3646 144.203 26.9219 144.203 27.5312V28.3359H137.672V26.9844H142.344V26.8359C142.333 26.4974 142.266 26.1797 142.141 25.8828C142.021 25.5859 141.836 25.3464 141.586 25.1641C141.336 24.9818 141.003 24.8906 140.586 24.8906C140.273 24.8906 139.995 24.9583 139.75 25.0938C139.51 25.224 139.31 25.4141 139.148 25.6641C138.987 25.9141 138.862 26.2161 138.773 26.5703C138.69 26.9193 138.648 27.3125 138.648 27.75V28.0625C138.648 28.4323 138.698 28.776 138.797 29.0938C138.901 29.4062 139.052 29.6797 139.25 29.9141C139.448 30.1484 139.688 30.3333 139.969 30.4688C140.25 30.599 140.57 30.6641 140.93 30.6641C141.383 30.6641 141.786 30.5729 142.141 30.3906C142.495 30.2083 142.802 29.9505 143.062 29.6172L144.055 30.5781C143.872 30.8438 143.635 31.099 143.344 31.3438C143.052 31.5833 142.695 31.7786 142.273 31.9297C141.857 32.0807 141.372 32.1562 140.82 32.1562ZM147.562 25.1562V32H145.68V23.5469H147.477L147.562 25.1562ZM150.148 23.4922L150.133 25.2422C150.018 25.2214 149.893 25.2057 149.758 25.1953C149.628 25.1849 149.497 25.1797 149.367 25.1797C149.044 25.1797 148.76 25.2266 148.516 25.3203C148.271 25.4089 148.065 25.5391 147.898 25.7109C147.737 25.8776 147.612 26.0807 147.523 26.3203C147.435 26.5599 147.383 26.8281 147.367 27.125L146.938 27.1562C146.938 26.625 146.99 26.1328 147.094 25.6797C147.198 25.2266 147.354 24.8281 147.562 24.4844C147.776 24.1406 148.042 23.8724 148.359 23.6797C148.682 23.487 149.055 23.3906 149.477 23.3906C149.591 23.3906 149.714 23.401 149.844 23.4219C149.979 23.4427 150.081 23.4661 150.148 23.4922ZM155.812 30.3047V26.2734C155.812 25.9714 155.758 25.7109 155.648 25.4922C155.539 25.2734 155.372 25.1042 155.148 24.9844C154.93 24.8646 154.654 24.8047 154.32 24.8047C154.013 24.8047 153.747 24.8568 153.523 24.9609C153.299 25.0651 153.125 25.2057 153 25.3828C152.875 25.5599 152.812 25.7604 152.812 25.9844H150.938C150.938 25.651 151.018 25.3281 151.18 25.0156C151.341 24.7031 151.576 24.4245 151.883 24.1797C152.19 23.9349 152.557 23.7422 152.984 23.6016C153.411 23.4609 153.891 23.3906 154.422 23.3906C155.057 23.3906 155.62 23.4974 156.109 23.7109C156.604 23.9245 156.992 24.2474 157.273 24.6797C157.56 25.1068 157.703 25.6432 157.703 26.2891V30.0469C157.703 30.4323 157.729 30.7786 157.781 31.0859C157.839 31.388 157.919 31.651 158.023 31.875V32H156.094C156.005 31.7969 155.935 31.5391 155.883 31.2266C155.836 30.9089 155.812 30.6016 155.812 30.3047ZM156.086 26.8594L156.102 28.0234H154.75C154.401 28.0234 154.094 28.0573 153.828 28.125C153.562 28.1875 153.341 28.2812 153.164 28.4062C152.987 28.5312 152.854 28.6823 152.766 28.8594C152.677 29.0365 152.633 29.237 152.633 29.4609C152.633 29.6849 152.685 29.8906 152.789 30.0781C152.893 30.2604 153.044 30.4036 153.242 30.5078C153.445 30.612 153.69 30.6641 153.977 30.6641C154.362 30.6641 154.698 30.5859 154.984 30.4297C155.276 30.2682 155.505 30.0729 155.672 29.8438C155.839 29.6094 155.927 29.388 155.938 29.1797L156.547 30.0156C156.484 30.2292 156.378 30.4583 156.227 30.7031C156.076 30.9479 155.878 31.1823 155.633 31.4062C155.393 31.625 155.104 31.8047 154.766 31.9453C154.432 32.0859 154.047 32.1562 153.609 32.1562C153.057 32.1562 152.565 32.0469 152.133 31.8281C151.701 31.6042 151.362 31.3047 151.117 30.9297C150.872 30.5495 150.75 30.1198 150.75 29.6406C150.75 29.1927 150.833 28.7969 151 28.4531C151.172 28.1042 151.422 27.8125 151.75 27.5781C152.083 27.3438 152.49 27.1667 152.969 27.0469C153.448 26.9219 153.995 26.8594 154.609 26.8594H156.086ZM164.828 30.25V20H166.719V32H165.008L164.828 30.25ZM159.328 27.8672V27.7031C159.328 27.0625 159.404 26.4792 159.555 25.9531C159.706 25.4219 159.924 24.9661 160.211 24.5859C160.497 24.2005 160.846 23.9062 161.258 23.7031C161.669 23.4948 162.133 23.3906 162.648 23.3906C163.159 23.3906 163.607 23.4896 163.992 23.6875C164.378 23.8854 164.706 24.1693 164.977 24.5391C165.247 24.9036 165.464 25.3411 165.625 25.8516C165.786 26.3568 165.901 26.9193 165.969 27.5391V28.0625C165.901 28.6667 165.786 29.2188 165.625 29.7188C165.464 30.2188 165.247 30.651 164.977 31.0156C164.706 31.3802 164.375 31.6615 163.984 31.8594C163.599 32.0573 163.148 32.1562 162.633 32.1562C162.122 32.1562 161.661 32.0495 161.25 31.8359C160.844 31.6224 160.497 31.3229 160.211 30.9375C159.924 30.5521 159.706 30.099 159.555 29.5781C159.404 29.0521 159.328 28.4818 159.328 27.8672ZM161.211 27.7031V27.8672C161.211 28.2526 161.245 28.612 161.312 28.9453C161.385 29.2786 161.497 29.5729 161.648 29.8281C161.799 30.0781 161.995 30.276 162.234 30.4219C162.479 30.5625 162.771 30.6328 163.109 30.6328C163.536 30.6328 163.888 30.5391 164.164 30.3516C164.44 30.1641 164.656 29.9115 164.812 29.5938C164.974 29.2708 165.083 28.9115 165.141 28.5156V27.1016C165.109 26.7943 165.044 26.5078 164.945 26.2422C164.852 25.9766 164.724 25.7448 164.562 25.5469C164.401 25.3438 164.201 25.1875 163.961 25.0781C163.727 24.9635 163.448 24.9062 163.125 24.9062C162.781 24.9062 162.49 24.9792 162.25 25.125C162.01 25.2708 161.812 25.4714 161.656 25.7266C161.505 25.9818 161.393 26.2786 161.32 26.6172C161.247 26.9557 161.211 27.3177 161.211 27.7031ZM168.328 27.8672V27.6875C168.328 27.0781 168.417 26.513 168.594 25.9922C168.771 25.4661 169.026 25.0104 169.359 24.625C169.698 24.2344 170.109 23.9323 170.594 23.7188C171.083 23.5 171.635 23.3906 172.25 23.3906C172.87 23.3906 173.422 23.5 173.906 23.7188C174.396 23.9323 174.81 24.2344 175.148 24.625C175.487 25.0104 175.745 25.4661 175.922 25.9922C176.099 26.513 176.188 27.0781 176.188 27.6875V27.8672C176.188 28.4766 176.099 29.0417 175.922 29.5625C175.745 30.0833 175.487 30.5391 175.148 30.9297C174.81 31.3151 174.398 31.6172 173.914 31.8359C173.43 32.0495 172.88 32.1562 172.266 32.1562C171.646 32.1562 171.091 32.0495 170.602 31.8359C170.117 31.6172 169.706 31.3151 169.367 30.9297C169.029 30.5391 168.771 30.0833 168.594 29.5625C168.417 29.0417 168.328 28.4766 168.328 27.8672ZM170.211 27.6875V27.8672C170.211 28.2474 170.25 28.6068 170.328 28.9453C170.406 29.2839 170.529 29.5807 170.695 29.8359C170.862 30.0911 171.076 30.2917 171.336 30.4375C171.596 30.5833 171.906 30.6562 172.266 30.6562C172.615 30.6562 172.917 30.5833 173.172 30.4375C173.432 30.2917 173.646 30.0911 173.812 29.8359C173.979 29.5807 174.102 29.2839 174.18 28.9453C174.263 28.6068 174.305 28.2474 174.305 27.8672V27.6875C174.305 27.3125 174.263 26.9583 174.18 26.625C174.102 26.2865 173.977 25.987 173.805 25.7266C173.638 25.4661 173.424 25.263 173.164 25.1172C172.909 24.9661 172.604 24.8906 172.25 24.8906C171.896 24.8906 171.589 24.9661 171.328 25.1172C171.073 25.263 170.862 25.4661 170.695 25.7266C170.529 25.987 170.406 26.2865 170.328 26.625C170.25 26.9583 170.211 27.3125 170.211 27.6875Z" fill="black"/>
</g>
<defs>
<filter id="filter0_dd_259_1662" x="-4" y="0" width="368" height="330" filterUnits="userSpaceOnUse" color-interpolation-filters="sRGB">
<feFlood flood-opacity="0" result="BackgroundImageFix"/>
<feColorMatrix in="SourceAlpha" type="matrix" values="0 0 0 0 0 0 0 0 0 0 0 0 0 0 0 0 0 0 127 0" result="hardAlpha"/>
<feOffset dy="1"/>
<feGaussianBlur stdDeviation="1.5"/>
<feColorMatrix type="matrix" values="0 0 0 0 0 0 0 0 0 0 0 0 0 0 0 0 0 0 0.3 0"/>
<feBlend mode="normal" in2="BackgroundImageFix" result="effect1_dropShadow_259_1662"/>
<feColorMatrix in="SourceAlpha" type="matrix" values="0 0 0 0 0 0 0 0 0 0 0 0 0 0 0 0 0 0 127 0" result="hardAlpha"/>
<feMorphology radius="3" operator="dilate" in="SourceAlpha" result="effect2_dropShadow_259_1662"/>
<feOffset dy="4"/>
<feGaussianBlur stdDeviation="4"/>
<feColorMatrix type="matrix" values="0 0 0 0 0 0 0 0 0 0 0 0 0 0 0 0 0 0 0.15 0"/>
<feBlend mode="normal" in2="effect1_dropShadow_259_1662" result="effect2_dropShadow_259_1662"/>
<feBlend mode="normal" in="SourceGraphic" in2="effect2_dropShadow_259_1662" result="shape"/>
</filter>
<filter id="filter1_d_259_1662" x="195.732" y="20" width="61.8787" height="61.8661" filterUnits="userSpaceOnUse" color-interpolation-filters="sRGB">
<feFlood flood-opacity="0" result="BackgroundImageFix"/>
<feColorMatrix in="SourceAlpha" type="matrix" values="0 0 0 0 0 0 0 0 0 0 0 0 0 0 0 0 0 0 127 0" result="hardAlpha"/>
<feMorphology radius="6" operator="dilate" in="SourceAlpha" result="effect1_dropShadow_259_1662"/>
<feOffset/>
<feGaussianBlur stdDeviation="10"/>
<feComposite in2="hardAlpha" operator="out"/>
<feColorMatrix type="matrix" values="0 0 0 0 0.830444 0 0 0 0 0.280556 0 0 0 0 0.841667 0 0 0 1 0"/>
<feBlend mode="normal" in2="BackgroundImageFix" result="effect1_dropShadow_259_1662"/>
<feBlend mode="normal" in="SourceGraphic" in2="effect1_dropShadow_259_1662" result="shape"/>
</filter>
<linearGradient id="paint0_linear_259_1662" x1="342.253" y1="59.7295" x2="40.3467" y2="58.7956" gradientUnits="userSpaceOnUse">
<stop stop-color="#39A826"/>
<stop offset="0.541667" stop-color="#39A826" stop-opacity="0.96"/>
<stop offset="1" stop-color="#39A826"/>
<stop offset="1" stop-color="#39A826"/>
</linearGradient>
<linearGradient id="paint1_linear_259_1662" x1="199.479" y1="62.3907" x2="163.706" y2="254.361" gradientUnits="userSpaceOnUse">
<stop stop-color="#39A826" stop-opacity="0.36"/>
<stop offset="1" stop-color="#39A826" stop-opacity="0"/>
</linearGradient>
<linearGradient id="paint2_linear_259_1662" x1="226.256" y1="63.3745" x2="226.256" y2="266.704" gradientUnits="userSpaceOnUse">
<stop stop-color="#39A826"/>
<stop offset="1" stop-color="#020609" stop-opacity="0.0416667"/>
</linearGradient>
</defs>
</svg>
