<svg width="360" height="330" viewBox="0 0 360 330" fill="none" xmlns="http://www.w3.org/2000/svg">
<g filter="url(#filter0_dd_259_1665)">
<rect x="7" y="7" width="346" height="308" rx="12" fill="white"/>
<path d="M37.0001 266.948V150.239V47.3625H343V187.413V266.948H37.0001Z" fill="#F9F9F9"/>
<path d="M342.253 164.546C334.825 196.304 313.769 255.879 288.966 240.109C257.963 220.397 269.589 85.6973 236.649 56.9505C210.296 33.953 191.436 96.101 185.3 130.05C183.362 138.263 177.247 167.199 159.568 170.069C149.305 171.735 131.43 174.846 128.871 193.444C122.886 236.951 70.7184 234.862 70.7184 193.444C70.7184 148.486 46.8053 132.787 40.3464 130.05" stroke="url(#paint0_linear_259_1665)" stroke-width="2"/>
<path d="M288.446 239.887C313.249 255.656 334.305 196.082 341.733 164.323L341.733 277.984L39.8264 277.984L39.8264 129.827C46.2854 132.565 70.1984 148.264 70.1984 193.221C70.1984 234.639 122.366 236.728 128.351 193.221C130.91 174.623 148.785 171.513 159.048 169.847C176.727 166.976 182.842 138.041 184.78 129.827C190.916 95.8786 209.776 33.7307 236.129 56.7282C269.069 85.475 257.443 220.174 288.446 239.887Z" fill="url(#paint1_linear_259_1665)"/>
<line x1="226.756" y1="54.3376" x2="226.756" y2="278" stroke="url(#paint2_linear_259_1665)"/>
<g filter="url(#filter1_d_259_1665)">
<ellipse cx="226.672" cy="50.9331" rx="4.93936" ry="4.93306" fill="#FCA311"/>
<path d="M231.111 50.9331C231.111 53.3808 229.124 55.3661 226.672 55.3661C224.219 55.3661 222.232 53.3808 222.232 50.9331C222.232 48.4853 224.219 46.5 226.672 46.5C229.124 46.5 231.111 48.4853 231.111 50.9331Z" stroke="white"/>
</g>
<rect x="62" y="282" width="39" height="23" rx="10" fill="white"/>
<path d="M69.7723 290.75V289.71H71.8523V297H70.7023V290.75H69.7723ZM78.0384 290.59L75.2584 297H74.1084L76.9184 290.71H73.2184V289.74H78.0384V290.59ZM79.6241 297.07C79.4174 297.07 79.2441 297 79.1041 296.86C78.9641 296.72 78.8941 296.547 78.8941 296.34C78.8941 296.133 78.9641 295.96 79.1041 295.82C79.2441 295.68 79.4174 295.61 79.6241 295.61C79.8241 295.61 79.9941 295.68 80.1341 295.82C80.2741 295.96 80.3441 296.133 80.3441 296.34C80.3441 296.547 80.2741 296.72 80.1341 296.86C79.9941 297 79.8241 297.07 79.6241 297.07ZM79.6241 292.87C79.4174 292.87 79.2441 292.8 79.1041 292.66C78.9641 292.52 78.8941 292.347 78.8941 292.14C78.8941 291.933 78.9641 291.76 79.1041 291.62C79.2441 291.48 79.4174 291.41 79.6241 291.41C79.8241 291.41 79.9941 291.48 80.1341 291.62C80.2741 291.76 80.3441 291.933 80.3441 292.14C80.3441 292.347 80.2741 292.52 80.1341 292.66C79.9941 292.8 79.8241 292.87 79.6241 292.87ZM81.4652 293.26C81.4652 292.107 81.6586 291.207 82.0452 290.56C82.4386 289.907 83.1119 289.58 84.0652 289.58C85.0186 289.58 85.6886 289.907 86.0752 290.56C86.4686 291.207 86.6652 292.107 86.6652 293.26C86.6652 294.427 86.4686 295.34 86.0752 296C85.6886 296.653 85.0186 296.98 84.0652 296.98C83.1119 296.98 82.4386 296.653 82.0452 296C81.6586 295.34 81.4652 294.427 81.4652 293.26ZM85.5452 293.26C85.5452 292.72 85.5086 292.263 85.4352 291.89C85.3686 291.517 85.2286 291.213 85.0152 290.98C84.8019 290.74 84.4852 290.62 84.0652 290.62C83.6452 290.62 83.3286 290.74 83.1152 290.98C82.9019 291.213 82.7586 291.517 82.6852 291.89C82.6186 292.263 82.5852 292.72 82.5852 293.26C82.5852 293.82 82.6186 294.29 82.6852 294.67C82.7519 295.05 82.8919 295.357 83.1052 295.59C83.3252 295.823 83.6452 295.94 84.0652 295.94C84.4852 295.94 84.8019 295.823 85.0152 295.59C85.2352 295.357 85.3786 295.05 85.4452 294.67C85.5119 294.29 85.5452 293.82 85.5452 293.26ZM87.8715 293.26C87.8715 292.107 88.0648 291.207 88.4515 290.56C88.8448 289.907 89.5182 289.58 90.4715 289.58C91.4248 289.58 92.0948 289.907 92.4815 290.56C92.8748 291.207 93.0715 292.107 93.0715 293.26C93.0715 294.427 92.8748 295.34 92.4815 296C92.0948 296.653 91.4248 296.98 90.4715 296.98C89.5182 296.98 88.8448 296.653 88.4515 296C88.0648 295.34 87.8715 294.427 87.8715 293.26ZM91.9515 293.26C91.9515 292.72 91.9148 292.263 91.8415 291.89C91.7748 291.517 91.6348 291.213 91.4215 290.98C91.2082 290.74 90.8915 290.62 90.4715 290.62C90.0515 290.62 89.7348 290.74 89.5215 290.98C89.3082 291.213 89.1648 291.517 89.0915 291.89C89.0248 292.263 88.9915 292.72 88.9915 293.26C88.9915 293.82 89.0248 294.29 89.0915 294.67C89.1582 295.05 89.2982 295.357 89.5115 295.59C89.7315 295.823 90.0515 295.94 90.4715 295.94C90.8915 295.94 91.2082 295.823 91.4215 295.59C91.6415 295.357 91.7848 295.05 91.8515 294.67C91.9182 294.29 91.9515 293.82 91.9515 293.26Z" fill="#999999" fill-opacity="0.75"/>
<rect x="126" y="282" width="40" height="23" rx="10" fill="white"/>
<path d="M133.882 290.75V289.71H135.962V297H134.812V290.75H133.882ZM138.758 293.19C138.064 292.843 137.718 292.297 137.718 291.55C137.718 291.19 137.808 290.86 137.988 290.56C138.168 290.26 138.438 290.023 138.798 289.85C139.158 289.67 139.598 289.58 140.118 289.58C140.631 289.58 141.068 289.67 141.428 289.85C141.794 290.023 142.068 290.26 142.248 290.56C142.428 290.86 142.518 291.19 142.518 291.55C142.518 291.923 142.421 292.253 142.228 292.54C142.041 292.82 141.791 293.037 141.478 293.19C141.858 293.33 142.158 293.56 142.378 293.88C142.598 294.193 142.708 294.563 142.708 294.99C142.708 295.423 142.598 295.807 142.378 296.14C142.158 296.473 141.851 296.73 141.458 296.91C141.064 297.09 140.618 297.18 140.118 297.18C139.618 297.18 139.171 297.09 138.778 296.91C138.391 296.73 138.088 296.473 137.868 296.14C137.648 295.807 137.538 295.423 137.538 294.99C137.538 294.557 137.648 294.183 137.868 293.87C138.088 293.557 138.384 293.33 138.758 293.19ZM141.428 291.69C141.428 291.317 141.311 291.03 141.078 290.83C140.844 290.63 140.524 290.53 140.118 290.53C139.718 290.53 139.401 290.63 139.168 290.83C138.934 291.03 138.818 291.32 138.818 291.7C138.818 292.033 138.938 292.307 139.178 292.52C139.424 292.727 139.738 292.83 140.118 292.83C140.498 292.83 140.811 292.723 141.058 292.51C141.304 292.297 141.428 292.023 141.428 291.69ZM140.118 293.69C139.678 293.69 139.318 293.8 139.038 294.02C138.764 294.233 138.628 294.543 138.628 294.95C138.628 295.33 138.761 295.64 139.028 295.88C139.294 296.113 139.658 296.23 140.118 296.23C140.571 296.23 140.928 296.11 141.188 295.87C141.454 295.63 141.588 295.323 141.588 294.95C141.588 294.55 141.451 294.24 141.178 294.02C140.911 293.8 140.558 293.69 140.118 293.69ZM144.515 297.07C144.308 297.07 144.135 297 143.995 296.86C143.855 296.72 143.785 296.547 143.785 296.34C143.785 296.133 143.855 295.96 143.995 295.82C144.135 295.68 144.308 295.61 144.515 295.61C144.715 295.61 144.885 295.68 145.025 295.82C145.165 295.96 145.235 296.133 145.235 296.34C145.235 296.547 145.165 296.72 145.025 296.86C144.885 297 144.715 297.07 144.515 297.07ZM144.515 292.87C144.308 292.87 144.135 292.8 143.995 292.66C143.855 292.52 143.785 292.347 143.785 292.14C143.785 291.933 143.855 291.76 143.995 291.62C144.135 291.48 144.308 291.41 144.515 291.41C144.715 291.41 144.885 291.48 145.025 291.62C145.165 291.76 145.235 291.933 145.235 292.14C145.235 292.347 145.165 292.52 145.025 292.66C144.885 292.8 144.715 292.87 144.515 292.87ZM146.356 293.26C146.356 292.107 146.549 291.207 146.936 290.56C147.329 289.907 148.003 289.58 148.956 289.58C149.909 289.58 150.579 289.907 150.966 290.56C151.359 291.207 151.556 292.107 151.556 293.26C151.556 294.427 151.359 295.34 150.966 296C150.579 296.653 149.909 296.98 148.956 296.98C148.003 296.98 147.329 296.653 146.936 296C146.549 295.34 146.356 294.427 146.356 293.26ZM150.436 293.26C150.436 292.72 150.399 292.263 150.326 291.89C150.259 291.517 150.119 291.213 149.906 290.98C149.693 290.74 149.376 290.62 148.956 290.62C148.536 290.62 148.219 290.74 148.006 290.98C147.793 291.213 147.649 291.517 147.576 291.89C147.509 292.263 147.476 292.72 147.476 293.26C147.476 293.82 147.509 294.29 147.576 294.67C147.643 295.05 147.783 295.357 147.996 295.59C148.216 295.823 148.536 295.94 148.956 295.94C149.376 295.94 149.693 295.823 149.906 295.59C150.126 295.357 150.269 295.05 150.336 294.67C150.403 294.29 150.436 293.82 150.436 293.26ZM152.762 293.26C152.762 292.107 152.955 291.207 153.342 290.56C153.735 289.907 154.409 289.58 155.362 289.58C156.315 289.58 156.985 289.907 157.372 290.56C157.765 291.207 157.962 292.107 157.962 293.26C157.962 294.427 157.765 295.34 157.372 296C156.985 296.653 156.315 296.98 155.362 296.98C154.409 296.98 153.735 296.653 153.342 296C152.955 295.34 152.762 294.427 152.762 293.26ZM156.842 293.26C156.842 292.72 156.805 292.263 156.732 291.89C156.665 291.517 156.525 291.213 156.312 290.98C156.099 290.74 155.782 290.62 155.362 290.62C154.942 290.62 154.625 290.74 154.412 290.98C154.199 291.213 154.055 291.517 153.982 291.89C153.915 292.263 153.882 292.72 153.882 293.26C153.882 293.82 153.915 294.29 153.982 294.67C154.049 295.05 154.189 295.357 154.402 295.59C154.622 295.823 154.942 295.94 155.362 295.94C155.782 295.94 156.099 295.823 156.312 295.59C156.532 295.357 156.675 295.05 156.742 294.67C156.809 294.29 156.842 293.82 156.842 293.26Z" fill="#999999" fill-opacity="0.75"/>
<rect x="191" y="282" width="40" height="23" rx="10" fill="#FCA311"/>
<path d="M198.896 290.75V289.71H200.976V297H199.826V290.75H198.896ZM203.962 295.02C204.029 295.353 204.172 295.607 204.392 295.78C204.612 295.953 204.909 296.04 205.282 296.04C205.756 296.04 206.102 295.853 206.322 295.48C206.542 295.107 206.652 294.47 206.652 293.57C206.492 293.797 206.266 293.973 205.972 294.1C205.686 294.22 205.372 294.28 205.032 294.28C204.599 294.28 204.206 294.193 203.852 294.02C203.499 293.84 203.219 293.577 203.012 293.23C202.812 292.877 202.712 292.45 202.712 291.95C202.712 291.217 202.926 290.633 203.352 290.2C203.786 289.76 204.379 289.54 205.132 289.54C206.039 289.54 206.682 289.843 207.062 290.45C207.449 291.05 207.642 291.973 207.642 293.22C207.642 294.08 207.569 294.783 207.422 295.33C207.282 295.877 207.036 296.29 206.682 296.57C206.329 296.85 205.839 296.99 205.212 296.99C204.499 296.99 203.949 296.803 203.562 296.43C203.176 296.057 202.959 295.587 202.912 295.02H203.962ZM205.232 293.32C205.632 293.32 205.946 293.197 206.172 292.95C206.406 292.697 206.522 292.363 206.522 291.95C206.522 291.49 206.399 291.133 206.152 290.88C205.912 290.62 205.582 290.49 205.162 290.49C204.742 290.49 204.409 290.623 204.162 290.89C203.922 291.15 203.802 291.493 203.802 291.92C203.802 292.327 203.919 292.663 204.152 292.93C204.392 293.19 204.752 293.32 205.232 293.32ZM209.5 297.07C209.293 297.07 209.12 297 208.98 296.86C208.84 296.72 208.77 296.547 208.77 296.34C208.77 296.133 208.84 295.96 208.98 295.82C209.12 295.68 209.293 295.61 209.5 295.61C209.7 295.61 209.87 295.68 210.01 295.82C210.15 295.96 210.22 296.133 210.22 296.34C210.22 296.547 210.15 296.72 210.01 296.86C209.87 297 209.7 297.07 209.5 297.07ZM209.5 292.87C209.293 292.87 209.12 292.8 208.98 292.66C208.84 292.52 208.77 292.347 208.77 292.14C208.77 291.933 208.84 291.76 208.98 291.62C209.12 291.48 209.293 291.41 209.5 291.41C209.7 291.41 209.87 291.48 210.01 291.62C210.15 291.76 210.22 291.933 210.22 292.14C210.22 292.347 210.15 292.52 210.01 292.66C209.87 292.8 209.7 292.87 209.5 292.87ZM211.341 293.26C211.341 292.107 211.535 291.207 211.921 290.56C212.315 289.907 212.988 289.58 213.941 289.58C214.895 289.58 215.565 289.907 215.951 290.56C216.345 291.207 216.541 292.107 216.541 293.26C216.541 294.427 216.345 295.34 215.951 296C215.565 296.653 214.895 296.98 213.941 296.98C212.988 296.98 212.315 296.653 211.921 296C211.535 295.34 211.341 294.427 211.341 293.26ZM215.421 293.26C215.421 292.72 215.385 292.263 215.311 291.89C215.245 291.517 215.105 291.213 214.891 290.98C214.678 290.74 214.361 290.62 213.941 290.62C213.521 290.62 213.205 290.74 212.991 290.98C212.778 291.213 212.635 291.517 212.561 291.89C212.495 292.263 212.461 292.72 212.461 293.26C212.461 293.82 212.495 294.29 212.561 294.67C212.628 295.05 212.768 295.357 212.981 295.59C213.201 295.823 213.521 295.94 213.941 295.94C214.361 295.94 214.678 295.823 214.891 295.59C215.111 295.357 215.255 295.05 215.321 294.67C215.388 294.29 215.421 293.82 215.421 293.26ZM217.747 293.26C217.747 292.107 217.941 291.207 218.327 290.56C218.721 289.907 219.394 289.58 220.347 289.58C221.301 289.58 221.971 289.907 222.357 290.56C222.751 291.207 222.947 292.107 222.947 293.26C222.947 294.427 222.751 295.34 222.357 296C221.971 296.653 221.301 296.98 220.347 296.98C219.394 296.98 218.721 296.653 218.327 296C217.941 295.34 217.747 294.427 217.747 293.26ZM221.827 293.26C221.827 292.72 221.791 292.263 221.717 291.89C221.651 291.517 221.511 291.213 221.297 290.98C221.084 290.74 220.767 290.62 220.347 290.62C219.927 290.62 219.611 290.74 219.397 290.98C219.184 291.213 219.041 291.517 218.967 291.89C218.901 292.263 218.867 292.72 218.867 293.26C218.867 293.82 218.901 294.29 218.967 294.67C219.034 295.05 219.174 295.357 219.387 295.59C219.607 295.823 219.927 295.94 220.347 295.94C220.767 295.94 221.084 295.823 221.297 295.59C221.517 295.357 221.661 295.05 221.727 294.67C221.794 294.29 221.827 293.82 221.827 293.26Z" fill="white"/>
<rect x="256" y="282" width="42" height="23" rx="10" fill="white"/>
<path d="M264.509 295.45C265.149 294.897 265.653 294.443 266.019 294.09C266.393 293.73 266.703 293.357 266.949 292.97C267.196 292.583 267.319 292.197 267.319 291.81C267.319 291.41 267.223 291.097 267.029 290.87C266.843 290.643 266.546 290.53 266.139 290.53C265.746 290.53 265.439 290.657 265.219 290.91C265.006 291.157 264.893 291.49 264.879 291.91H263.779C263.799 291.15 264.026 290.57 264.459 290.17C264.899 289.763 265.456 289.56 266.129 289.56C266.856 289.56 267.423 289.76 267.829 290.16C268.243 290.56 268.449 291.093 268.449 291.76C268.449 292.24 268.326 292.703 268.079 293.15C267.839 293.59 267.549 293.987 267.209 294.34C266.876 294.687 266.449 295.09 265.929 295.55L265.479 295.95H268.649V296.9H263.789V296.07L264.509 295.45ZM269.651 293.26C269.651 292.107 269.844 291.207 270.231 290.56C270.624 289.907 271.297 289.58 272.251 289.58C273.204 289.58 273.874 289.907 274.261 290.56C274.654 291.207 274.851 292.107 274.851 293.26C274.851 294.427 274.654 295.34 274.261 296C273.874 296.653 273.204 296.98 272.251 296.98C271.297 296.98 270.624 296.653 270.231 296C269.844 295.34 269.651 294.427 269.651 293.26ZM273.731 293.26C273.731 292.72 273.694 292.263 273.621 291.89C273.554 291.517 273.414 291.213 273.201 290.98C272.987 290.74 272.671 290.62 272.251 290.62C271.831 290.62 271.514 290.74 271.301 290.98C271.087 291.213 270.944 291.517 270.871 291.89C270.804 292.263 270.771 292.72 270.771 293.26C270.771 293.82 270.804 294.29 270.871 294.67C270.937 295.05 271.077 295.357 271.291 295.59C271.511 295.823 271.831 295.94 272.251 295.94C272.671 295.94 272.987 295.823 273.201 295.59C273.421 295.357 273.564 295.05 273.631 294.67C273.697 294.29 273.731 293.82 273.731 293.26ZM276.667 297.07C276.46 297.07 276.287 297 276.147 296.86C276.007 296.72 275.937 296.547 275.937 296.34C275.937 296.133 276.007 295.96 276.147 295.82C276.287 295.68 276.46 295.61 276.667 295.61C276.867 295.61 277.037 295.68 277.177 295.82C277.317 295.96 277.387 296.133 277.387 296.34C277.387 296.547 277.317 296.72 277.177 296.86C277.037 297 276.867 297.07 276.667 297.07ZM276.667 292.87C276.46 292.87 276.287 292.8 276.147 292.66C276.007 292.52 275.937 292.347 275.937 292.14C275.937 291.933 276.007 291.76 276.147 291.62C276.287 291.48 276.46 291.41 276.667 291.41C276.867 291.41 277.037 291.48 277.177 291.62C277.317 291.76 277.387 291.933 277.387 292.14C277.387 292.347 277.317 292.52 277.177 292.66C277.037 292.8 276.867 292.87 276.667 292.87ZM278.508 293.26C278.508 292.107 278.702 291.207 279.088 290.56C279.482 289.907 280.155 289.58 281.108 289.58C282.062 289.58 282.732 289.907 283.118 290.56C283.512 291.207 283.708 292.107 283.708 293.26C283.708 294.427 283.512 295.34 283.118 296C282.732 296.653 282.062 296.98 281.108 296.98C280.155 296.98 279.482 296.653 279.088 296C278.702 295.34 278.508 294.427 278.508 293.26ZM282.588 293.26C282.588 292.72 282.552 292.263 282.478 291.89C282.412 291.517 282.272 291.213 282.058 290.98C281.845 290.74 281.528 290.62 281.108 290.62C280.688 290.62 280.372 290.74 280.158 290.98C279.945 291.213 279.802 291.517 279.728 291.89C279.662 292.263 279.628 292.72 279.628 293.26C279.628 293.82 279.662 294.29 279.728 294.67C279.795 295.05 279.935 295.357 280.148 295.59C280.368 295.823 280.688 295.94 281.108 295.94C281.528 295.94 281.845 295.823 282.058 295.59C282.278 295.357 282.422 295.05 282.488 294.67C282.555 294.29 282.588 293.82 282.588 293.26ZM284.914 293.26C284.914 292.107 285.108 291.207 285.494 290.56C285.888 289.907 286.561 289.58 287.514 289.58C288.468 289.58 289.138 289.907 289.524 290.56C289.918 291.207 290.114 292.107 290.114 293.26C290.114 294.427 289.918 295.34 289.524 296C289.138 296.653 288.468 296.98 287.514 296.98C286.561 296.98 285.888 296.653 285.494 296C285.108 295.34 284.914 294.427 284.914 293.26ZM288.994 293.26C288.994 292.72 288.958 292.263 288.884 291.89C288.818 291.517 288.678 291.213 288.464 290.98C288.251 290.74 287.934 290.62 287.514 290.62C287.094 290.62 286.778 290.74 286.564 290.98C286.351 291.213 286.208 291.517 286.134 291.89C286.068 292.263 286.034 292.72 286.034 293.26C286.034 293.82 286.068 294.29 286.134 294.67C286.201 295.05 286.341 295.357 286.554 295.59C286.774 295.823 287.094 295.94 287.514 295.94C287.934 295.94 288.251 295.823 288.464 295.59C288.684 295.357 288.828 295.05 288.894 294.67C288.961 294.29 288.994 293.82 288.994 293.26Z" fill="#999999" fill-opacity="0.75"/>
<path d="M19.068 59.96C19.002 59.684 18.882 59.477 18.708 59.339C18.534 59.201 18.291 59.132 17.979 59.132C17.505 59.132 17.151 59.315 16.917 59.681C16.683 60.041 16.56 60.641 16.548 61.481C16.704 61.217 16.932 61.013 17.232 60.869C17.532 60.725 17.856 60.653 18.204 60.653C18.6 60.653 18.948 60.74 19.248 60.914C19.554 61.082 19.791 61.328 19.959 61.652C20.133 61.976 20.22 62.363 20.22 62.813C20.22 63.233 20.136 63.608 19.968 63.938C19.806 64.268 19.563 64.529 19.239 64.721C18.915 64.907 18.525 65 18.069 65C17.451 65 16.965 64.865 16.611 64.595C16.263 64.319 16.017 63.932 15.873 63.434C15.735 62.936 15.666 62.315 15.666 61.571C15.666 59.375 16.44 58.277 17.988 58.277C18.588 58.277 19.059 58.439 19.401 58.763C19.749 59.087 19.953 59.486 20.013 59.96H19.068ZM17.979 61.517C17.613 61.517 17.301 61.628 17.043 61.85C16.791 62.066 16.665 62.381 16.665 62.795C16.665 63.209 16.782 63.539 17.016 63.785C17.256 64.025 17.589 64.145 18.015 64.145C18.393 64.145 18.69 64.028 18.906 63.794C19.128 63.56 19.239 63.248 19.239 62.858C19.239 62.45 19.131 62.126 18.915 61.886C18.705 61.64 18.393 61.517 17.979 61.517ZM21.3144 61.634C21.3144 60.596 21.4884 59.786 21.8364 59.204C22.1904 58.616 22.7964 58.322 23.6544 58.322C24.5124 58.322 25.1154 58.616 25.4634 59.204C25.8174 59.786 25.9944 60.596 25.9944 61.634C25.9944 62.684 25.8174 63.506 25.4634 64.1C25.1154 64.688 24.5124 64.982 23.6544 64.982C22.7964 64.982 22.1904 64.688 21.8364 64.1C21.4884 63.506 21.3144 62.684 21.3144 61.634ZM24.9864 61.634C24.9864 61.148 24.9534 60.737 24.8874 60.401C24.8274 60.065 24.7014 59.792 24.5094 59.582C24.3174 59.366 24.0324 59.258 23.6544 59.258C23.2764 59.258 22.9914 59.366 22.7994 59.582C22.6074 59.792 22.4784 60.065 22.4124 60.401C22.3524 60.737 22.3224 61.148 22.3224 61.634C22.3224 62.138 22.3524 62.561 22.4124 62.903C22.4724 63.245 22.5984 63.521 22.7904 63.731C22.9884 63.941 23.2764 64.046 23.6544 64.046C24.0324 64.046 24.3174 63.941 24.5094 63.731C24.7074 63.521 24.8364 63.245 24.8964 62.903C24.9564 62.561 24.9864 62.138 24.9864 61.634Z" fill="#B6B6B6" fill-opacity="0.75"/>
<path d="M19.068 90.96C19.002 90.684 18.882 90.477 18.708 90.339C18.534 90.201 18.291 90.132 17.979 90.132C17.505 90.132 17.151 90.315 16.917 90.681C16.683 91.041 16.56 91.641 16.548 92.481C16.704 92.217 16.932 92.013 17.232 91.869C17.532 91.725 17.856 91.653 18.204 91.653C18.6 91.653 18.948 91.74 19.248 91.914C19.554 92.082 19.791 92.328 19.959 92.652C20.133 92.976 20.22 93.363 20.22 93.813C20.22 94.233 20.136 94.608 19.968 94.938C19.806 95.268 19.563 95.529 19.239 95.721C18.915 95.907 18.525 96 18.069 96C17.451 96 16.965 95.865 16.611 95.595C16.263 95.319 16.017 94.932 15.873 94.434C15.735 93.936 15.666 93.315 15.666 92.571C15.666 90.375 16.44 89.277 17.988 89.277C18.588 89.277 19.059 89.439 19.401 89.763C19.749 90.087 19.953 90.486 20.013 90.96H19.068ZM17.979 92.517C17.613 92.517 17.301 92.628 17.043 92.85C16.791 93.066 16.665 93.381 16.665 93.795C16.665 94.209 16.782 94.539 17.016 94.785C17.256 95.025 17.589 95.145 18.015 95.145C18.393 95.145 18.69 95.028 18.906 94.794C19.128 94.56 19.239 94.248 19.239 93.858C19.239 93.45 19.131 93.126 18.915 92.886C18.705 92.64 18.393 92.517 17.979 92.517ZM21.3144 92.634C21.3144 91.596 21.4884 90.786 21.8364 90.204C22.1904 89.616 22.7964 89.322 23.6544 89.322C24.5124 89.322 25.1154 89.616 25.4634 90.204C25.8174 90.786 25.9944 91.596 25.9944 92.634C25.9944 93.684 25.8174 94.506 25.4634 95.1C25.1154 95.688 24.5124 95.982 23.6544 95.982C22.7964 95.982 22.1904 95.688 21.8364 95.1C21.4884 94.506 21.3144 93.684 21.3144 92.634ZM24.9864 92.634C24.9864 92.148 24.9534 91.737 24.8874 91.401C24.8274 91.065 24.7014 90.792 24.5094 90.582C24.3174 90.366 24.0324 90.258 23.6544 90.258C23.2764 90.258 22.9914 90.366 22.7994 90.582C22.6074 90.792 22.4784 91.065 22.4124 91.401C22.3524 91.737 22.3224 92.148 22.3224 92.634C22.3224 93.138 22.3524 93.561 22.4124 93.903C22.4724 94.245 22.5984 94.521 22.7904 94.731C22.9884 94.941 23.2764 95.046 23.6544 95.046C24.0324 95.046 24.3174 94.941 24.5094 94.731C24.7074 94.521 24.8364 94.245 24.8964 93.903C24.9564 93.561 24.9864 93.138 24.9864 92.634Z" fill="#B6B6B6" fill-opacity="0.75"/>
<path d="M19.068 121.96C19.002 121.684 18.882 121.477 18.708 121.339C18.534 121.201 18.291 121.132 17.979 121.132C17.505 121.132 17.151 121.315 16.917 121.681C16.683 122.041 16.56 122.641 16.548 123.481C16.704 123.217 16.932 123.013 17.232 122.869C17.532 122.725 17.856 122.653 18.204 122.653C18.6 122.653 18.948 122.74 19.248 122.914C19.554 123.082 19.791 123.328 19.959 123.652C20.133 123.976 20.22 124.363 20.22 124.813C20.22 125.233 20.136 125.608 19.968 125.938C19.806 126.268 19.563 126.529 19.239 126.721C18.915 126.907 18.525 127 18.069 127C17.451 127 16.965 126.865 16.611 126.595C16.263 126.319 16.017 125.932 15.873 125.434C15.735 124.936 15.666 124.315 15.666 123.571C15.666 121.375 16.44 120.277 17.988 120.277C18.588 120.277 19.059 120.439 19.401 120.763C19.749 121.087 19.953 121.486 20.013 121.96H19.068ZM17.979 123.517C17.613 123.517 17.301 123.628 17.043 123.85C16.791 124.066 16.665 124.381 16.665 124.795C16.665 125.209 16.782 125.539 17.016 125.785C17.256 126.025 17.589 126.145 18.015 126.145C18.393 126.145 18.69 126.028 18.906 125.794C19.128 125.56 19.239 125.248 19.239 124.858C19.239 124.45 19.131 124.126 18.915 123.886C18.705 123.64 18.393 123.517 17.979 123.517ZM21.3144 123.634C21.3144 122.596 21.4884 121.786 21.8364 121.204C22.1904 120.616 22.7964 120.322 23.6544 120.322C24.5124 120.322 25.1154 120.616 25.4634 121.204C25.8174 121.786 25.9944 122.596 25.9944 123.634C25.9944 124.684 25.8174 125.506 25.4634 126.1C25.1154 126.688 24.5124 126.982 23.6544 126.982C22.7964 126.982 22.1904 126.688 21.8364 126.1C21.4884 125.506 21.3144 124.684 21.3144 123.634ZM24.9864 123.634C24.9864 123.148 24.9534 122.737 24.8874 122.401C24.8274 122.065 24.7014 121.792 24.5094 121.582C24.3174 121.366 24.0324 121.258 23.6544 121.258C23.2764 121.258 22.9914 121.366 22.7994 121.582C22.6074 121.792 22.4784 122.065 22.4124 122.401C22.3524 122.737 22.3224 123.148 22.3224 123.634C22.3224 124.138 22.3524 124.561 22.4124 124.903C22.4724 125.245 22.5984 125.521 22.7904 125.731C22.9884 125.941 23.2764 126.046 23.6544 126.046C24.0324 126.046 24.3174 125.941 24.5094 125.731C24.7074 125.521 24.8364 125.245 24.8964 124.903C24.9564 124.561 24.9864 124.138 24.9864 123.634Z" fill="#B6B6B6" fill-opacity="0.75"/>
<path d="M19.068 152.96C19.002 152.684 18.882 152.477 18.708 152.339C18.534 152.201 18.291 152.132 17.979 152.132C17.505 152.132 17.151 152.315 16.917 152.681C16.683 153.041 16.56 153.641 16.548 154.481C16.704 154.217 16.932 154.013 17.232 153.869C17.532 153.725 17.856 153.653 18.204 153.653C18.6 153.653 18.948 153.74 19.248 153.914C19.554 154.082 19.791 154.328 19.959 154.652C20.133 154.976 20.22 155.363 20.22 155.813C20.22 156.233 20.136 156.608 19.968 156.938C19.806 157.268 19.563 157.529 19.239 157.721C18.915 157.907 18.525 158 18.069 158C17.451 158 16.965 157.865 16.611 157.595C16.263 157.319 16.017 156.932 15.873 156.434C15.735 155.936 15.666 155.315 15.666 154.571C15.666 152.375 16.44 151.277 17.988 151.277C18.588 151.277 19.059 151.439 19.401 151.763C19.749 152.087 19.953 152.486 20.013 152.96H19.068ZM17.979 154.517C17.613 154.517 17.301 154.628 17.043 154.85C16.791 155.066 16.665 155.381 16.665 155.795C16.665 156.209 16.782 156.539 17.016 156.785C17.256 157.025 17.589 157.145 18.015 157.145C18.393 157.145 18.69 157.028 18.906 156.794C19.128 156.56 19.239 156.248 19.239 155.858C19.239 155.45 19.131 155.126 18.915 154.886C18.705 154.64 18.393 154.517 17.979 154.517ZM21.3144 154.634C21.3144 153.596 21.4884 152.786 21.8364 152.204C22.1904 151.616 22.7964 151.322 23.6544 151.322C24.5124 151.322 25.1154 151.616 25.4634 152.204C25.8174 152.786 25.9944 153.596 25.9944 154.634C25.9944 155.684 25.8174 156.506 25.4634 157.1C25.1154 157.688 24.5124 157.982 23.6544 157.982C22.7964 157.982 22.1904 157.688 21.8364 157.1C21.4884 156.506 21.3144 155.684 21.3144 154.634ZM24.9864 154.634C24.9864 154.148 24.9534 153.737 24.8874 153.401C24.8274 153.065 24.7014 152.792 24.5094 152.582C24.3174 152.366 24.0324 152.258 23.6544 152.258C23.2764 152.258 22.9914 152.366 22.7994 152.582C22.6074 152.792 22.4784 153.065 22.4124 153.401C22.3524 153.737 22.3224 154.148 22.3224 154.634C22.3224 155.138 22.3524 155.561 22.4124 155.903C22.4724 156.245 22.5984 156.521 22.7904 156.731C22.9884 156.941 23.2764 157.046 23.6544 157.046C24.0324 157.046 24.3174 156.941 24.5094 156.731C24.7074 156.521 24.8364 156.245 24.8964 155.903C24.9564 155.561 24.9864 155.138 24.9864 154.634Z" fill="#B6B6B6" fill-opacity="0.75"/>
<path d="M19.068 183.96C19.002 183.684 18.882 183.477 18.708 183.339C18.534 183.201 18.291 183.132 17.979 183.132C17.505 183.132 17.151 183.315 16.917 183.681C16.683 184.041 16.56 184.641 16.548 185.481C16.704 185.217 16.932 185.013 17.232 184.869C17.532 184.725 17.856 184.653 18.204 184.653C18.6 184.653 18.948 184.74 19.248 184.914C19.554 185.082 19.791 185.328 19.959 185.652C20.133 185.976 20.22 186.363 20.22 186.813C20.22 187.233 20.136 187.608 19.968 187.938C19.806 188.268 19.563 188.529 19.239 188.721C18.915 188.907 18.525 189 18.069 189C17.451 189 16.965 188.865 16.611 188.595C16.263 188.319 16.017 187.932 15.873 187.434C15.735 186.936 15.666 186.315 15.666 185.571C15.666 183.375 16.44 182.277 17.988 182.277C18.588 182.277 19.059 182.439 19.401 182.763C19.749 183.087 19.953 183.486 20.013 183.96H19.068ZM17.979 185.517C17.613 185.517 17.301 185.628 17.043 185.85C16.791 186.066 16.665 186.381 16.665 186.795C16.665 187.209 16.782 187.539 17.016 187.785C17.256 188.025 17.589 188.145 18.015 188.145C18.393 188.145 18.69 188.028 18.906 187.794C19.128 187.56 19.239 187.248 19.239 186.858C19.239 186.45 19.131 186.126 18.915 185.886C18.705 185.64 18.393 185.517 17.979 185.517ZM21.3144 185.634C21.3144 184.596 21.4884 183.786 21.8364 183.204C22.1904 182.616 22.7964 182.322 23.6544 182.322C24.5124 182.322 25.1154 182.616 25.4634 183.204C25.8174 183.786 25.9944 184.596 25.9944 185.634C25.9944 186.684 25.8174 187.506 25.4634 188.1C25.1154 188.688 24.5124 188.982 23.6544 188.982C22.7964 188.982 22.1904 188.688 21.8364 188.1C21.4884 187.506 21.3144 186.684 21.3144 185.634ZM24.9864 185.634C24.9864 185.148 24.9534 184.737 24.8874 184.401C24.8274 184.065 24.7014 183.792 24.5094 183.582C24.3174 183.366 24.0324 183.258 23.6544 183.258C23.2764 183.258 22.9914 183.366 22.7994 183.582C22.6074 183.792 22.4784 184.065 22.4124 184.401C22.3524 184.737 22.3224 185.148 22.3224 185.634C22.3224 186.138 22.3524 186.561 22.4124 186.903C22.4724 187.245 22.5984 187.521 22.7904 187.731C22.9884 187.941 23.2764 188.046 23.6544 188.046C24.0324 188.046 24.3174 187.941 24.5094 187.731C24.7074 187.521 24.8364 187.245 24.8964 186.903C24.9564 186.561 24.9864 186.138 24.9864 185.634Z" fill="#B6B6B6" fill-opacity="0.75"/>
<path d="M19.068 214.96C19.002 214.684 18.882 214.477 18.708 214.339C18.534 214.201 18.291 214.132 17.979 214.132C17.505 214.132 17.151 214.315 16.917 214.681C16.683 215.041 16.56 215.641 16.548 216.481C16.704 216.217 16.932 216.013 17.232 215.869C17.532 215.725 17.856 215.653 18.204 215.653C18.6 215.653 18.948 215.74 19.248 215.914C19.554 216.082 19.791 216.328 19.959 216.652C20.133 216.976 20.22 217.363 20.22 217.813C20.22 218.233 20.136 218.608 19.968 218.938C19.806 219.268 19.563 219.529 19.239 219.721C18.915 219.907 18.525 220 18.069 220C17.451 220 16.965 219.865 16.611 219.595C16.263 219.319 16.017 218.932 15.873 218.434C15.735 217.936 15.666 217.315 15.666 216.571C15.666 214.375 16.44 213.277 17.988 213.277C18.588 213.277 19.059 213.439 19.401 213.763C19.749 214.087 19.953 214.486 20.013 214.96H19.068ZM17.979 216.517C17.613 216.517 17.301 216.628 17.043 216.85C16.791 217.066 16.665 217.381 16.665 217.795C16.665 218.209 16.782 218.539 17.016 218.785C17.256 219.025 17.589 219.145 18.015 219.145C18.393 219.145 18.69 219.028 18.906 218.794C19.128 218.56 19.239 218.248 19.239 217.858C19.239 217.45 19.131 217.126 18.915 216.886C18.705 216.64 18.393 216.517 17.979 216.517ZM21.3144 216.634C21.3144 215.596 21.4884 214.786 21.8364 214.204C22.1904 213.616 22.7964 213.322 23.6544 213.322C24.5124 213.322 25.1154 213.616 25.4634 214.204C25.8174 214.786 25.9944 215.596 25.9944 216.634C25.9944 217.684 25.8174 218.506 25.4634 219.1C25.1154 219.688 24.5124 219.982 23.6544 219.982C22.7964 219.982 22.1904 219.688 21.8364 219.1C21.4884 218.506 21.3144 217.684 21.3144 216.634ZM24.9864 216.634C24.9864 216.148 24.9534 215.737 24.8874 215.401C24.8274 215.065 24.7014 214.792 24.5094 214.582C24.3174 214.366 24.0324 214.258 23.6544 214.258C23.2764 214.258 22.9914 214.366 22.7994 214.582C22.6074 214.792 22.4784 215.065 22.4124 215.401C22.3524 215.737 22.3224 216.148 22.3224 216.634C22.3224 217.138 22.3524 217.561 22.4124 217.903C22.4724 218.245 22.5984 218.521 22.7904 218.731C22.9884 218.941 23.2764 219.046 23.6544 219.046C24.0324 219.046 24.3174 218.941 24.5094 218.731C24.7074 218.521 24.8364 218.245 24.8964 217.903C24.9564 217.561 24.9864 217.138 24.9864 216.634Z" fill="#B6B6B6" fill-opacity="0.75"/>
<path d="M19.068 245.96C19.002 245.684 18.882 245.477 18.708 245.339C18.534 245.201 18.291 245.132 17.979 245.132C17.505 245.132 17.151 245.315 16.917 245.681C16.683 246.041 16.56 246.641 16.548 247.481C16.704 247.217 16.932 247.013 17.232 246.869C17.532 246.725 17.856 246.653 18.204 246.653C18.6 246.653 18.948 246.74 19.248 246.914C19.554 247.082 19.791 247.328 19.959 247.652C20.133 247.976 20.22 248.363 20.22 248.813C20.22 249.233 20.136 249.608 19.968 249.938C19.806 250.268 19.563 250.529 19.239 250.721C18.915 250.907 18.525 251 18.069 251C17.451 251 16.965 250.865 16.611 250.595C16.263 250.319 16.017 249.932 15.873 249.434C15.735 248.936 15.666 248.315 15.666 247.571C15.666 245.375 16.44 244.277 17.988 244.277C18.588 244.277 19.059 244.439 19.401 244.763C19.749 245.087 19.953 245.486 20.013 245.96H19.068ZM17.979 247.517C17.613 247.517 17.301 247.628 17.043 247.85C16.791 248.066 16.665 248.381 16.665 248.795C16.665 249.209 16.782 249.539 17.016 249.785C17.256 250.025 17.589 250.145 18.015 250.145C18.393 250.145 18.69 250.028 18.906 249.794C19.128 249.56 19.239 249.248 19.239 248.858C19.239 248.45 19.131 248.126 18.915 247.886C18.705 247.64 18.393 247.517 17.979 247.517ZM21.3144 247.634C21.3144 246.596 21.4884 245.786 21.8364 245.204C22.1904 244.616 22.7964 244.322 23.6544 244.322C24.5124 244.322 25.1154 244.616 25.4634 245.204C25.8174 245.786 25.9944 246.596 25.9944 247.634C25.9944 248.684 25.8174 249.506 25.4634 250.1C25.1154 250.688 24.5124 250.982 23.6544 250.982C22.7964 250.982 22.1904 250.688 21.8364 250.1C21.4884 249.506 21.3144 248.684 21.3144 247.634ZM24.9864 247.634C24.9864 247.148 24.9534 246.737 24.8874 246.401C24.8274 246.065 24.7014 245.792 24.5094 245.582C24.3174 245.366 24.0324 245.258 23.6544 245.258C23.2764 245.258 22.9914 245.366 22.7994 245.582C22.6074 245.792 22.4784 246.065 22.4124 246.401C22.3524 246.737 22.3224 247.148 22.3224 247.634C22.3224 248.138 22.3524 248.561 22.4124 248.903C22.4724 249.245 22.5984 249.521 22.7904 249.731C22.9884 249.941 23.2764 250.046 23.6544 250.046C24.0324 250.046 24.3174 249.941 24.5094 249.731C24.7074 249.521 24.8364 249.245 24.8964 248.903C24.9564 248.561 24.9864 248.138 24.9864 247.634Z" fill="#B6B6B6" fill-opacity="0.75"/>
<path d="M45.6016 30.4453V32H39.5625V30.4453H45.6016ZM40.1172 20.625V32H38.1562V20.625H40.1172ZM44.8125 25.375V26.9062H39.5625V25.375H44.8125ZM45.5625 20.625V22.1875H39.5625V20.625H45.5625ZM48.8828 25.3516V32H47V23.5469H48.7734L48.8828 25.3516ZM48.5469 27.4609L47.9375 27.4531C47.9427 26.8542 48.026 26.3047 48.1875 25.8047C48.3542 25.3047 48.5833 24.875 48.875 24.5156C49.1719 24.1562 49.526 23.8802 49.9375 23.6875C50.349 23.4896 50.8073 23.3906 51.3125 23.3906C51.7188 23.3906 52.0859 23.4479 52.4141 23.5625C52.7474 23.6719 53.0312 23.8516 53.2656 24.1016C53.5052 24.3516 53.6875 24.6771 53.8125 25.0781C53.9375 25.474 54 25.9609 54 26.5391V32H52.1094V26.5312C52.1094 26.125 52.0495 25.8047 51.9297 25.5703C51.8151 25.3307 51.6458 25.1615 51.4219 25.0625C51.2031 24.9583 50.9297 24.9062 50.6016 24.9062C50.2786 24.9062 49.9896 24.974 49.7344 25.1094C49.4792 25.2448 49.263 25.4297 49.0859 25.6641C48.9141 25.8984 48.7812 26.1693 48.6875 26.4766C48.5938 26.7839 48.5469 27.112 48.5469 27.4609ZM59.6484 32.1562C59.0234 32.1562 58.4583 32.0547 57.9531 31.8516C57.4531 31.6432 57.026 31.3542 56.6719 30.9844C56.3229 30.6146 56.0547 30.1797 55.8672 29.6797C55.6797 29.1797 55.5859 28.6406 55.5859 28.0625V27.75C55.5859 27.0885 55.6823 26.4896 55.875 25.9531C56.0677 25.4167 56.3359 24.9583 56.6797 24.5781C57.0234 24.1927 57.4297 23.8984 57.8984 23.6953C58.3672 23.4922 58.875 23.3906 59.4219 23.3906C60.026 23.3906 60.5547 23.4922 61.0078 23.6953C61.4609 23.8984 61.8359 24.1849 62.1328 24.5547C62.4349 24.9193 62.6589 25.3542 62.8047 25.8594C62.9557 26.3646 63.0312 26.9219 63.0312 27.5312V28.3359H56.5V26.9844H61.1719V26.8359C61.1615 26.4974 61.0938 26.1797 60.9688 25.8828C60.849 25.5859 60.6641 25.3464 60.4141 25.1641C60.1641 24.9818 59.8307 24.8906 59.4141 24.8906C59.1016 24.8906 58.8229 24.9583 58.5781 25.0938C58.3385 25.224 58.138 25.4141 57.9766 25.6641C57.8151 25.9141 57.6901 26.2161 57.6016 26.5703C57.5182 26.9193 57.4766 27.3125 57.4766 27.75V28.0625C57.4766 28.4323 57.526 28.776 57.625 29.0938C57.7292 29.4062 57.8802 29.6797 58.0781 29.9141C58.276 30.1484 58.5156 30.3333 58.7969 30.4688C59.0781 30.599 59.3984 30.6641 59.7578 30.6641C60.2109 30.6641 60.6146 30.5729 60.9688 30.3906C61.3229 30.2083 61.6302 29.9505 61.8906 29.6172L62.8828 30.5781C62.7005 30.8438 62.4635 31.099 62.1719 31.3438C61.8802 31.5833 61.5234 31.7786 61.1016 31.9297C60.6849 32.0807 60.2005 32.1562 59.6484 32.1562ZM66.3906 25.1562V32H64.5078V23.5469H66.3047L66.3906 25.1562ZM68.9766 23.4922L68.9609 25.2422C68.8464 25.2214 68.7214 25.2057 68.5859 25.1953C68.4557 25.1849 68.3255 25.1797 68.1953 25.1797C67.8724 25.1797 67.5885 25.2266 67.3438 25.3203C67.099 25.4089 66.8932 25.5391 66.7266 25.7109C66.5651 25.8776 66.4401 26.0807 66.3516 26.3203C66.263 26.5599 66.2109 26.8281 66.1953 27.125L65.7656 27.1562C65.7656 26.625 65.8177 26.1328 65.9219 25.6797C66.026 25.2266 66.1823 24.8281 66.3906 24.4844C66.6042 24.1406 66.8698 23.8724 67.1875 23.6797C67.5104 23.487 67.8828 23.3906 68.3047 23.3906C68.4193 23.3906 68.5417 23.401 68.6719 23.4219C68.8073 23.4427 68.9089 23.4661 68.9766 23.4922ZM75.4141 23.5469H77.125V31.7656C77.125 32.526 76.9635 33.1719 76.6406 33.7031C76.3177 34.2344 75.8672 34.638 75.2891 34.9141C74.7109 35.1953 74.0417 35.3359 73.2812 35.3359C72.9583 35.3359 72.599 35.2891 72.2031 35.1953C71.8125 35.1016 71.4323 34.9505 71.0625 34.7422C70.6979 34.5391 70.3932 34.2708 70.1484 33.9375L71.0312 32.8281C71.3333 33.1875 71.6667 33.4505 72.0312 33.6172C72.3958 33.7839 72.7786 33.8672 73.1797 33.8672C73.612 33.8672 73.9792 33.7865 74.2812 33.625C74.5885 33.4688 74.8255 33.237 74.9922 32.9297C75.1589 32.6224 75.2422 32.2474 75.2422 31.8047V25.4609L75.4141 23.5469ZM69.6719 27.8672V27.7031C69.6719 27.0625 69.75 26.4792 69.9062 25.9531C70.0625 25.4219 70.2865 24.9661 70.5781 24.5859C70.8698 24.2005 71.224 23.9062 71.6406 23.7031C72.0573 23.4948 72.5286 23.3906 73.0547 23.3906C73.6016 23.3906 74.0677 23.4896 74.4531 23.6875C74.8438 23.8854 75.1693 24.1693 75.4297 24.5391C75.6901 24.9036 75.8932 25.3411 76.0391 25.8516C76.1901 26.3568 76.3021 26.9193 76.375 27.5391V28.0625C76.3073 28.6667 76.1927 29.2188 76.0312 29.7188C75.8698 30.2188 75.6562 30.651 75.3906 31.0156C75.125 31.3802 74.7969 31.6615 74.4062 31.8594C74.0208 32.0573 73.5651 32.1562 73.0391 32.1562C72.5234 32.1562 72.0573 32.0495 71.6406 31.8359C71.2292 31.6224 70.875 31.3229 70.5781 30.9375C70.2865 30.5521 70.0625 30.099 69.9062 29.5781C69.75 29.0521 69.6719 28.4818 69.6719 27.8672ZM71.5547 27.7031V27.8672C71.5547 28.2526 71.5911 28.612 71.6641 28.9453C71.7422 29.2786 71.8594 29.5729 72.0156 29.8281C72.1771 30.0781 72.3802 30.276 72.625 30.4219C72.875 30.5625 73.1693 30.6328 73.5078 30.6328C73.9505 30.6328 74.3125 30.5391 74.5938 30.3516C74.8802 30.1641 75.099 29.9115 75.25 29.5938C75.4062 29.2708 75.5156 28.9115 75.5781 28.5156V27.1016C75.5469 26.7943 75.4818 26.5078 75.3828 26.2422C75.2891 25.9766 75.1615 25.7448 75 25.5469C74.8385 25.3438 74.6354 25.1875 74.3906 25.0781C74.1458 24.9635 73.8568 24.9062 73.5234 24.9062C73.1849 24.9062 72.8906 24.9792 72.6406 25.125C72.3906 25.2708 72.1849 25.4714 72.0234 25.7266C71.8672 25.9818 71.75 26.2786 71.6719 26.6172C71.5938 26.9557 71.5547 27.3177 71.5547 27.7031ZM81.1172 23.5469V32H79.2344V23.5469H81.1172ZM79.25 22.4219L80.7734 20.0703H82.8984L80.7734 22.4219H79.25ZM88.0312 30.3047V26.2734C88.0312 25.9714 87.9766 25.7109 87.8672 25.4922C87.7578 25.2734 87.5911 25.1042 87.3672 24.9844C87.1484 24.8646 86.8724 24.8047 86.5391 24.8047C86.2318 24.8047 85.9661 24.8568 85.7422 24.9609C85.5182 25.0651 85.3438 25.2057 85.2188 25.3828C85.0938 25.5599 85.0312 25.7604 85.0312 25.9844H83.1562C83.1562 25.651 83.237 25.3281 83.3984 25.0156C83.5599 24.7031 83.7943 24.4245 84.1016 24.1797C84.4089 23.9349 84.776 23.7422 85.2031 23.6016C85.6302 23.4609 86.1094 23.3906 86.6406 23.3906C87.276 23.3906 87.8385 23.4974 88.3281 23.7109C88.8229 23.9245 89.2109 24.2474 89.4922 24.6797C89.7786 25.1068 89.9219 25.6432 89.9219 26.2891V30.0469C89.9219 30.4323 89.9479 30.7786 90 31.0859C90.0573 31.388 90.138 31.651 90.2422 31.875V32H88.3125C88.224 31.7969 88.1536 31.5391 88.1016 31.2266C88.0547 30.9089 88.0312 30.6016 88.0312 30.3047ZM88.3047 26.8594L88.3203 28.0234H86.9688C86.6198 28.0234 86.3125 28.0573 86.0469 28.125C85.7812 28.1875 85.5599 28.2812 85.3828 28.4062C85.2057 28.5312 85.0729 28.6823 84.9844 28.8594C84.8958 29.0365 84.8516 29.237 84.8516 29.4609C84.8516 29.6849 84.9036 29.8906 85.0078 30.0781C85.112 30.2604 85.263 30.4036 85.4609 30.5078C85.6641 30.612 85.9089 30.6641 86.1953 30.6641C86.5807 30.6641 86.9167 30.5859 87.2031 30.4297C87.4948 30.2682 87.724 30.0729 87.8906 29.8438C88.0573 29.6094 88.1458 29.388 88.1562 29.1797L88.7656 30.0156C88.7031 30.2292 88.5964 30.4583 88.4453 30.7031C88.2943 30.9479 88.0964 31.1823 87.8516 31.4062C87.612 31.625 87.3229 31.8047 86.9844 31.9453C86.651 32.0859 86.2656 32.1562 85.8281 32.1562C85.276 32.1562 84.7839 32.0469 84.3516 31.8281C83.9193 31.6042 83.5807 31.3047 83.3359 30.9297C83.0911 30.5495 82.9688 30.1198 82.9688 29.6406C82.9688 29.1927 83.0521 28.7969 83.2188 28.4531C83.3906 28.1042 83.6406 27.8125 83.9688 27.5781C84.3021 27.3438 84.7083 27.1667 85.1875 27.0469C85.6667 26.9219 86.2135 26.8594 86.8281 26.8594H88.3047ZM101.289 23.5469H103V31.7656C103 32.526 102.839 33.1719 102.516 33.7031C102.193 34.2344 101.742 34.638 101.164 34.9141C100.586 35.1953 99.9167 35.3359 99.1562 35.3359C98.8333 35.3359 98.474 35.2891 98.0781 35.1953C97.6875 35.1016 97.3073 34.9505 96.9375 34.7422C96.5729 34.5391 96.2682 34.2708 96.0234 33.9375L96.9062 32.8281C97.2083 33.1875 97.5417 33.4505 97.9062 33.6172C98.2708 33.7839 98.6536 33.8672 99.0547 33.8672C99.487 33.8672 99.8542 33.7865 100.156 33.625C100.464 33.4688 100.701 33.237 100.867 32.9297C101.034 32.6224 101.117 32.2474 101.117 31.8047V25.4609L101.289 23.5469ZM95.5469 27.8672V27.7031C95.5469 27.0625 95.625 26.4792 95.7812 25.9531C95.9375 25.4219 96.1615 24.9661 96.4531 24.5859C96.7448 24.2005 97.099 23.9062 97.5156 23.7031C97.9323 23.4948 98.4036 23.3906 98.9297 23.3906C99.4766 23.3906 99.9427 23.4896 100.328 23.6875C100.719 23.8854 101.044 24.1693 101.305 24.5391C101.565 24.9036 101.768 25.3411 101.914 25.8516C102.065 26.3568 102.177 26.9193 102.25 27.5391V28.0625C102.182 28.6667 102.068 29.2188 101.906 29.7188C101.745 30.2188 101.531 30.651 101.266 31.0156C101 31.3802 100.672 31.6615 100.281 31.8594C99.8958 32.0573 99.4401 32.1562 98.9141 32.1562C98.3984 32.1562 97.9323 32.0495 97.5156 31.8359C97.1042 31.6224 96.75 31.3229 96.4531 30.9375C96.1615 30.5521 95.9375 30.099 95.7812 29.5781C95.625 29.0521 95.5469 28.4818 95.5469 27.8672ZM97.4297 27.7031V27.8672C97.4297 28.2526 97.4661 28.612 97.5391 28.9453C97.6172 29.2786 97.7344 29.5729 97.8906 29.8281C98.0521 30.0781 98.2552 30.276 98.5 30.4219C98.75 30.5625 99.0443 30.6328 99.3828 30.6328C99.8255 30.6328 100.188 30.5391 100.469 30.3516C100.755 30.1641 100.974 29.9115 101.125 29.5938C101.281 29.2708 101.391 28.9115 101.453 28.5156V27.1016C101.422 26.7943 101.357 26.5078 101.258 26.2422C101.164 25.9766 101.036 25.7448 100.875 25.5469C100.714 25.3438 100.51 25.1875 100.266 25.0781C100.021 24.9635 99.7318 24.9062 99.3984 24.9062C99.0599 24.9062 98.7656 24.9792 98.5156 25.125C98.2656 25.2708 98.0599 25.4714 97.8984 25.7266C97.7422 25.9818 97.625 26.2786 97.5469 26.6172C97.4688 26.9557 97.4297 27.3177 97.4297 27.7031ZM108.68 32.1562C108.055 32.1562 107.49 32.0547 106.984 31.8516C106.484 31.6432 106.057 31.3542 105.703 30.9844C105.354 30.6146 105.086 30.1797 104.898 29.6797C104.711 29.1797 104.617 28.6406 104.617 28.0625V27.75C104.617 27.0885 104.714 26.4896 104.906 25.9531C105.099 25.4167 105.367 24.9583 105.711 24.5781C106.055 24.1927 106.461 23.8984 106.93 23.6953C107.398 23.4922 107.906 23.3906 108.453 23.3906C109.057 23.3906 109.586 23.4922 110.039 23.6953C110.492 23.8984 110.867 24.1849 111.164 24.5547C111.466 24.9193 111.69 25.3542 111.836 25.8594C111.987 26.3646 112.062 26.9219 112.062 27.5312V28.3359H105.531V26.9844H110.203V26.8359C110.193 26.4974 110.125 26.1797 110 25.8828C109.88 25.5859 109.695 25.3464 109.445 25.1641C109.195 24.9818 108.862 24.8906 108.445 24.8906C108.133 24.8906 107.854 24.9583 107.609 25.0938C107.37 25.224 107.169 25.4141 107.008 25.6641C106.846 25.9141 106.721 26.2161 106.633 26.5703C106.549 26.9193 106.508 27.3125 106.508 27.75V28.0625C106.508 28.4323 106.557 28.776 106.656 29.0938C106.76 29.4062 106.911 29.6797 107.109 29.9141C107.307 30.1484 107.547 30.3333 107.828 30.4688C108.109 30.599 108.43 30.6641 108.789 30.6641C109.242 30.6641 109.646 30.5729 110 30.3906C110.354 30.2083 110.661 29.9505 110.922 29.6172L111.914 30.5781C111.732 30.8438 111.495 31.099 111.203 31.3438C110.911 31.5833 110.555 31.7786 110.133 31.9297C109.716 32.0807 109.232 32.1562 108.68 32.1562ZM115.398 25.3516V32H113.516V23.5469H115.289L115.398 25.3516ZM115.062 27.4609L114.453 27.4531C114.458 26.8542 114.542 26.3047 114.703 25.8047C114.87 25.3047 115.099 24.875 115.391 24.5156C115.688 24.1562 116.042 23.8802 116.453 23.6875C116.865 23.4896 117.323 23.3906 117.828 23.3906C118.234 23.3906 118.602 23.4479 118.93 23.5625C119.263 23.6719 119.547 23.8516 119.781 24.1016C120.021 24.3516 120.203 24.6771 120.328 25.0781C120.453 25.474 120.516 25.9609 120.516 26.5391V32H118.625V26.5312C118.625 26.125 118.565 25.8047 118.445 25.5703C118.331 25.3307 118.161 25.1615 117.938 25.0625C117.719 24.9583 117.445 24.9062 117.117 24.9062C116.794 24.9062 116.505 24.974 116.25 25.1094C115.995 25.2448 115.779 25.4297 115.602 25.6641C115.43 25.8984 115.297 26.1693 115.203 26.4766C115.109 26.7839 115.062 27.112 115.062 27.4609ZM126.164 32.1562C125.539 32.1562 124.974 32.0547 124.469 31.8516C123.969 31.6432 123.542 31.3542 123.188 30.9844C122.839 30.6146 122.57 30.1797 122.383 29.6797C122.195 29.1797 122.102 28.6406 122.102 28.0625V27.75C122.102 27.0885 122.198 26.4896 122.391 25.9531C122.583 25.4167 122.852 24.9583 123.195 24.5781C123.539 24.1927 123.945 23.8984 124.414 23.6953C124.883 23.4922 125.391 23.3906 125.938 23.3906C126.542 23.3906 127.07 23.4922 127.523 23.6953C127.977 23.8984 128.352 24.1849 128.648 24.5547C128.951 24.9193 129.174 25.3542 129.32 25.8594C129.471 26.3646 129.547 26.9219 129.547 27.5312V28.3359H123.016V26.9844H127.688V26.8359C127.677 26.4974 127.609 26.1797 127.484 25.8828C127.365 25.5859 127.18 25.3464 126.93 25.1641C126.68 24.9818 126.346 24.8906 125.93 24.8906C125.617 24.8906 125.339 24.9583 125.094 25.0938C124.854 25.224 124.654 25.4141 124.492 25.6641C124.331 25.9141 124.206 26.2161 124.117 26.5703C124.034 26.9193 123.992 27.3125 123.992 27.75V28.0625C123.992 28.4323 124.042 28.776 124.141 29.0938C124.245 29.4062 124.396 29.6797 124.594 29.9141C124.792 30.1484 125.031 30.3333 125.312 30.4688C125.594 30.599 125.914 30.6641 126.273 30.6641C126.727 30.6641 127.13 30.5729 127.484 30.3906C127.839 30.2083 128.146 29.9505 128.406 29.6172L129.398 30.5781C129.216 30.8438 128.979 31.099 128.688 31.3438C128.396 31.5833 128.039 31.7786 127.617 31.9297C127.201 32.0807 126.716 32.1562 126.164 32.1562ZM132.906 25.1562V32H131.023V23.5469H132.82L132.906 25.1562ZM135.492 23.4922L135.477 25.2422C135.362 25.2214 135.237 25.2057 135.102 25.1953C134.971 25.1849 134.841 25.1797 134.711 25.1797C134.388 25.1797 134.104 25.2266 133.859 25.3203C133.615 25.4089 133.409 25.5391 133.242 25.7109C133.081 25.8776 132.956 26.0807 132.867 26.3203C132.779 26.5599 132.727 26.8281 132.711 27.125L132.281 27.1562C132.281 26.625 132.333 26.1328 132.438 25.6797C132.542 25.2266 132.698 24.8281 132.906 24.4844C133.12 24.1406 133.385 23.8724 133.703 23.6797C134.026 23.487 134.398 23.3906 134.82 23.3906C134.935 23.3906 135.057 23.401 135.188 23.4219C135.323 23.4427 135.424 23.4661 135.492 23.4922ZM141.156 30.3047V26.2734C141.156 25.9714 141.102 25.7109 140.992 25.4922C140.883 25.2734 140.716 25.1042 140.492 24.9844C140.273 24.8646 139.997 24.8047 139.664 24.8047C139.357 24.8047 139.091 24.8568 138.867 24.9609C138.643 25.0651 138.469 25.2057 138.344 25.3828C138.219 25.5599 138.156 25.7604 138.156 25.9844H136.281C136.281 25.651 136.362 25.3281 136.523 25.0156C136.685 24.7031 136.919 24.4245 137.227 24.1797C137.534 23.9349 137.901 23.7422 138.328 23.6016C138.755 23.4609 139.234 23.3906 139.766 23.3906C140.401 23.3906 140.964 23.4974 141.453 23.7109C141.948 23.9245 142.336 24.2474 142.617 24.6797C142.904 25.1068 143.047 25.6432 143.047 26.2891V30.0469C143.047 30.4323 143.073 30.7786 143.125 31.0859C143.182 31.388 143.263 31.651 143.367 31.875V32H141.438C141.349 31.7969 141.279 31.5391 141.227 31.2266C141.18 30.9089 141.156 30.6016 141.156 30.3047ZM141.43 26.8594L141.445 28.0234H140.094C139.745 28.0234 139.438 28.0573 139.172 28.125C138.906 28.1875 138.685 28.2812 138.508 28.4062C138.331 28.5312 138.198 28.6823 138.109 28.8594C138.021 29.0365 137.977 29.237 137.977 29.4609C137.977 29.6849 138.029 29.8906 138.133 30.0781C138.237 30.2604 138.388 30.4036 138.586 30.5078C138.789 30.612 139.034 30.6641 139.32 30.6641C139.706 30.6641 140.042 30.5859 140.328 30.4297C140.62 30.2682 140.849 30.0729 141.016 29.8438C141.182 29.6094 141.271 29.388 141.281 29.1797L141.891 30.0156C141.828 30.2292 141.721 30.4583 141.57 30.7031C141.419 30.9479 141.221 31.1823 140.977 31.4062C140.737 31.625 140.448 31.8047 140.109 31.9453C139.776 32.0859 139.391 32.1562 138.953 32.1562C138.401 32.1562 137.909 32.0469 137.477 31.8281C137.044 31.6042 136.706 31.3047 136.461 30.9297C136.216 30.5495 136.094 30.1198 136.094 29.6406C136.094 29.1927 136.177 28.7969 136.344 28.4531C136.516 28.1042 136.766 27.8125 137.094 27.5781C137.427 27.3438 137.833 27.1667 138.312 27.0469C138.792 26.9219 139.339 26.8594 139.953 26.8594H141.43ZM150.172 30.25V20H152.062V32H150.352L150.172 30.25ZM144.672 27.8672V27.7031C144.672 27.0625 144.747 26.4792 144.898 25.9531C145.049 25.4219 145.268 24.9661 145.555 24.5859C145.841 24.2005 146.19 23.9062 146.602 23.7031C147.013 23.4948 147.477 23.3906 147.992 23.3906C148.503 23.3906 148.951 23.4896 149.336 23.6875C149.721 23.8854 150.049 24.1693 150.32 24.5391C150.591 24.9036 150.807 25.3411 150.969 25.8516C151.13 26.3568 151.245 26.9193 151.312 27.5391V28.0625C151.245 28.6667 151.13 29.2188 150.969 29.7188C150.807 30.2188 150.591 30.651 150.32 31.0156C150.049 31.3802 149.719 31.6615 149.328 31.8594C148.943 32.0573 148.492 32.1562 147.977 32.1562C147.466 32.1562 147.005 32.0495 146.594 31.8359C146.188 31.6224 145.841 31.3229 145.555 30.9375C145.268 30.5521 145.049 30.099 144.898 29.5781C144.747 29.0521 144.672 28.4818 144.672 27.8672ZM146.555 27.7031V27.8672C146.555 28.2526 146.589 28.612 146.656 28.9453C146.729 29.2786 146.841 29.5729 146.992 29.8281C147.143 30.0781 147.339 30.276 147.578 30.4219C147.823 30.5625 148.115 30.6328 148.453 30.6328C148.88 30.6328 149.232 30.5391 149.508 30.3516C149.784 30.1641 150 29.9115 150.156 29.5938C150.318 29.2708 150.427 28.9115 150.484 28.5156V27.1016C150.453 26.7943 150.388 26.5078 150.289 26.2422C150.195 25.9766 150.068 25.7448 149.906 25.5469C149.745 25.3438 149.544 25.1875 149.305 25.0781C149.07 24.9635 148.792 24.9062 148.469 24.9062C148.125 24.9062 147.833 24.9792 147.594 25.125C147.354 25.2708 147.156 25.4714 147 25.7266C146.849 25.9818 146.737 26.2786 146.664 26.6172C146.591 26.9557 146.555 27.3177 146.555 27.7031ZM158.797 30.3047V26.2734C158.797 25.9714 158.742 25.7109 158.633 25.4922C158.523 25.2734 158.357 25.1042 158.133 24.9844C157.914 24.8646 157.638 24.8047 157.305 24.8047C156.997 24.8047 156.732 24.8568 156.508 24.9609C156.284 25.0651 156.109 25.2057 155.984 25.3828C155.859 25.5599 155.797 25.7604 155.797 25.9844H153.922C153.922 25.651 154.003 25.3281 154.164 25.0156C154.326 24.7031 154.56 24.4245 154.867 24.1797C155.174 23.9349 155.542 23.7422 155.969 23.6016C156.396 23.4609 156.875 23.3906 157.406 23.3906C158.042 23.3906 158.604 23.4974 159.094 23.7109C159.589 23.9245 159.977 24.2474 160.258 24.6797C160.544 25.1068 160.688 25.6432 160.688 26.2891V30.0469C160.688 30.4323 160.714 30.7786 160.766 31.0859C160.823 31.388 160.904 31.651 161.008 31.875V32H159.078C158.99 31.7969 158.919 31.5391 158.867 31.2266C158.82 30.9089 158.797 30.6016 158.797 30.3047ZM159.07 26.8594L159.086 28.0234H157.734C157.385 28.0234 157.078 28.0573 156.812 28.125C156.547 28.1875 156.326 28.2812 156.148 28.4062C155.971 28.5312 155.839 28.6823 155.75 28.8594C155.661 29.0365 155.617 29.237 155.617 29.4609C155.617 29.6849 155.669 29.8906 155.773 30.0781C155.878 30.2604 156.029 30.4036 156.227 30.5078C156.43 30.612 156.674 30.6641 156.961 30.6641C157.346 30.6641 157.682 30.5859 157.969 30.4297C158.26 30.2682 158.49 30.0729 158.656 29.8438C158.823 29.6094 158.911 29.388 158.922 29.1797L159.531 30.0156C159.469 30.2292 159.362 30.4583 159.211 30.7031C159.06 30.9479 158.862 31.1823 158.617 31.4062C158.378 31.625 158.089 31.8047 157.75 31.9453C157.417 32.0859 157.031 32.1562 156.594 32.1562C156.042 32.1562 155.549 32.0469 155.117 31.8281C154.685 31.6042 154.346 31.3047 154.102 30.9297C153.857 30.5495 153.734 30.1198 153.734 29.6406C153.734 29.1927 153.818 28.7969 153.984 28.4531C154.156 28.1042 154.406 27.8125 154.734 27.5781C155.068 27.3438 155.474 27.1667 155.953 27.0469C156.432 26.9219 156.979 26.8594 157.594 26.8594H159.07Z" fill="black"/>
</g>
<defs>
<filter id="filter0_dd_259_1665" x="-4" y="0" width="368" height="330" filterUnits="userSpaceOnUse" color-interpolation-filters="sRGB">
<feFlood flood-opacity="0" result="BackgroundImageFix"/>
<feColorMatrix in="SourceAlpha" type="matrix" values="0 0 0 0 0 0 0 0 0 0 0 0 0 0 0 0 0 0 127 0" result="hardAlpha"/>
<feOffset dy="1"/>
<feGaussianBlur stdDeviation="1.5"/>
<feColorMatrix type="matrix" values="0 0 0 0 0 0 0 0 0 0 0 0 0 0 0 0 0 0 0.3 0"/>
<feBlend mode="normal" in2="BackgroundImageFix" result="effect1_dropShadow_259_1665"/>
<feColorMatrix in="SourceAlpha" type="matrix" values="0 0 0 0 0 0 0 0 0 0 0 0 0 0 0 0 0 0 127 0" result="hardAlpha"/>
<feMorphology radius="3" operator="dilate" in="SourceAlpha" result="effect2_dropShadow_259_1665"/>
<feOffset dy="4"/>
<feGaussianBlur stdDeviation="4"/>
<feColorMatrix type="matrix" values="0 0 0 0 0 0 0 0 0 0 0 0 0 0 0 0 0 0 0.15 0"/>
<feBlend mode="normal" in2="effect1_dropShadow_259_1665" result="effect2_dropShadow_259_1665"/>
<feBlend mode="normal" in="SourceGraphic" in2="effect2_dropShadow_259_1665" result="shape"/>
</filter>
<filter id="filter1_d_259_1665" x="195.732" y="20" width="61.8787" height="61.8661" filterUnits="userSpaceOnUse" color-interpolation-filters="sRGB">
<feFlood flood-opacity="0" result="BackgroundImageFix"/>
<feColorMatrix in="SourceAlpha" type="matrix" values="0 0 0 0 0 0 0 0 0 0 0 0 0 0 0 0 0 0 127 0" result="hardAlpha"/>
<feMorphology radius="6" operator="dilate" in="SourceAlpha" result="effect1_dropShadow_259_1665"/>
<feOffset/>
<feGaussianBlur stdDeviation="10"/>
<feComposite in2="hardAlpha" operator="out"/>
<feColorMatrix type="matrix" values="0 0 0 0 0.830444 0 0 0 0 0.280556 0 0 0 0 0.841667 0 0 0 1 0"/>
<feBlend mode="normal" in2="BackgroundImageFix" result="effect1_dropShadow_259_1665"/>
<feBlend mode="normal" in="SourceGraphic" in2="effect1_dropShadow_259_1665" result="shape"/>
</filter>
<linearGradient id="paint0_linear_259_1665" x1="342.253" y1="59.7296" x2="40.3467" y2="58.7956" gradientUnits="userSpaceOnUse">
<stop stop-color="#FCA311"/>
<stop offset="0.541667" stop-color="#FCA311" stop-opacity="0.96"/>
<stop offset="1" stop-color="#FCA311"/>
<stop offset="1" stop-color="#FCA311"/>
</linearGradient>
<linearGradient id="paint1_linear_259_1665" x1="199.479" y1="62.3907" x2="163.706" y2="254.361" gradientUnits="userSpaceOnUse">
<stop stop-color="#FCA311" stop-opacity="0.36"/>
<stop offset="1" stop-color="#FCA311" stop-opacity="0"/>
</linearGradient>
<linearGradient id="paint2_linear_259_1665" x1="226.256" y1="63.3745" x2="226.256" y2="266.704" gradientUnits="userSpaceOnUse">
<stop stop-color="#FCA311"/>
<stop offset="1" stop-color="#020609" stop-opacity="0.0416667"/>
</linearGradient>
</defs>
</svg>
