<svg width="360" height="330" viewBox="0 0 360 330" fill="none" xmlns="http://www.w3.org/2000/svg">
<g filter="url(#filter0_dd_259_1664)">
<rect x="7" y="7" width="346" height="308" rx="16" fill="white"/>
<path d="M37.0001 266.948V150.239V47.3625H343V187.413V266.948H37.0001Z" fill="#F9F9F9"/>
<path d="M342.253 164.546C334.825 196.304 313.769 255.879 288.966 240.109C257.963 220.397 269.589 85.6973 236.649 56.9505C210.296 33.953 191.436 96.101 185.3 130.05C183.362 138.263 177.247 167.199 159.568 170.069C149.305 171.735 131.43 174.846 128.871 193.444C122.886 236.951 70.7184 234.862 70.7184 193.444C70.7184 148.486 46.8053 132.787 40.3464 130.05" stroke="url(#paint0_linear_259_1664)" stroke-width="2"/>
<path d="M288.446 239.887C313.249 255.656 334.305 196.082 341.733 164.324L341.733 277.984L39.8264 277.984L39.8264 129.827C46.2854 132.565 70.1984 148.264 70.1984 193.221C70.1984 234.639 122.366 236.728 128.351 193.221C130.91 174.623 148.785 171.513 159.048 169.847C176.727 166.976 182.842 138.041 184.78 129.827C190.916 95.8786 209.776 33.7307 236.129 56.7282C269.069 85.475 257.443 220.175 288.446 239.887Z" fill="url(#paint1_linear_259_1664)"/>
<line x1="226.756" y1="54.3376" x2="226.756" y2="278" stroke="url(#paint2_linear_259_1664)"/>
<g filter="url(#filter1_d_259_1664)">
<ellipse cx="226.672" cy="50.9331" rx="4.93936" ry="4.93306" fill="#14213D"/>
<path d="M231.111 50.9331C231.111 53.3808 229.124 55.3661 226.672 55.3661C224.219 55.3661 222.232 53.3808 222.232 50.9331C222.232 48.4853 224.219 46.5 226.672 46.5C229.124 46.5 231.111 48.4853 231.111 50.9331Z" stroke="white"/>
</g>
<rect x="62" y="282" width="39" height="23" rx="10" fill="white"/>
<path d="M69.7723 290.75V289.71H71.8523V297H70.7023V290.75H69.7723ZM78.0384 290.59L75.2584 297H74.1084L76.9184 290.71H73.2184V289.74H78.0384V290.59ZM79.6241 297.07C79.4174 297.07 79.2441 297 79.1041 296.86C78.9641 296.72 78.8941 296.547 78.8941 296.34C78.8941 296.133 78.9641 295.96 79.1041 295.82C79.2441 295.68 79.4174 295.61 79.6241 295.61C79.8241 295.61 79.9941 295.68 80.1341 295.82C80.2741 295.96 80.3441 296.133 80.3441 296.34C80.3441 296.547 80.2741 296.72 80.1341 296.86C79.9941 297 79.8241 297.07 79.6241 297.07ZM79.6241 292.87C79.4174 292.87 79.2441 292.8 79.1041 292.66C78.9641 292.52 78.8941 292.347 78.8941 292.14C78.8941 291.933 78.9641 291.76 79.1041 291.62C79.2441 291.48 79.4174 291.41 79.6241 291.41C79.8241 291.41 79.9941 291.48 80.1341 291.62C80.2741 291.76 80.3441 291.933 80.3441 292.14C80.3441 292.347 80.2741 292.52 80.1341 292.66C79.9941 292.8 79.8241 292.87 79.6241 292.87ZM81.4652 293.26C81.4652 292.107 81.6586 291.207 82.0452 290.56C82.4386 289.907 83.1119 289.58 84.0652 289.58C85.0186 289.58 85.6886 289.907 86.0752 290.56C86.4686 291.207 86.6652 292.107 86.6652 293.26C86.6652 294.427 86.4686 295.34 86.0752 296C85.6886 296.653 85.0186 296.98 84.0652 296.98C83.1119 296.98 82.4386 296.653 82.0452 296C81.6586 295.34 81.4652 294.427 81.4652 293.26ZM85.5452 293.26C85.5452 292.72 85.5086 292.263 85.4352 291.89C85.3686 291.517 85.2286 291.213 85.0152 290.98C84.8019 290.74 84.4852 290.62 84.0652 290.62C83.6452 290.62 83.3286 290.74 83.1152 290.98C82.9019 291.213 82.7586 291.517 82.6852 291.89C82.6186 292.263 82.5852 292.72 82.5852 293.26C82.5852 293.82 82.6186 294.29 82.6852 294.67C82.7519 295.05 82.8919 295.357 83.1052 295.59C83.3252 295.823 83.6452 295.94 84.0652 295.94C84.4852 295.94 84.8019 295.823 85.0152 295.59C85.2352 295.357 85.3786 295.05 85.4452 294.67C85.5119 294.29 85.5452 293.82 85.5452 293.26ZM87.8715 293.26C87.8715 292.107 88.0648 291.207 88.4515 290.56C88.8448 289.907 89.5182 289.58 90.4715 289.58C91.4248 289.58 92.0948 289.907 92.4815 290.56C92.8748 291.207 93.0715 292.107 93.0715 293.26C93.0715 294.427 92.8748 295.34 92.4815 296C92.0948 296.653 91.4248 296.98 90.4715 296.98C89.5182 296.98 88.8448 296.653 88.4515 296C88.0648 295.34 87.8715 294.427 87.8715 293.26ZM91.9515 293.26C91.9515 292.72 91.9148 292.263 91.8415 291.89C91.7748 291.517 91.6348 291.213 91.4215 290.98C91.2082 290.74 90.8915 290.62 90.4715 290.62C90.0515 290.62 89.7348 290.74 89.5215 290.98C89.3082 291.213 89.1648 291.517 89.0915 291.89C89.0248 292.263 88.9915 292.72 88.9915 293.26C88.9915 293.82 89.0248 294.29 89.0915 294.67C89.1582 295.05 89.2982 295.357 89.5115 295.59C89.7315 295.823 90.0515 295.94 90.4715 295.94C90.8915 295.94 91.2082 295.823 91.4215 295.59C91.6415 295.357 91.7848 295.05 91.8515 294.67C91.9182 294.29 91.9515 293.82 91.9515 293.26Z" fill="#999999" fill-opacity="0.75"/>
<rect x="126" y="282" width="40" height="23" rx="10" fill="white"/>
<path d="M133.882 290.75V289.71H135.962V297H134.812V290.75H133.882ZM138.758 293.19C138.064 292.843 137.718 292.297 137.718 291.55C137.718 291.19 137.808 290.86 137.988 290.56C138.168 290.26 138.438 290.023 138.798 289.85C139.158 289.67 139.598 289.58 140.118 289.58C140.631 289.58 141.068 289.67 141.428 289.85C141.794 290.023 142.068 290.26 142.248 290.56C142.428 290.86 142.518 291.19 142.518 291.55C142.518 291.923 142.421 292.253 142.228 292.54C142.041 292.82 141.791 293.037 141.478 293.19C141.858 293.33 142.158 293.56 142.378 293.88C142.598 294.193 142.708 294.563 142.708 294.99C142.708 295.423 142.598 295.807 142.378 296.14C142.158 296.473 141.851 296.73 141.458 296.91C141.064 297.09 140.618 297.18 140.118 297.18C139.618 297.18 139.171 297.09 138.778 296.91C138.391 296.73 138.088 296.473 137.868 296.14C137.648 295.807 137.538 295.423 137.538 294.99C137.538 294.557 137.648 294.183 137.868 293.87C138.088 293.557 138.384 293.33 138.758 293.19ZM141.428 291.69C141.428 291.317 141.311 291.03 141.078 290.83C140.844 290.63 140.524 290.53 140.118 290.53C139.718 290.53 139.401 290.63 139.168 290.83C138.934 291.03 138.818 291.32 138.818 291.7C138.818 292.033 138.938 292.307 139.178 292.52C139.424 292.727 139.738 292.83 140.118 292.83C140.498 292.83 140.811 292.723 141.058 292.51C141.304 292.297 141.428 292.023 141.428 291.69ZM140.118 293.69C139.678 293.69 139.318 293.8 139.038 294.02C138.764 294.233 138.628 294.543 138.628 294.95C138.628 295.33 138.761 295.64 139.028 295.88C139.294 296.113 139.658 296.23 140.118 296.23C140.571 296.23 140.928 296.11 141.188 295.87C141.454 295.63 141.588 295.323 141.588 294.95C141.588 294.55 141.451 294.24 141.178 294.02C140.911 293.8 140.558 293.69 140.118 293.69ZM144.515 297.07C144.308 297.07 144.135 297 143.995 296.86C143.855 296.72 143.785 296.547 143.785 296.34C143.785 296.133 143.855 295.96 143.995 295.82C144.135 295.68 144.308 295.61 144.515 295.61C144.715 295.61 144.885 295.68 145.025 295.82C145.165 295.96 145.235 296.133 145.235 296.34C145.235 296.547 145.165 296.72 145.025 296.86C144.885 297 144.715 297.07 144.515 297.07ZM144.515 292.87C144.308 292.87 144.135 292.8 143.995 292.66C143.855 292.52 143.785 292.347 143.785 292.14C143.785 291.933 143.855 291.76 143.995 291.62C144.135 291.48 144.308 291.41 144.515 291.41C144.715 291.41 144.885 291.48 145.025 291.62C145.165 291.76 145.235 291.933 145.235 292.14C145.235 292.347 145.165 292.52 145.025 292.66C144.885 292.8 144.715 292.87 144.515 292.87ZM146.356 293.26C146.356 292.107 146.549 291.207 146.936 290.56C147.329 289.907 148.003 289.58 148.956 289.58C149.909 289.58 150.579 289.907 150.966 290.56C151.359 291.207 151.556 292.107 151.556 293.26C151.556 294.427 151.359 295.34 150.966 296C150.579 296.653 149.909 296.98 148.956 296.98C148.003 296.98 147.329 296.653 146.936 296C146.549 295.34 146.356 294.427 146.356 293.26ZM150.436 293.26C150.436 292.72 150.399 292.263 150.326 291.89C150.259 291.517 150.119 291.213 149.906 290.98C149.693 290.74 149.376 290.62 148.956 290.62C148.536 290.62 148.219 290.74 148.006 290.98C147.793 291.213 147.649 291.517 147.576 291.89C147.509 292.263 147.476 292.72 147.476 293.26C147.476 293.82 147.509 294.29 147.576 294.67C147.643 295.05 147.783 295.357 147.996 295.59C148.216 295.823 148.536 295.94 148.956 295.94C149.376 295.94 149.693 295.823 149.906 295.59C150.126 295.357 150.269 295.05 150.336 294.67C150.403 294.29 150.436 293.82 150.436 293.26ZM152.762 293.26C152.762 292.107 152.955 291.207 153.342 290.56C153.735 289.907 154.409 289.58 155.362 289.58C156.315 289.58 156.985 289.907 157.372 290.56C157.765 291.207 157.962 292.107 157.962 293.26C157.962 294.427 157.765 295.34 157.372 296C156.985 296.653 156.315 296.98 155.362 296.98C154.409 296.98 153.735 296.653 153.342 296C152.955 295.34 152.762 294.427 152.762 293.26ZM156.842 293.26C156.842 292.72 156.805 292.263 156.732 291.89C156.665 291.517 156.525 291.213 156.312 290.98C156.099 290.74 155.782 290.62 155.362 290.62C154.942 290.62 154.625 290.74 154.412 290.98C154.199 291.213 154.055 291.517 153.982 291.89C153.915 292.263 153.882 292.72 153.882 293.26C153.882 293.82 153.915 294.29 153.982 294.67C154.049 295.05 154.189 295.357 154.402 295.59C154.622 295.823 154.942 295.94 155.362 295.94C155.782 295.94 156.099 295.823 156.312 295.59C156.532 295.357 156.675 295.05 156.742 294.67C156.809 294.29 156.842 293.82 156.842 293.26Z" fill="#999999" fill-opacity="0.75"/>
<rect x="191" y="282" width="40" height="23" rx="10" fill="#14213D"/>
<path d="M198.896 290.75V289.71H200.976V297H199.826V290.75H198.896ZM203.962 295.02C204.029 295.353 204.172 295.607 204.392 295.78C204.612 295.953 204.909 296.04 205.282 296.04C205.756 296.04 206.102 295.853 206.322 295.48C206.542 295.107 206.652 294.47 206.652 293.57C206.492 293.797 206.266 293.973 205.972 294.1C205.686 294.22 205.372 294.28 205.032 294.28C204.599 294.28 204.206 294.193 203.852 294.02C203.499 293.84 203.219 293.577 203.012 293.23C202.812 292.877 202.712 292.45 202.712 291.95C202.712 291.217 202.926 290.633 203.352 290.2C203.786 289.76 204.379 289.54 205.132 289.54C206.039 289.54 206.682 289.843 207.062 290.45C207.449 291.05 207.642 291.973 207.642 293.22C207.642 294.08 207.569 294.783 207.422 295.33C207.282 295.877 207.036 296.29 206.682 296.57C206.329 296.85 205.839 296.99 205.212 296.99C204.499 296.99 203.949 296.803 203.562 296.43C203.176 296.057 202.959 295.587 202.912 295.02H203.962ZM205.232 293.32C205.632 293.32 205.946 293.197 206.172 292.95C206.406 292.697 206.522 292.363 206.522 291.95C206.522 291.49 206.399 291.133 206.152 290.88C205.912 290.62 205.582 290.49 205.162 290.49C204.742 290.49 204.409 290.623 204.162 290.89C203.922 291.15 203.802 291.493 203.802 291.92C203.802 292.327 203.919 292.663 204.152 292.93C204.392 293.19 204.752 293.32 205.232 293.32ZM209.5 297.07C209.293 297.07 209.12 297 208.98 296.86C208.84 296.72 208.77 296.547 208.77 296.34C208.77 296.133 208.84 295.96 208.98 295.82C209.12 295.68 209.293 295.61 209.5 295.61C209.7 295.61 209.87 295.68 210.01 295.82C210.15 295.96 210.22 296.133 210.22 296.34C210.22 296.547 210.15 296.72 210.01 296.86C209.87 297 209.7 297.07 209.5 297.07ZM209.5 292.87C209.293 292.87 209.12 292.8 208.98 292.66C208.84 292.52 208.77 292.347 208.77 292.14C208.77 291.933 208.84 291.76 208.98 291.62C209.12 291.48 209.293 291.41 209.5 291.41C209.7 291.41 209.87 291.48 210.01 291.62C210.15 291.76 210.22 291.933 210.22 292.14C210.22 292.347 210.15 292.52 210.01 292.66C209.87 292.8 209.7 292.87 209.5 292.87ZM211.341 293.26C211.341 292.107 211.535 291.207 211.921 290.56C212.315 289.907 212.988 289.58 213.941 289.58C214.895 289.58 215.565 289.907 215.951 290.56C216.345 291.207 216.541 292.107 216.541 293.26C216.541 294.427 216.345 295.34 215.951 296C215.565 296.653 214.895 296.98 213.941 296.98C212.988 296.98 212.315 296.653 211.921 296C211.535 295.34 211.341 294.427 211.341 293.26ZM215.421 293.26C215.421 292.72 215.385 292.263 215.311 291.89C215.245 291.517 215.105 291.213 214.891 290.98C214.678 290.74 214.361 290.62 213.941 290.62C213.521 290.62 213.205 290.74 212.991 290.98C212.778 291.213 212.635 291.517 212.561 291.89C212.495 292.263 212.461 292.72 212.461 293.26C212.461 293.82 212.495 294.29 212.561 294.67C212.628 295.05 212.768 295.357 212.981 295.59C213.201 295.823 213.521 295.94 213.941 295.94C214.361 295.94 214.678 295.823 214.891 295.59C215.111 295.357 215.255 295.05 215.321 294.67C215.388 294.29 215.421 293.82 215.421 293.26ZM217.747 293.26C217.747 292.107 217.941 291.207 218.327 290.56C218.721 289.907 219.394 289.58 220.347 289.58C221.301 289.58 221.971 289.907 222.357 290.56C222.751 291.207 222.947 292.107 222.947 293.26C222.947 294.427 222.751 295.34 222.357 296C221.971 296.653 221.301 296.98 220.347 296.98C219.394 296.98 218.721 296.653 218.327 296C217.941 295.34 217.747 294.427 217.747 293.26ZM221.827 293.26C221.827 292.72 221.791 292.263 221.717 291.89C221.651 291.517 221.511 291.213 221.297 290.98C221.084 290.74 220.767 290.62 220.347 290.62C219.927 290.62 219.611 290.74 219.397 290.98C219.184 291.213 219.041 291.517 218.967 291.89C218.901 292.263 218.867 292.72 218.867 293.26C218.867 293.82 218.901 294.29 218.967 294.67C219.034 295.05 219.174 295.357 219.387 295.59C219.607 295.823 219.927 295.94 220.347 295.94C220.767 295.94 221.084 295.823 221.297 295.59C221.517 295.357 221.661 295.05 221.727 294.67C221.794 294.29 221.827 293.82 221.827 293.26Z" fill="white"/>
<rect x="256" y="282" width="42" height="23" rx="10" fill="white"/>
<path d="M264.509 295.45C265.149 294.897 265.653 294.443 266.019 294.09C266.393 293.73 266.703 293.357 266.949 292.97C267.196 292.583 267.319 292.197 267.319 291.81C267.319 291.41 267.223 291.097 267.029 290.87C266.843 290.643 266.546 290.53 266.139 290.53C265.746 290.53 265.439 290.657 265.219 290.91C265.006 291.157 264.893 291.49 264.879 291.91H263.779C263.799 291.15 264.026 290.57 264.459 290.17C264.899 289.763 265.456 289.56 266.129 289.56C266.856 289.56 267.423 289.76 267.829 290.16C268.243 290.56 268.449 291.093 268.449 291.76C268.449 292.24 268.326 292.703 268.079 293.15C267.839 293.59 267.549 293.987 267.209 294.34C266.876 294.687 266.449 295.09 265.929 295.55L265.479 295.95H268.649V296.9H263.789V296.07L264.509 295.45ZM269.651 293.26C269.651 292.107 269.844 291.207 270.231 290.56C270.624 289.907 271.297 289.58 272.251 289.58C273.204 289.58 273.874 289.907 274.261 290.56C274.654 291.207 274.851 292.107 274.851 293.26C274.851 294.427 274.654 295.34 274.261 296C273.874 296.653 273.204 296.98 272.251 296.98C271.297 296.98 270.624 296.653 270.231 296C269.844 295.34 269.651 294.427 269.651 293.26ZM273.731 293.26C273.731 292.72 273.694 292.263 273.621 291.89C273.554 291.517 273.414 291.213 273.201 290.98C272.987 290.74 272.671 290.62 272.251 290.62C271.831 290.62 271.514 290.74 271.301 290.98C271.087 291.213 270.944 291.517 270.871 291.89C270.804 292.263 270.771 292.72 270.771 293.26C270.771 293.82 270.804 294.29 270.871 294.67C270.937 295.05 271.077 295.357 271.291 295.59C271.511 295.823 271.831 295.94 272.251 295.94C272.671 295.94 272.987 295.823 273.201 295.59C273.421 295.357 273.564 295.05 273.631 294.67C273.697 294.29 273.731 293.82 273.731 293.26ZM276.667 297.07C276.46 297.07 276.287 297 276.147 296.86C276.007 296.72 275.937 296.547 275.937 296.34C275.937 296.133 276.007 295.96 276.147 295.82C276.287 295.68 276.46 295.61 276.667 295.61C276.867 295.61 277.037 295.68 277.177 295.82C277.317 295.96 277.387 296.133 277.387 296.34C277.387 296.547 277.317 296.72 277.177 296.86C277.037 297 276.867 297.07 276.667 297.07ZM276.667 292.87C276.46 292.87 276.287 292.8 276.147 292.66C276.007 292.52 275.937 292.347 275.937 292.14C275.937 291.933 276.007 291.76 276.147 291.62C276.287 291.48 276.46 291.41 276.667 291.41C276.867 291.41 277.037 291.48 277.177 291.62C277.317 291.76 277.387 291.933 277.387 292.14C277.387 292.347 277.317 292.52 277.177 292.66C277.037 292.8 276.867 292.87 276.667 292.87ZM278.508 293.26C278.508 292.107 278.702 291.207 279.088 290.56C279.482 289.907 280.155 289.58 281.108 289.58C282.062 289.58 282.732 289.907 283.118 290.56C283.512 291.207 283.708 292.107 283.708 293.26C283.708 294.427 283.512 295.34 283.118 296C282.732 296.653 282.062 296.98 281.108 296.98C280.155 296.98 279.482 296.653 279.088 296C278.702 295.34 278.508 294.427 278.508 293.26ZM282.588 293.26C282.588 292.72 282.552 292.263 282.478 291.89C282.412 291.517 282.272 291.213 282.058 290.98C281.845 290.74 281.528 290.62 281.108 290.62C280.688 290.62 280.372 290.74 280.158 290.98C279.945 291.213 279.802 291.517 279.728 291.89C279.662 292.263 279.628 292.72 279.628 293.26C279.628 293.82 279.662 294.29 279.728 294.67C279.795 295.05 279.935 295.357 280.148 295.59C280.368 295.823 280.688 295.94 281.108 295.94C281.528 295.94 281.845 295.823 282.058 295.59C282.278 295.357 282.422 295.05 282.488 294.67C282.555 294.29 282.588 293.82 282.588 293.26ZM284.914 293.26C284.914 292.107 285.108 291.207 285.494 290.56C285.888 289.907 286.561 289.58 287.514 289.58C288.468 289.58 289.138 289.907 289.524 290.56C289.918 291.207 290.114 292.107 290.114 293.26C290.114 294.427 289.918 295.34 289.524 296C289.138 296.653 288.468 296.98 287.514 296.98C286.561 296.98 285.888 296.653 285.494 296C285.108 295.34 284.914 294.427 284.914 293.26ZM288.994 293.26C288.994 292.72 288.958 292.263 288.884 291.89C288.818 291.517 288.678 291.213 288.464 290.98C288.251 290.74 287.934 290.62 287.514 290.62C287.094 290.62 286.778 290.74 286.564 290.98C286.351 291.213 286.208 291.517 286.134 291.89C286.068 292.263 286.034 292.72 286.034 293.26C286.034 293.82 286.068 294.29 286.134 294.67C286.201 295.05 286.341 295.357 286.554 295.59C286.774 295.823 287.094 295.94 287.514 295.94C287.934 295.94 288.251 295.823 288.464 295.59C288.684 295.357 288.828 295.05 288.894 294.67C288.961 294.29 288.994 293.82 288.994 293.26Z" fill="#999999" fill-opacity="0.75"/>
<path d="M19.068 59.96C19.002 59.684 18.882 59.477 18.708 59.339C18.534 59.201 18.291 59.132 17.979 59.132C17.505 59.132 17.151 59.315 16.917 59.681C16.683 60.041 16.56 60.641 16.548 61.481C16.704 61.217 16.932 61.013 17.232 60.869C17.532 60.725 17.856 60.653 18.204 60.653C18.6 60.653 18.948 60.74 19.248 60.914C19.554 61.082 19.791 61.328 19.959 61.652C20.133 61.976 20.22 62.363 20.22 62.813C20.22 63.233 20.136 63.608 19.968 63.938C19.806 64.268 19.563 64.529 19.239 64.721C18.915 64.907 18.525 65 18.069 65C17.451 65 16.965 64.865 16.611 64.595C16.263 64.319 16.017 63.932 15.873 63.434C15.735 62.936 15.666 62.315 15.666 61.571C15.666 59.375 16.44 58.277 17.988 58.277C18.588 58.277 19.059 58.439 19.401 58.763C19.749 59.087 19.953 59.486 20.013 59.96H19.068ZM17.979 61.517C17.613 61.517 17.301 61.628 17.043 61.85C16.791 62.066 16.665 62.381 16.665 62.795C16.665 63.209 16.782 63.539 17.016 63.785C17.256 64.025 17.589 64.145 18.015 64.145C18.393 64.145 18.69 64.028 18.906 63.794C19.128 63.56 19.239 63.248 19.239 62.858C19.239 62.45 19.131 62.126 18.915 61.886C18.705 61.64 18.393 61.517 17.979 61.517ZM21.3144 61.634C21.3144 60.596 21.4884 59.786 21.8364 59.204C22.1904 58.616 22.7964 58.322 23.6544 58.322C24.5124 58.322 25.1154 58.616 25.4634 59.204C25.8174 59.786 25.9944 60.596 25.9944 61.634C25.9944 62.684 25.8174 63.506 25.4634 64.1C25.1154 64.688 24.5124 64.982 23.6544 64.982C22.7964 64.982 22.1904 64.688 21.8364 64.1C21.4884 63.506 21.3144 62.684 21.3144 61.634ZM24.9864 61.634C24.9864 61.148 24.9534 60.737 24.8874 60.401C24.8274 60.065 24.7014 59.792 24.5094 59.582C24.3174 59.366 24.0324 59.258 23.6544 59.258C23.2764 59.258 22.9914 59.366 22.7994 59.582C22.6074 59.792 22.4784 60.065 22.4124 60.401C22.3524 60.737 22.3224 61.148 22.3224 61.634C22.3224 62.138 22.3524 62.561 22.4124 62.903C22.4724 63.245 22.5984 63.521 22.7904 63.731C22.9884 63.941 23.2764 64.046 23.6544 64.046C24.0324 64.046 24.3174 63.941 24.5094 63.731C24.7074 63.521 24.8364 63.245 24.8964 62.903C24.9564 62.561 24.9864 62.138 24.9864 61.634Z" fill="#B6B6B6" fill-opacity="0.75"/>
<path d="M19.068 90.96C19.002 90.684 18.882 90.477 18.708 90.339C18.534 90.201 18.291 90.132 17.979 90.132C17.505 90.132 17.151 90.315 16.917 90.681C16.683 91.041 16.56 91.641 16.548 92.481C16.704 92.217 16.932 92.013 17.232 91.869C17.532 91.725 17.856 91.653 18.204 91.653C18.6 91.653 18.948 91.74 19.248 91.914C19.554 92.082 19.791 92.328 19.959 92.652C20.133 92.976 20.22 93.363 20.22 93.813C20.22 94.233 20.136 94.608 19.968 94.938C19.806 95.268 19.563 95.529 19.239 95.721C18.915 95.907 18.525 96 18.069 96C17.451 96 16.965 95.865 16.611 95.595C16.263 95.319 16.017 94.932 15.873 94.434C15.735 93.936 15.666 93.315 15.666 92.571C15.666 90.375 16.44 89.277 17.988 89.277C18.588 89.277 19.059 89.439 19.401 89.763C19.749 90.087 19.953 90.486 20.013 90.96H19.068ZM17.979 92.517C17.613 92.517 17.301 92.628 17.043 92.85C16.791 93.066 16.665 93.381 16.665 93.795C16.665 94.209 16.782 94.539 17.016 94.785C17.256 95.025 17.589 95.145 18.015 95.145C18.393 95.145 18.69 95.028 18.906 94.794C19.128 94.56 19.239 94.248 19.239 93.858C19.239 93.45 19.131 93.126 18.915 92.886C18.705 92.64 18.393 92.517 17.979 92.517ZM21.3144 92.634C21.3144 91.596 21.4884 90.786 21.8364 90.204C22.1904 89.616 22.7964 89.322 23.6544 89.322C24.5124 89.322 25.1154 89.616 25.4634 90.204C25.8174 90.786 25.9944 91.596 25.9944 92.634C25.9944 93.684 25.8174 94.506 25.4634 95.1C25.1154 95.688 24.5124 95.982 23.6544 95.982C22.7964 95.982 22.1904 95.688 21.8364 95.1C21.4884 94.506 21.3144 93.684 21.3144 92.634ZM24.9864 92.634C24.9864 92.148 24.9534 91.737 24.8874 91.401C24.8274 91.065 24.7014 90.792 24.5094 90.582C24.3174 90.366 24.0324 90.258 23.6544 90.258C23.2764 90.258 22.9914 90.366 22.7994 90.582C22.6074 90.792 22.4784 91.065 22.4124 91.401C22.3524 91.737 22.3224 92.148 22.3224 92.634C22.3224 93.138 22.3524 93.561 22.4124 93.903C22.4724 94.245 22.5984 94.521 22.7904 94.731C22.9884 94.941 23.2764 95.046 23.6544 95.046C24.0324 95.046 24.3174 94.941 24.5094 94.731C24.7074 94.521 24.8364 94.245 24.8964 93.903C24.9564 93.561 24.9864 93.138 24.9864 92.634Z" fill="#B6B6B6" fill-opacity="0.75"/>
<path d="M19.068 121.96C19.002 121.684 18.882 121.477 18.708 121.339C18.534 121.201 18.291 121.132 17.979 121.132C17.505 121.132 17.151 121.315 16.917 121.681C16.683 122.041 16.56 122.641 16.548 123.481C16.704 123.217 16.932 123.013 17.232 122.869C17.532 122.725 17.856 122.653 18.204 122.653C18.6 122.653 18.948 122.74 19.248 122.914C19.554 123.082 19.791 123.328 19.959 123.652C20.133 123.976 20.22 124.363 20.22 124.813C20.22 125.233 20.136 125.608 19.968 125.938C19.806 126.268 19.563 126.529 19.239 126.721C18.915 126.907 18.525 127 18.069 127C17.451 127 16.965 126.865 16.611 126.595C16.263 126.319 16.017 125.932 15.873 125.434C15.735 124.936 15.666 124.315 15.666 123.571C15.666 121.375 16.44 120.277 17.988 120.277C18.588 120.277 19.059 120.439 19.401 120.763C19.749 121.087 19.953 121.486 20.013 121.96H19.068ZM17.979 123.517C17.613 123.517 17.301 123.628 17.043 123.85C16.791 124.066 16.665 124.381 16.665 124.795C16.665 125.209 16.782 125.539 17.016 125.785C17.256 126.025 17.589 126.145 18.015 126.145C18.393 126.145 18.69 126.028 18.906 125.794C19.128 125.56 19.239 125.248 19.239 124.858C19.239 124.45 19.131 124.126 18.915 123.886C18.705 123.64 18.393 123.517 17.979 123.517ZM21.3144 123.634C21.3144 122.596 21.4884 121.786 21.8364 121.204C22.1904 120.616 22.7964 120.322 23.6544 120.322C24.5124 120.322 25.1154 120.616 25.4634 121.204C25.8174 121.786 25.9944 122.596 25.9944 123.634C25.9944 124.684 25.8174 125.506 25.4634 126.1C25.1154 126.688 24.5124 126.982 23.6544 126.982C22.7964 126.982 22.1904 126.688 21.8364 126.1C21.4884 125.506 21.3144 124.684 21.3144 123.634ZM24.9864 123.634C24.9864 123.148 24.9534 122.737 24.8874 122.401C24.8274 122.065 24.7014 121.792 24.5094 121.582C24.3174 121.366 24.0324 121.258 23.6544 121.258C23.2764 121.258 22.9914 121.366 22.7994 121.582C22.6074 121.792 22.4784 122.065 22.4124 122.401C22.3524 122.737 22.3224 123.148 22.3224 123.634C22.3224 124.138 22.3524 124.561 22.4124 124.903C22.4724 125.245 22.5984 125.521 22.7904 125.731C22.9884 125.941 23.2764 126.046 23.6544 126.046C24.0324 126.046 24.3174 125.941 24.5094 125.731C24.7074 125.521 24.8364 125.245 24.8964 124.903C24.9564 124.561 24.9864 124.138 24.9864 123.634Z" fill="#B6B6B6" fill-opacity="0.75"/>
<path d="M19.068 152.96C19.002 152.684 18.882 152.477 18.708 152.339C18.534 152.201 18.291 152.132 17.979 152.132C17.505 152.132 17.151 152.315 16.917 152.681C16.683 153.041 16.56 153.641 16.548 154.481C16.704 154.217 16.932 154.013 17.232 153.869C17.532 153.725 17.856 153.653 18.204 153.653C18.6 153.653 18.948 153.74 19.248 153.914C19.554 154.082 19.791 154.328 19.959 154.652C20.133 154.976 20.22 155.363 20.22 155.813C20.22 156.233 20.136 156.608 19.968 156.938C19.806 157.268 19.563 157.529 19.239 157.721C18.915 157.907 18.525 158 18.069 158C17.451 158 16.965 157.865 16.611 157.595C16.263 157.319 16.017 156.932 15.873 156.434C15.735 155.936 15.666 155.315 15.666 154.571C15.666 152.375 16.44 151.277 17.988 151.277C18.588 151.277 19.059 151.439 19.401 151.763C19.749 152.087 19.953 152.486 20.013 152.96H19.068ZM17.979 154.517C17.613 154.517 17.301 154.628 17.043 154.85C16.791 155.066 16.665 155.381 16.665 155.795C16.665 156.209 16.782 156.539 17.016 156.785C17.256 157.025 17.589 157.145 18.015 157.145C18.393 157.145 18.69 157.028 18.906 156.794C19.128 156.56 19.239 156.248 19.239 155.858C19.239 155.45 19.131 155.126 18.915 154.886C18.705 154.64 18.393 154.517 17.979 154.517ZM21.3144 154.634C21.3144 153.596 21.4884 152.786 21.8364 152.204C22.1904 151.616 22.7964 151.322 23.6544 151.322C24.5124 151.322 25.1154 151.616 25.4634 152.204C25.8174 152.786 25.9944 153.596 25.9944 154.634C25.9944 155.684 25.8174 156.506 25.4634 157.1C25.1154 157.688 24.5124 157.982 23.6544 157.982C22.7964 157.982 22.1904 157.688 21.8364 157.1C21.4884 156.506 21.3144 155.684 21.3144 154.634ZM24.9864 154.634C24.9864 154.148 24.9534 153.737 24.8874 153.401C24.8274 153.065 24.7014 152.792 24.5094 152.582C24.3174 152.366 24.0324 152.258 23.6544 152.258C23.2764 152.258 22.9914 152.366 22.7994 152.582C22.6074 152.792 22.4784 153.065 22.4124 153.401C22.3524 153.737 22.3224 154.148 22.3224 154.634C22.3224 155.138 22.3524 155.561 22.4124 155.903C22.4724 156.245 22.5984 156.521 22.7904 156.731C22.9884 156.941 23.2764 157.046 23.6544 157.046C24.0324 157.046 24.3174 156.941 24.5094 156.731C24.7074 156.521 24.8364 156.245 24.8964 155.903C24.9564 155.561 24.9864 155.138 24.9864 154.634Z" fill="#B6B6B6" fill-opacity="0.75"/>
<path d="M19.068 183.96C19.002 183.684 18.882 183.477 18.708 183.339C18.534 183.201 18.291 183.132 17.979 183.132C17.505 183.132 17.151 183.315 16.917 183.681C16.683 184.041 16.56 184.641 16.548 185.481C16.704 185.217 16.932 185.013 17.232 184.869C17.532 184.725 17.856 184.653 18.204 184.653C18.6 184.653 18.948 184.74 19.248 184.914C19.554 185.082 19.791 185.328 19.959 185.652C20.133 185.976 20.22 186.363 20.22 186.813C20.22 187.233 20.136 187.608 19.968 187.938C19.806 188.268 19.563 188.529 19.239 188.721C18.915 188.907 18.525 189 18.069 189C17.451 189 16.965 188.865 16.611 188.595C16.263 188.319 16.017 187.932 15.873 187.434C15.735 186.936 15.666 186.315 15.666 185.571C15.666 183.375 16.44 182.277 17.988 182.277C18.588 182.277 19.059 182.439 19.401 182.763C19.749 183.087 19.953 183.486 20.013 183.96H19.068ZM17.979 185.517C17.613 185.517 17.301 185.628 17.043 185.85C16.791 186.066 16.665 186.381 16.665 186.795C16.665 187.209 16.782 187.539 17.016 187.785C17.256 188.025 17.589 188.145 18.015 188.145C18.393 188.145 18.69 188.028 18.906 187.794C19.128 187.56 19.239 187.248 19.239 186.858C19.239 186.45 19.131 186.126 18.915 185.886C18.705 185.64 18.393 185.517 17.979 185.517ZM21.3144 185.634C21.3144 184.596 21.4884 183.786 21.8364 183.204C22.1904 182.616 22.7964 182.322 23.6544 182.322C24.5124 182.322 25.1154 182.616 25.4634 183.204C25.8174 183.786 25.9944 184.596 25.9944 185.634C25.9944 186.684 25.8174 187.506 25.4634 188.1C25.1154 188.688 24.5124 188.982 23.6544 188.982C22.7964 188.982 22.1904 188.688 21.8364 188.1C21.4884 187.506 21.3144 186.684 21.3144 185.634ZM24.9864 185.634C24.9864 185.148 24.9534 184.737 24.8874 184.401C24.8274 184.065 24.7014 183.792 24.5094 183.582C24.3174 183.366 24.0324 183.258 23.6544 183.258C23.2764 183.258 22.9914 183.366 22.7994 183.582C22.6074 183.792 22.4784 184.065 22.4124 184.401C22.3524 184.737 22.3224 185.148 22.3224 185.634C22.3224 186.138 22.3524 186.561 22.4124 186.903C22.4724 187.245 22.5984 187.521 22.7904 187.731C22.9884 187.941 23.2764 188.046 23.6544 188.046C24.0324 188.046 24.3174 187.941 24.5094 187.731C24.7074 187.521 24.8364 187.245 24.8964 186.903C24.9564 186.561 24.9864 186.138 24.9864 185.634Z" fill="#B6B6B6" fill-opacity="0.75"/>
<path d="M19.068 214.96C19.002 214.684 18.882 214.477 18.708 214.339C18.534 214.201 18.291 214.132 17.979 214.132C17.505 214.132 17.151 214.315 16.917 214.681C16.683 215.041 16.56 215.641 16.548 216.481C16.704 216.217 16.932 216.013 17.232 215.869C17.532 215.725 17.856 215.653 18.204 215.653C18.6 215.653 18.948 215.74 19.248 215.914C19.554 216.082 19.791 216.328 19.959 216.652C20.133 216.976 20.22 217.363 20.22 217.813C20.22 218.233 20.136 218.608 19.968 218.938C19.806 219.268 19.563 219.529 19.239 219.721C18.915 219.907 18.525 220 18.069 220C17.451 220 16.965 219.865 16.611 219.595C16.263 219.319 16.017 218.932 15.873 218.434C15.735 217.936 15.666 217.315 15.666 216.571C15.666 214.375 16.44 213.277 17.988 213.277C18.588 213.277 19.059 213.439 19.401 213.763C19.749 214.087 19.953 214.486 20.013 214.96H19.068ZM17.979 216.517C17.613 216.517 17.301 216.628 17.043 216.85C16.791 217.066 16.665 217.381 16.665 217.795C16.665 218.209 16.782 218.539 17.016 218.785C17.256 219.025 17.589 219.145 18.015 219.145C18.393 219.145 18.69 219.028 18.906 218.794C19.128 218.56 19.239 218.248 19.239 217.858C19.239 217.45 19.131 217.126 18.915 216.886C18.705 216.64 18.393 216.517 17.979 216.517ZM21.3144 216.634C21.3144 215.596 21.4884 214.786 21.8364 214.204C22.1904 213.616 22.7964 213.322 23.6544 213.322C24.5124 213.322 25.1154 213.616 25.4634 214.204C25.8174 214.786 25.9944 215.596 25.9944 216.634C25.9944 217.684 25.8174 218.506 25.4634 219.1C25.1154 219.688 24.5124 219.982 23.6544 219.982C22.7964 219.982 22.1904 219.688 21.8364 219.1C21.4884 218.506 21.3144 217.684 21.3144 216.634ZM24.9864 216.634C24.9864 216.148 24.9534 215.737 24.8874 215.401C24.8274 215.065 24.7014 214.792 24.5094 214.582C24.3174 214.366 24.0324 214.258 23.6544 214.258C23.2764 214.258 22.9914 214.366 22.7994 214.582C22.6074 214.792 22.4784 215.065 22.4124 215.401C22.3524 215.737 22.3224 216.148 22.3224 216.634C22.3224 217.138 22.3524 217.561 22.4124 217.903C22.4724 218.245 22.5984 218.521 22.7904 218.731C22.9884 218.941 23.2764 219.046 23.6544 219.046C24.0324 219.046 24.3174 218.941 24.5094 218.731C24.7074 218.521 24.8364 218.245 24.8964 217.903C24.9564 217.561 24.9864 217.138 24.9864 216.634Z" fill="#B6B6B6" fill-opacity="0.75"/>
<path d="M19.068 245.96C19.002 245.684 18.882 245.477 18.708 245.339C18.534 245.201 18.291 245.132 17.979 245.132C17.505 245.132 17.151 245.315 16.917 245.681C16.683 246.041 16.56 246.641 16.548 247.481C16.704 247.217 16.932 247.013 17.232 246.869C17.532 246.725 17.856 246.653 18.204 246.653C18.6 246.653 18.948 246.74 19.248 246.914C19.554 247.082 19.791 247.328 19.959 247.652C20.133 247.976 20.22 248.363 20.22 248.813C20.22 249.233 20.136 249.608 19.968 249.938C19.806 250.268 19.563 250.529 19.239 250.721C18.915 250.907 18.525 251 18.069 251C17.451 251 16.965 250.865 16.611 250.595C16.263 250.319 16.017 249.932 15.873 249.434C15.735 248.936 15.666 248.315 15.666 247.571C15.666 245.375 16.44 244.277 17.988 244.277C18.588 244.277 19.059 244.439 19.401 244.763C19.749 245.087 19.953 245.486 20.013 245.96H19.068ZM17.979 247.517C17.613 247.517 17.301 247.628 17.043 247.85C16.791 248.066 16.665 248.381 16.665 248.795C16.665 249.209 16.782 249.539 17.016 249.785C17.256 250.025 17.589 250.145 18.015 250.145C18.393 250.145 18.69 250.028 18.906 249.794C19.128 249.56 19.239 249.248 19.239 248.858C19.239 248.45 19.131 248.126 18.915 247.886C18.705 247.64 18.393 247.517 17.979 247.517ZM21.3144 247.634C21.3144 246.596 21.4884 245.786 21.8364 245.204C22.1904 244.616 22.7964 244.322 23.6544 244.322C24.5124 244.322 25.1154 244.616 25.4634 245.204C25.8174 245.786 25.9944 246.596 25.9944 247.634C25.9944 248.684 25.8174 249.506 25.4634 250.1C25.1154 250.688 24.5124 250.982 23.6544 250.982C22.7964 250.982 22.1904 250.688 21.8364 250.1C21.4884 249.506 21.3144 248.684 21.3144 247.634ZM24.9864 247.634C24.9864 247.148 24.9534 246.737 24.8874 246.401C24.8274 246.065 24.7014 245.792 24.5094 245.582C24.3174 245.366 24.0324 245.258 23.6544 245.258C23.2764 245.258 22.9914 245.366 22.7994 245.582C22.6074 245.792 22.4784 246.065 22.4124 246.401C22.3524 246.737 22.3224 247.148 22.3224 247.634C22.3224 248.138 22.3524 248.561 22.4124 248.903C22.4724 249.245 22.5984 249.521 22.7904 249.731C22.9884 249.941 23.2764 250.046 23.6544 250.046C24.0324 250.046 24.3174 249.941 24.5094 249.731C24.7074 249.521 24.8364 249.245 24.8964 248.903C24.9564 248.561 24.9864 248.138 24.9864 247.634Z" fill="#B6B6B6" fill-opacity="0.75"/>
<path d="M42.0547 29.9219L45.0469 20.625H47.2109L43.1328 32H41.6719L42.0547 29.9219ZM39.2891 20.625L42.2578 29.9219L42.6641 32H41.1953L37.1328 20.625H39.2891ZM47.5781 27.8672V27.6875C47.5781 27.0781 47.6667 26.513 47.8438 25.9922C48.0208 25.4661 48.276 25.0104 48.6094 24.625C48.9479 24.2344 49.3594 23.9323 49.8438 23.7188C50.3333 23.5 50.8854 23.3906 51.5 23.3906C52.1198 23.3906 52.6719 23.5 53.1562 23.7188C53.6458 23.9323 54.0599 24.2344 54.3984 24.625C54.737 25.0104 54.9948 25.4661 55.1719 25.9922C55.349 26.513 55.4375 27.0781 55.4375 27.6875V27.8672C55.4375 28.4766 55.349 29.0417 55.1719 29.5625C54.9948 30.0833 54.737 30.5391 54.3984 30.9297C54.0599 31.3151 53.6484 31.6172 53.1641 31.8359C52.6797 32.0495 52.1302 32.1562 51.5156 32.1562C50.8958 32.1562 50.3411 32.0495 49.8516 31.8359C49.3672 31.6172 48.9557 31.3151 48.6172 30.9297C48.2786 30.5391 48.0208 30.0833 47.8438 29.5625C47.6667 29.0417 47.5781 28.4766 47.5781 27.8672ZM49.4609 27.6875V27.8672C49.4609 28.2474 49.5 28.6068 49.5781 28.9453C49.6562 29.2839 49.7786 29.5807 49.9453 29.8359C50.112 30.0911 50.3255 30.2917 50.5859 30.4375C50.8464 30.5833 51.1562 30.6562 51.5156 30.6562C51.8646 30.6562 52.1667 30.5833 52.4219 30.4375C52.6823 30.2917 52.8958 30.0911 53.0625 29.8359C53.2292 29.5807 53.3516 29.2839 53.4297 28.9453C53.513 28.6068 53.5547 28.2474 53.5547 27.8672V27.6875C53.5547 27.3125 53.513 26.9583 53.4297 26.625C53.3516 26.2865 53.2266 25.987 53.0547 25.7266C52.888 25.4661 52.6745 25.263 52.4141 25.1172C52.1589 24.9661 51.8542 24.8906 51.5 24.8906C51.1458 24.8906 50.8385 24.9661 50.5781 25.1172C50.3229 25.263 50.112 25.4661 49.9453 25.7266C49.7786 25.987 49.6562 26.2865 49.5781 26.625C49.5 26.9583 49.4609 27.3125 49.4609 27.6875ZM59.0312 20V32H57.1406V20H59.0312ZM64.9688 23.5469V24.9219H60.2031V23.5469H64.9688ZM61.5781 21.4766H63.4609V29.6641C63.4609 29.9245 63.4974 30.125 63.5703 30.2656C63.6484 30.401 63.7552 30.4922 63.8906 30.5391C64.026 30.5859 64.1849 30.6094 64.3672 30.6094C64.4974 30.6094 64.6224 30.6016 64.7422 30.5859C64.862 30.5703 64.9583 30.5547 65.0312 30.5391L65.0391 31.9766C64.8828 32.0234 64.7005 32.0651 64.4922 32.1016C64.2891 32.138 64.0547 32.1562 63.7891 32.1562C63.3568 32.1562 62.974 32.0807 62.6406 31.9297C62.3073 31.7734 62.0469 31.5208 61.8594 31.1719C61.6719 30.8229 61.5781 30.3594 61.5781 29.7812V21.4766ZM71.1875 30.3047V26.2734C71.1875 25.9714 71.1328 25.7109 71.0234 25.4922C70.9141 25.2734 70.7474 25.1042 70.5234 24.9844C70.3047 24.8646 70.0286 24.8047 69.6953 24.8047C69.388 24.8047 69.1224 24.8568 68.8984 24.9609C68.6745 25.0651 68.5 25.2057 68.375 25.3828C68.25 25.5599 68.1875 25.7604 68.1875 25.9844H66.3125C66.3125 25.651 66.3932 25.3281 66.5547 25.0156C66.7161 24.7031 66.9505 24.4245 67.2578 24.1797C67.5651 23.9349 67.9323 23.7422 68.3594 23.6016C68.7865 23.4609 69.2656 23.3906 69.7969 23.3906C70.4323 23.3906 70.9948 23.4974 71.4844 23.7109C71.9792 23.9245 72.3672 24.2474 72.6484 24.6797C72.9349 25.1068 73.0781 25.6432 73.0781 26.2891V30.0469C73.0781 30.4323 73.1042 30.7786 73.1562 31.0859C73.2135 31.388 73.2943 31.651 73.3984 31.875V32H71.4688C71.3802 31.7969 71.3099 31.5391 71.2578 31.2266C71.2109 30.9089 71.1875 30.6016 71.1875 30.3047ZM71.4609 26.8594L71.4766 28.0234H70.125C69.776 28.0234 69.4688 28.0573 69.2031 28.125C68.9375 28.1875 68.7161 28.2812 68.5391 28.4062C68.362 28.5312 68.2292 28.6823 68.1406 28.8594C68.0521 29.0365 68.0078 29.237 68.0078 29.4609C68.0078 29.6849 68.0599 29.8906 68.1641 30.0781C68.2682 30.2604 68.4193 30.4036 68.6172 30.5078C68.8203 30.612 69.0651 30.6641 69.3516 30.6641C69.737 30.6641 70.0729 30.5859 70.3594 30.4297C70.651 30.2682 70.8802 30.0729 71.0469 29.8438C71.2135 29.6094 71.3021 29.388 71.3125 29.1797L71.9219 30.0156C71.8594 30.2292 71.7526 30.4583 71.6016 30.7031C71.4505 30.9479 71.2526 31.1823 71.0078 31.4062C70.7682 31.625 70.4792 31.8047 70.1406 31.9453C69.8073 32.0859 69.4219 32.1562 68.9844 32.1562C68.4323 32.1562 67.9401 32.0469 67.5078 31.8281C67.0755 31.6042 66.737 31.3047 66.4922 30.9297C66.2474 30.5495 66.125 30.1198 66.125 29.6406C66.125 29.1927 66.2083 28.7969 66.375 28.4531C66.5469 28.1042 66.7969 27.8125 67.125 27.5781C67.4583 27.3438 67.8646 27.1667 68.3438 27.0469C68.8229 26.9219 69.3698 26.8594 69.9844 26.8594H71.4609ZM75.1406 23.5469H77.0312V32.7344C77.0312 33.3125 76.9323 33.7995 76.7344 34.1953C76.5365 34.5964 76.2448 34.8984 75.8594 35.1016C75.474 35.3099 75.0026 35.4141 74.4453 35.4141C74.2786 35.4141 74.1068 35.401 73.9297 35.375C73.7474 35.3542 73.5755 35.3229 73.4141 35.2812L73.4219 33.8125C73.5312 33.8333 73.6484 33.849 73.7734 33.8594C73.8932 33.875 74.0078 33.8828 74.1172 33.8828C74.3411 33.8828 74.5286 33.8438 74.6797 33.7656C74.8307 33.6875 74.9453 33.5651 75.0234 33.3984C75.1016 33.2318 75.1406 33.0104 75.1406 32.7344V23.5469ZM74.9766 21.3281C74.9766 21.0417 75.0729 20.8047 75.2656 20.6172C75.4583 20.4245 75.7214 20.3281 76.0547 20.3281C76.3932 20.3281 76.6562 20.4245 76.8438 20.6172C77.0365 20.8047 77.1328 21.0417 77.1328 21.3281C77.1328 21.6094 77.0365 21.8438 76.8438 22.0312C76.6562 22.2188 76.3932 22.3125 76.0547 22.3125C75.7214 22.3125 75.4583 22.2188 75.2656 22.0312C75.0729 21.8438 74.9766 21.6094 74.9766 21.3281ZM82.7891 32.1562C82.1641 32.1562 81.599 32.0547 81.0938 31.8516C80.5938 31.6432 80.1667 31.3542 79.8125 30.9844C79.4635 30.6146 79.1953 30.1797 79.0078 29.6797C78.8203 29.1797 78.7266 28.6406 78.7266 28.0625V27.75C78.7266 27.0885 78.8229 26.4896 79.0156 25.9531C79.2083 25.4167 79.4766 24.9583 79.8203 24.5781C80.1641 24.1927 80.5703 23.8984 81.0391 23.6953C81.5078 23.4922 82.0156 23.3906 82.5625 23.3906C83.1667 23.3906 83.6953 23.4922 84.1484 23.6953C84.6016 23.8984 84.9766 24.1849 85.2734 24.5547C85.5755 24.9193 85.7995 25.3542 85.9453 25.8594C86.0964 26.3646 86.1719 26.9219 86.1719 27.5312V28.3359H79.6406V26.9844H84.3125V26.8359C84.3021 26.4974 84.2344 26.1797 84.1094 25.8828C83.9896 25.5859 83.8047 25.3464 83.5547 25.1641C83.3047 24.9818 82.9714 24.8906 82.5547 24.8906C82.2422 24.8906 81.9635 24.9583 81.7188 25.0938C81.4792 25.224 81.2786 25.4141 81.1172 25.6641C80.9557 25.9141 80.8307 26.2161 80.7422 26.5703C80.6589 26.9193 80.6172 27.3125 80.6172 27.75V28.0625C80.6172 28.4323 80.6667 28.776 80.7656 29.0938C80.8698 29.4062 81.0208 29.6797 81.2188 29.9141C81.4167 30.1484 81.6562 30.3333 81.9375 30.4688C82.2188 30.599 82.5391 30.6641 82.8984 30.6641C83.3516 30.6641 83.7552 30.5729 84.1094 30.3906C84.4635 30.2083 84.7708 29.9505 85.0312 29.6172L86.0234 30.5781C85.8411 30.8438 85.6042 31.099 85.3125 31.3438C85.0208 31.5833 84.6641 31.7786 84.2422 31.9297C83.8255 32.0807 83.3411 32.1562 82.7891 32.1562ZM97.0391 23.5469H98.75V31.7656C98.75 32.526 98.5885 33.1719 98.2656 33.7031C97.9427 34.2344 97.4922 34.638 96.9141 34.9141C96.3359 35.1953 95.6667 35.3359 94.9062 35.3359C94.5833 35.3359 94.224 35.2891 93.8281 35.1953C93.4375 35.1016 93.0573 34.9505 92.6875 34.7422C92.3229 34.5391 92.0182 34.2708 91.7734 33.9375L92.6562 32.8281C92.9583 33.1875 93.2917 33.4505 93.6562 33.6172C94.0208 33.7839 94.4036 33.8672 94.8047 33.8672C95.237 33.8672 95.6042 33.7865 95.9062 33.625C96.2135 33.4688 96.4505 33.237 96.6172 32.9297C96.7839 32.6224 96.8672 32.2474 96.8672 31.8047V25.4609L97.0391 23.5469ZM91.2969 27.8672V27.7031C91.2969 27.0625 91.375 26.4792 91.5312 25.9531C91.6875 25.4219 91.9115 24.9661 92.2031 24.5859C92.4948 24.2005 92.849 23.9062 93.2656 23.7031C93.6823 23.4948 94.1536 23.3906 94.6797 23.3906C95.2266 23.3906 95.6927 23.4896 96.0781 23.6875C96.4688 23.8854 96.7943 24.1693 97.0547 24.5391C97.3151 24.9036 97.5182 25.3411 97.6641 25.8516C97.8151 26.3568 97.9271 26.9193 98 27.5391V28.0625C97.9323 28.6667 97.8177 29.2188 97.6562 29.7188C97.4948 30.2188 97.2812 30.651 97.0156 31.0156C96.75 31.3802 96.4219 31.6615 96.0312 31.8594C95.6458 32.0573 95.1901 32.1562 94.6641 32.1562C94.1484 32.1562 93.6823 32.0495 93.2656 31.8359C92.8542 31.6224 92.5 31.3229 92.2031 30.9375C91.9115 30.5521 91.6875 30.099 91.5312 29.5781C91.375 29.0521 91.2969 28.4818 91.2969 27.8672ZM93.1797 27.7031V27.8672C93.1797 28.2526 93.2161 28.612 93.2891 28.9453C93.3672 29.2786 93.4844 29.5729 93.6406 29.8281C93.8021 30.0781 94.0052 30.276 94.25 30.4219C94.5 30.5625 94.7943 30.6328 95.1328 30.6328C95.5755 30.6328 95.9375 30.5391 96.2188 30.3516C96.5052 30.1641 96.724 29.9115 96.875 29.5938C97.0312 29.2708 97.1406 28.9115 97.2031 28.5156V27.1016C97.1719 26.7943 97.1068 26.5078 97.0078 26.2422C96.9141 25.9766 96.7865 25.7448 96.625 25.5469C96.4635 25.3438 96.2604 25.1875 96.0156 25.0781C95.7708 24.9635 95.4818 24.9062 95.1484 24.9062C94.8099 24.9062 94.5156 24.9792 94.2656 25.125C94.0156 25.2708 93.8099 25.4714 93.6484 25.7266C93.4922 25.9818 93.375 26.2786 93.2969 26.6172C93.2188 26.9557 93.1797 27.3177 93.1797 27.7031ZM104.43 32.1562C103.805 32.1562 103.24 32.0547 102.734 31.8516C102.234 31.6432 101.807 31.3542 101.453 30.9844C101.104 30.6146 100.836 30.1797 100.648 29.6797C100.461 29.1797 100.367 28.6406 100.367 28.0625V27.75C100.367 27.0885 100.464 26.4896 100.656 25.9531C100.849 25.4167 101.117 24.9583 101.461 24.5781C101.805 24.1927 102.211 23.8984 102.68 23.6953C103.148 23.4922 103.656 23.3906 104.203 23.3906C104.807 23.3906 105.336 23.4922 105.789 23.6953C106.242 23.8984 106.617 24.1849 106.914 24.5547C107.216 24.9193 107.44 25.3542 107.586 25.8594C107.737 26.3646 107.812 26.9219 107.812 27.5312V28.3359H101.281V26.9844H105.953V26.8359C105.943 26.4974 105.875 26.1797 105.75 25.8828C105.63 25.5859 105.445 25.3464 105.195 25.1641C104.945 24.9818 104.612 24.8906 104.195 24.8906C103.883 24.8906 103.604 24.9583 103.359 25.0938C103.12 25.224 102.919 25.4141 102.758 25.6641C102.596 25.9141 102.471 26.2161 102.383 26.5703C102.299 26.9193 102.258 27.3125 102.258 27.75V28.0625C102.258 28.4323 102.307 28.776 102.406 29.0938C102.51 29.4062 102.661 29.6797 102.859 29.9141C103.057 30.1484 103.297 30.3333 103.578 30.4688C103.859 30.599 104.18 30.6641 104.539 30.6641C104.992 30.6641 105.396 30.5729 105.75 30.3906C106.104 30.2083 106.411 29.9505 106.672 29.6172L107.664 30.5781C107.482 30.8438 107.245 31.099 106.953 31.3438C106.661 31.5833 106.305 31.7786 105.883 31.9297C105.466 32.0807 104.982 32.1562 104.43 32.1562ZM111.148 25.3516V32H109.266V23.5469H111.039L111.148 25.3516ZM110.812 27.4609L110.203 27.4531C110.208 26.8542 110.292 26.3047 110.453 25.8047C110.62 25.3047 110.849 24.875 111.141 24.5156C111.438 24.1562 111.792 23.8802 112.203 23.6875C112.615 23.4896 113.073 23.3906 113.578 23.3906C113.984 23.3906 114.352 23.4479 114.68 23.5625C115.013 23.6719 115.297 23.8516 115.531 24.1016C115.771 24.3516 115.953 24.6771 116.078 25.0781C116.203 25.474 116.266 25.9609 116.266 26.5391V32H114.375V26.5312C114.375 26.125 114.315 25.8047 114.195 25.5703C114.081 25.3307 113.911 25.1615 113.688 25.0625C113.469 24.9583 113.195 24.9062 112.867 24.9062C112.544 24.9062 112.255 24.974 112 25.1094C111.745 25.2448 111.529 25.4297 111.352 25.6641C111.18 25.8984 111.047 26.1693 110.953 26.4766C110.859 26.7839 110.812 27.112 110.812 27.4609ZM121.914 32.1562C121.289 32.1562 120.724 32.0547 120.219 31.8516C119.719 31.6432 119.292 31.3542 118.938 30.9844C118.589 30.6146 118.32 30.1797 118.133 29.6797C117.945 29.1797 117.852 28.6406 117.852 28.0625V27.75C117.852 27.0885 117.948 26.4896 118.141 25.9531C118.333 25.4167 118.602 24.9583 118.945 24.5781C119.289 24.1927 119.695 23.8984 120.164 23.6953C120.633 23.4922 121.141 23.3906 121.688 23.3906C122.292 23.3906 122.82 23.4922 123.273 23.6953C123.727 23.8984 124.102 24.1849 124.398 24.5547C124.701 24.9193 124.924 25.3542 125.07 25.8594C125.221 26.3646 125.297 26.9219 125.297 27.5312V28.3359H118.766V26.9844H123.438V26.8359C123.427 26.4974 123.359 26.1797 123.234 25.8828C123.115 25.5859 122.93 25.3464 122.68 25.1641C122.43 24.9818 122.096 24.8906 121.68 24.8906C121.367 24.8906 121.089 24.9583 120.844 25.0938C120.604 25.224 120.404 25.4141 120.242 25.6641C120.081 25.9141 119.956 26.2161 119.867 26.5703C119.784 26.9193 119.742 27.3125 119.742 27.75V28.0625C119.742 28.4323 119.792 28.776 119.891 29.0938C119.995 29.4062 120.146 29.6797 120.344 29.9141C120.542 30.1484 120.781 30.3333 121.062 30.4688C121.344 30.599 121.664 30.6641 122.023 30.6641C122.477 30.6641 122.88 30.5729 123.234 30.3906C123.589 30.2083 123.896 29.9505 124.156 29.6172L125.148 30.5781C124.966 30.8438 124.729 31.099 124.438 31.3438C124.146 31.5833 123.789 31.7786 123.367 31.9297C122.951 32.0807 122.466 32.1562 121.914 32.1562ZM128.656 25.1562V32H126.773V23.5469H128.57L128.656 25.1562ZM131.242 23.4922L131.227 25.2422C131.112 25.2214 130.987 25.2057 130.852 25.1953C130.721 25.1849 130.591 25.1797 130.461 25.1797C130.138 25.1797 129.854 25.2266 129.609 25.3203C129.365 25.4089 129.159 25.5391 128.992 25.7109C128.831 25.8776 128.706 26.0807 128.617 26.3203C128.529 26.5599 128.477 26.8281 128.461 27.125L128.031 27.1562C128.031 26.625 128.083 26.1328 128.188 25.6797C128.292 25.2266 128.448 24.8281 128.656 24.4844C128.87 24.1406 129.135 23.8724 129.453 23.6797C129.776 23.487 130.148 23.3906 130.57 23.3906C130.685 23.3906 130.807 23.401 130.938 23.4219C131.073 23.4427 131.174 23.4661 131.242 23.4922ZM136.906 30.3047V26.2734C136.906 25.9714 136.852 25.7109 136.742 25.4922C136.633 25.2734 136.466 25.1042 136.242 24.9844C136.023 24.8646 135.747 24.8047 135.414 24.8047C135.107 24.8047 134.841 24.8568 134.617 24.9609C134.393 25.0651 134.219 25.2057 134.094 25.3828C133.969 25.5599 133.906 25.7604 133.906 25.9844H132.031C132.031 25.651 132.112 25.3281 132.273 25.0156C132.435 24.7031 132.669 24.4245 132.977 24.1797C133.284 23.9349 133.651 23.7422 134.078 23.6016C134.505 23.4609 134.984 23.3906 135.516 23.3906C136.151 23.3906 136.714 23.4974 137.203 23.7109C137.698 23.9245 138.086 24.2474 138.367 24.6797C138.654 25.1068 138.797 25.6432 138.797 26.2891V30.0469C138.797 30.4323 138.823 30.7786 138.875 31.0859C138.932 31.388 139.013 31.651 139.117 31.875V32H137.188C137.099 31.7969 137.029 31.5391 136.977 31.2266C136.93 30.9089 136.906 30.6016 136.906 30.3047ZM137.18 26.8594L137.195 28.0234H135.844C135.495 28.0234 135.188 28.0573 134.922 28.125C134.656 28.1875 134.435 28.2812 134.258 28.4062C134.081 28.5312 133.948 28.6823 133.859 28.8594C133.771 29.0365 133.727 29.237 133.727 29.4609C133.727 29.6849 133.779 29.8906 133.883 30.0781C133.987 30.2604 134.138 30.4036 134.336 30.5078C134.539 30.612 134.784 30.6641 135.07 30.6641C135.456 30.6641 135.792 30.5859 136.078 30.4297C136.37 30.2682 136.599 30.0729 136.766 29.8438C136.932 29.6094 137.021 29.388 137.031 29.1797L137.641 30.0156C137.578 30.2292 137.471 30.4583 137.32 30.7031C137.169 30.9479 136.971 31.1823 136.727 31.4062C136.487 31.625 136.198 31.8047 135.859 31.9453C135.526 32.0859 135.141 32.1562 134.703 32.1562C134.151 32.1562 133.659 32.0469 133.227 31.8281C132.794 31.6042 132.456 31.3047 132.211 30.9297C131.966 30.5495 131.844 30.1198 131.844 29.6406C131.844 29.1927 131.927 28.7969 132.094 28.4531C132.266 28.1042 132.516 27.8125 132.844 27.5781C133.177 27.3438 133.583 27.1667 134.062 27.0469C134.542 26.9219 135.089 26.8594 135.703 26.8594H137.18ZM145.922 30.25V20H147.812V32H146.102L145.922 30.25ZM140.422 27.8672V27.7031C140.422 27.0625 140.497 26.4792 140.648 25.9531C140.799 25.4219 141.018 24.9661 141.305 24.5859C141.591 24.2005 141.94 23.9062 142.352 23.7031C142.763 23.4948 143.227 23.3906 143.742 23.3906C144.253 23.3906 144.701 23.4896 145.086 23.6875C145.471 23.8854 145.799 24.1693 146.07 24.5391C146.341 24.9036 146.557 25.3411 146.719 25.8516C146.88 26.3568 146.995 26.9193 147.062 27.5391V28.0625C146.995 28.6667 146.88 29.2188 146.719 29.7188C146.557 30.2188 146.341 30.651 146.07 31.0156C145.799 31.3802 145.469 31.6615 145.078 31.8594C144.693 32.0573 144.242 32.1562 143.727 32.1562C143.216 32.1562 142.755 32.0495 142.344 31.8359C141.938 31.6224 141.591 31.3229 141.305 30.9375C141.018 30.5521 140.799 30.099 140.648 29.5781C140.497 29.0521 140.422 28.4818 140.422 27.8672ZM142.305 27.7031V27.8672C142.305 28.2526 142.339 28.612 142.406 28.9453C142.479 29.2786 142.591 29.5729 142.742 29.8281C142.893 30.0781 143.089 30.276 143.328 30.4219C143.573 30.5625 143.865 30.6328 144.203 30.6328C144.63 30.6328 144.982 30.5391 145.258 30.3516C145.534 30.1641 145.75 29.9115 145.906 29.5938C146.068 29.2708 146.177 28.9115 146.234 28.5156V27.1016C146.203 26.7943 146.138 26.5078 146.039 26.2422C145.945 25.9766 145.818 25.7448 145.656 25.5469C145.495 25.3438 145.294 25.1875 145.055 25.0781C144.82 24.9635 144.542 24.9062 144.219 24.9062C143.875 24.9062 143.583 24.9792 143.344 25.125C143.104 25.2708 142.906 25.4714 142.75 25.7266C142.599 25.9818 142.487 26.2786 142.414 26.6172C142.341 26.9557 142.305 27.3177 142.305 27.7031ZM149.422 27.8672V27.6875C149.422 27.0781 149.51 26.513 149.688 25.9922C149.865 25.4661 150.12 25.0104 150.453 24.625C150.792 24.2344 151.203 23.9323 151.688 23.7188C152.177 23.5 152.729 23.3906 153.344 23.3906C153.964 23.3906 154.516 23.5 155 23.7188C155.49 23.9323 155.904 24.2344 156.242 24.625C156.581 25.0104 156.839 25.4661 157.016 25.9922C157.193 26.513 157.281 27.0781 157.281 27.6875V27.8672C157.281 28.4766 157.193 29.0417 157.016 29.5625C156.839 30.0833 156.581 30.5391 156.242 30.9297C155.904 31.3151 155.492 31.6172 155.008 31.8359C154.523 32.0495 153.974 32.1562 153.359 32.1562C152.74 32.1562 152.185 32.0495 151.695 31.8359C151.211 31.6172 150.799 31.3151 150.461 30.9297C150.122 30.5391 149.865 30.0833 149.688 29.5625C149.51 29.0417 149.422 28.4766 149.422 27.8672ZM151.305 27.6875V27.8672C151.305 28.2474 151.344 28.6068 151.422 28.9453C151.5 29.2839 151.622 29.5807 151.789 29.8359C151.956 30.0911 152.169 30.2917 152.43 30.4375C152.69 30.5833 153 30.6562 153.359 30.6562C153.708 30.6562 154.01 30.5833 154.266 30.4375C154.526 30.2917 154.74 30.0911 154.906 29.8359C155.073 29.5807 155.195 29.2839 155.273 28.9453C155.357 28.6068 155.398 28.2474 155.398 27.8672V27.6875C155.398 27.3125 155.357 26.9583 155.273 26.625C155.195 26.2865 155.07 25.987 154.898 25.7266C154.732 25.4661 154.518 25.263 154.258 25.1172C154.003 24.9661 153.698 24.8906 153.344 24.8906C152.99 24.8906 152.682 24.9661 152.422 25.1172C152.167 25.263 151.956 25.4661 151.789 25.7266C151.622 25.987 151.5 26.2865 151.422 26.625C151.344 26.9583 151.305 27.3125 151.305 27.6875Z" fill="black"/>
</g>
<defs>
<filter id="filter0_dd_259_1664" x="-4" y="0" width="368" height="330" filterUnits="userSpaceOnUse" color-interpolation-filters="sRGB">
<feFlood flood-opacity="0" result="BackgroundImageFix"/>
<feColorMatrix in="SourceAlpha" type="matrix" values="0 0 0 0 0 0 0 0 0 0 0 0 0 0 0 0 0 0 127 0" result="hardAlpha"/>
<feOffset dy="1"/>
<feGaussianBlur stdDeviation="1.5"/>
<feColorMatrix type="matrix" values="0 0 0 0 0 0 0 0 0 0 0 0 0 0 0 0 0 0 0.3 0"/>
<feBlend mode="normal" in2="BackgroundImageFix" result="effect1_dropShadow_259_1664"/>
<feColorMatrix in="SourceAlpha" type="matrix" values="0 0 0 0 0 0 0 0 0 0 0 0 0 0 0 0 0 0 127 0" result="hardAlpha"/>
<feMorphology radius="3" operator="dilate" in="SourceAlpha" result="effect2_dropShadow_259_1664"/>
<feOffset dy="4"/>
<feGaussianBlur stdDeviation="4"/>
<feColorMatrix type="matrix" values="0 0 0 0 0 0 0 0 0 0 0 0 0 0 0 0 0 0 0.15 0"/>
<feBlend mode="normal" in2="effect1_dropShadow_259_1664" result="effect2_dropShadow_259_1664"/>
<feBlend mode="normal" in="SourceGraphic" in2="effect2_dropShadow_259_1664" result="shape"/>
</filter>
<filter id="filter1_d_259_1664" x="195.732" y="20" width="61.8787" height="61.8661" filterUnits="userSpaceOnUse" color-interpolation-filters="sRGB">
<feFlood flood-opacity="0" result="BackgroundImageFix"/>
<feColorMatrix in="SourceAlpha" type="matrix" values="0 0 0 0 0 0 0 0 0 0 0 0 0 0 0 0 0 0 127 0" result="hardAlpha"/>
<feMorphology radius="6" operator="dilate" in="SourceAlpha" result="effect1_dropShadow_259_1664"/>
<feOffset/>
<feGaussianBlur stdDeviation="10"/>
<feComposite in2="hardAlpha" operator="out"/>
<feColorMatrix type="matrix" values="0 0 0 0 0.830444 0 0 0 0 0.280556 0 0 0 0 0.841667 0 0 0 1 0"/>
<feBlend mode="normal" in2="BackgroundImageFix" result="effect1_dropShadow_259_1664"/>
<feBlend mode="normal" in="SourceGraphic" in2="effect1_dropShadow_259_1664" result="shape"/>
</filter>
<linearGradient id="paint0_linear_259_1664" x1="342.253" y1="59.7296" x2="40.3467" y2="58.7956" gradientUnits="userSpaceOnUse">
<stop stop-color="#14213D"/>
<stop offset="0.541667" stop-color="#14213D" stop-opacity="0.96"/>
<stop offset="1" stop-color="#14213D"/>
<stop offset="1" stop-color="#14213D"/>
</linearGradient>
<linearGradient id="paint1_linear_259_1664" x1="199.479" y1="62.3907" x2="163.706" y2="254.361" gradientUnits="userSpaceOnUse">
<stop stop-color="#14213D" stop-opacity="0.36"/>
<stop offset="1" stop-color="#14213D" stop-opacity="0"/>
</linearGradient>
<linearGradient id="paint2_linear_259_1664" x1="226.256" y1="63.3745" x2="226.256" y2="266.704" gradientUnits="userSpaceOnUse">
<stop stop-color="#14213D"/>
<stop offset="1" stop-color="#020609" stop-opacity="0.0416667"/>
</linearGradient>
</defs>
</svg>
