<svg width="351" height="362" viewBox="0 0 351 362" fill="none" xmlns="http://www.w3.org/2000/svg">
<g filter="url(#filter0_d_268_1273)">
<rect x="1" width="346" height="308" rx="10" fill="white" shape-rendering="crispEdges"/>
<path d="M31 259.948V143.239V40.3625H337V180.413V259.948H31Z" fill="#F9F9F9"/>
<path d="M336.253 157.546C328.825 189.304 307.769 248.879 282.966 233.109C251.963 213.397 263.589 78.6973 230.649 49.9505C204.296 26.953 185.436 89.1009 179.3 123.05C177.362 131.263 171.247 160.199 153.568 163.069C143.305 164.735 125.43 167.846 122.871 186.444C116.886 229.951 64.7183 227.862 64.7183 186.444C64.7183 141.486 40.8053 125.787 34.3463 123.05" stroke="url(#paint0_linear_268_1273)" stroke-width="2"/>
<path d="M282.446 232.887C307.249 248.656 328.305 189.082 335.733 157.324L335.733 270.984L33.8265 270.984L33.8265 122.827C40.2855 125.565 64.1985 141.264 64.1985 186.221C64.1985 227.639 116.366 229.728 122.352 186.221C124.91 167.623 142.786 164.513 153.048 162.847C170.727 159.976 176.842 131.041 178.78 122.827C184.916 88.8786 203.776 26.7307 230.129 49.7282C263.07 78.475 251.443 213.175 282.446 232.887Z" fill="url(#paint1_linear_268_1273)"/>
<line x1="220.756" y1="47.3376" x2="220.756" y2="271" stroke="url(#paint2_linear_268_1273)"/>
<g filter="url(#filter1_d_268_1273)">
<ellipse cx="220.672" cy="43.9331" rx="4.93936" ry="4.93306" fill="#39A826"/>
<path d="M225.111 43.9331C225.111 46.3808 223.124 48.3661 220.672 48.3661C218.219 48.3661 216.232 46.3808 216.232 43.9331C216.232 41.4853 218.219 39.5 220.672 39.5C223.124 39.5 225.111 41.4853 225.111 43.9331Z" stroke="white"/>
</g>
<rect x="56" y="275" width="39" height="23" rx="10" fill="white"/>
<path d="M63.7723 283.75V282.71H65.8523V290H64.7023V283.75H63.7723ZM72.0384 283.59L69.2584 290H68.1084L70.9184 283.71H67.2184V282.74H72.0384V283.59ZM73.6241 290.07C73.4174 290.07 73.2441 290 73.1041 289.86C72.9641 289.72 72.8941 289.547 72.8941 289.34C72.8941 289.133 72.9641 288.96 73.1041 288.82C73.2441 288.68 73.4174 288.61 73.6241 288.61C73.8241 288.61 73.9941 288.68 74.1341 288.82C74.2741 288.96 74.3441 289.133 74.3441 289.34C74.3441 289.547 74.2741 289.72 74.1341 289.86C73.9941 290 73.8241 290.07 73.6241 290.07ZM73.6241 285.87C73.4174 285.87 73.2441 285.8 73.1041 285.66C72.9641 285.52 72.8941 285.347 72.8941 285.14C72.8941 284.933 72.9641 284.76 73.1041 284.62C73.2441 284.48 73.4174 284.41 73.6241 284.41C73.8241 284.41 73.9941 284.48 74.1341 284.62C74.2741 284.76 74.3441 284.933 74.3441 285.14C74.3441 285.347 74.2741 285.52 74.1341 285.66C73.9941 285.8 73.8241 285.87 73.6241 285.87ZM75.4652 286.26C75.4652 285.107 75.6586 284.207 76.0452 283.56C76.4386 282.907 77.1119 282.58 78.0652 282.58C79.0186 282.58 79.6886 282.907 80.0752 283.56C80.4686 284.207 80.6652 285.107 80.6652 286.26C80.6652 287.427 80.4686 288.34 80.0752 289C79.6886 289.653 79.0186 289.98 78.0652 289.98C77.1119 289.98 76.4386 289.653 76.0452 289C75.6586 288.34 75.4652 287.427 75.4652 286.26ZM79.5452 286.26C79.5452 285.72 79.5086 285.263 79.4352 284.89C79.3686 284.517 79.2286 284.213 79.0152 283.98C78.8019 283.74 78.4852 283.62 78.0652 283.62C77.6452 283.62 77.3286 283.74 77.1152 283.98C76.9019 284.213 76.7586 284.517 76.6852 284.89C76.6186 285.263 76.5852 285.72 76.5852 286.26C76.5852 286.82 76.6186 287.29 76.6852 287.67C76.7519 288.05 76.8919 288.357 77.1052 288.59C77.3252 288.823 77.6452 288.94 78.0652 288.94C78.4852 288.94 78.8019 288.823 79.0152 288.59C79.2352 288.357 79.3786 288.05 79.4452 287.67C79.5119 287.29 79.5452 286.82 79.5452 286.26ZM81.8715 286.26C81.8715 285.107 82.0648 284.207 82.4515 283.56C82.8448 282.907 83.5182 282.58 84.4715 282.58C85.4248 282.58 86.0948 282.907 86.4815 283.56C86.8748 284.207 87.0715 285.107 87.0715 286.26C87.0715 287.427 86.8748 288.34 86.4815 289C86.0948 289.653 85.4248 289.98 84.4715 289.98C83.5182 289.98 82.8448 289.653 82.4515 289C82.0648 288.34 81.8715 287.427 81.8715 286.26ZM85.9515 286.26C85.9515 285.72 85.9148 285.263 85.8415 284.89C85.7748 284.517 85.6348 284.213 85.4215 283.98C85.2082 283.74 84.8915 283.62 84.4715 283.62C84.0515 283.62 83.7348 283.74 83.5215 283.98C83.3082 284.213 83.1648 284.517 83.0915 284.89C83.0248 285.263 82.9915 285.72 82.9915 286.26C82.9915 286.82 83.0248 287.29 83.0915 287.67C83.1582 288.05 83.2982 288.357 83.5115 288.59C83.7315 288.823 84.0515 288.94 84.4715 288.94C84.8915 288.94 85.2082 288.823 85.4215 288.59C85.6415 288.357 85.7848 288.05 85.8515 287.67C85.9182 287.29 85.9515 286.82 85.9515 286.26Z" fill="#999999" fill-opacity="0.75"/>
<rect x="120" y="275" width="40" height="23" rx="10" fill="white"/>
<path d="M127.882 283.75V282.71H129.962V290H128.812V283.75H127.882ZM132.758 286.19C132.064 285.843 131.718 285.297 131.718 284.55C131.718 284.19 131.808 283.86 131.988 283.56C132.168 283.26 132.438 283.023 132.798 282.85C133.158 282.67 133.598 282.58 134.118 282.58C134.631 282.58 135.068 282.67 135.428 282.85C135.794 283.023 136.068 283.26 136.248 283.56C136.428 283.86 136.518 284.19 136.518 284.55C136.518 284.923 136.421 285.253 136.228 285.54C136.041 285.82 135.791 286.037 135.478 286.19C135.858 286.33 136.158 286.56 136.378 286.88C136.598 287.193 136.708 287.563 136.708 287.99C136.708 288.423 136.598 288.807 136.378 289.14C136.158 289.473 135.851 289.73 135.458 289.91C135.064 290.09 134.618 290.18 134.118 290.18C133.618 290.18 133.171 290.09 132.778 289.91C132.391 289.73 132.088 289.473 131.868 289.14C131.648 288.807 131.538 288.423 131.538 287.99C131.538 287.557 131.648 287.183 131.868 286.87C132.088 286.557 132.384 286.33 132.758 286.19ZM135.428 284.69C135.428 284.317 135.311 284.03 135.078 283.83C134.844 283.63 134.524 283.53 134.118 283.53C133.718 283.53 133.401 283.63 133.168 283.83C132.934 284.03 132.818 284.32 132.818 284.7C132.818 285.033 132.938 285.307 133.178 285.52C133.424 285.727 133.738 285.83 134.118 285.83C134.498 285.83 134.811 285.723 135.058 285.51C135.304 285.297 135.428 285.023 135.428 284.69ZM134.118 286.69C133.678 286.69 133.318 286.8 133.038 287.02C132.764 287.233 132.628 287.543 132.628 287.95C132.628 288.33 132.761 288.64 133.028 288.88C133.294 289.113 133.658 289.23 134.118 289.23C134.571 289.23 134.928 289.11 135.188 288.87C135.454 288.63 135.588 288.323 135.588 287.95C135.588 287.55 135.451 287.24 135.178 287.02C134.911 286.8 134.558 286.69 134.118 286.69ZM138.515 290.07C138.308 290.07 138.135 290 137.995 289.86C137.855 289.72 137.785 289.547 137.785 289.34C137.785 289.133 137.855 288.96 137.995 288.82C138.135 288.68 138.308 288.61 138.515 288.61C138.715 288.61 138.885 288.68 139.025 288.82C139.165 288.96 139.235 289.133 139.235 289.34C139.235 289.547 139.165 289.72 139.025 289.86C138.885 290 138.715 290.07 138.515 290.07ZM138.515 285.87C138.308 285.87 138.135 285.8 137.995 285.66C137.855 285.52 137.785 285.347 137.785 285.14C137.785 284.933 137.855 284.76 137.995 284.62C138.135 284.48 138.308 284.41 138.515 284.41C138.715 284.41 138.885 284.48 139.025 284.62C139.165 284.76 139.235 284.933 139.235 285.14C139.235 285.347 139.165 285.52 139.025 285.66C138.885 285.8 138.715 285.87 138.515 285.87ZM140.356 286.26C140.356 285.107 140.549 284.207 140.936 283.56C141.329 282.907 142.003 282.58 142.956 282.58C143.909 282.58 144.579 282.907 144.966 283.56C145.359 284.207 145.556 285.107 145.556 286.26C145.556 287.427 145.359 288.34 144.966 289C144.579 289.653 143.909 289.98 142.956 289.98C142.003 289.98 141.329 289.653 140.936 289C140.549 288.34 140.356 287.427 140.356 286.26ZM144.436 286.26C144.436 285.72 144.399 285.263 144.326 284.89C144.259 284.517 144.119 284.213 143.906 283.98C143.693 283.74 143.376 283.62 142.956 283.62C142.536 283.62 142.219 283.74 142.006 283.98C141.793 284.213 141.649 284.517 141.576 284.89C141.509 285.263 141.476 285.72 141.476 286.26C141.476 286.82 141.509 287.29 141.576 287.67C141.643 288.05 141.783 288.357 141.996 288.59C142.216 288.823 142.536 288.94 142.956 288.94C143.376 288.94 143.693 288.823 143.906 288.59C144.126 288.357 144.269 288.05 144.336 287.67C144.403 287.29 144.436 286.82 144.436 286.26ZM146.762 286.26C146.762 285.107 146.955 284.207 147.342 283.56C147.735 282.907 148.409 282.58 149.362 282.58C150.315 282.58 150.985 282.907 151.372 283.56C151.765 284.207 151.962 285.107 151.962 286.26C151.962 287.427 151.765 288.34 151.372 289C150.985 289.653 150.315 289.98 149.362 289.98C148.409 289.98 147.735 289.653 147.342 289C146.955 288.34 146.762 287.427 146.762 286.26ZM150.842 286.26C150.842 285.72 150.805 285.263 150.732 284.89C150.665 284.517 150.525 284.213 150.312 283.98C150.099 283.74 149.782 283.62 149.362 283.62C148.942 283.62 148.625 283.74 148.412 283.98C148.199 284.213 148.055 284.517 147.982 284.89C147.915 285.263 147.882 285.72 147.882 286.26C147.882 286.82 147.915 287.29 147.982 287.67C148.049 288.05 148.189 288.357 148.402 288.59C148.622 288.823 148.942 288.94 149.362 288.94C149.782 288.94 150.099 288.823 150.312 288.59C150.532 288.357 150.675 288.05 150.742 287.67C150.809 287.29 150.842 286.82 150.842 286.26Z" fill="#999999" fill-opacity="0.75"/>
<rect x="185" y="275" width="40" height="23" rx="10" fill="#3FAB2D"/>
<path d="M192.896 283.75V282.71H194.976V290H193.826V283.75H192.896ZM197.962 288.02C198.029 288.353 198.172 288.607 198.392 288.78C198.612 288.953 198.909 289.04 199.282 289.04C199.756 289.04 200.102 288.853 200.322 288.48C200.542 288.107 200.652 287.47 200.652 286.57C200.492 286.797 200.266 286.973 199.972 287.1C199.686 287.22 199.372 287.28 199.032 287.28C198.599 287.28 198.206 287.193 197.852 287.02C197.499 286.84 197.219 286.577 197.012 286.23C196.812 285.877 196.712 285.45 196.712 284.95C196.712 284.217 196.926 283.633 197.352 283.2C197.786 282.76 198.379 282.54 199.132 282.54C200.039 282.54 200.682 282.843 201.062 283.45C201.449 284.05 201.642 284.973 201.642 286.22C201.642 287.08 201.569 287.783 201.422 288.33C201.282 288.877 201.036 289.29 200.682 289.57C200.329 289.85 199.839 289.99 199.212 289.99C198.499 289.99 197.949 289.803 197.562 289.43C197.176 289.057 196.959 288.587 196.912 288.02H197.962ZM199.232 286.32C199.632 286.32 199.946 286.197 200.172 285.95C200.406 285.697 200.522 285.363 200.522 284.95C200.522 284.49 200.399 284.133 200.152 283.88C199.912 283.62 199.582 283.49 199.162 283.49C198.742 283.49 198.409 283.623 198.162 283.89C197.922 284.15 197.802 284.493 197.802 284.92C197.802 285.327 197.919 285.663 198.152 285.93C198.392 286.19 198.752 286.32 199.232 286.32ZM203.5 290.07C203.293 290.07 203.12 290 202.98 289.86C202.84 289.72 202.77 289.547 202.77 289.34C202.77 289.133 202.84 288.96 202.98 288.82C203.12 288.68 203.293 288.61 203.5 288.61C203.7 288.61 203.87 288.68 204.01 288.82C204.15 288.96 204.22 289.133 204.22 289.34C204.22 289.547 204.15 289.72 204.01 289.86C203.87 290 203.7 290.07 203.5 290.07ZM203.5 285.87C203.293 285.87 203.12 285.8 202.98 285.66C202.84 285.52 202.77 285.347 202.77 285.14C202.77 284.933 202.84 284.76 202.98 284.62C203.12 284.48 203.293 284.41 203.5 284.41C203.7 284.41 203.87 284.48 204.01 284.62C204.15 284.76 204.22 284.933 204.22 285.14C204.22 285.347 204.15 285.52 204.01 285.66C203.87 285.8 203.7 285.87 203.5 285.87ZM205.341 286.26C205.341 285.107 205.535 284.207 205.921 283.56C206.315 282.907 206.988 282.58 207.941 282.58C208.895 282.58 209.565 282.907 209.951 283.56C210.345 284.207 210.541 285.107 210.541 286.26C210.541 287.427 210.345 288.34 209.951 289C209.565 289.653 208.895 289.98 207.941 289.98C206.988 289.98 206.315 289.653 205.921 289C205.535 288.34 205.341 287.427 205.341 286.26ZM209.421 286.26C209.421 285.72 209.385 285.263 209.311 284.89C209.245 284.517 209.105 284.213 208.891 283.98C208.678 283.74 208.361 283.62 207.941 283.62C207.521 283.62 207.205 283.74 206.991 283.98C206.778 284.213 206.635 284.517 206.561 284.89C206.495 285.263 206.461 285.72 206.461 286.26C206.461 286.82 206.495 287.29 206.561 287.67C206.628 288.05 206.768 288.357 206.981 288.59C207.201 288.823 207.521 288.94 207.941 288.94C208.361 288.94 208.678 288.823 208.891 288.59C209.111 288.357 209.255 288.05 209.321 287.67C209.388 287.29 209.421 286.82 209.421 286.26ZM211.747 286.26C211.747 285.107 211.941 284.207 212.327 283.56C212.721 282.907 213.394 282.58 214.347 282.58C215.301 282.58 215.971 282.907 216.357 283.56C216.751 284.207 216.947 285.107 216.947 286.26C216.947 287.427 216.751 288.34 216.357 289C215.971 289.653 215.301 289.98 214.347 289.98C213.394 289.98 212.721 289.653 212.327 289C211.941 288.34 211.747 287.427 211.747 286.26ZM215.827 286.26C215.827 285.72 215.791 285.263 215.717 284.89C215.651 284.517 215.511 284.213 215.297 283.98C215.084 283.74 214.767 283.62 214.347 283.62C213.927 283.62 213.611 283.74 213.397 283.98C213.184 284.213 213.041 284.517 212.967 284.89C212.901 285.263 212.867 285.72 212.867 286.26C212.867 286.82 212.901 287.29 212.967 287.67C213.034 288.05 213.174 288.357 213.387 288.59C213.607 288.823 213.927 288.94 214.347 288.94C214.767 288.94 215.084 288.823 215.297 288.59C215.517 288.357 215.661 288.05 215.727 287.67C215.794 287.29 215.827 286.82 215.827 286.26Z" fill="white"/>
<rect x="250" y="275" width="42" height="23" rx="10" fill="white"/>
<path d="M258.509 288.45C259.149 287.897 259.653 287.443 260.019 287.09C260.393 286.73 260.703 286.357 260.949 285.97C261.196 285.583 261.319 285.197 261.319 284.81C261.319 284.41 261.223 284.097 261.029 283.87C260.843 283.643 260.546 283.53 260.139 283.53C259.746 283.53 259.439 283.657 259.219 283.91C259.006 284.157 258.893 284.49 258.879 284.91H257.779C257.799 284.15 258.026 283.57 258.459 283.17C258.899 282.763 259.456 282.56 260.129 282.56C260.856 282.56 261.423 282.76 261.829 283.16C262.243 283.56 262.449 284.093 262.449 284.76C262.449 285.24 262.326 285.703 262.079 286.15C261.839 286.59 261.549 286.987 261.209 287.34C260.876 287.687 260.449 288.09 259.929 288.55L259.479 288.95H262.649V289.9H257.789V289.07L258.509 288.45ZM263.651 286.26C263.651 285.107 263.844 284.207 264.231 283.56C264.624 282.907 265.297 282.58 266.251 282.58C267.204 282.58 267.874 282.907 268.261 283.56C268.654 284.207 268.851 285.107 268.851 286.26C268.851 287.427 268.654 288.34 268.261 289C267.874 289.653 267.204 289.98 266.251 289.98C265.297 289.98 264.624 289.653 264.231 289C263.844 288.34 263.651 287.427 263.651 286.26ZM267.731 286.26C267.731 285.72 267.694 285.263 267.621 284.89C267.554 284.517 267.414 284.213 267.201 283.98C266.987 283.74 266.671 283.62 266.251 283.62C265.831 283.62 265.514 283.74 265.301 283.98C265.087 284.213 264.944 284.517 264.871 284.89C264.804 285.263 264.771 285.72 264.771 286.26C264.771 286.82 264.804 287.29 264.871 287.67C264.937 288.05 265.077 288.357 265.291 288.59C265.511 288.823 265.831 288.94 266.251 288.94C266.671 288.94 266.987 288.823 267.201 288.59C267.421 288.357 267.564 288.05 267.631 287.67C267.697 287.29 267.731 286.82 267.731 286.26ZM270.667 290.07C270.46 290.07 270.287 290 270.147 289.86C270.007 289.72 269.937 289.547 269.937 289.34C269.937 289.133 270.007 288.96 270.147 288.82C270.287 288.68 270.46 288.61 270.667 288.61C270.867 288.61 271.037 288.68 271.177 288.82C271.317 288.96 271.387 289.133 271.387 289.34C271.387 289.547 271.317 289.72 271.177 289.86C271.037 290 270.867 290.07 270.667 290.07ZM270.667 285.87C270.46 285.87 270.287 285.8 270.147 285.66C270.007 285.52 269.937 285.347 269.937 285.14C269.937 284.933 270.007 284.76 270.147 284.62C270.287 284.48 270.46 284.41 270.667 284.41C270.867 284.41 271.037 284.48 271.177 284.62C271.317 284.76 271.387 284.933 271.387 285.14C271.387 285.347 271.317 285.52 271.177 285.66C271.037 285.8 270.867 285.87 270.667 285.87ZM272.508 286.26C272.508 285.107 272.702 284.207 273.088 283.56C273.482 282.907 274.155 282.58 275.108 282.58C276.062 282.58 276.732 282.907 277.118 283.56C277.512 284.207 277.708 285.107 277.708 286.26C277.708 287.427 277.512 288.34 277.118 289C276.732 289.653 276.062 289.98 275.108 289.98C274.155 289.98 273.482 289.653 273.088 289C272.702 288.34 272.508 287.427 272.508 286.26ZM276.588 286.26C276.588 285.72 276.552 285.263 276.478 284.89C276.412 284.517 276.272 284.213 276.058 283.98C275.845 283.74 275.528 283.62 275.108 283.62C274.688 283.62 274.372 283.74 274.158 283.98C273.945 284.213 273.802 284.517 273.728 284.89C273.662 285.263 273.628 285.72 273.628 286.26C273.628 286.82 273.662 287.29 273.728 287.67C273.795 288.05 273.935 288.357 274.148 288.59C274.368 288.823 274.688 288.94 275.108 288.94C275.528 288.94 275.845 288.823 276.058 288.59C276.278 288.357 276.422 288.05 276.488 287.67C276.555 287.29 276.588 286.82 276.588 286.26ZM278.914 286.26C278.914 285.107 279.108 284.207 279.494 283.56C279.888 282.907 280.561 282.58 281.514 282.58C282.468 282.58 283.138 282.907 283.524 283.56C283.918 284.207 284.114 285.107 284.114 286.26C284.114 287.427 283.918 288.34 283.524 289C283.138 289.653 282.468 289.98 281.514 289.98C280.561 289.98 279.888 289.653 279.494 289C279.108 288.34 278.914 287.427 278.914 286.26ZM282.994 286.26C282.994 285.72 282.958 285.263 282.884 284.89C282.818 284.517 282.678 284.213 282.464 283.98C282.251 283.74 281.934 283.62 281.514 283.62C281.094 283.62 280.778 283.74 280.564 283.98C280.351 284.213 280.208 284.517 280.134 284.89C280.068 285.263 280.034 285.72 280.034 286.26C280.034 286.82 280.068 287.29 280.134 287.67C280.201 288.05 280.341 288.357 280.554 288.59C280.774 288.823 281.094 288.94 281.514 288.94C281.934 288.94 282.251 288.823 282.464 288.59C282.684 288.357 282.828 288.05 282.894 287.67C282.961 287.29 282.994 286.82 282.994 286.26Z" fill="#999999" fill-opacity="0.75"/>
<path d="M13.068 52.96C13.002 52.684 12.882 52.477 12.708 52.339C12.534 52.201 12.291 52.132 11.979 52.132C11.505 52.132 11.151 52.315 10.917 52.681C10.683 53.041 10.56 53.641 10.548 54.481C10.704 54.217 10.932 54.013 11.232 53.869C11.532 53.725 11.856 53.653 12.204 53.653C12.6 53.653 12.948 53.74 13.248 53.914C13.554 54.082 13.791 54.328 13.959 54.652C14.133 54.976 14.22 55.363 14.22 55.813C14.22 56.233 14.136 56.608 13.968 56.938C13.806 57.268 13.563 57.529 13.239 57.721C12.915 57.907 12.525 58 12.069 58C11.451 58 10.965 57.865 10.611 57.595C10.263 57.319 10.017 56.932 9.873 56.434C9.735 55.936 9.666 55.315 9.666 54.571C9.666 52.375 10.44 51.277 11.988 51.277C12.588 51.277 13.059 51.439 13.401 51.763C13.749 52.087 13.953 52.486 14.013 52.96H13.068ZM11.979 54.517C11.613 54.517 11.301 54.628 11.043 54.85C10.791 55.066 10.665 55.381 10.665 55.795C10.665 56.209 10.782 56.539 11.016 56.785C11.256 57.025 11.589 57.145 12.015 57.145C12.393 57.145 12.69 57.028 12.906 56.794C13.128 56.56 13.239 56.248 13.239 55.858C13.239 55.45 13.131 55.126 12.915 54.886C12.705 54.64 12.393 54.517 11.979 54.517ZM15.3144 54.634C15.3144 53.596 15.4884 52.786 15.8364 52.204C16.1904 51.616 16.7964 51.322 17.6544 51.322C18.5124 51.322 19.1154 51.616 19.4634 52.204C19.8174 52.786 19.9944 53.596 19.9944 54.634C19.9944 55.684 19.8174 56.506 19.4634 57.1C19.1154 57.688 18.5124 57.982 17.6544 57.982C16.7964 57.982 16.1904 57.688 15.8364 57.1C15.4884 56.506 15.3144 55.684 15.3144 54.634ZM18.9864 54.634C18.9864 54.148 18.9534 53.737 18.8874 53.401C18.8274 53.065 18.7014 52.792 18.5094 52.582C18.3174 52.366 18.0324 52.258 17.6544 52.258C17.2764 52.258 16.9914 52.366 16.7994 52.582C16.6074 52.792 16.4784 53.065 16.4124 53.401C16.3524 53.737 16.3224 54.148 16.3224 54.634C16.3224 55.138 16.3524 55.561 16.4124 55.903C16.4724 56.245 16.5984 56.521 16.7904 56.731C16.9884 56.941 17.2764 57.046 17.6544 57.046C18.0324 57.046 18.3174 56.941 18.5094 56.731C18.7074 56.521 18.8364 56.245 18.8964 55.903C18.9564 55.561 18.9864 55.138 18.9864 54.634Z" fill="#B6B6B6" fill-opacity="0.75"/>
<path d="M13.068 83.96C13.002 83.684 12.882 83.477 12.708 83.339C12.534 83.201 12.291 83.132 11.979 83.132C11.505 83.132 11.151 83.315 10.917 83.681C10.683 84.041 10.56 84.641 10.548 85.481C10.704 85.217 10.932 85.013 11.232 84.869C11.532 84.725 11.856 84.653 12.204 84.653C12.6 84.653 12.948 84.74 13.248 84.914C13.554 85.082 13.791 85.328 13.959 85.652C14.133 85.976 14.22 86.363 14.22 86.813C14.22 87.233 14.136 87.608 13.968 87.938C13.806 88.268 13.563 88.529 13.239 88.721C12.915 88.907 12.525 89 12.069 89C11.451 89 10.965 88.865 10.611 88.595C10.263 88.319 10.017 87.932 9.873 87.434C9.735 86.936 9.666 86.315 9.666 85.571C9.666 83.375 10.44 82.277 11.988 82.277C12.588 82.277 13.059 82.439 13.401 82.763C13.749 83.087 13.953 83.486 14.013 83.96H13.068ZM11.979 85.517C11.613 85.517 11.301 85.628 11.043 85.85C10.791 86.066 10.665 86.381 10.665 86.795C10.665 87.209 10.782 87.539 11.016 87.785C11.256 88.025 11.589 88.145 12.015 88.145C12.393 88.145 12.69 88.028 12.906 87.794C13.128 87.56 13.239 87.248 13.239 86.858C13.239 86.45 13.131 86.126 12.915 85.886C12.705 85.64 12.393 85.517 11.979 85.517ZM15.3144 85.634C15.3144 84.596 15.4884 83.786 15.8364 83.204C16.1904 82.616 16.7964 82.322 17.6544 82.322C18.5124 82.322 19.1154 82.616 19.4634 83.204C19.8174 83.786 19.9944 84.596 19.9944 85.634C19.9944 86.684 19.8174 87.506 19.4634 88.1C19.1154 88.688 18.5124 88.982 17.6544 88.982C16.7964 88.982 16.1904 88.688 15.8364 88.1C15.4884 87.506 15.3144 86.684 15.3144 85.634ZM18.9864 85.634C18.9864 85.148 18.9534 84.737 18.8874 84.401C18.8274 84.065 18.7014 83.792 18.5094 83.582C18.3174 83.366 18.0324 83.258 17.6544 83.258C17.2764 83.258 16.9914 83.366 16.7994 83.582C16.6074 83.792 16.4784 84.065 16.4124 84.401C16.3524 84.737 16.3224 85.148 16.3224 85.634C16.3224 86.138 16.3524 86.561 16.4124 86.903C16.4724 87.245 16.5984 87.521 16.7904 87.731C16.9884 87.941 17.2764 88.046 17.6544 88.046C18.0324 88.046 18.3174 87.941 18.5094 87.731C18.7074 87.521 18.8364 87.245 18.8964 86.903C18.9564 86.561 18.9864 86.138 18.9864 85.634Z" fill="#B6B6B6" fill-opacity="0.75"/>
<path d="M13.068 114.96C13.002 114.684 12.882 114.477 12.708 114.339C12.534 114.201 12.291 114.132 11.979 114.132C11.505 114.132 11.151 114.315 10.917 114.681C10.683 115.041 10.56 115.641 10.548 116.481C10.704 116.217 10.932 116.013 11.232 115.869C11.532 115.725 11.856 115.653 12.204 115.653C12.6 115.653 12.948 115.74 13.248 115.914C13.554 116.082 13.791 116.328 13.959 116.652C14.133 116.976 14.22 117.363 14.22 117.813C14.22 118.233 14.136 118.608 13.968 118.938C13.806 119.268 13.563 119.529 13.239 119.721C12.915 119.907 12.525 120 12.069 120C11.451 120 10.965 119.865 10.611 119.595C10.263 119.319 10.017 118.932 9.873 118.434C9.735 117.936 9.666 117.315 9.666 116.571C9.666 114.375 10.44 113.277 11.988 113.277C12.588 113.277 13.059 113.439 13.401 113.763C13.749 114.087 13.953 114.486 14.013 114.96H13.068ZM11.979 116.517C11.613 116.517 11.301 116.628 11.043 116.85C10.791 117.066 10.665 117.381 10.665 117.795C10.665 118.209 10.782 118.539 11.016 118.785C11.256 119.025 11.589 119.145 12.015 119.145C12.393 119.145 12.69 119.028 12.906 118.794C13.128 118.56 13.239 118.248 13.239 117.858C13.239 117.45 13.131 117.126 12.915 116.886C12.705 116.64 12.393 116.517 11.979 116.517ZM15.3144 116.634C15.3144 115.596 15.4884 114.786 15.8364 114.204C16.1904 113.616 16.7964 113.322 17.6544 113.322C18.5124 113.322 19.1154 113.616 19.4634 114.204C19.8174 114.786 19.9944 115.596 19.9944 116.634C19.9944 117.684 19.8174 118.506 19.4634 119.1C19.1154 119.688 18.5124 119.982 17.6544 119.982C16.7964 119.982 16.1904 119.688 15.8364 119.1C15.4884 118.506 15.3144 117.684 15.3144 116.634ZM18.9864 116.634C18.9864 116.148 18.9534 115.737 18.8874 115.401C18.8274 115.065 18.7014 114.792 18.5094 114.582C18.3174 114.366 18.0324 114.258 17.6544 114.258C17.2764 114.258 16.9914 114.366 16.7994 114.582C16.6074 114.792 16.4784 115.065 16.4124 115.401C16.3524 115.737 16.3224 116.148 16.3224 116.634C16.3224 117.138 16.3524 117.561 16.4124 117.903C16.4724 118.245 16.5984 118.521 16.7904 118.731C16.9884 118.941 17.2764 119.046 17.6544 119.046C18.0324 119.046 18.3174 118.941 18.5094 118.731C18.7074 118.521 18.8364 118.245 18.8964 117.903C18.9564 117.561 18.9864 117.138 18.9864 116.634Z" fill="#B6B6B6" fill-opacity="0.75"/>
<path d="M13.068 145.96C13.002 145.684 12.882 145.477 12.708 145.339C12.534 145.201 12.291 145.132 11.979 145.132C11.505 145.132 11.151 145.315 10.917 145.681C10.683 146.041 10.56 146.641 10.548 147.481C10.704 147.217 10.932 147.013 11.232 146.869C11.532 146.725 11.856 146.653 12.204 146.653C12.6 146.653 12.948 146.74 13.248 146.914C13.554 147.082 13.791 147.328 13.959 147.652C14.133 147.976 14.22 148.363 14.22 148.813C14.22 149.233 14.136 149.608 13.968 149.938C13.806 150.268 13.563 150.529 13.239 150.721C12.915 150.907 12.525 151 12.069 151C11.451 151 10.965 150.865 10.611 150.595C10.263 150.319 10.017 149.932 9.873 149.434C9.735 148.936 9.666 148.315 9.666 147.571C9.666 145.375 10.44 144.277 11.988 144.277C12.588 144.277 13.059 144.439 13.401 144.763C13.749 145.087 13.953 145.486 14.013 145.96H13.068ZM11.979 147.517C11.613 147.517 11.301 147.628 11.043 147.85C10.791 148.066 10.665 148.381 10.665 148.795C10.665 149.209 10.782 149.539 11.016 149.785C11.256 150.025 11.589 150.145 12.015 150.145C12.393 150.145 12.69 150.028 12.906 149.794C13.128 149.56 13.239 149.248 13.239 148.858C13.239 148.45 13.131 148.126 12.915 147.886C12.705 147.64 12.393 147.517 11.979 147.517ZM15.3144 147.634C15.3144 146.596 15.4884 145.786 15.8364 145.204C16.1904 144.616 16.7964 144.322 17.6544 144.322C18.5124 144.322 19.1154 144.616 19.4634 145.204C19.8174 145.786 19.9944 146.596 19.9944 147.634C19.9944 148.684 19.8174 149.506 19.4634 150.1C19.1154 150.688 18.5124 150.982 17.6544 150.982C16.7964 150.982 16.1904 150.688 15.8364 150.1C15.4884 149.506 15.3144 148.684 15.3144 147.634ZM18.9864 147.634C18.9864 147.148 18.9534 146.737 18.8874 146.401C18.8274 146.065 18.7014 145.792 18.5094 145.582C18.3174 145.366 18.0324 145.258 17.6544 145.258C17.2764 145.258 16.9914 145.366 16.7994 145.582C16.6074 145.792 16.4784 146.065 16.4124 146.401C16.3524 146.737 16.3224 147.148 16.3224 147.634C16.3224 148.138 16.3524 148.561 16.4124 148.903C16.4724 149.245 16.5984 149.521 16.7904 149.731C16.9884 149.941 17.2764 150.046 17.6544 150.046C18.0324 150.046 18.3174 149.941 18.5094 149.731C18.7074 149.521 18.8364 149.245 18.8964 148.903C18.9564 148.561 18.9864 148.138 18.9864 147.634Z" fill="#B6B6B6" fill-opacity="0.75"/>
<path d="M13.068 176.96C13.002 176.684 12.882 176.477 12.708 176.339C12.534 176.201 12.291 176.132 11.979 176.132C11.505 176.132 11.151 176.315 10.917 176.681C10.683 177.041 10.56 177.641 10.548 178.481C10.704 178.217 10.932 178.013 11.232 177.869C11.532 177.725 11.856 177.653 12.204 177.653C12.6 177.653 12.948 177.74 13.248 177.914C13.554 178.082 13.791 178.328 13.959 178.652C14.133 178.976 14.22 179.363 14.22 179.813C14.22 180.233 14.136 180.608 13.968 180.938C13.806 181.268 13.563 181.529 13.239 181.721C12.915 181.907 12.525 182 12.069 182C11.451 182 10.965 181.865 10.611 181.595C10.263 181.319 10.017 180.932 9.873 180.434C9.735 179.936 9.666 179.315 9.666 178.571C9.666 176.375 10.44 175.277 11.988 175.277C12.588 175.277 13.059 175.439 13.401 175.763C13.749 176.087 13.953 176.486 14.013 176.96H13.068ZM11.979 178.517C11.613 178.517 11.301 178.628 11.043 178.85C10.791 179.066 10.665 179.381 10.665 179.795C10.665 180.209 10.782 180.539 11.016 180.785C11.256 181.025 11.589 181.145 12.015 181.145C12.393 181.145 12.69 181.028 12.906 180.794C13.128 180.56 13.239 180.248 13.239 179.858C13.239 179.45 13.131 179.126 12.915 178.886C12.705 178.64 12.393 178.517 11.979 178.517ZM15.3144 178.634C15.3144 177.596 15.4884 176.786 15.8364 176.204C16.1904 175.616 16.7964 175.322 17.6544 175.322C18.5124 175.322 19.1154 175.616 19.4634 176.204C19.8174 176.786 19.9944 177.596 19.9944 178.634C19.9944 179.684 19.8174 180.506 19.4634 181.1C19.1154 181.688 18.5124 181.982 17.6544 181.982C16.7964 181.982 16.1904 181.688 15.8364 181.1C15.4884 180.506 15.3144 179.684 15.3144 178.634ZM18.9864 178.634C18.9864 178.148 18.9534 177.737 18.8874 177.401C18.8274 177.065 18.7014 176.792 18.5094 176.582C18.3174 176.366 18.0324 176.258 17.6544 176.258C17.2764 176.258 16.9914 176.366 16.7994 176.582C16.6074 176.792 16.4784 177.065 16.4124 177.401C16.3524 177.737 16.3224 178.148 16.3224 178.634C16.3224 179.138 16.3524 179.561 16.4124 179.903C16.4724 180.245 16.5984 180.521 16.7904 180.731C16.9884 180.941 17.2764 181.046 17.6544 181.046C18.0324 181.046 18.3174 180.941 18.5094 180.731C18.7074 180.521 18.8364 180.245 18.8964 179.903C18.9564 179.561 18.9864 179.138 18.9864 178.634Z" fill="#B6B6B6" fill-opacity="0.75"/>
<path d="M13.068 207.96C13.002 207.684 12.882 207.477 12.708 207.339C12.534 207.201 12.291 207.132 11.979 207.132C11.505 207.132 11.151 207.315 10.917 207.681C10.683 208.041 10.56 208.641 10.548 209.481C10.704 209.217 10.932 209.013 11.232 208.869C11.532 208.725 11.856 208.653 12.204 208.653C12.6 208.653 12.948 208.74 13.248 208.914C13.554 209.082 13.791 209.328 13.959 209.652C14.133 209.976 14.22 210.363 14.22 210.813C14.22 211.233 14.136 211.608 13.968 211.938C13.806 212.268 13.563 212.529 13.239 212.721C12.915 212.907 12.525 213 12.069 213C11.451 213 10.965 212.865 10.611 212.595C10.263 212.319 10.017 211.932 9.873 211.434C9.735 210.936 9.666 210.315 9.666 209.571C9.666 207.375 10.44 206.277 11.988 206.277C12.588 206.277 13.059 206.439 13.401 206.763C13.749 207.087 13.953 207.486 14.013 207.96H13.068ZM11.979 209.517C11.613 209.517 11.301 209.628 11.043 209.85C10.791 210.066 10.665 210.381 10.665 210.795C10.665 211.209 10.782 211.539 11.016 211.785C11.256 212.025 11.589 212.145 12.015 212.145C12.393 212.145 12.69 212.028 12.906 211.794C13.128 211.56 13.239 211.248 13.239 210.858C13.239 210.45 13.131 210.126 12.915 209.886C12.705 209.64 12.393 209.517 11.979 209.517ZM15.3144 209.634C15.3144 208.596 15.4884 207.786 15.8364 207.204C16.1904 206.616 16.7964 206.322 17.6544 206.322C18.5124 206.322 19.1154 206.616 19.4634 207.204C19.8174 207.786 19.9944 208.596 19.9944 209.634C19.9944 210.684 19.8174 211.506 19.4634 212.1C19.1154 212.688 18.5124 212.982 17.6544 212.982C16.7964 212.982 16.1904 212.688 15.8364 212.1C15.4884 211.506 15.3144 210.684 15.3144 209.634ZM18.9864 209.634C18.9864 209.148 18.9534 208.737 18.8874 208.401C18.8274 208.065 18.7014 207.792 18.5094 207.582C18.3174 207.366 18.0324 207.258 17.6544 207.258C17.2764 207.258 16.9914 207.366 16.7994 207.582C16.6074 207.792 16.4784 208.065 16.4124 208.401C16.3524 208.737 16.3224 209.148 16.3224 209.634C16.3224 210.138 16.3524 210.561 16.4124 210.903C16.4724 211.245 16.5984 211.521 16.7904 211.731C16.9884 211.941 17.2764 212.046 17.6544 212.046C18.0324 212.046 18.3174 211.941 18.5094 211.731C18.7074 211.521 18.8364 211.245 18.8964 210.903C18.9564 210.561 18.9864 210.138 18.9864 209.634Z" fill="#B6B6B6" fill-opacity="0.75"/>
<path d="M13.068 238.96C13.002 238.684 12.882 238.477 12.708 238.339C12.534 238.201 12.291 238.132 11.979 238.132C11.505 238.132 11.151 238.315 10.917 238.681C10.683 239.041 10.56 239.641 10.548 240.481C10.704 240.217 10.932 240.013 11.232 239.869C11.532 239.725 11.856 239.653 12.204 239.653C12.6 239.653 12.948 239.74 13.248 239.914C13.554 240.082 13.791 240.328 13.959 240.652C14.133 240.976 14.22 241.363 14.22 241.813C14.22 242.233 14.136 242.608 13.968 242.938C13.806 243.268 13.563 243.529 13.239 243.721C12.915 243.907 12.525 244 12.069 244C11.451 244 10.965 243.865 10.611 243.595C10.263 243.319 10.017 242.932 9.873 242.434C9.735 241.936 9.666 241.315 9.666 240.571C9.666 238.375 10.44 237.277 11.988 237.277C12.588 237.277 13.059 237.439 13.401 237.763C13.749 238.087 13.953 238.486 14.013 238.96H13.068ZM11.979 240.517C11.613 240.517 11.301 240.628 11.043 240.85C10.791 241.066 10.665 241.381 10.665 241.795C10.665 242.209 10.782 242.539 11.016 242.785C11.256 243.025 11.589 243.145 12.015 243.145C12.393 243.145 12.69 243.028 12.906 242.794C13.128 242.56 13.239 242.248 13.239 241.858C13.239 241.45 13.131 241.126 12.915 240.886C12.705 240.64 12.393 240.517 11.979 240.517ZM15.3144 240.634C15.3144 239.596 15.4884 238.786 15.8364 238.204C16.1904 237.616 16.7964 237.322 17.6544 237.322C18.5124 237.322 19.1154 237.616 19.4634 238.204C19.8174 238.786 19.9944 239.596 19.9944 240.634C19.9944 241.684 19.8174 242.506 19.4634 243.1C19.1154 243.688 18.5124 243.982 17.6544 243.982C16.7964 243.982 16.1904 243.688 15.8364 243.1C15.4884 242.506 15.3144 241.684 15.3144 240.634ZM18.9864 240.634C18.9864 240.148 18.9534 239.737 18.8874 239.401C18.8274 239.065 18.7014 238.792 18.5094 238.582C18.3174 238.366 18.0324 238.258 17.6544 238.258C17.2764 238.258 16.9914 238.366 16.7994 238.582C16.6074 238.792 16.4784 239.065 16.4124 239.401C16.3524 239.737 16.3224 240.148 16.3224 240.634C16.3224 241.138 16.3524 241.561 16.4124 241.903C16.4724 242.245 16.5984 242.521 16.7904 242.731C16.9884 242.941 17.2764 243.046 17.6544 243.046C18.0324 243.046 18.3174 242.941 18.5094 242.731C18.7074 242.521 18.8364 242.245 18.8964 241.903C18.9564 241.561 18.9864 241.138 18.9864 240.634Z" fill="#B6B6B6" fill-opacity="0.75"/>
<path d="M36.5859 15.1406L33.1875 25H31.1328L35.4141 13.625H36.7266L36.5859 15.1406ZM39.4297 25L36.0234 15.1406L35.875 13.625H37.1953L41.4922 25H39.4297ZM39.2656 20.7812V22.3359H33.0781V20.7812H39.2656ZM44.3203 18.2656V25H42.4375V16.5469H44.2109L44.3203 18.2656ZM44.0156 20.4609L43.375 20.4531C43.375 19.8698 43.4479 19.3307 43.5938 18.8359C43.7396 18.3411 43.9531 17.9115 44.2344 17.5469C44.5156 17.1771 44.8646 16.8932 45.2812 16.6953C45.7031 16.4922 46.1901 16.3906 46.7422 16.3906C47.1276 16.3906 47.4792 16.4479 47.7969 16.5625C48.1198 16.6719 48.3984 16.8464 48.6328 17.0859C48.8724 17.3255 49.0547 17.6328 49.1797 18.0078C49.3099 18.3828 49.375 18.8359 49.375 19.3672V25H47.4922V19.5312C47.4922 19.1198 47.4297 18.7969 47.3047 18.5625C47.1849 18.3281 47.0104 18.1615 46.7812 18.0625C46.5573 17.9583 46.2891 17.9062 45.9766 17.9062C45.6224 17.9062 45.3203 17.974 45.0703 18.1094C44.8255 18.2448 44.625 18.4297 44.4688 18.6641C44.3125 18.8984 44.1979 19.1693 44.125 19.4766C44.0521 19.7839 44.0156 20.112 44.0156 20.4609ZM49.2578 19.9609L48.375 20.1562C48.375 19.6458 48.4453 19.1641 48.5859 18.7109C48.7318 18.2526 48.9427 17.8516 49.2188 17.5078C49.5 17.1589 49.8464 16.8854 50.2578 16.6875C50.6693 16.4896 51.1406 16.3906 51.6719 16.3906C52.1042 16.3906 52.4896 16.4505 52.8281 16.5703C53.1719 16.6849 53.4635 16.8672 53.7031 17.1172C53.9427 17.3672 54.125 17.6927 54.25 18.0938C54.375 18.4896 54.4375 18.9688 54.4375 19.5312V25H52.5469V19.5234C52.5469 19.0964 52.4844 18.7656 52.3594 18.5312C52.2396 18.2969 52.0677 18.1354 51.8438 18.0469C51.6198 17.9531 51.3516 17.9062 51.0391 17.9062C50.7474 17.9062 50.4896 17.9609 50.2656 18.0703C50.0469 18.1745 49.862 18.3229 49.7109 18.5156C49.5599 18.7031 49.4453 18.9193 49.3672 19.1641C49.2943 19.4089 49.2578 19.6745 49.2578 19.9609ZM58.2656 18.1719V28.25H56.3828V16.5469H58.1172L58.2656 18.1719ZM63.7734 20.6953V20.8594C63.7734 21.474 63.7005 22.0443 63.5547 22.5703C63.4141 23.0911 63.2031 23.5469 62.9219 23.9375C62.6458 24.3229 62.3047 24.6224 61.8984 24.8359C61.4922 25.0495 61.0234 25.1562 60.4922 25.1562C59.9661 25.1562 59.5052 25.0599 59.1094 24.8672C58.7188 24.6693 58.388 24.3906 58.1172 24.0312C57.8464 23.6719 57.6276 23.25 57.4609 22.7656C57.2995 22.276 57.1849 21.7396 57.1172 21.1562V20.5234C57.1849 19.9036 57.2995 19.3411 57.4609 18.8359C57.6276 18.3307 57.8464 17.8958 58.1172 17.5312C58.388 17.1667 58.7188 16.8854 59.1094 16.6875C59.5 16.4896 59.9557 16.3906 60.4766 16.3906C61.0078 16.3906 61.4792 16.4948 61.8906 16.7031C62.3021 16.9062 62.6484 17.1979 62.9297 17.5781C63.2109 17.9531 63.4219 18.4062 63.5625 18.9375C63.7031 19.4635 63.7734 20.0495 63.7734 20.6953ZM61.8906 20.8594V20.6953C61.8906 20.3047 61.8542 19.9427 61.7812 19.6094C61.7083 19.2708 61.5938 18.974 61.4375 18.7188C61.2812 18.4635 61.0807 18.2656 60.8359 18.125C60.5964 17.9792 60.3073 17.9062 59.9688 17.9062C59.6354 17.9062 59.349 17.9635 59.1094 18.0781C58.8698 18.1875 58.6693 18.3411 58.5078 18.5391C58.3464 18.737 58.2214 18.9688 58.1328 19.2344C58.0443 19.4948 57.9818 19.7786 57.9453 20.0859V21.6016C58.0078 21.9766 58.1146 22.3203 58.2656 22.6328C58.4167 22.9453 58.6302 23.1953 58.9062 23.3828C59.1875 23.5651 59.5469 23.6562 59.9844 23.6562C60.3229 23.6562 60.612 23.5833 60.8516 23.4375C61.0911 23.2917 61.2865 23.0911 61.4375 22.8359C61.5938 22.5755 61.7083 22.276 61.7812 21.9375C61.8542 21.599 61.8906 21.2396 61.8906 20.8594ZM69.1016 25.1562C68.4766 25.1562 67.9115 25.0547 67.4062 24.8516C66.9062 24.6432 66.4792 24.3542 66.125 23.9844C65.776 23.6146 65.5078 23.1797 65.3203 22.6797C65.1328 22.1797 65.0391 21.6406 65.0391 21.0625V20.75C65.0391 20.0885 65.1354 19.4896 65.3281 18.9531C65.5208 18.4167 65.7891 17.9583 66.1328 17.5781C66.4766 17.1927 66.8828 16.8984 67.3516 16.6953C67.8203 16.4922 68.3281 16.3906 68.875 16.3906C69.4792 16.3906 70.0078 16.4922 70.4609 16.6953C70.9141 16.8984 71.2891 17.1849 71.5859 17.5547C71.888 17.9193 72.112 18.3542 72.2578 18.8594C72.4089 19.3646 72.4844 19.9219 72.4844 20.5312V21.3359H65.9531V19.9844H70.625V19.8359C70.6146 19.4974 70.5469 19.1797 70.4219 18.8828C70.3021 18.5859 70.1172 18.3464 69.8672 18.1641C69.6172 17.9818 69.2839 17.8906 68.8672 17.8906C68.5547 17.8906 68.276 17.9583 68.0312 18.0938C67.7917 18.224 67.5911 18.4141 67.4297 18.6641C67.2682 18.9141 67.1432 19.2161 67.0547 19.5703C66.9714 19.9193 66.9297 20.3125 66.9297 20.75V21.0625C66.9297 21.4323 66.9792 21.776 67.0781 22.0938C67.1823 22.4062 67.3333 22.6797 67.5312 22.9141C67.7292 23.1484 67.9688 23.3333 68.25 23.4688C68.5312 23.599 68.8516 23.6641 69.2109 23.6641C69.6641 23.6641 70.0677 23.5729 70.4219 23.3906C70.776 23.2083 71.0833 22.9505 71.3438 22.6172L72.3359 23.5781C72.1536 23.8438 71.9167 24.099 71.625 24.3438C71.3333 24.5833 70.9766 24.7786 70.5547 24.9297C70.138 25.0807 69.6536 25.1562 69.1016 25.1562ZM75.8438 18.1562V25H73.9609V16.5469H75.7578L75.8438 18.1562ZM78.4297 16.4922L78.4141 18.2422C78.2995 18.2214 78.1745 18.2057 78.0391 18.1953C77.9089 18.1849 77.7786 18.1797 77.6484 18.1797C77.3255 18.1797 77.0417 18.2266 76.7969 18.3203C76.5521 18.4089 76.3464 18.5391 76.1797 18.7109C76.0182 18.8776 75.8932 19.0807 75.8047 19.3203C75.7161 19.5599 75.6641 19.8281 75.6484 20.125L75.2188 20.1562C75.2188 19.625 75.2708 19.1328 75.375 18.6797C75.4792 18.2266 75.6354 17.8281 75.8438 17.4844C76.0573 17.1406 76.3229 16.8724 76.6406 16.6797C76.9635 16.487 77.3359 16.3906 77.7578 16.3906C77.8724 16.3906 77.9948 16.401 78.125 16.4219C78.2604 16.4427 78.362 16.4661 78.4297 16.4922ZM84.0938 23.3047V19.2734C84.0938 18.9714 84.0391 18.7109 83.9297 18.4922C83.8203 18.2734 83.6536 18.1042 83.4297 17.9844C83.2109 17.8646 82.9349 17.8047 82.6016 17.8047C82.2943 17.8047 82.0286 17.8568 81.8047 17.9609C81.5807 18.0651 81.4062 18.2057 81.2812 18.3828C81.1562 18.5599 81.0938 18.7604 81.0938 18.9844H79.2188C79.2188 18.651 79.2995 18.3281 79.4609 18.0156C79.6224 17.7031 79.8568 17.4245 80.1641 17.1797C80.4714 16.9349 80.8385 16.7422 81.2656 16.6016C81.6927 16.4609 82.1719 16.3906 82.7031 16.3906C83.3385 16.3906 83.901 16.4974 84.3906 16.7109C84.8854 16.9245 85.2734 17.2474 85.5547 17.6797C85.8411 18.1068 85.9844 18.6432 85.9844 19.2891V23.0469C85.9844 23.4323 86.0104 23.7786 86.0625 24.0859C86.1198 24.388 86.2005 24.651 86.3047 24.875V25H84.375C84.2865 24.7969 84.2161 24.5391 84.1641 24.2266C84.1172 23.9089 84.0938 23.6016 84.0938 23.3047ZM84.3672 19.8594L84.3828 21.0234H83.0312C82.6823 21.0234 82.375 21.0573 82.1094 21.125C81.8438 21.1875 81.6224 21.2812 81.4453 21.4062C81.2682 21.5312 81.1354 21.6823 81.0469 21.8594C80.9583 22.0365 80.9141 22.237 80.9141 22.4609C80.9141 22.6849 80.9661 22.8906 81.0703 23.0781C81.1745 23.2604 81.3255 23.4036 81.5234 23.5078C81.7266 23.612 81.9714 23.6641 82.2578 23.6641C82.6432 23.6641 82.9792 23.5859 83.2656 23.4297C83.5573 23.2682 83.7865 23.0729 83.9531 22.8438C84.1198 22.6094 84.2083 22.388 84.2188 22.1797L84.8281 23.0156C84.7656 23.2292 84.6589 23.4583 84.5078 23.7031C84.3568 23.9479 84.1589 24.1823 83.9141 24.4062C83.6745 24.625 83.3854 24.8047 83.0469 24.9453C82.7135 25.0859 82.3281 25.1562 81.8906 25.1562C81.3385 25.1562 80.8464 25.0469 80.4141 24.8281C79.9818 24.6042 79.6432 24.3047 79.3984 23.9297C79.1536 23.5495 79.0312 23.1198 79.0312 22.6406C79.0312 22.1927 79.1146 21.7969 79.2812 21.4531C79.4531 21.1042 79.7031 20.8125 80.0312 20.5781C80.3646 20.3438 80.7708 20.1667 81.25 20.0469C81.7292 19.9219 82.276 19.8594 82.8906 19.8594H84.3672ZM88.0469 16.5469H89.9375V25.7344C89.9375 26.3125 89.8385 26.7995 89.6406 27.1953C89.4427 27.5964 89.151 27.8984 88.7656 28.1016C88.3802 28.3099 87.9089 28.4141 87.3516 28.4141C87.1849 28.4141 87.013 28.401 86.8359 28.375C86.6536 28.3542 86.4818 28.3229 86.3203 28.2812L86.3281 26.8125C86.4375 26.8333 86.5547 26.849 86.6797 26.8594C86.7995 26.875 86.9141 26.8828 87.0234 26.8828C87.2474 26.8828 87.4349 26.8438 87.5859 26.7656C87.737 26.6875 87.8516 26.5651 87.9297 26.3984C88.0078 26.2318 88.0469 26.0104 88.0469 25.7344V16.5469ZM87.8828 14.3281C87.8828 14.0417 87.9792 13.8047 88.1719 13.6172C88.3646 13.4245 88.6276 13.3281 88.9609 13.3281C89.2995 13.3281 89.5625 13.4245 89.75 13.6172C89.9427 13.8047 90.0391 14.0417 90.0391 14.3281C90.0391 14.6094 89.9427 14.8438 89.75 15.0312C89.5625 15.2188 89.2995 15.3125 88.9609 15.3125C88.6276 15.3125 88.3646 15.2188 88.1719 15.0312C87.9792 14.8438 87.8828 14.6094 87.8828 14.3281ZM95.6953 25.1562C95.0703 25.1562 94.5052 25.0547 94 24.8516C93.5 24.6432 93.0729 24.3542 92.7188 23.9844C92.3698 23.6146 92.1016 23.1797 91.9141 22.6797C91.7266 22.1797 91.6328 21.6406 91.6328 21.0625V20.75C91.6328 20.0885 91.7292 19.4896 91.9219 18.9531C92.1146 18.4167 92.3828 17.9583 92.7266 17.5781C93.0703 17.1927 93.4766 16.8984 93.9453 16.6953C94.4141 16.4922 94.9219 16.3906 95.4688 16.3906C96.0729 16.3906 96.6016 16.4922 97.0547 16.6953C97.5078 16.8984 97.8828 17.1849 98.1797 17.5547C98.4818 17.9193 98.7057 18.3542 98.8516 18.8594C99.0026 19.3646 99.0781 19.9219 99.0781 20.5312V21.3359H92.5469V19.9844H97.2188V19.8359C97.2083 19.4974 97.1406 19.1797 97.0156 18.8828C96.8958 18.5859 96.7109 18.3464 96.4609 18.1641C96.2109 17.9818 95.8776 17.8906 95.4609 17.8906C95.1484 17.8906 94.8698 17.9583 94.625 18.0938C94.3854 18.224 94.1849 18.4141 94.0234 18.6641C93.862 18.9141 93.737 19.2161 93.6484 19.5703C93.5651 19.9193 93.5234 20.3125 93.5234 20.75V21.0625C93.5234 21.4323 93.5729 21.776 93.6719 22.0938C93.776 22.4062 93.9271 22.6797 94.125 22.9141C94.3229 23.1484 94.5625 23.3333 94.8438 23.4688C95.125 23.599 95.4453 23.6641 95.8047 23.6641C96.2578 23.6641 96.6615 23.5729 97.0156 23.3906C97.3698 23.2083 97.6771 22.9505 97.9375 22.6172L98.9297 23.5781C98.7474 23.8438 98.5104 24.099 98.2188 24.3438C97.9271 24.5833 97.5703 24.7786 97.1484 24.9297C96.7318 25.0807 96.2474 25.1562 95.6953 25.1562ZM113.453 19.1875V23.5312C113.292 23.7448 113.039 23.9792 112.695 24.2344C112.357 24.4844 111.906 24.7005 111.344 24.8828C110.781 25.0651 110.081 25.1562 109.242 25.1562C108.529 25.1562 107.875 25.0365 107.281 24.7969C106.688 24.5521 106.174 24.1953 105.742 23.7266C105.315 23.2578 104.984 22.6875 104.75 22.0156C104.516 21.3385 104.398 20.5677 104.398 19.7031V18.9141C104.398 18.0547 104.505 17.2891 104.719 16.6172C104.938 15.9401 105.25 15.3672 105.656 14.8984C106.062 14.4297 106.552 14.0755 107.125 13.8359C107.703 13.5911 108.357 13.4688 109.086 13.4688C110.018 13.4688 110.789 13.625 111.398 13.9375C112.013 14.2448 112.487 14.6719 112.82 15.2188C113.154 15.7656 113.365 16.3906 113.453 17.0938H111.531C111.469 16.6979 111.346 16.3438 111.164 16.0312C110.987 15.7188 110.732 15.474 110.398 15.2969C110.07 15.1146 109.643 15.0234 109.117 15.0234C108.664 15.0234 108.266 15.1094 107.922 15.2812C107.578 15.4531 107.292 15.7057 107.062 16.0391C106.839 16.3724 106.669 16.7786 106.555 17.2578C106.44 17.737 106.383 18.2839 106.383 18.8984V19.7031C106.383 20.3281 106.448 20.8828 106.578 21.3672C106.714 21.8516 106.906 22.2604 107.156 22.5938C107.411 22.9271 107.721 23.1797 108.086 23.3516C108.451 23.5182 108.862 23.6016 109.32 23.6016C109.768 23.6016 110.135 23.5651 110.422 23.4922C110.708 23.4141 110.935 23.3229 111.102 23.2188C111.273 23.1094 111.406 23.0052 111.5 22.9062V20.6484H109.133V19.1875H113.453ZM119.164 25.1562C118.539 25.1562 117.974 25.0547 117.469 24.8516C116.969 24.6432 116.542 24.3542 116.188 23.9844C115.839 23.6146 115.57 23.1797 115.383 22.6797C115.195 22.1797 115.102 21.6406 115.102 21.0625V20.75C115.102 20.0885 115.198 19.4896 115.391 18.9531C115.583 18.4167 115.852 17.9583 116.195 17.5781C116.539 17.1927 116.945 16.8984 117.414 16.6953C117.883 16.4922 118.391 16.3906 118.938 16.3906C119.542 16.3906 120.07 16.4922 120.523 16.6953C120.977 16.8984 121.352 17.1849 121.648 17.5547C121.951 17.9193 122.174 18.3542 122.32 18.8594C122.471 19.3646 122.547 19.9219 122.547 20.5312V21.3359H116.016V19.9844H120.688V19.8359C120.677 19.4974 120.609 19.1797 120.484 18.8828C120.365 18.5859 120.18 18.3464 119.93 18.1641C119.68 17.9818 119.346 17.8906 118.93 17.8906C118.617 17.8906 118.339 17.9583 118.094 18.0938C117.854 18.224 117.654 18.4141 117.492 18.6641C117.331 18.9141 117.206 19.2161 117.117 19.5703C117.034 19.9193 116.992 20.3125 116.992 20.75V21.0625C116.992 21.4323 117.042 21.776 117.141 22.0938C117.245 22.4062 117.396 22.6797 117.594 22.9141C117.792 23.1484 118.031 23.3333 118.312 23.4688C118.594 23.599 118.914 23.6641 119.273 23.6641C119.727 23.6641 120.13 23.5729 120.484 23.3906C120.839 23.2083 121.146 22.9505 121.406 22.6172L122.398 23.5781C122.216 23.8438 121.979 24.099 121.688 24.3438C121.396 24.5833 121.039 24.7786 120.617 24.9297C120.201 25.0807 119.716 25.1562 119.164 25.1562ZM125.883 18.3516V25H124V16.5469H125.773L125.883 18.3516ZM125.547 20.4609L124.938 20.4531C124.943 19.8542 125.026 19.3047 125.188 18.8047C125.354 18.3047 125.583 17.875 125.875 17.5156C126.172 17.1562 126.526 16.8802 126.938 16.6875C127.349 16.4896 127.807 16.3906 128.312 16.3906C128.719 16.3906 129.086 16.4479 129.414 16.5625C129.747 16.6719 130.031 16.8516 130.266 17.1016C130.505 17.3516 130.688 17.6771 130.812 18.0781C130.938 18.474 131 18.9609 131 19.5391V25H129.109V19.5312C129.109 19.125 129.049 18.8047 128.93 18.5703C128.815 18.3307 128.646 18.1615 128.422 18.0625C128.203 17.9583 127.93 17.9062 127.602 17.9062C127.279 17.9062 126.99 17.974 126.734 18.1094C126.479 18.2448 126.263 18.4297 126.086 18.6641C125.914 18.8984 125.781 19.1693 125.688 19.4766C125.594 19.7839 125.547 20.112 125.547 20.4609ZM136.648 25.1562C136.023 25.1562 135.458 25.0547 134.953 24.8516C134.453 24.6432 134.026 24.3542 133.672 23.9844C133.323 23.6146 133.055 23.1797 132.867 22.6797C132.68 22.1797 132.586 21.6406 132.586 21.0625V20.75C132.586 20.0885 132.682 19.4896 132.875 18.9531C133.068 18.4167 133.336 17.9583 133.68 17.5781C134.023 17.1927 134.43 16.8984 134.898 16.6953C135.367 16.4922 135.875 16.3906 136.422 16.3906C137.026 16.3906 137.555 16.4922 138.008 16.6953C138.461 16.8984 138.836 17.1849 139.133 17.5547C139.435 17.9193 139.659 18.3542 139.805 18.8594C139.956 19.3646 140.031 19.9219 140.031 20.5312V21.3359H133.5V19.9844H138.172V19.8359C138.161 19.4974 138.094 19.1797 137.969 18.8828C137.849 18.5859 137.664 18.3464 137.414 18.1641C137.164 17.9818 136.831 17.8906 136.414 17.8906C136.102 17.8906 135.823 17.9583 135.578 18.0938C135.339 18.224 135.138 18.4141 134.977 18.6641C134.815 18.9141 134.69 19.2161 134.602 19.5703C134.518 19.9193 134.477 20.3125 134.477 20.75V21.0625C134.477 21.4323 134.526 21.776 134.625 22.0938C134.729 22.4062 134.88 22.6797 135.078 22.9141C135.276 23.1484 135.516 23.3333 135.797 23.4688C136.078 23.599 136.398 23.6641 136.758 23.6641C137.211 23.6641 137.615 23.5729 137.969 23.3906C138.323 23.2083 138.63 22.9505 138.891 22.6172L139.883 23.5781C139.701 23.8438 139.464 24.099 139.172 24.3438C138.88 24.5833 138.523 24.7786 138.102 24.9297C137.685 25.0807 137.201 25.1562 136.648 25.1562ZM143.391 18.1562V25H141.508V16.5469H143.305L143.391 18.1562ZM145.977 16.4922L145.961 18.2422C145.846 18.2214 145.721 18.2057 145.586 18.1953C145.456 18.1849 145.326 18.1797 145.195 18.1797C144.872 18.1797 144.589 18.2266 144.344 18.3203C144.099 18.4089 143.893 18.5391 143.727 18.7109C143.565 18.8776 143.44 19.0807 143.352 19.3203C143.263 19.5599 143.211 19.8281 143.195 20.125L142.766 20.1562C142.766 19.625 142.818 19.1328 142.922 18.6797C143.026 18.2266 143.182 17.8281 143.391 17.4844C143.604 17.1406 143.87 16.8724 144.188 16.6797C144.51 16.487 144.883 16.3906 145.305 16.3906C145.419 16.3906 145.542 16.401 145.672 16.4219C145.807 16.4427 145.909 16.4661 145.977 16.4922ZM151.641 23.3047V19.2734C151.641 18.9714 151.586 18.7109 151.477 18.4922C151.367 18.2734 151.201 18.1042 150.977 17.9844C150.758 17.8646 150.482 17.8047 150.148 17.8047C149.841 17.8047 149.576 17.8568 149.352 17.9609C149.128 18.0651 148.953 18.2057 148.828 18.3828C148.703 18.5599 148.641 18.7604 148.641 18.9844H146.766C146.766 18.651 146.846 18.3281 147.008 18.0156C147.169 17.7031 147.404 17.4245 147.711 17.1797C148.018 16.9349 148.385 16.7422 148.812 16.6016C149.24 16.4609 149.719 16.3906 150.25 16.3906C150.885 16.3906 151.448 16.4974 151.938 16.7109C152.432 16.9245 152.82 17.2474 153.102 17.6797C153.388 18.1068 153.531 18.6432 153.531 19.2891V23.0469C153.531 23.4323 153.557 23.7786 153.609 24.0859C153.667 24.388 153.747 24.651 153.852 24.875V25H151.922C151.833 24.7969 151.763 24.5391 151.711 24.2266C151.664 23.9089 151.641 23.6016 151.641 23.3047ZM151.914 19.8594L151.93 21.0234H150.578C150.229 21.0234 149.922 21.0573 149.656 21.125C149.391 21.1875 149.169 21.2812 148.992 21.4062C148.815 21.5312 148.682 21.6823 148.594 21.8594C148.505 22.0365 148.461 22.237 148.461 22.4609C148.461 22.6849 148.513 22.8906 148.617 23.0781C148.721 23.2604 148.872 23.4036 149.07 23.5078C149.273 23.612 149.518 23.6641 149.805 23.6641C150.19 23.6641 150.526 23.5859 150.812 23.4297C151.104 23.2682 151.333 23.0729 151.5 22.8438C151.667 22.6094 151.755 22.388 151.766 22.1797L152.375 23.0156C152.312 23.2292 152.206 23.4583 152.055 23.7031C151.904 23.9479 151.706 24.1823 151.461 24.4062C151.221 24.625 150.932 24.8047 150.594 24.9453C150.26 25.0859 149.875 25.1562 149.438 25.1562C148.885 25.1562 148.393 25.0469 147.961 24.8281C147.529 24.6042 147.19 24.3047 146.945 23.9297C146.701 23.5495 146.578 23.1198 146.578 22.6406C146.578 22.1927 146.661 21.7969 146.828 21.4531C147 21.1042 147.25 20.8125 147.578 20.5781C147.911 20.3438 148.318 20.1667 148.797 20.0469C149.276 19.9219 149.823 19.8594 150.438 19.8594H151.914ZM160.656 23.25V13H162.547V25H160.836L160.656 23.25ZM155.156 20.8672V20.7031C155.156 20.0625 155.232 19.4792 155.383 18.9531C155.534 18.4219 155.753 17.9661 156.039 17.5859C156.326 17.2005 156.674 16.9062 157.086 16.7031C157.497 16.4948 157.961 16.3906 158.477 16.3906C158.987 16.3906 159.435 16.4896 159.82 16.6875C160.206 16.8854 160.534 17.1693 160.805 17.5391C161.076 17.9036 161.292 18.3411 161.453 18.8516C161.615 19.3568 161.729 19.9193 161.797 20.5391V21.0625C161.729 21.6667 161.615 22.2188 161.453 22.7188C161.292 23.2188 161.076 23.651 160.805 24.0156C160.534 24.3802 160.203 24.6615 159.812 24.8594C159.427 25.0573 158.977 25.1562 158.461 25.1562C157.951 25.1562 157.49 25.0495 157.078 24.8359C156.672 24.6224 156.326 24.3229 156.039 23.9375C155.753 23.5521 155.534 23.099 155.383 22.5781C155.232 22.0521 155.156 21.4818 155.156 20.8672ZM157.039 20.7031V20.8672C157.039 21.2526 157.073 21.612 157.141 21.9453C157.214 22.2786 157.326 22.5729 157.477 22.8281C157.628 23.0781 157.823 23.276 158.062 23.4219C158.307 23.5625 158.599 23.6328 158.938 23.6328C159.365 23.6328 159.716 23.5391 159.992 23.3516C160.268 23.1641 160.484 22.9115 160.641 22.5938C160.802 22.2708 160.911 21.9115 160.969 21.5156V20.1016C160.938 19.7943 160.872 19.5078 160.773 19.2422C160.68 18.9766 160.552 18.7448 160.391 18.5469C160.229 18.3438 160.029 18.1875 159.789 18.0781C159.555 17.9635 159.276 17.9062 158.953 17.9062C158.609 17.9062 158.318 17.9792 158.078 18.125C157.839 18.2708 157.641 18.4714 157.484 18.7266C157.333 18.9818 157.221 19.2786 157.148 19.6172C157.076 19.9557 157.039 20.3177 157.039 20.7031ZM164.156 20.8672V20.6875C164.156 20.0781 164.245 19.513 164.422 18.9922C164.599 18.4661 164.854 18.0104 165.188 17.625C165.526 17.2344 165.938 16.9323 166.422 16.7188C166.911 16.5 167.464 16.3906 168.078 16.3906C168.698 16.3906 169.25 16.5 169.734 16.7188C170.224 16.9323 170.638 17.2344 170.977 17.625C171.315 18.0104 171.573 18.4661 171.75 18.9922C171.927 19.513 172.016 20.0781 172.016 20.6875V20.8672C172.016 21.4766 171.927 22.0417 171.75 22.5625C171.573 23.0833 171.315 23.5391 170.977 23.9297C170.638 24.3151 170.227 24.6172 169.742 24.8359C169.258 25.0495 168.708 25.1562 168.094 25.1562C167.474 25.1562 166.919 25.0495 166.43 24.8359C165.945 24.6172 165.534 24.3151 165.195 23.9297C164.857 23.5391 164.599 23.0833 164.422 22.5625C164.245 22.0417 164.156 21.4766 164.156 20.8672ZM166.039 20.6875V20.8672C166.039 21.2474 166.078 21.6068 166.156 21.9453C166.234 22.2839 166.357 22.5807 166.523 22.8359C166.69 23.0911 166.904 23.2917 167.164 23.4375C167.424 23.5833 167.734 23.6562 168.094 23.6562C168.443 23.6562 168.745 23.5833 169 23.4375C169.26 23.2917 169.474 23.0911 169.641 22.8359C169.807 22.5807 169.93 22.2839 170.008 21.9453C170.091 21.6068 170.133 21.2474 170.133 20.8672V20.6875C170.133 20.3125 170.091 19.9583 170.008 19.625C169.93 19.2865 169.805 18.987 169.633 18.7266C169.466 18.4661 169.253 18.263 168.992 18.1172C168.737 17.9661 168.432 17.8906 168.078 17.8906C167.724 17.8906 167.417 17.9661 167.156 18.1172C166.901 18.263 166.69 18.4661 166.523 18.7266C166.357 18.987 166.234 19.2865 166.156 19.625C166.078 19.9583 166.039 20.3125 166.039 20.6875Z" fill="black"/>
</g>
<g filter="url(#filter2_d_268_1273)">
<rect x="139" y="324" width="208" height="29.5795" rx="14.7687" fill="white"/>
</g>
<g filter="url(#filter3_d_268_1273)">
<rect x="275.976" y="329.678" width="61.7236" height="19.0517" rx="9.52583" fill="#39A826" shape-rendering="crispEdges"/>
<path d="M295.722 334.929L292.898 342.704H291.744L294.996 334.173H295.74L295.722 334.929ZM298.089 342.704L295.259 334.929L295.242 334.173H295.986L299.25 342.704H298.089ZM297.943 339.546V340.471H293.15V339.546H297.943ZM301.312 337.718V342.704H300.228V336.364H301.253L301.312 337.718ZM301.054 339.294L300.603 339.276C300.607 338.843 300.671 338.442 300.796 338.075C300.921 337.704 301.097 337.382 301.324 337.108C301.55 336.835 301.82 336.624 302.132 336.475C302.449 336.323 302.798 336.247 303.181 336.247C303.494 336.247 303.775 336.29 304.025 336.376C304.275 336.458 304.488 336.591 304.664 336.774C304.843 336.958 304.98 337.196 305.074 337.489C305.167 337.778 305.214 338.132 305.214 338.55V342.704H304.125V338.538C304.125 338.206 304.076 337.94 303.978 337.741C303.88 337.538 303.738 337.391 303.55 337.302C303.363 337.208 303.132 337.161 302.859 337.161C302.589 337.161 302.343 337.218 302.121 337.331C301.902 337.444 301.712 337.6 301.552 337.8C301.396 337.999 301.273 338.227 301.183 338.485C301.097 338.739 301.054 339.009 301.054 339.294ZM310.74 341.239V336.364H311.83V342.704H310.792L310.74 341.239ZM310.945 339.903L311.396 339.891C311.396 340.313 311.351 340.704 311.261 341.063C311.175 341.419 311.035 341.727 310.839 341.989C310.644 342.251 310.388 342.456 310.072 342.604C309.755 342.749 309.371 342.821 308.917 342.821C308.609 342.821 308.326 342.776 308.068 342.686C307.814 342.596 307.595 342.458 307.412 342.27C307.228 342.083 307.085 341.839 306.984 341.538C306.886 341.237 306.837 340.876 306.837 340.454V336.364H307.921V340.466C307.921 340.751 307.953 340.987 308.015 341.175C308.082 341.358 308.169 341.505 308.279 341.614C308.392 341.72 308.517 341.794 308.654 341.837C308.794 341.88 308.939 341.901 309.087 341.901C309.548 341.901 309.914 341.813 310.183 341.638C310.453 341.458 310.646 341.218 310.763 340.917C310.884 340.612 310.945 340.274 310.945 339.903ZM317.22 341.62V338.356C317.22 338.106 317.169 337.889 317.068 337.706C316.97 337.518 316.822 337.374 316.623 337.272C316.423 337.171 316.177 337.12 315.884 337.12C315.611 337.12 315.371 337.167 315.164 337.261C314.96 337.354 314.8 337.477 314.683 337.63C314.57 337.782 314.513 337.946 314.513 338.122H313.429C313.429 337.895 313.488 337.671 313.605 337.448C313.722 337.225 313.89 337.024 314.109 336.845C314.332 336.661 314.597 336.516 314.906 336.411C315.218 336.302 315.566 336.247 315.949 336.247C316.41 336.247 316.816 336.325 317.167 336.481C317.523 336.638 317.8 336.874 318 337.19C318.203 337.503 318.304 337.895 318.304 338.368V341.321C318.304 341.532 318.322 341.757 318.357 341.995C318.396 342.233 318.453 342.438 318.527 342.61V342.704H317.396C317.341 342.579 317.298 342.413 317.267 342.206C317.236 341.995 317.22 341.8 317.22 341.62ZM317.408 338.86L317.419 339.622H316.324C316.015 339.622 315.74 339.647 315.498 339.698C315.255 339.745 315.052 339.817 314.888 339.915C314.724 340.013 314.599 340.136 314.513 340.284C314.427 340.429 314.384 340.598 314.384 340.794C314.384 340.993 314.429 341.175 314.519 341.339C314.609 341.503 314.744 341.634 314.923 341.731C315.107 341.825 315.332 341.872 315.597 341.872C315.929 341.872 316.222 341.802 316.476 341.661C316.73 341.52 316.931 341.348 317.08 341.145C317.232 340.942 317.314 340.745 317.326 340.554L317.789 341.075C317.761 341.239 317.687 341.421 317.566 341.62C317.445 341.819 317.283 342.011 317.08 342.194C316.88 342.374 316.642 342.524 316.365 342.645C316.091 342.763 315.783 342.821 315.439 342.821C315.009 342.821 314.632 342.737 314.308 342.569C313.988 342.401 313.738 342.177 313.558 341.895C313.382 341.61 313.294 341.292 313.294 340.94C313.294 340.6 313.361 340.302 313.494 340.044C313.626 339.782 313.818 339.565 314.068 339.393C314.318 339.218 314.619 339.085 314.97 338.995C315.322 338.905 315.714 338.86 316.148 338.86H317.408ZM321.187 333.704V342.704H320.097V333.704H321.187Z" fill="white"/>
</g>
<path d="M215.479 336.324H216.574L219.369 343.279L222.158 336.324H223.26L219.791 344.855H218.936L215.479 336.324ZM215.121 336.324H216.088L216.246 341.527V344.855H215.121V336.324ZM222.645 336.324H223.611V344.855H222.486V341.527L222.645 336.324ZM228.064 344.972C227.623 344.972 227.223 344.898 226.863 344.749C226.508 344.597 226.201 344.384 225.943 344.111C225.689 343.837 225.494 343.513 225.357 343.138C225.221 342.763 225.152 342.353 225.152 341.908V341.661C225.152 341.146 225.229 340.687 225.381 340.285C225.533 339.878 225.74 339.535 226.002 339.253C226.264 338.972 226.561 338.759 226.893 338.615C227.225 338.47 227.568 338.398 227.924 338.398C228.377 338.398 228.768 338.476 229.096 338.632C229.428 338.788 229.699 339.007 229.91 339.288C230.121 339.566 230.277 339.894 230.379 340.273C230.48 340.648 230.531 341.058 230.531 341.503V341.99H225.797V341.105H229.447V341.023C229.432 340.742 229.373 340.468 229.271 340.203C229.174 339.937 229.018 339.718 228.803 339.546C228.588 339.374 228.295 339.288 227.924 339.288C227.678 339.288 227.451 339.341 227.244 339.447C227.037 339.548 226.859 339.701 226.711 339.904C226.562 340.107 226.447 340.355 226.365 340.648C226.283 340.941 226.242 341.279 226.242 341.661V341.908C226.242 342.208 226.283 342.492 226.365 342.757C226.451 343.019 226.574 343.249 226.734 343.449C226.898 343.648 227.096 343.804 227.326 343.917C227.561 344.031 227.826 344.087 228.123 344.087C228.506 344.087 228.83 344.009 229.096 343.853C229.361 343.697 229.594 343.488 229.793 343.226L230.449 343.747C230.312 343.954 230.139 344.152 229.928 344.339C229.717 344.527 229.457 344.679 229.148 344.796C228.844 344.913 228.482 344.972 228.064 344.972ZM232.881 339.869V344.855H231.797V338.515H232.822L232.881 339.869ZM232.623 341.445L232.172 341.427C232.176 340.994 232.24 340.593 232.365 340.226C232.49 339.855 232.666 339.533 232.893 339.259C233.119 338.986 233.389 338.775 233.701 338.626C234.018 338.474 234.367 338.398 234.75 338.398C235.062 338.398 235.344 338.441 235.594 338.527C235.844 338.609 236.057 338.742 236.232 338.925C236.412 339.109 236.549 339.347 236.643 339.64C236.736 339.929 236.783 340.283 236.783 340.701V344.855H235.693V340.689C235.693 340.357 235.645 340.091 235.547 339.892C235.449 339.689 235.307 339.542 235.119 339.453C234.932 339.359 234.701 339.312 234.428 339.312C234.158 339.312 233.912 339.369 233.689 339.482C233.471 339.595 233.281 339.751 233.121 339.951C232.965 340.15 232.842 340.378 232.752 340.636C232.666 340.89 232.623 341.16 232.623 341.445ZM242.121 343.173C242.121 343.017 242.086 342.872 242.016 342.74C241.949 342.603 241.811 342.48 241.6 342.37C241.393 342.257 241.08 342.16 240.662 342.078C240.311 342.003 239.992 341.915 239.707 341.814C239.426 341.712 239.186 341.589 238.986 341.445C238.791 341.3 238.641 341.13 238.535 340.935C238.43 340.74 238.377 340.511 238.377 340.249C238.377 339.999 238.432 339.763 238.541 339.54C238.654 339.318 238.812 339.12 239.016 338.949C239.223 338.777 239.471 338.642 239.76 338.544C240.049 338.447 240.371 338.398 240.727 338.398C241.234 338.398 241.668 338.488 242.027 338.667C242.387 338.847 242.662 339.087 242.854 339.388C243.045 339.685 243.141 340.015 243.141 340.378H242.057C242.057 340.203 242.004 340.033 241.898 339.869C241.797 339.701 241.646 339.562 241.447 339.453C241.252 339.343 241.012 339.288 240.727 339.288C240.426 339.288 240.182 339.335 239.994 339.429C239.811 339.519 239.676 339.634 239.59 339.775C239.508 339.915 239.467 340.064 239.467 340.22C239.467 340.337 239.486 340.443 239.525 340.536C239.568 340.626 239.643 340.71 239.748 340.788C239.854 340.863 240.002 340.933 240.193 340.999C240.385 341.066 240.629 341.132 240.926 341.199C241.445 341.316 241.873 341.456 242.209 341.62C242.545 341.785 242.795 341.986 242.959 342.224C243.123 342.462 243.205 342.751 243.205 343.091C243.205 343.369 243.146 343.622 243.029 343.853C242.916 344.083 242.75 344.283 242.531 344.451C242.316 344.615 242.059 344.744 241.758 344.837C241.461 344.927 241.127 344.972 240.756 344.972C240.197 344.972 239.725 344.872 239.338 344.673C238.951 344.474 238.658 344.216 238.459 343.9C238.26 343.583 238.16 343.249 238.16 342.898H239.25C239.266 343.195 239.352 343.431 239.508 343.607C239.664 343.779 239.855 343.902 240.082 343.976C240.309 344.046 240.533 344.081 240.756 344.081C241.053 344.081 241.301 344.042 241.5 343.964C241.703 343.886 241.857 343.779 241.963 343.642C242.068 343.505 242.121 343.349 242.121 343.173ZM248.508 343.39V338.515H249.598V344.855H248.561L248.508 343.39ZM248.713 342.054L249.164 342.042C249.164 342.464 249.119 342.855 249.029 343.214C248.943 343.57 248.803 343.878 248.607 344.14C248.412 344.402 248.156 344.607 247.84 344.755C247.523 344.9 247.139 344.972 246.686 344.972C246.377 344.972 246.094 344.927 245.836 344.837C245.582 344.747 245.363 344.609 245.18 344.421C244.996 344.234 244.854 343.99 244.752 343.689C244.654 343.388 244.605 343.027 244.605 342.605V338.515H245.689V342.617C245.689 342.902 245.721 343.138 245.783 343.326C245.85 343.509 245.938 343.656 246.047 343.765C246.16 343.87 246.285 343.945 246.422 343.988C246.562 344.031 246.707 344.052 246.855 344.052C247.316 344.052 247.682 343.964 247.951 343.788C248.221 343.609 248.414 343.369 248.531 343.068C248.652 342.763 248.713 342.425 248.713 342.054ZM254.988 343.771V340.507C254.988 340.257 254.938 340.04 254.836 339.857C254.738 339.669 254.59 339.525 254.391 339.423C254.191 339.322 253.945 339.271 253.652 339.271C253.379 339.271 253.139 339.318 252.932 339.411C252.729 339.505 252.568 339.628 252.451 339.781C252.338 339.933 252.281 340.097 252.281 340.273H251.197C251.197 340.046 251.256 339.822 251.373 339.599C251.49 339.376 251.658 339.175 251.877 338.995C252.1 338.812 252.365 338.667 252.674 338.562C252.986 338.453 253.334 338.398 253.717 338.398C254.178 338.398 254.584 338.476 254.936 338.632C255.291 338.788 255.568 339.025 255.768 339.341C255.971 339.654 256.072 340.046 256.072 340.519V343.472C256.072 343.683 256.09 343.908 256.125 344.146C256.164 344.384 256.221 344.589 256.295 344.761V344.855H255.164C255.109 344.73 255.066 344.564 255.035 344.357C255.004 344.146 254.988 343.951 254.988 343.771ZM255.176 341.011L255.188 341.773H254.092C253.783 341.773 253.508 341.798 253.266 341.849C253.023 341.896 252.82 341.968 252.656 342.066C252.492 342.163 252.367 342.286 252.281 342.435C252.195 342.579 252.152 342.749 252.152 342.945C252.152 343.144 252.197 343.326 252.287 343.49C252.377 343.654 252.512 343.785 252.691 343.882C252.875 343.976 253.1 344.023 253.365 344.023C253.697 344.023 253.99 343.953 254.244 343.812C254.498 343.671 254.699 343.499 254.848 343.296C255 343.093 255.082 342.896 255.094 342.704L255.557 343.226C255.529 343.39 255.455 343.572 255.334 343.771C255.213 343.97 255.051 344.161 254.848 344.345C254.648 344.525 254.41 344.675 254.133 344.796C253.859 344.913 253.551 344.972 253.207 344.972C252.777 344.972 252.4 344.888 252.076 344.72C251.756 344.552 251.506 344.328 251.326 344.046C251.15 343.761 251.062 343.443 251.062 343.091C251.062 342.751 251.129 342.453 251.262 342.195C251.395 341.933 251.586 341.716 251.836 341.544C252.086 341.369 252.387 341.236 252.738 341.146C253.09 341.056 253.482 341.011 253.916 341.011H255.176ZM258.955 335.855V344.855H257.865V335.855H258.955Z" fill="#9291A5"/>
<path d="M154.729 342.699C154.729 342.499 154.697 342.324 154.635 342.171C154.576 342.015 154.471 341.874 154.318 341.749C154.17 341.624 153.963 341.505 153.697 341.392C153.436 341.279 153.104 341.163 152.701 341.046C152.279 340.921 151.898 340.783 151.559 340.63C151.219 340.474 150.928 340.296 150.686 340.097C150.443 339.898 150.258 339.669 150.129 339.411C150 339.154 149.936 338.859 149.936 338.527C149.936 338.195 150.004 337.888 150.141 337.607C150.277 337.326 150.473 337.081 150.727 336.874C150.984 336.663 151.291 336.499 151.646 336.382C152.002 336.265 152.398 336.206 152.836 336.206C153.477 336.206 154.02 336.329 154.465 336.576C154.914 336.818 155.256 337.136 155.49 337.531C155.725 337.921 155.842 338.339 155.842 338.785H154.717C154.717 338.464 154.648 338.181 154.512 337.935C154.375 337.685 154.168 337.49 153.891 337.349C153.613 337.204 153.262 337.132 152.836 337.132C152.434 337.132 152.102 337.193 151.84 337.314C151.578 337.435 151.383 337.599 151.254 337.806C151.129 338.013 151.066 338.249 151.066 338.515C151.066 338.695 151.104 338.859 151.178 339.007C151.256 339.152 151.375 339.286 151.535 339.411C151.699 339.536 151.906 339.652 152.156 339.757C152.41 339.863 152.713 339.964 153.064 340.062C153.549 340.199 153.967 340.351 154.318 340.519C154.67 340.687 154.959 340.876 155.186 341.087C155.416 341.294 155.586 341.531 155.695 341.796C155.809 342.058 155.865 342.355 155.865 342.687C155.865 343.035 155.795 343.349 155.654 343.63C155.514 343.911 155.312 344.152 155.051 344.351C154.789 344.55 154.475 344.704 154.107 344.814C153.744 344.919 153.338 344.972 152.889 344.972C152.494 344.972 152.105 344.917 151.723 344.808C151.344 344.699 150.998 344.535 150.686 344.316C150.377 344.097 150.129 343.828 149.941 343.507C149.758 343.183 149.666 342.808 149.666 342.382H150.791C150.791 342.675 150.848 342.927 150.961 343.138C151.074 343.345 151.229 343.517 151.424 343.654C151.623 343.79 151.848 343.892 152.098 343.958C152.352 344.021 152.615 344.052 152.889 344.052C153.283 344.052 153.617 343.997 153.891 343.888C154.164 343.779 154.371 343.622 154.512 343.419C154.656 343.216 154.729 342.976 154.729 342.699ZM159.773 344.972C159.332 344.972 158.932 344.898 158.572 344.749C158.217 344.597 157.91 344.384 157.652 344.111C157.398 343.837 157.203 343.513 157.066 343.138C156.93 342.763 156.861 342.353 156.861 341.908V341.661C156.861 341.146 156.938 340.687 157.09 340.285C157.242 339.878 157.449 339.535 157.711 339.253C157.973 338.972 158.27 338.759 158.602 338.615C158.934 338.47 159.277 338.398 159.633 338.398C160.086 338.398 160.477 338.476 160.805 338.632C161.137 338.788 161.408 339.007 161.619 339.288C161.83 339.566 161.986 339.894 162.088 340.273C162.189 340.648 162.24 341.058 162.24 341.503V341.99H157.506V341.105H161.156V341.023C161.141 340.742 161.082 340.468 160.98 340.203C160.883 339.937 160.727 339.718 160.512 339.546C160.297 339.374 160.004 339.288 159.633 339.288C159.387 339.288 159.16 339.341 158.953 339.447C158.746 339.548 158.568 339.701 158.42 339.904C158.271 340.107 158.156 340.355 158.074 340.648C157.992 340.941 157.951 341.279 157.951 341.661V341.908C157.951 342.208 157.992 342.492 158.074 342.757C158.16 343.019 158.283 343.249 158.443 343.449C158.607 343.648 158.805 343.804 159.035 343.917C159.27 344.031 159.535 344.087 159.832 344.087C160.215 344.087 160.539 344.009 160.805 343.853C161.07 343.697 161.303 343.488 161.502 343.226L162.158 343.747C162.021 343.954 161.848 344.152 161.637 344.339C161.426 344.527 161.166 344.679 160.857 344.796C160.553 344.913 160.191 344.972 159.773 344.972ZM164.584 339.775V344.855H163.494V338.515H164.525L164.584 339.775ZM164.361 341.445L163.857 341.427C163.861 340.994 163.918 340.593 164.027 340.226C164.137 339.855 164.299 339.533 164.514 339.259C164.729 338.986 164.996 338.775 165.316 338.626C165.637 338.474 166.008 338.398 166.43 338.398C166.727 338.398 167 338.441 167.25 338.527C167.5 338.609 167.717 338.74 167.9 338.919C168.084 339.099 168.227 339.329 168.328 339.611C168.43 339.892 168.48 340.232 168.48 340.63V344.855H167.396V340.683C167.396 340.351 167.34 340.085 167.227 339.886C167.117 339.687 166.961 339.542 166.758 339.453C166.555 339.359 166.316 339.312 166.043 339.312C165.723 339.312 165.455 339.369 165.24 339.482C165.025 339.595 164.854 339.751 164.725 339.951C164.596 340.15 164.502 340.378 164.443 340.636C164.389 340.89 164.361 341.16 164.361 341.445ZM168.469 340.847L167.742 341.07C167.746 340.722 167.803 340.388 167.912 340.068C168.025 339.747 168.188 339.462 168.398 339.212C168.613 338.962 168.877 338.765 169.189 338.62C169.502 338.472 169.859 338.398 170.262 338.398C170.602 338.398 170.902 338.443 171.164 338.533C171.43 338.622 171.652 338.761 171.832 338.949C172.016 339.132 172.154 339.369 172.248 339.658C172.342 339.947 172.389 340.29 172.389 340.689V344.855H171.299V340.677C171.299 340.322 171.242 340.046 171.129 339.851C171.02 339.652 170.863 339.513 170.66 339.435C170.461 339.353 170.223 339.312 169.945 339.312C169.707 339.312 169.496 339.353 169.312 339.435C169.129 339.517 168.975 339.63 168.85 339.775C168.725 339.915 168.629 340.078 168.562 340.261C168.5 340.445 168.469 340.64 168.469 340.847ZM177.768 343.771V340.507C177.768 340.257 177.717 340.04 177.615 339.857C177.518 339.669 177.369 339.525 177.17 339.423C176.971 339.322 176.725 339.271 176.432 339.271C176.158 339.271 175.918 339.318 175.711 339.411C175.508 339.505 175.348 339.628 175.23 339.781C175.117 339.933 175.061 340.097 175.061 340.273H173.977C173.977 340.046 174.035 339.822 174.152 339.599C174.27 339.376 174.438 339.175 174.656 338.995C174.879 338.812 175.145 338.667 175.453 338.562C175.766 338.453 176.113 338.398 176.496 338.398C176.957 338.398 177.363 338.476 177.715 338.632C178.07 338.788 178.348 339.025 178.547 339.341C178.75 339.654 178.852 340.046 178.852 340.519V343.472C178.852 343.683 178.869 343.908 178.904 344.146C178.943 344.384 179 344.589 179.074 344.761V344.855H177.943C177.889 344.73 177.846 344.564 177.814 344.357C177.783 344.146 177.768 343.951 177.768 343.771ZM177.955 341.011L177.967 341.773H176.871C176.562 341.773 176.287 341.798 176.045 341.849C175.803 341.896 175.6 341.968 175.436 342.066C175.271 342.163 175.146 342.286 175.061 342.435C174.975 342.579 174.932 342.749 174.932 342.945C174.932 343.144 174.977 343.326 175.066 343.49C175.156 343.654 175.291 343.785 175.471 343.882C175.654 343.976 175.879 344.023 176.145 344.023C176.477 344.023 176.77 343.953 177.023 343.812C177.277 343.671 177.479 343.499 177.627 343.296C177.779 343.093 177.861 342.896 177.873 342.704L178.336 343.226C178.309 343.39 178.234 343.572 178.113 343.771C177.992 343.97 177.83 344.161 177.627 344.345C177.428 344.525 177.189 344.675 176.912 344.796C176.639 344.913 176.33 344.972 175.986 344.972C175.557 344.972 175.18 344.888 174.855 344.72C174.535 344.552 174.285 344.328 174.105 344.046C173.93 343.761 173.842 343.443 173.842 343.091C173.842 342.751 173.908 342.453 174.041 342.195C174.174 341.933 174.365 341.716 174.615 341.544C174.865 341.369 175.166 341.236 175.518 341.146C175.869 341.056 176.262 341.011 176.695 341.011H177.955ZM181.641 339.869V344.855H180.557V338.515H181.582L181.641 339.869ZM181.383 341.445L180.932 341.427C180.936 340.994 181 340.593 181.125 340.226C181.25 339.855 181.426 339.533 181.652 339.259C181.879 338.986 182.148 338.775 182.461 338.626C182.777 338.474 183.127 338.398 183.51 338.398C183.822 338.398 184.104 338.441 184.354 338.527C184.604 338.609 184.816 338.742 184.992 338.925C185.172 339.109 185.309 339.347 185.402 339.64C185.496 339.929 185.543 340.283 185.543 340.701V344.855H184.453V340.689C184.453 340.357 184.404 340.091 184.307 339.892C184.209 339.689 184.066 339.542 183.879 339.453C183.691 339.359 183.461 339.312 183.188 339.312C182.918 339.312 182.672 339.369 182.449 339.482C182.23 339.595 182.041 339.751 181.881 339.951C181.725 340.15 181.602 340.378 181.512 340.636C181.426 340.89 181.383 341.16 181.383 341.445ZM190.928 343.771V340.507C190.928 340.257 190.877 340.04 190.775 339.857C190.678 339.669 190.529 339.525 190.33 339.423C190.131 339.322 189.885 339.271 189.592 339.271C189.318 339.271 189.078 339.318 188.871 339.411C188.668 339.505 188.508 339.628 188.391 339.781C188.277 339.933 188.221 340.097 188.221 340.273H187.137C187.137 340.046 187.195 339.822 187.312 339.599C187.43 339.376 187.598 339.175 187.816 338.995C188.039 338.812 188.305 338.667 188.613 338.562C188.926 338.453 189.273 338.398 189.656 338.398C190.117 338.398 190.523 338.476 190.875 338.632C191.23 338.788 191.508 339.025 191.707 339.341C191.91 339.654 192.012 340.046 192.012 340.519V343.472C192.012 343.683 192.029 343.908 192.064 344.146C192.104 344.384 192.16 344.589 192.234 344.761V344.855H191.104C191.049 344.73 191.006 344.564 190.975 344.357C190.943 344.146 190.928 343.951 190.928 343.771ZM191.115 341.011L191.127 341.773H190.031C189.723 341.773 189.447 341.798 189.205 341.849C188.963 341.896 188.76 341.968 188.596 342.066C188.432 342.163 188.307 342.286 188.221 342.435C188.135 342.579 188.092 342.749 188.092 342.945C188.092 343.144 188.137 343.326 188.227 343.49C188.316 343.654 188.451 343.785 188.631 343.882C188.814 343.976 189.039 344.023 189.305 344.023C189.637 344.023 189.93 343.953 190.184 343.812C190.438 343.671 190.639 343.499 190.787 343.296C190.939 343.093 191.021 342.896 191.033 342.704L191.496 343.226C191.469 343.39 191.395 343.572 191.273 343.771C191.152 343.97 190.99 344.161 190.787 344.345C190.588 344.525 190.35 344.675 190.072 344.796C189.799 344.913 189.49 344.972 189.146 344.972C188.717 344.972 188.34 344.888 188.016 344.72C187.695 344.552 187.445 344.328 187.266 344.046C187.09 343.761 187.002 343.443 187.002 343.091C187.002 342.751 187.068 342.453 187.201 342.195C187.334 341.933 187.525 341.716 187.775 341.544C188.025 341.369 188.326 341.236 188.678 341.146C189.029 341.056 189.422 341.011 189.855 341.011H191.115ZM194.895 335.855V344.855H193.805V335.855H194.895Z" fill="#9291A5"/>
<defs>
<filter id="filter0_d_268_1273" x="-3" y="0" width="354" height="316" filterUnits="userSpaceOnUse" color-interpolation-filters="sRGB">
<feFlood flood-opacity="0" result="BackgroundImageFix"/>
<feColorMatrix in="SourceAlpha" type="matrix" values="0 0 0 0 0 0 0 0 0 0 0 0 0 0 0 0 0 0 127 0" result="hardAlpha"/>
<feOffset dy="4"/>
<feGaussianBlur stdDeviation="2"/>
<feComposite in2="hardAlpha" operator="out"/>
<feColorMatrix type="matrix" values="0 0 0 0 0 0 0 0 0 0 0 0 0 0 0 0 0 0 0.25 0"/>
<feBlend mode="normal" in2="BackgroundImageFix" result="effect1_dropShadow_268_1273"/>
<feBlend mode="normal" in="SourceGraphic" in2="effect1_dropShadow_268_1273" result="shape"/>
</filter>
<filter id="filter1_d_268_1273" x="189.732" y="13" width="61.8787" height="61.8661" filterUnits="userSpaceOnUse" color-interpolation-filters="sRGB">
<feFlood flood-opacity="0" result="BackgroundImageFix"/>
<feColorMatrix in="SourceAlpha" type="matrix" values="0 0 0 0 0 0 0 0 0 0 0 0 0 0 0 0 0 0 127 0" result="hardAlpha"/>
<feMorphology radius="6" operator="dilate" in="SourceAlpha" result="effect1_dropShadow_268_1273"/>
<feOffset/>
<feGaussianBlur stdDeviation="10"/>
<feComposite in2="hardAlpha" operator="out"/>
<feColorMatrix type="matrix" values="0 0 0 0 0.830444 0 0 0 0 0.280556 0 0 0 0 0.841667 0 0 0 1 0"/>
<feBlend mode="normal" in2="BackgroundImageFix" result="effect1_dropShadow_268_1273"/>
<feBlend mode="normal" in="SourceGraphic" in2="effect1_dropShadow_268_1273" result="shape"/>
</filter>
<filter id="filter2_d_268_1273" x="135" y="324" width="216" height="37.5795" filterUnits="userSpaceOnUse" color-interpolation-filters="sRGB">
<feFlood flood-opacity="0" result="BackgroundImageFix"/>
<feColorMatrix in="SourceAlpha" type="matrix" values="0 0 0 0 0 0 0 0 0 0 0 0 0 0 0 0 0 0 127 0" result="hardAlpha"/>
<feOffset dy="4"/>
<feGaussianBlur stdDeviation="2"/>
<feComposite in2="hardAlpha" operator="out"/>
<feColorMatrix type="matrix" values="0 0 0 0 0 0 0 0 0 0 0 0 0 0 0 0 0 0 0.25 0"/>
<feBlend mode="normal" in2="BackgroundImageFix" result="effect1_dropShadow_268_1273"/>
<feBlend mode="normal" in="SourceGraphic" in2="effect1_dropShadow_268_1273" result="shape"/>
</filter>
<filter id="filter3_d_268_1273" x="271.976" y="329.678" width="69.7236" height="27.0516" filterUnits="userSpaceOnUse" color-interpolation-filters="sRGB">
<feFlood flood-opacity="0" result="BackgroundImageFix"/>
<feColorMatrix in="SourceAlpha" type="matrix" values="0 0 0 0 0 0 0 0 0 0 0 0 0 0 0 0 0 0 127 0" result="hardAlpha"/>
<feOffset dy="4"/>
<feGaussianBlur stdDeviation="2"/>
<feComposite in2="hardAlpha" operator="out"/>
<feColorMatrix type="matrix" values="0 0 0 0 0 0 0 0 0 0 0 0 0 0 0 0 0 0 0.25 0"/>
<feBlend mode="normal" in2="BackgroundImageFix" result="effect1_dropShadow_268_1273"/>
<feBlend mode="normal" in="SourceGraphic" in2="effect1_dropShadow_268_1273" result="shape"/>
</filter>
<linearGradient id="paint0_linear_268_1273" x1="336.253" y1="52.7295" x2="34.3466" y2="51.7956" gradientUnits="userSpaceOnUse">
<stop stop-color="#39A826"/>
<stop offset="0.541667" stop-color="#39A826" stop-opacity="0.96"/>
<stop offset="1" stop-color="#39A826"/>
<stop offset="1" stop-color="#39A826"/>
</linearGradient>
<linearGradient id="paint1_linear_268_1273" x1="193.479" y1="55.3907" x2="157.706" y2="247.361" gradientUnits="userSpaceOnUse">
<stop stop-color="#39A826" stop-opacity="0.36"/>
<stop offset="1" stop-color="#39A826" stop-opacity="0"/>
</linearGradient>
<linearGradient id="paint2_linear_268_1273" x1="220.256" y1="56.3745" x2="220.256" y2="259.704" gradientUnits="userSpaceOnUse">
<stop stop-color="#39A826"/>
<stop offset="1" stop-color="#020609" stop-opacity="0.0416667"/>
</linearGradient>
</defs>
</svg>
