<svg width="216" height="38" viewBox="0 0 216 38" fill="none" xmlns="http://www.w3.org/2000/svg">
<g filter="url(#filter0_d_268_1186)">
<rect x="4" width="208" height="29.5795" rx="14.7687" fill="white"/>
</g>
<g filter="url(#filter1_d_268_1186)">
<rect x="140.976" y="5.6781" width="61.7236" height="19.0517" rx="9.52583" fill="#14213D" shape-rendering="crispEdges"/>
<path d="M160.722 10.9285L157.898 18.7039H156.744L159.996 10.1727H160.74L160.722 10.9285ZM163.089 18.7039L160.259 10.9285L160.242 10.1727H160.986L164.25 18.7039H163.089ZM162.943 15.5457V16.4715H158.15V15.5457H162.943ZM166.312 13.7176V18.7039H165.228V12.3641H166.253L166.312 13.7176ZM166.054 15.2938L165.603 15.2762C165.607 14.8426 165.671 14.4422 165.796 14.075C165.921 13.7039 166.097 13.3817 166.324 13.1082C166.55 12.8348 166.82 12.6238 167.132 12.4754C167.449 12.3231 167.798 12.2469 168.181 12.2469C168.494 12.2469 168.775 12.2899 169.025 12.3758C169.275 12.4578 169.488 12.5906 169.664 12.7742C169.843 12.9578 169.98 13.1961 170.074 13.4891C170.167 13.7781 170.214 14.1317 170.214 14.5496V18.7039H169.125V14.5379C169.125 14.2059 169.076 13.9402 168.978 13.741C168.88 13.5379 168.738 13.3914 168.55 13.3016C168.363 13.2078 168.132 13.1609 167.859 13.1609C167.589 13.1609 167.343 13.2176 167.121 13.3309C166.902 13.4442 166.712 13.6004 166.552 13.7996C166.396 13.9988 166.273 14.2274 166.183 14.4852C166.097 14.7391 166.054 15.0086 166.054 15.2938ZM175.74 17.2391V12.3641H176.83V18.7039H175.792L175.74 17.2391ZM175.945 15.9031L176.396 15.8914C176.396 16.3133 176.351 16.7039 176.261 17.0633C176.175 17.4188 176.035 17.7274 175.839 17.9891C175.644 18.2508 175.388 18.4559 175.072 18.6043C174.755 18.7488 174.371 18.8211 173.917 18.8211C173.609 18.8211 173.326 18.7762 173.068 18.6863C172.814 18.5965 172.595 18.4578 172.412 18.2703C172.228 18.0828 172.085 17.8387 171.984 17.5379C171.886 17.2371 171.837 16.8758 171.837 16.4539V12.3641H172.921V16.4656C172.921 16.7508 172.953 16.9871 173.015 17.1746C173.082 17.3582 173.169 17.5047 173.279 17.6141C173.392 17.7195 173.517 17.7938 173.654 17.8367C173.794 17.8797 173.939 17.9012 174.087 17.9012C174.548 17.9012 174.914 17.8133 175.183 17.6375C175.453 17.4578 175.646 17.2176 175.763 16.9168C175.884 16.6121 175.945 16.2742 175.945 15.9031ZM182.22 17.6199V14.3563C182.22 14.1063 182.169 13.8895 182.068 13.7059C181.97 13.5184 181.822 13.3738 181.623 13.2723C181.423 13.1707 181.177 13.1199 180.884 13.1199C180.611 13.1199 180.371 13.1668 180.164 13.2606C179.96 13.3543 179.8 13.4774 179.683 13.6297C179.57 13.782 179.513 13.9461 179.513 14.1219H178.429C178.429 13.8953 178.488 13.6707 178.605 13.4481C178.722 13.2254 178.89 13.0242 179.109 12.8445C179.332 12.6609 179.597 12.5164 179.906 12.4109C180.218 12.3016 180.566 12.2469 180.949 12.2469C181.41 12.2469 181.816 12.325 182.167 12.4813C182.523 12.6375 182.8 12.8738 183 13.1902C183.203 13.5027 183.304 13.8953 183.304 14.368V17.3211C183.304 17.532 183.322 17.7567 183.357 17.9949C183.396 18.2332 183.453 18.4383 183.527 18.6102V18.7039H182.396C182.341 18.5789 182.298 18.4129 182.267 18.2059C182.236 17.9949 182.22 17.7996 182.22 17.6199ZM182.408 14.8602L182.419 15.6219H181.324C181.015 15.6219 180.74 15.6473 180.498 15.6981C180.255 15.7449 180.052 15.8172 179.888 15.9149C179.724 16.0125 179.599 16.1356 179.513 16.284C179.427 16.4285 179.384 16.5984 179.384 16.7938C179.384 16.993 179.429 17.1746 179.519 17.3387C179.609 17.5027 179.744 17.6336 179.923 17.7313C180.107 17.825 180.332 17.8719 180.597 17.8719C180.929 17.8719 181.222 17.8016 181.476 17.6609C181.73 17.5203 181.931 17.3484 182.08 17.1453C182.232 16.9422 182.314 16.7449 182.326 16.5535L182.789 17.075C182.761 17.2391 182.687 17.4207 182.566 17.6199C182.445 17.8192 182.283 18.0106 182.08 18.1942C181.88 18.3738 181.642 18.5242 181.365 18.6453C181.091 18.7625 180.783 18.8211 180.439 18.8211C180.009 18.8211 179.632 18.7371 179.308 18.5692C178.988 18.4012 178.738 18.1766 178.558 17.8953C178.382 17.6102 178.294 17.2918 178.294 16.9402C178.294 16.6004 178.361 16.3016 178.494 16.0438C178.626 15.782 178.818 15.5652 179.068 15.3934C179.318 15.2176 179.619 15.0848 179.97 14.9949C180.322 14.9051 180.714 14.8602 181.148 14.8602H182.408ZM186.187 9.70392V18.7039H185.097V9.70392H186.187Z" fill="white"/>
</g>
<path d="M80.4785 12.3236H81.5742L84.3691 19.2787L87.1582 12.3236H88.2598L84.791 20.8549H83.9355L80.4785 12.3236ZM80.1211 12.3236H81.0879L81.2461 17.5267V20.8549H80.1211V12.3236ZM87.6445 12.3236H88.6113V20.8549H87.4863V17.5267L87.6445 12.3236ZM93.0645 20.972C92.623 20.972 92.2227 20.8978 91.8633 20.7494C91.5078 20.597 91.2012 20.3842 90.9434 20.1107C90.6895 19.8373 90.4941 19.5131 90.3574 19.1381C90.2207 18.7631 90.1523 18.3529 90.1523 17.9076V17.6615C90.1523 17.1459 90.2285 16.6869 90.3809 16.2845C90.5332 15.8783 90.7402 15.5345 91.002 15.2533C91.2637 14.972 91.5605 14.7592 91.8926 14.6146C92.2246 14.4701 92.5684 14.3978 92.9238 14.3978C93.377 14.3978 93.7676 14.476 94.0957 14.6322C94.4277 14.7885 94.6992 15.0072 94.9102 15.2885C95.1211 15.5658 95.2773 15.8939 95.3789 16.2728C95.4805 16.6478 95.5312 17.058 95.5312 17.5033V17.9896H90.7969V17.1049H94.4473V17.0228C94.4316 16.7416 94.373 16.4681 94.2715 16.2025C94.1738 15.9369 94.0176 15.7181 93.8027 15.5463C93.5879 15.3744 93.2949 15.2885 92.9238 15.2885C92.6777 15.2885 92.4512 15.3412 92.2441 15.4467C92.0371 15.5482 91.8594 15.7006 91.7109 15.9037C91.5625 16.1068 91.4473 16.3549 91.3652 16.6478C91.2832 16.9408 91.2422 17.2787 91.2422 17.6615V17.9076C91.2422 18.2084 91.2832 18.4916 91.3652 18.7572C91.4512 19.0189 91.5742 19.2494 91.7344 19.4486C91.8984 19.6478 92.0957 19.8041 92.3262 19.9174C92.5605 20.0306 92.8262 20.0873 93.123 20.0873C93.5059 20.0873 93.8301 20.0092 94.0957 19.8529C94.3613 19.6967 94.5938 19.4877 94.793 19.226L95.4492 19.7474C95.3125 19.9545 95.1387 20.1517 94.9277 20.3392C94.7168 20.5267 94.457 20.6791 94.1484 20.7963C93.8438 20.9135 93.4824 20.972 93.0645 20.972ZM97.8809 15.8685V20.8549H96.7969V14.515H97.8223L97.8809 15.8685ZM97.623 17.4447L97.1719 17.4271C97.1758 16.9935 97.2402 16.5931 97.3652 16.226C97.4902 15.8549 97.666 15.5326 97.8926 15.2592C98.1191 14.9857 98.3887 14.7748 98.7012 14.6263C99.0176 14.474 99.3672 14.3978 99.75 14.3978C100.062 14.3978 100.344 14.4408 100.594 14.5267C100.844 14.6088 101.057 14.7416 101.232 14.9252C101.412 15.1088 101.549 15.347 101.643 15.64C101.736 15.9291 101.783 16.2826 101.783 16.7006V20.8549H100.693V16.6888C100.693 16.3568 100.645 16.0912 100.547 15.892C100.449 15.6888 100.307 15.5424 100.119 15.4525C99.9316 15.3588 99.7012 15.3119 99.4277 15.3119C99.1582 15.3119 98.9121 15.3685 98.6895 15.4818C98.4707 15.5951 98.2812 15.7513 98.1211 15.9506C97.9648 16.1498 97.8418 16.3783 97.752 16.6361C97.666 16.89 97.623 17.1595 97.623 17.4447ZM107.121 19.1732C107.121 19.017 107.086 18.8724 107.016 18.7396C106.949 18.6029 106.811 18.4799 106.6 18.3705C106.393 18.2572 106.08 18.1595 105.662 18.0775C105.311 18.0033 104.992 17.9154 104.707 17.8138C104.426 17.7123 104.186 17.5892 103.986 17.4447C103.791 17.3002 103.641 17.1302 103.535 16.9349C103.43 16.7396 103.377 16.5111 103.377 16.2494C103.377 15.9994 103.432 15.7631 103.541 15.5404C103.654 15.3177 103.812 15.1205 104.016 14.9486C104.223 14.7767 104.471 14.642 104.76 14.5443C105.049 14.4467 105.371 14.3978 105.727 14.3978C106.234 14.3978 106.668 14.4877 107.027 14.6674C107.387 14.847 107.662 15.0873 107.854 15.3881C108.045 15.6849 108.141 16.015 108.141 16.3783H107.057C107.057 16.2025 107.004 16.0326 106.898 15.8685C106.797 15.7006 106.646 15.5619 106.447 15.4525C106.252 15.3431 106.012 15.2885 105.727 15.2885C105.426 15.2885 105.182 15.3353 104.994 15.4291C104.811 15.5189 104.676 15.6342 104.59 15.7748C104.508 15.9154 104.467 16.0638 104.467 16.2201C104.467 16.3373 104.486 16.4427 104.525 16.5365C104.568 16.6263 104.643 16.7103 104.748 16.7885C104.854 16.8627 105.002 16.933 105.193 16.9994C105.385 17.0658 105.629 17.1322 105.926 17.1986C106.445 17.3158 106.873 17.4564 107.209 17.6205C107.545 17.7845 107.795 17.9857 107.959 18.224C108.123 18.4623 108.205 18.7513 108.205 19.0912C108.205 19.3685 108.146 19.6224 108.029 19.8529C107.916 20.0834 107.75 20.2826 107.531 20.4506C107.316 20.6146 107.059 20.7435 106.758 20.8373C106.461 20.9271 106.127 20.972 105.756 20.972C105.197 20.972 104.725 20.8724 104.338 20.6732C103.951 20.474 103.658 20.2162 103.459 19.8998C103.26 19.5834 103.16 19.2494 103.16 18.8978H104.25C104.266 19.1947 104.352 19.431 104.508 19.6068C104.664 19.7787 104.855 19.9017 105.082 19.976C105.309 20.0463 105.533 20.0814 105.756 20.0814C106.053 20.0814 106.301 20.0424 106.5 19.9642C106.703 19.8861 106.857 19.7787 106.963 19.642C107.068 19.5052 107.121 19.349 107.121 19.1732ZM113.508 19.39V14.515H114.598V20.8549H113.561L113.508 19.39ZM113.713 18.0541L114.164 18.0424C114.164 18.4642 114.119 18.8549 114.029 19.2142C113.943 19.5697 113.803 19.8783 113.607 20.14C113.412 20.4017 113.156 20.6068 112.84 20.7552C112.523 20.8998 112.139 20.972 111.686 20.972C111.377 20.972 111.094 20.9271 110.836 20.8373C110.582 20.7474 110.363 20.6088 110.18 20.4213C109.996 20.2338 109.854 19.9896 109.752 19.6888C109.654 19.3881 109.605 19.0267 109.605 18.6049V14.515H110.689V18.6166C110.689 18.9017 110.721 19.1381 110.783 19.3256C110.85 19.5092 110.938 19.6556 111.047 19.765C111.16 19.8705 111.285 19.9447 111.422 19.9877C111.562 20.0306 111.707 20.0521 111.855 20.0521C112.316 20.0521 112.682 19.9642 112.951 19.7885C113.221 19.6088 113.414 19.3685 113.531 19.0677C113.652 18.7631 113.713 18.4252 113.713 18.0541ZM119.988 19.7709V16.5072C119.988 16.2572 119.938 16.0404 119.836 15.8568C119.738 15.6693 119.59 15.5248 119.391 15.4232C119.191 15.3217 118.945 15.2709 118.652 15.2709C118.379 15.2709 118.139 15.3177 117.932 15.4115C117.729 15.5052 117.568 15.6283 117.451 15.7806C117.338 15.933 117.281 16.097 117.281 16.2728H116.197C116.197 16.0463 116.256 15.8217 116.373 15.599C116.49 15.3763 116.658 15.1752 116.877 14.9955C117.1 14.8119 117.365 14.6674 117.674 14.5619C117.986 14.4525 118.334 14.3978 118.717 14.3978C119.178 14.3978 119.584 14.476 119.936 14.6322C120.291 14.7885 120.568 15.0248 120.768 15.3412C120.971 15.6537 121.072 16.0463 121.072 16.5189V19.472C121.072 19.683 121.09 19.9076 121.125 20.1459C121.164 20.3842 121.221 20.5892 121.295 20.7611V20.8549H120.164C120.109 20.7299 120.066 20.5638 120.035 20.3568C120.004 20.1459 119.988 19.9506 119.988 19.7709ZM120.176 17.0111L120.188 17.7728H119.092C118.783 17.7728 118.508 17.7982 118.266 17.849C118.023 17.8959 117.82 17.9681 117.656 18.0658C117.492 18.1635 117.367 18.2865 117.281 18.4349C117.195 18.5795 117.152 18.7494 117.152 18.9447C117.152 19.1439 117.197 19.3256 117.287 19.4896C117.377 19.6537 117.512 19.7845 117.691 19.8822C117.875 19.976 118.1 20.0228 118.365 20.0228C118.697 20.0228 118.99 19.9525 119.244 19.8119C119.498 19.6713 119.699 19.4994 119.848 19.2963C120 19.0931 120.082 18.8959 120.094 18.7045L120.557 19.226C120.529 19.39 120.455 19.5717 120.334 19.7709C120.213 19.9701 120.051 20.1615 119.848 20.3451C119.648 20.5248 119.41 20.6752 119.133 20.7963C118.859 20.9135 118.551 20.972 118.207 20.972C117.777 20.972 117.4 20.8881 117.076 20.7201C116.756 20.5521 116.506 20.3275 116.326 20.0463C116.15 19.7611 116.062 19.4427 116.062 19.0912C116.062 18.7513 116.129 18.4525 116.262 18.1947C116.395 17.933 116.586 17.7162 116.836 17.5443C117.086 17.3685 117.387 17.2357 117.738 17.1459C118.09 17.056 118.482 17.0111 118.916 17.0111H120.176ZM123.955 11.8549V20.8549H122.865V11.8549H123.955Z" fill="#9291A5"/>
<path d="M19.7285 18.6986C19.7285 18.4994 19.6973 18.3236 19.6348 18.1713C19.5762 18.015 19.4707 17.8744 19.3184 17.7494C19.1699 17.6244 18.9629 17.5052 18.6973 17.392C18.4355 17.2787 18.1035 17.1635 17.7012 17.0463C17.2793 16.9213 16.8984 16.7826 16.5586 16.6302C16.2188 16.474 15.9277 16.2963 15.6855 16.097C15.4434 15.8978 15.2578 15.6693 15.1289 15.4115C15 15.1537 14.9355 14.8588 14.9355 14.5267C14.9355 14.1947 15.0039 13.8881 15.1406 13.6068C15.2773 13.3256 15.4727 13.0814 15.7266 12.8744C15.9844 12.6635 16.291 12.4994 16.6465 12.3822C17.002 12.265 17.3984 12.2064 17.8359 12.2064C18.4766 12.2064 19.0195 12.3295 19.4648 12.5756C19.9141 12.8177 20.2559 13.1361 20.4902 13.5306C20.7246 13.9213 20.8418 14.3392 20.8418 14.7845H19.7168C19.7168 14.4642 19.6484 14.181 19.5117 13.9349C19.375 13.6849 19.168 13.4896 18.8906 13.349C18.6133 13.2045 18.2617 13.1322 17.8359 13.1322C17.4336 13.1322 17.1016 13.1927 16.8398 13.3138C16.5781 13.4349 16.3828 13.599 16.2539 13.806C16.1289 14.0131 16.0664 14.2494 16.0664 14.515C16.0664 14.6947 16.1035 14.8588 16.1777 15.0072C16.2559 15.1517 16.375 15.2865 16.5352 15.4115C16.6992 15.5365 16.9062 15.6517 17.1562 15.7572C17.4102 15.8627 17.7129 15.9642 18.0645 16.0619C18.5488 16.1986 18.9668 16.351 19.3184 16.5189C19.6699 16.6869 19.959 16.8763 20.1855 17.0873C20.416 17.2943 20.5859 17.5306 20.6953 17.7963C20.8086 18.058 20.8652 18.3549 20.8652 18.6869C20.8652 19.0345 20.7949 19.349 20.6543 19.6302C20.5137 19.9115 20.3125 20.1517 20.0508 20.351C19.7891 20.5502 19.4746 20.7045 19.1074 20.8138C18.7441 20.9193 18.3379 20.972 17.8887 20.972C17.4941 20.972 17.1055 20.9174 16.7227 20.808C16.3438 20.6986 15.998 20.5345 15.6855 20.3158C15.377 20.097 15.1289 19.8275 14.9414 19.5072C14.7578 19.183 14.666 18.808 14.666 18.3822H15.791C15.791 18.6752 15.8477 18.9271 15.9609 19.1381C16.0742 19.3451 16.2285 19.517 16.4238 19.6537C16.623 19.7904 16.8477 19.892 17.0977 19.9584C17.3516 20.0209 17.6152 20.0521 17.8887 20.0521C18.2832 20.0521 18.6172 19.9974 18.8906 19.8881C19.1641 19.7787 19.3711 19.6224 19.5117 19.4193C19.6562 19.2162 19.7285 18.976 19.7285 18.6986ZM24.7734 20.972C24.332 20.972 23.9316 20.8978 23.5723 20.7494C23.2168 20.597 22.9102 20.3842 22.6523 20.1107C22.3984 19.8373 22.2031 19.5131 22.0664 19.1381C21.9297 18.7631 21.8613 18.3529 21.8613 17.9076V17.6615C21.8613 17.1459 21.9375 16.6869 22.0898 16.2845C22.2422 15.8783 22.4492 15.5345 22.7109 15.2533C22.9727 14.972 23.2695 14.7592 23.6016 14.6146C23.9336 14.4701 24.2773 14.3978 24.6328 14.3978C25.0859 14.3978 25.4766 14.476 25.8047 14.6322C26.1367 14.7885 26.4082 15.0072 26.6191 15.2885C26.8301 15.5658 26.9863 15.8939 27.0879 16.2728C27.1895 16.6478 27.2402 17.058 27.2402 17.5033V17.9896H22.5059V17.1049H26.1562V17.0228C26.1406 16.7416 26.082 16.4681 25.9805 16.2025C25.8828 15.9369 25.7266 15.7181 25.5117 15.5463C25.2969 15.3744 25.0039 15.2885 24.6328 15.2885C24.3867 15.2885 24.1602 15.3412 23.9531 15.4467C23.7461 15.5482 23.5684 15.7006 23.4199 15.9037C23.2715 16.1068 23.1562 16.3549 23.0742 16.6478C22.9922 16.9408 22.9512 17.2787 22.9512 17.6615V17.9076C22.9512 18.2084 22.9922 18.4916 23.0742 18.7572C23.1602 19.0189 23.2832 19.2494 23.4434 19.4486C23.6074 19.6478 23.8047 19.8041 24.0352 19.9174C24.2695 20.0306 24.5352 20.0873 24.832 20.0873C25.2148 20.0873 25.5391 20.0092 25.8047 19.8529C26.0703 19.6967 26.3027 19.4877 26.502 19.226L27.1582 19.7474C27.0215 19.9545 26.8477 20.1517 26.6367 20.3392C26.4258 20.5267 26.166 20.6791 25.8574 20.7963C25.5527 20.9135 25.1914 20.972 24.7734 20.972ZM29.584 15.7748V20.8549H28.4941V14.515H29.5254L29.584 15.7748ZM29.3613 17.4447L28.8574 17.4271C28.8613 16.9935 28.918 16.5931 29.0273 16.226C29.1367 15.8549 29.2988 15.5326 29.5137 15.2592C29.7285 14.9857 29.9961 14.7748 30.3164 14.6263C30.6367 14.474 31.0078 14.3978 31.4297 14.3978C31.7266 14.3978 32 14.4408 32.25 14.5267C32.5 14.6088 32.7168 14.7396 32.9004 14.9193C33.084 15.099 33.2266 15.3295 33.3281 15.6107C33.4297 15.892 33.4805 16.2318 33.4805 16.6302V20.8549H32.3965V16.683C32.3965 16.351 32.3398 16.0853 32.2266 15.8861C32.1172 15.6869 31.9609 15.5424 31.7578 15.4525C31.5547 15.3588 31.3164 15.3119 31.043 15.3119C30.7227 15.3119 30.4551 15.3685 30.2402 15.4818C30.0254 15.5951 29.8535 15.7513 29.7246 15.9506C29.5957 16.1498 29.502 16.3783 29.4434 16.6361C29.3887 16.89 29.3613 17.1595 29.3613 17.4447ZM33.4688 16.847L32.7422 17.0697C32.7461 16.722 32.8027 16.3881 32.9121 16.0677C33.0254 15.7474 33.1875 15.4623 33.3984 15.2123C33.6133 14.9623 33.877 14.765 34.1895 14.6205C34.502 14.472 34.8594 14.3978 35.2617 14.3978C35.6016 14.3978 35.9023 14.4427 36.1641 14.5326C36.4297 14.6224 36.6523 14.7611 36.832 14.9486C37.0156 15.1322 37.1543 15.3685 37.248 15.6576C37.3418 15.9467 37.3887 16.2904 37.3887 16.6888V20.8549H36.2988V16.6771C36.2988 16.3217 36.2422 16.0463 36.1289 15.851C36.0195 15.6517 35.8633 15.5131 35.6602 15.4349C35.4609 15.3529 35.2227 15.3119 34.9453 15.3119C34.707 15.3119 34.4961 15.3529 34.3125 15.4349C34.1289 15.517 33.9746 15.6302 33.8496 15.7748C33.7246 15.9154 33.6289 16.0775 33.5625 16.2611C33.5 16.4447 33.4688 16.64 33.4688 16.847ZM42.7676 19.7709V16.5072C42.7676 16.2572 42.7168 16.0404 42.6152 15.8568C42.5176 15.6693 42.3691 15.5248 42.1699 15.4232C41.9707 15.3217 41.7246 15.2709 41.4316 15.2709C41.1582 15.2709 40.918 15.3177 40.7109 15.4115C40.5078 15.5052 40.3477 15.6283 40.2305 15.7806C40.1172 15.933 40.0605 16.097 40.0605 16.2728H38.9766C38.9766 16.0463 39.0352 15.8217 39.1523 15.599C39.2695 15.3763 39.4375 15.1752 39.6562 14.9955C39.8789 14.8119 40.1445 14.6674 40.4531 14.5619C40.7656 14.4525 41.1133 14.3978 41.4961 14.3978C41.957 14.3978 42.3633 14.476 42.7148 14.6322C43.0703 14.7885 43.3477 15.0248 43.5469 15.3412C43.75 15.6537 43.8516 16.0463 43.8516 16.5189V19.472C43.8516 19.683 43.8691 19.9076 43.9043 20.1459C43.9434 20.3842 44 20.5892 44.0742 20.7611V20.8549H42.9434C42.8887 20.7299 42.8457 20.5638 42.8145 20.3568C42.7832 20.1459 42.7676 19.9506 42.7676 19.7709ZM42.9551 17.0111L42.9668 17.7728H41.8711C41.5625 17.7728 41.2871 17.7982 41.0449 17.849C40.8027 17.8959 40.5996 17.9681 40.4355 18.0658C40.2715 18.1635 40.1465 18.2865 40.0605 18.4349C39.9746 18.5795 39.9316 18.7494 39.9316 18.9447C39.9316 19.1439 39.9766 19.3256 40.0664 19.4896C40.1562 19.6537 40.291 19.7845 40.4707 19.8822C40.6543 19.976 40.8789 20.0228 41.1445 20.0228C41.4766 20.0228 41.7695 19.9525 42.0234 19.8119C42.2773 19.6713 42.4785 19.4994 42.627 19.2963C42.7793 19.0931 42.8613 18.8959 42.873 18.7045L43.3359 19.226C43.3086 19.39 43.2344 19.5717 43.1133 19.7709C42.9922 19.9701 42.8301 20.1615 42.627 20.3451C42.4277 20.5248 42.1895 20.6752 41.9121 20.7963C41.6387 20.9135 41.3301 20.972 40.9863 20.972C40.5566 20.972 40.1797 20.8881 39.8555 20.7201C39.5352 20.5521 39.2852 20.3275 39.1055 20.0463C38.9297 19.7611 38.8418 19.4427 38.8418 19.0912C38.8418 18.7513 38.9082 18.4525 39.041 18.1947C39.1738 17.933 39.3652 17.7162 39.6152 17.5443C39.8652 17.3685 40.166 17.2357 40.5176 17.1459C40.8691 17.056 41.2617 17.0111 41.6953 17.0111H42.9551ZM46.6406 15.8685V20.8549H45.5566V14.515H46.582L46.6406 15.8685ZM46.3828 17.4447L45.9316 17.4271C45.9355 16.9935 46 16.5931 46.125 16.226C46.25 15.8549 46.4258 15.5326 46.6523 15.2592C46.8789 14.9857 47.1484 14.7748 47.4609 14.6263C47.7773 14.474 48.127 14.3978 48.5098 14.3978C48.8223 14.3978 49.1035 14.4408 49.3535 14.5267C49.6035 14.6088 49.8164 14.7416 49.9922 14.9252C50.1719 15.1088 50.3086 15.347 50.4023 15.64C50.4961 15.9291 50.543 16.2826 50.543 16.7006V20.8549H49.4531V16.6888C49.4531 16.3568 49.4043 16.0912 49.3066 15.892C49.209 15.6888 49.0664 15.5424 48.8789 15.4525C48.6914 15.3588 48.4609 15.3119 48.1875 15.3119C47.918 15.3119 47.6719 15.3685 47.4492 15.4818C47.2305 15.5951 47.041 15.7513 46.8809 15.9506C46.7246 16.1498 46.6016 16.3783 46.5117 16.6361C46.4258 16.89 46.3828 17.1595 46.3828 17.4447ZM55.9277 19.7709V16.5072C55.9277 16.2572 55.877 16.0404 55.7754 15.8568C55.6777 15.6693 55.5293 15.5248 55.3301 15.4232C55.1309 15.3217 54.8848 15.2709 54.5918 15.2709C54.3184 15.2709 54.0781 15.3177 53.8711 15.4115C53.668 15.5052 53.5078 15.6283 53.3906 15.7806C53.2773 15.933 53.2207 16.097 53.2207 16.2728H52.1367C52.1367 16.0463 52.1953 15.8217 52.3125 15.599C52.4297 15.3763 52.5977 15.1752 52.8164 14.9955C53.0391 14.8119 53.3047 14.6674 53.6133 14.5619C53.9258 14.4525 54.2734 14.3978 54.6562 14.3978C55.1172 14.3978 55.5234 14.476 55.875 14.6322C56.2305 14.7885 56.5078 15.0248 56.707 15.3412C56.9102 15.6537 57.0117 16.0463 57.0117 16.5189V19.472C57.0117 19.683 57.0293 19.9076 57.0645 20.1459C57.1035 20.3842 57.1602 20.5892 57.2344 20.7611V20.8549H56.1035C56.0488 20.7299 56.0059 20.5638 55.9746 20.3568C55.9434 20.1459 55.9277 19.9506 55.9277 19.7709ZM56.1152 17.0111L56.127 17.7728H55.0312C54.7227 17.7728 54.4473 17.7982 54.2051 17.849C53.9629 17.8959 53.7598 17.9681 53.5957 18.0658C53.4316 18.1635 53.3066 18.2865 53.2207 18.4349C53.1348 18.5795 53.0918 18.7494 53.0918 18.9447C53.0918 19.1439 53.1367 19.3256 53.2266 19.4896C53.3164 19.6537 53.4512 19.7845 53.6309 19.8822C53.8145 19.976 54.0391 20.0228 54.3047 20.0228C54.6367 20.0228 54.9297 19.9525 55.1836 19.8119C55.4375 19.6713 55.6387 19.4994 55.7871 19.2963C55.9395 19.0931 56.0215 18.8959 56.0332 18.7045L56.4961 19.226C56.4688 19.39 56.3945 19.5717 56.2734 19.7709C56.1523 19.9701 55.9902 20.1615 55.7871 20.3451C55.5879 20.5248 55.3496 20.6752 55.0723 20.7963C54.7988 20.9135 54.4902 20.972 54.1465 20.972C53.7168 20.972 53.3398 20.8881 53.0156 20.7201C52.6953 20.5521 52.4453 20.3275 52.2656 20.0463C52.0898 19.7611 52.002 19.4427 52.002 19.0912C52.002 18.7513 52.0684 18.4525 52.2012 18.1947C52.334 17.933 52.5254 17.7162 52.7754 17.5443C53.0254 17.3685 53.3262 17.2357 53.6777 17.1459C54.0293 17.056 54.4219 17.0111 54.8555 17.0111H56.1152ZM59.8945 11.8549V20.8549H58.8047V11.8549H59.8945Z" fill="#9291A5"/>
<defs>
<filter id="filter0_d_268_1186" x="0" y="0" width="216" height="37.5795" filterUnits="userSpaceOnUse" color-interpolation-filters="sRGB">
<feFlood flood-opacity="0" result="BackgroundImageFix"/>
<feColorMatrix in="SourceAlpha" type="matrix" values="0 0 0 0 0 0 0 0 0 0 0 0 0 0 0 0 0 0 127 0" result="hardAlpha"/>
<feOffset dy="4"/>
<feGaussianBlur stdDeviation="2"/>
<feComposite in2="hardAlpha" operator="out"/>
<feColorMatrix type="matrix" values="0 0 0 0 0 0 0 0 0 0 0 0 0 0 0 0 0 0 0.25 0"/>
<feBlend mode="normal" in2="BackgroundImageFix" result="effect1_dropShadow_268_1186"/>
<feBlend mode="normal" in="SourceGraphic" in2="effect1_dropShadow_268_1186" result="shape"/>
</filter>
<filter id="filter1_d_268_1186" x="136.976" y="5.6781" width="69.7236" height="27.0516" filterUnits="userSpaceOnUse" color-interpolation-filters="sRGB">
<feFlood flood-opacity="0" result="BackgroundImageFix"/>
<feColorMatrix in="SourceAlpha" type="matrix" values="0 0 0 0 0 0 0 0 0 0 0 0 0 0 0 0 0 0 127 0" result="hardAlpha"/>
<feOffset dy="4"/>
<feGaussianBlur stdDeviation="2"/>
<feComposite in2="hardAlpha" operator="out"/>
<feColorMatrix type="matrix" values="0 0 0 0 0 0 0 0 0 0 0 0 0 0 0 0 0 0 0.25 0"/>
<feBlend mode="normal" in2="BackgroundImageFix" result="effect1_dropShadow_268_1186"/>
<feBlend mode="normal" in="SourceGraphic" in2="effect1_dropShadow_268_1186" result="shape"/>
</filter>
</defs>
</svg>
