<svg width="328" height="353" viewBox="0 0 328 353" fill="none" xmlns="http://www.w3.org/2000/svg">
<rect width="328" height="353" rx="12" fill="white"/>
<path fill-rule="evenodd" clip-rule="evenodd" d="M165.293 103C217.598 103 263.622 136.3 278.402 184.756C293.168 233.163 273.254 285.214 229.416 312.673C185.94 339.904 129.239 336.491 89.6125 304.427L88.417 303.446L115.672 273.199C141.304 294.501 178.314 296.925 206.663 279.169C235.088 261.365 248.041 227.506 238.431 196.001C228.932 164.86 199.651 143.432 166.304 143.006L165.293 143V103Z" fill="#14213D"/>
<path fill-rule="evenodd" clip-rule="evenodd" d="M164.521 103H163.479V143H164.521V103ZM159.472 103.103L158.432 103.145L160.201 143.109L161.241 143.067L159.472 103.103ZM154.431 103.412L153.394 103.497L156.934 143.352L157.971 143.267L154.431 103.412ZM149.391 103.93L148.358 104.057L153.673 143.73L154.706 143.603L149.391 103.93ZM144.377 104.655L143.351 104.825L150.434 144.242L151.46 144.072L144.377 104.655ZM139.431 105.579L138.413 105.791L147.241 144.882L148.258 144.67L139.431 105.579ZM134.499 106.713L133.492 106.967L144.059 145.658L145.066 145.405L134.499 106.713ZM129.631 108.047L128.636 108.342L140.919 146.563L141.914 146.268L129.631 108.047ZM124.817 109.583L123.836 109.919L137.816 147.599L138.797 147.263L124.817 109.583ZM120.073 111.318L119.108 111.694L134.757 148.763L135.722 148.387L120.073 111.318ZM115.476 113.217L114.529 113.632L131.794 150.033L132.742 149.619L115.476 113.217ZM110.913 115.328L109.985 115.781L128.853 151.441L129.782 150.988L110.913 115.328ZM106.454 117.62L105.546 118.111L125.98 152.966L126.887 152.476L106.454 117.62ZM102.096 120.095L101.212 120.622L123.173 154.61L124.058 154.083L102.096 120.095ZM97.855 122.744L96.9944 123.307L120.442 156.367L121.303 155.804L97.855 122.744ZM93.728 125.569L92.8931 126.167L117.786 158.237L118.621 157.639L93.728 125.569ZM89.7353 128.557L88.9277 129.188L115.219 160.212L116.027 159.581L89.7353 128.557ZM85.8689 131.713L85.09 132.376L112.735 162.295L113.514 161.632L85.8689 131.713ZM82.1478 135.023L81.3992 135.718L110.347 164.477L111.096 163.782L82.1478 135.023ZM78.6012 138.458L77.8839 139.182L108.074 166.739L108.791 166.014L78.6012 138.458ZM75.2541 141.984L74.5689 142.737L105.932 169.058L106.617 168.305L75.2541 141.984ZM72.0116 145.705L71.3604 146.485L103.86 171.502L104.511 170.722L72.0116 145.705ZM68.9329 149.559L68.3168 150.365L101.895 174.031L102.511 173.225L68.9329 149.559ZM66.0279 153.535L65.4481 154.365L100.045 176.638L100.624 175.808L66.0279 153.535ZM63.3006 157.628L62.7581 158.481L98.3102 179.32L98.8526 178.466L63.3006 157.628ZM60.755 161.832L60.2509 162.707L96.6941 182.074L97.1983 181.199L60.755 161.832ZM58.4031 166.126L57.9381 167.021L95.2037 184.886L95.6687 183.991L58.4031 166.126ZM56.2393 170.52L55.8141 171.433L93.8349 187.765L94.26 186.852L56.2393 170.52ZM54.2738 174.991L53.8891 175.92L92.5939 190.696L92.9785 189.767L54.2738 174.991ZM52.5067 179.536L52.1631 180.48L91.481 193.679L91.8246 192.735L52.5067 179.536ZM50.9435 184.14L50.6416 185.097L90.5028 196.696L90.8048 195.739L50.9435 184.14ZM49.5817 188.809L49.3221 189.777L89.6579 199.749L89.9174 198.781L49.5817 188.809ZM48.4265 193.53L48.2098 194.508L88.9487 202.833L89.1654 201.855L48.4265 193.53ZM47.4784 198.305L47.3051 199.291L88.3751 205.948L88.5484 204.962L47.4784 198.305ZM46.746 203.085L46.6162 204.078L87.9421 209.064L88.0719 208.072L46.746 203.085ZM46.2223 207.915L46.1364 208.911L87.6453 212.211L87.7312 211.214L46.2223 207.915ZM45.9118 212.77L45.8701 213.769L87.4874 215.373L87.5291 214.373L45.9118 212.77ZM45.8162 217.627L45.8186 218.627L87.4692 218.535L87.4669 217.535L45.8162 217.627ZM45.9351 222.488L45.9816 223.487L87.5908 221.7L87.5443 220.701L45.9351 222.488ZM46.2629 227.279L46.3529 228.276L87.8478 224.819L87.7579 223.822L46.2629 227.279ZM46.8047 232.095L46.9383 233.087L88.2446 227.953L88.1109 226.961L46.8047 232.095ZM47.5593 236.895L47.7364 237.881L88.7799 231.075L88.6028 230.09L47.5593 236.895ZM48.5252 241.664L48.7456 242.642L89.4529 234.176L89.2325 233.199L48.5252 241.664ZM49.6975 246.38L49.9606 247.348L90.2598 237.241L89.9967 236.273L49.6975 246.38ZM51.0809 251.06L51.3864 252.016L91.204 240.28L90.8985 239.324L51.0809 251.06ZM52.6672 255.673L53.0146 256.616L92.2796 243.273L91.9323 242.33L52.6672 255.673ZM54.457 260.222L54.8456 261.15L93.4868 246.221L93.0982 245.293L54.457 260.222ZM56.4485 264.7L56.8778 265.611L94.8242 249.12L94.395 248.209L56.4485 264.7ZM58.6048 269.032L59.0734 269.925L96.2668 251.921L95.7981 251.028L58.6048 269.032ZM60.9448 273.267L61.452 274.14L97.8273 254.656L97.3201 253.783L60.9448 273.267ZM63.5019 277.458L64.0473 278.31L99.5277 257.359L98.9823 256.507L63.5019 277.458ZM66.2408 281.539L66.8234 282.368L101.344 259.987L100.762 259.158L66.2408 281.539ZM69.1578 285.504L69.7766 286.308L103.275 262.538L102.656 261.734L69.1578 285.504ZM72.2546 289.355L72.9086 290.133L105.321 265.012L104.667 264.234L72.2546 289.355ZM75.5164 293.071L76.2043 293.822L107.473 267.398L106.785 266.648L75.5164 293.071ZM78.9383 296.65L79.6588 297.372L109.729 269.694L109.009 268.972L78.9383 296.65ZM82.5152 300.085L83.267 300.777L112.086 271.897L111.334 271.206L82.5152 300.085ZM86.242 303.372L87.0236 304.033L114.542 274.006L113.76 273.345L86.242 303.372Z" fill="#14213D"/>
<path d="M131.871 232.352C129.906 232.352 128.028 232.029 126.239 231.384C124.45 230.739 122.924 229.815 121.663 228.612L122.763 226.412C124.171 227.615 125.608 228.495 127.075 229.052C128.571 229.609 130.17 229.888 131.871 229.888C134.159 229.888 135.963 229.228 137.283 227.908C138.603 226.588 139.263 224.872 139.263 222.76C139.263 220.56 138.632 218.756 137.371 217.348C136.11 215.911 134.379 215.192 132.179 215.192C129.011 215.192 126.547 216.541 124.787 219.24H122.675V200.98H140.143V203.356H125.359V215.72C126.18 214.781 127.207 214.048 128.439 213.52C129.671 212.992 131.035 212.728 132.531 212.728C134.467 212.728 136.139 213.139 137.547 213.96C138.955 214.781 140.04 215.94 140.803 217.436C141.595 218.903 141.991 220.604 141.991 222.54C141.991 224.476 141.58 226.177 140.759 227.644C139.938 229.111 138.764 230.269 137.239 231.12C135.743 231.941 133.954 232.352 131.871 232.352ZM157.418 232.352C153.986 232.352 151.317 231.619 149.41 230.152C147.503 228.656 146.55 226.559 146.55 223.86C146.55 221.895 147.093 220.237 148.178 218.888C149.263 217.509 150.701 216.6 152.49 216.16C150.877 215.603 149.601 214.664 148.662 213.344C147.753 212.024 147.298 210.513 147.298 208.812C147.298 206.231 148.207 204.221 150.026 202.784C151.874 201.347 154.338 200.628 157.418 200.628C160.498 200.628 162.947 201.347 164.766 202.784C166.614 204.221 167.538 206.231 167.538 208.812C167.538 210.513 167.069 212.024 166.13 213.344C165.221 214.664 163.959 215.603 162.346 216.16C164.135 216.629 165.573 217.539 166.658 218.888C167.743 220.237 168.286 221.895 168.286 223.86C168.286 226.559 167.333 228.656 165.426 230.152C163.519 231.619 160.85 232.352 157.418 232.352ZM157.418 215.104C159.735 215.104 161.554 214.561 162.874 213.476C164.194 212.391 164.854 210.895 164.854 208.988C164.854 207.081 164.194 205.6 162.874 204.544C161.554 203.488 159.735 202.96 157.418 202.96C155.101 202.96 153.282 203.488 151.962 204.544C150.642 205.6 149.982 207.081 149.982 208.988C149.982 210.895 150.642 212.391 151.962 213.476C153.282 214.561 155.101 215.104 157.418 215.104ZM157.418 230.02C162.845 230.02 165.558 227.923 165.558 223.728C165.558 219.563 162.845 217.48 157.418 217.48C151.991 217.48 149.278 219.563 149.278 223.728C149.278 227.923 151.991 230.02 157.418 230.02ZM182.745 233.012L180.765 231.868L199.025 199.968L201.049 201.112L182.745 233.012ZM180.589 219.592C178.33 219.592 176.541 218.771 175.221 217.128C173.93 215.485 173.285 213.139 173.285 210.088C173.285 207.096 173.93 204.779 175.221 203.136C176.541 201.464 178.33 200.628 180.589 200.628C182.847 200.628 184.637 201.464 185.957 203.136C187.277 204.779 187.937 207.096 187.937 210.088C187.937 213.109 187.277 215.456 185.957 217.128C184.666 218.771 182.877 219.592 180.589 219.592ZM180.589 217.524C182.114 217.524 183.302 216.893 184.153 215.632C185.033 214.371 185.473 212.523 185.473 210.088C185.473 207.683 185.033 205.864 184.153 204.632C183.302 203.371 182.114 202.74 180.589 202.74C179.093 202.74 177.905 203.371 177.025 204.632C176.174 205.864 175.749 207.683 175.749 210.088C175.749 212.552 176.174 214.415 177.025 215.676C177.905 216.908 179.093 217.524 180.589 217.524ZM201.181 232.352C198.922 232.352 197.133 231.531 195.813 229.888C194.522 228.245 193.877 225.899 193.877 222.848C193.877 219.856 194.522 217.539 195.813 215.896C197.133 214.224 198.922 213.388 201.181 213.388C203.469 213.388 205.258 214.224 206.549 215.896C207.869 217.539 208.529 219.856 208.529 222.848C208.529 225.869 207.869 228.216 206.549 229.888C205.258 231.531 203.469 232.352 201.181 232.352ZM201.181 230.284C202.706 230.284 203.894 229.668 204.745 228.436C205.625 227.175 206.065 225.312 206.065 222.848C206.065 220.443 205.625 218.624 204.745 217.392C203.894 216.131 202.706 215.5 201.181 215.5C199.685 215.5 198.497 216.131 197.617 217.392C196.766 218.624 196.341 220.443 196.341 222.848C196.341 225.312 196.766 227.175 197.617 228.436C198.497 229.668 199.685 230.284 201.181 230.284Z" fill="black"/>
<path d="M108.266 69.2969H110.219C110.156 70.0417 109.948 70.7057 109.594 71.2891C109.24 71.8672 108.742 72.3229 108.102 72.6562C107.461 72.9896 106.682 73.1562 105.766 73.1562C105.062 73.1562 104.43 73.0312 103.867 72.7812C103.305 72.526 102.823 72.1667 102.422 71.7031C102.021 71.2344 101.714 70.6693 101.5 70.0078C101.292 69.3464 101.188 68.6068 101.188 67.7891V66.8438C101.188 66.026 101.294 65.2865 101.508 64.625C101.727 63.9635 102.039 63.3984 102.445 62.9297C102.852 62.4557 103.339 62.0938 103.906 61.8438C104.479 61.5938 105.122 61.4688 105.836 61.4688C106.742 61.4688 107.508 61.6354 108.133 61.9688C108.758 62.3021 109.242 62.763 109.586 63.3516C109.935 63.9401 110.148 64.6146 110.227 65.375H108.273C108.221 64.8854 108.107 64.4661 107.93 64.1172C107.758 63.7682 107.503 63.5026 107.164 63.3203C106.826 63.1328 106.383 63.0391 105.836 63.0391C105.388 63.0391 104.997 63.1224 104.664 63.2891C104.331 63.4557 104.052 63.7005 103.828 64.0234C103.604 64.3464 103.435 64.7448 103.32 65.2188C103.211 65.6875 103.156 66.224 103.156 66.8281V67.7891C103.156 68.362 103.206 68.8828 103.305 69.3516C103.409 69.8151 103.565 70.2135 103.773 70.5469C103.987 70.8802 104.258 71.138 104.586 71.3203C104.914 71.5026 105.307 71.5938 105.766 71.5938C106.323 71.5938 106.773 71.5052 107.117 71.3281C107.466 71.151 107.729 70.8932 107.906 70.5547C108.089 70.2109 108.208 69.7917 108.266 69.2969ZM116.578 71.3047V67.2734C116.578 66.9714 116.523 66.7109 116.414 66.4922C116.305 66.2734 116.138 66.1042 115.914 65.9844C115.695 65.8646 115.419 65.8047 115.086 65.8047C114.779 65.8047 114.513 65.8568 114.289 65.9609C114.065 66.0651 113.891 66.2057 113.766 66.3828C113.641 66.5599 113.578 66.7604 113.578 66.9844H111.703C111.703 66.651 111.784 66.3281 111.945 66.0156C112.107 65.7031 112.341 65.4245 112.648 65.1797C112.956 64.9349 113.323 64.7422 113.75 64.6016C114.177 64.4609 114.656 64.3906 115.188 64.3906C115.823 64.3906 116.385 64.4974 116.875 64.7109C117.37 64.9245 117.758 65.2474 118.039 65.6797C118.326 66.1068 118.469 66.6432 118.469 67.2891V71.0469C118.469 71.4323 118.495 71.7786 118.547 72.0859C118.604 72.388 118.685 72.651 118.789 72.875V73H116.859C116.771 72.7969 116.701 72.5391 116.648 72.2266C116.602 71.9089 116.578 71.6016 116.578 71.3047ZM116.852 67.8594L116.867 69.0234H115.516C115.167 69.0234 114.859 69.0573 114.594 69.125C114.328 69.1875 114.107 69.2812 113.93 69.4062C113.753 69.5312 113.62 69.6823 113.531 69.8594C113.443 70.0365 113.398 70.237 113.398 70.4609C113.398 70.6849 113.451 70.8906 113.555 71.0781C113.659 71.2604 113.81 71.4036 114.008 71.5078C114.211 71.612 114.456 71.6641 114.742 71.6641C115.128 71.6641 115.464 71.5859 115.75 71.4297C116.042 71.2682 116.271 71.0729 116.438 70.8438C116.604 70.6094 116.693 70.388 116.703 70.1797L117.312 71.0156C117.25 71.2292 117.143 71.4583 116.992 71.7031C116.841 71.9479 116.643 72.1823 116.398 72.4062C116.159 72.625 115.87 72.8047 115.531 72.9453C115.198 73.0859 114.812 73.1562 114.375 73.1562C113.823 73.1562 113.331 73.0469 112.898 72.8281C112.466 72.6042 112.128 72.3047 111.883 71.9297C111.638 71.5495 111.516 71.1198 111.516 70.6406C111.516 70.1927 111.599 69.7969 111.766 69.4531C111.938 69.1042 112.188 68.8125 112.516 68.5781C112.849 68.3438 113.255 68.1667 113.734 68.0469C114.214 67.9219 114.76 67.8594 115.375 67.8594H116.852ZM122.328 66.1562V73H120.445V64.5469H122.242L122.328 66.1562ZM124.914 64.4922L124.898 66.2422C124.784 66.2214 124.659 66.2057 124.523 66.1953C124.393 66.1849 124.263 66.1797 124.133 66.1797C123.81 66.1797 123.526 66.2266 123.281 66.3203C123.036 66.4089 122.831 66.5391 122.664 66.7109C122.503 66.8776 122.378 67.0807 122.289 67.3203C122.201 67.5599 122.148 67.8281 122.133 68.125L121.703 68.1562C121.703 67.625 121.755 67.1328 121.859 66.6797C121.964 66.2266 122.12 65.8281 122.328 65.4844C122.542 65.1406 122.807 64.8724 123.125 64.6797C123.448 64.487 123.82 64.3906 124.242 64.3906C124.357 64.3906 124.479 64.401 124.609 64.4219C124.745 64.4427 124.846 64.4661 124.914 64.4922ZM131.352 64.5469H133.062V72.7656C133.062 73.526 132.901 74.1719 132.578 74.7031C132.255 75.2344 131.805 75.638 131.227 75.9141C130.648 76.1953 129.979 76.3359 129.219 76.3359C128.896 76.3359 128.536 76.2891 128.141 76.1953C127.75 76.1016 127.37 75.9505 127 75.7422C126.635 75.5391 126.331 75.2708 126.086 74.9375L126.969 73.8281C127.271 74.1875 127.604 74.4505 127.969 74.6172C128.333 74.7839 128.716 74.8672 129.117 74.8672C129.549 74.8672 129.917 74.7865 130.219 74.625C130.526 74.4688 130.763 74.237 130.93 73.9297C131.096 73.6224 131.18 73.2474 131.18 72.8047V66.4609L131.352 64.5469ZM125.609 68.8672V68.7031C125.609 68.0625 125.688 67.4792 125.844 66.9531C126 66.4219 126.224 65.9661 126.516 65.5859C126.807 65.2005 127.161 64.9062 127.578 64.7031C127.995 64.4948 128.466 64.3906 128.992 64.3906C129.539 64.3906 130.005 64.4896 130.391 64.6875C130.781 64.8854 131.107 65.1693 131.367 65.5391C131.628 65.9036 131.831 66.3411 131.977 66.8516C132.128 67.3568 132.24 67.9193 132.312 68.5391V69.0625C132.245 69.6667 132.13 70.2188 131.969 70.7188C131.807 71.2188 131.594 71.651 131.328 72.0156C131.062 72.3802 130.734 72.6615 130.344 72.8594C129.958 73.0573 129.503 73.1562 128.977 73.1562C128.461 73.1562 127.995 73.0495 127.578 72.8359C127.167 72.6224 126.812 72.3229 126.516 71.9375C126.224 71.5521 126 71.099 125.844 70.5781C125.688 70.0521 125.609 69.4818 125.609 68.8672ZM127.492 68.7031V68.8672C127.492 69.2526 127.529 69.612 127.602 69.9453C127.68 70.2786 127.797 70.5729 127.953 70.8281C128.115 71.0781 128.318 71.276 128.562 71.4219C128.812 71.5625 129.107 71.6328 129.445 71.6328C129.888 71.6328 130.25 71.5391 130.531 71.3516C130.818 71.1641 131.036 70.9115 131.188 70.5938C131.344 70.2708 131.453 69.9115 131.516 69.5156V68.1016C131.484 67.7943 131.419 67.5078 131.32 67.2422C131.227 66.9766 131.099 66.7448 130.938 66.5469C130.776 66.3438 130.573 66.1875 130.328 66.0781C130.083 65.9635 129.794 65.9062 129.461 65.9062C129.122 65.9062 128.828 65.9792 128.578 66.125C128.328 66.2708 128.122 66.4714 127.961 66.7266C127.805 66.9818 127.688 67.2786 127.609 67.6172C127.531 67.9557 127.492 68.3177 127.492 68.7031ZM139.781 71.3047V67.2734C139.781 66.9714 139.727 66.7109 139.617 66.4922C139.508 66.2734 139.341 66.1042 139.117 65.9844C138.898 65.8646 138.622 65.8047 138.289 65.8047C137.982 65.8047 137.716 65.8568 137.492 65.9609C137.268 66.0651 137.094 66.2057 136.969 66.3828C136.844 66.5599 136.781 66.7604 136.781 66.9844H134.906C134.906 66.651 134.987 66.3281 135.148 66.0156C135.31 65.7031 135.544 65.4245 135.852 65.1797C136.159 64.9349 136.526 64.7422 136.953 64.6016C137.38 64.4609 137.859 64.3906 138.391 64.3906C139.026 64.3906 139.589 64.4974 140.078 64.7109C140.573 64.9245 140.961 65.2474 141.242 65.6797C141.529 66.1068 141.672 66.6432 141.672 67.2891V71.0469C141.672 71.4323 141.698 71.7786 141.75 72.0859C141.807 72.388 141.888 72.651 141.992 72.875V73H140.062C139.974 72.7969 139.904 72.5391 139.852 72.2266C139.805 71.9089 139.781 71.6016 139.781 71.3047ZM140.055 67.8594L140.07 69.0234H138.719C138.37 69.0234 138.062 69.0573 137.797 69.125C137.531 69.1875 137.31 69.2812 137.133 69.4062C136.956 69.5312 136.823 69.6823 136.734 69.8594C136.646 70.0365 136.602 70.237 136.602 70.4609C136.602 70.6849 136.654 70.8906 136.758 71.0781C136.862 71.2604 137.013 71.4036 137.211 71.5078C137.414 71.612 137.659 71.6641 137.945 71.6641C138.331 71.6641 138.667 71.5859 138.953 71.4297C139.245 71.2682 139.474 71.0729 139.641 70.8438C139.807 70.6094 139.896 70.388 139.906 70.1797L140.516 71.0156C140.453 71.2292 140.346 71.4583 140.195 71.7031C140.044 71.9479 139.846 72.1823 139.602 72.4062C139.362 72.625 139.073 72.8047 138.734 72.9453C138.401 73.0859 138.016 73.1562 137.578 73.1562C137.026 73.1562 136.534 73.0469 136.102 72.8281C135.669 72.6042 135.331 72.3047 135.086 71.9297C134.841 71.5495 134.719 71.1198 134.719 70.6406C134.719 70.1927 134.802 69.7969 134.969 69.4531C135.141 69.1042 135.391 68.8125 135.719 68.5781C136.052 68.3438 136.458 68.1667 136.938 68.0469C137.417 67.9219 137.964 67.8594 138.578 67.8594H140.055ZM145.508 66.3516V73H143.625V64.5469H145.398L145.508 66.3516ZM145.172 68.4609L144.562 68.4531C144.568 67.8542 144.651 67.3047 144.812 66.8047C144.979 66.3047 145.208 65.875 145.5 65.5156C145.797 65.1562 146.151 64.8802 146.562 64.6875C146.974 64.4896 147.432 64.3906 147.938 64.3906C148.344 64.3906 148.711 64.4479 149.039 64.5625C149.372 64.6719 149.656 64.8516 149.891 65.1016C150.13 65.3516 150.312 65.6771 150.438 66.0781C150.562 66.474 150.625 66.9609 150.625 67.5391V73H148.734V67.5312C148.734 67.125 148.674 66.8047 148.555 66.5703C148.44 66.3307 148.271 66.1615 148.047 66.0625C147.828 65.9583 147.555 65.9062 147.227 65.9062C146.904 65.9062 146.615 65.974 146.359 66.1094C146.104 66.2448 145.888 66.4297 145.711 66.6641C145.539 66.8984 145.406 67.1693 145.312 67.4766C145.219 67.7839 145.172 68.112 145.172 68.4609ZM157.703 71.25V61H159.594V73H157.883L157.703 71.25ZM152.203 68.8672V68.7031C152.203 68.0625 152.279 67.4792 152.43 66.9531C152.581 66.4219 152.799 65.9661 153.086 65.5859C153.372 65.2005 153.721 64.9062 154.133 64.7031C154.544 64.4948 155.008 64.3906 155.523 64.3906C156.034 64.3906 156.482 64.4896 156.867 64.6875C157.253 64.8854 157.581 65.1693 157.852 65.5391C158.122 65.9036 158.339 66.3411 158.5 66.8516C158.661 67.3568 158.776 67.9193 158.844 68.5391V69.0625C158.776 69.6667 158.661 70.2188 158.5 70.7188C158.339 71.2188 158.122 71.651 157.852 72.0156C157.581 72.3802 157.25 72.6615 156.859 72.8594C156.474 73.0573 156.023 73.1562 155.508 73.1562C154.997 73.1562 154.536 73.0495 154.125 72.8359C153.719 72.6224 153.372 72.3229 153.086 71.9375C152.799 71.5521 152.581 71.099 152.43 70.5781C152.279 70.0521 152.203 69.4818 152.203 68.8672ZM154.086 68.7031V68.8672C154.086 69.2526 154.12 69.612 154.188 69.9453C154.26 70.2786 154.372 70.5729 154.523 70.8281C154.674 71.0781 154.87 71.276 155.109 71.4219C155.354 71.5625 155.646 71.6328 155.984 71.6328C156.411 71.6328 156.763 71.5391 157.039 71.3516C157.315 71.1641 157.531 70.9115 157.688 70.5938C157.849 70.2708 157.958 69.9115 158.016 69.5156V68.1016C157.984 67.7943 157.919 67.5078 157.82 67.2422C157.727 66.9766 157.599 66.7448 157.438 66.5469C157.276 66.3438 157.076 66.1875 156.836 66.0781C156.602 65.9635 156.323 65.9062 156 65.9062C155.656 65.9062 155.365 65.9792 155.125 66.125C154.885 66.2708 154.688 66.4714 154.531 66.7266C154.38 66.9818 154.268 67.2786 154.195 67.6172C154.122 67.9557 154.086 68.3177 154.086 68.7031ZM161.203 68.8672V68.6875C161.203 68.0781 161.292 67.513 161.469 66.9922C161.646 66.4661 161.901 66.0104 162.234 65.625C162.573 65.2344 162.984 64.9323 163.469 64.7188C163.958 64.5 164.51 64.3906 165.125 64.3906C165.745 64.3906 166.297 64.5 166.781 64.7188C167.271 64.9323 167.685 65.2344 168.023 65.625C168.362 66.0104 168.62 66.4661 168.797 66.9922C168.974 67.513 169.062 68.0781 169.062 68.6875V68.8672C169.062 69.4766 168.974 70.0417 168.797 70.5625C168.62 71.0833 168.362 71.5391 168.023 71.9297C167.685 72.3151 167.273 72.6172 166.789 72.8359C166.305 73.0495 165.755 73.1562 165.141 73.1562C164.521 73.1562 163.966 73.0495 163.477 72.8359C162.992 72.6172 162.581 72.3151 162.242 71.9297C161.904 71.5391 161.646 71.0833 161.469 70.5625C161.292 70.0417 161.203 69.4766 161.203 68.8672ZM163.086 68.6875V68.8672C163.086 69.2474 163.125 69.6068 163.203 69.9453C163.281 70.2839 163.404 70.5807 163.57 70.8359C163.737 71.0911 163.951 71.2917 164.211 71.4375C164.471 71.5833 164.781 71.6562 165.141 71.6562C165.49 71.6562 165.792 71.5833 166.047 71.4375C166.307 71.2917 166.521 71.0911 166.688 70.8359C166.854 70.5807 166.977 70.2839 167.055 69.9453C167.138 69.6068 167.18 69.2474 167.18 68.8672V68.6875C167.18 68.3125 167.138 67.9583 167.055 67.625C166.977 67.2865 166.852 66.987 166.68 66.7266C166.513 66.4661 166.299 66.263 166.039 66.1172C165.784 65.9661 165.479 65.8906 165.125 65.8906C164.771 65.8906 164.464 65.9661 164.203 66.1172C163.948 66.263 163.737 66.4661 163.57 66.7266C163.404 66.987 163.281 67.2865 163.203 67.625C163.125 67.9583 163.086 68.3125 163.086 68.6875ZM179.391 71.3047V67.2734C179.391 66.9714 179.336 66.7109 179.227 66.4922C179.117 66.2734 178.951 66.1042 178.727 65.9844C178.508 65.8646 178.232 65.8047 177.898 65.8047C177.591 65.8047 177.326 65.8568 177.102 65.9609C176.878 66.0651 176.703 66.2057 176.578 66.3828C176.453 66.5599 176.391 66.7604 176.391 66.9844H174.516C174.516 66.651 174.596 66.3281 174.758 66.0156C174.919 65.7031 175.154 65.4245 175.461 65.1797C175.768 64.9349 176.135 64.7422 176.562 64.6016C176.99 64.4609 177.469 64.3906 178 64.3906C178.635 64.3906 179.198 64.4974 179.688 64.7109C180.182 64.9245 180.57 65.2474 180.852 65.6797C181.138 66.1068 181.281 66.6432 181.281 67.2891V71.0469C181.281 71.4323 181.307 71.7786 181.359 72.0859C181.417 72.388 181.497 72.651 181.602 72.875V73H179.672C179.583 72.7969 179.513 72.5391 179.461 72.2266C179.414 71.9089 179.391 71.6016 179.391 71.3047ZM179.664 67.8594L179.68 69.0234H178.328C177.979 69.0234 177.672 69.0573 177.406 69.125C177.141 69.1875 176.919 69.2812 176.742 69.4062C176.565 69.5312 176.432 69.6823 176.344 69.8594C176.255 70.0365 176.211 70.237 176.211 70.4609C176.211 70.6849 176.263 70.8906 176.367 71.0781C176.471 71.2604 176.622 71.4036 176.82 71.5078C177.023 71.612 177.268 71.6641 177.555 71.6641C177.94 71.6641 178.276 71.5859 178.562 71.4297C178.854 71.2682 179.083 71.0729 179.25 70.8438C179.417 70.6094 179.505 70.388 179.516 70.1797L180.125 71.0156C180.062 71.2292 179.956 71.4583 179.805 71.7031C179.654 71.9479 179.456 72.1823 179.211 72.4062C178.971 72.625 178.682 72.8047 178.344 72.9453C178.01 73.0859 177.625 73.1562 177.188 73.1562C176.635 73.1562 176.143 73.0469 175.711 72.8281C175.279 72.6042 174.94 72.3047 174.695 71.9297C174.451 71.5495 174.328 71.1198 174.328 70.6406C174.328 70.1927 174.411 69.7969 174.578 69.4531C174.75 69.1042 175 68.8125 175.328 68.5781C175.661 68.3438 176.068 68.1667 176.547 68.0469C177.026 67.9219 177.573 67.8594 178.188 67.8594H179.664ZM185.109 61V73H183.234V61H185.109ZM184.781 68.4609L184.172 68.4531C184.177 67.8698 184.258 67.3307 184.414 66.8359C184.576 66.3411 184.799 65.9115 185.086 65.5469C185.378 65.1771 185.727 64.8932 186.133 64.6953C186.539 64.4922 186.99 64.3906 187.484 64.3906C187.901 64.3906 188.276 64.4479 188.609 64.5625C188.948 64.6771 189.24 64.862 189.484 65.1172C189.729 65.3672 189.914 65.6953 190.039 66.1016C190.169 66.5026 190.234 66.9922 190.234 67.5703V73H188.344V67.5547C188.344 67.1484 188.284 66.8255 188.164 66.5859C188.049 66.3464 187.88 66.1745 187.656 66.0703C187.432 65.9609 187.159 65.9062 186.836 65.9062C186.497 65.9062 186.198 65.974 185.938 66.1094C185.682 66.2448 185.469 66.4297 185.297 66.6641C185.125 66.8984 184.995 67.1693 184.906 67.4766C184.823 67.7839 184.781 68.112 184.781 68.4609ZM191.781 68.8672V68.6875C191.781 68.0781 191.87 67.513 192.047 66.9922C192.224 66.4661 192.479 66.0104 192.812 65.625C193.151 65.2344 193.562 64.9323 194.047 64.7188C194.536 64.5 195.089 64.3906 195.703 64.3906C196.323 64.3906 196.875 64.5 197.359 64.7188C197.849 64.9323 198.263 65.2344 198.602 65.625C198.94 66.0104 199.198 66.4661 199.375 66.9922C199.552 67.513 199.641 68.0781 199.641 68.6875V68.8672C199.641 69.4766 199.552 70.0417 199.375 70.5625C199.198 71.0833 198.94 71.5391 198.602 71.9297C198.263 72.3151 197.852 72.6172 197.367 72.8359C196.883 73.0495 196.333 73.1562 195.719 73.1562C195.099 73.1562 194.544 73.0495 194.055 72.8359C193.57 72.6172 193.159 72.3151 192.82 71.9297C192.482 71.5391 192.224 71.0833 192.047 70.5625C191.87 70.0417 191.781 69.4766 191.781 68.8672ZM193.664 68.6875V68.8672C193.664 69.2474 193.703 69.6068 193.781 69.9453C193.859 70.2839 193.982 70.5807 194.148 70.8359C194.315 71.0911 194.529 71.2917 194.789 71.4375C195.049 71.5833 195.359 71.6562 195.719 71.6562C196.068 71.6562 196.37 71.5833 196.625 71.4375C196.885 71.2917 197.099 71.0911 197.266 70.8359C197.432 70.5807 197.555 70.2839 197.633 69.9453C197.716 69.6068 197.758 69.2474 197.758 68.8672V68.6875C197.758 68.3125 197.716 67.9583 197.633 67.625C197.555 67.2865 197.43 66.987 197.258 66.7266C197.091 66.4661 196.878 66.263 196.617 66.1172C196.362 65.9661 196.057 65.8906 195.703 65.8906C195.349 65.8906 195.042 65.9661 194.781 66.1172C194.526 66.263 194.315 66.4661 194.148 66.7266C193.982 66.987 193.859 67.2865 193.781 67.625C193.703 67.9583 193.664 68.3125 193.664 68.6875ZM203.109 66.1562V73H201.227V64.5469H203.023L203.109 66.1562ZM205.695 64.4922L205.68 66.2422C205.565 66.2214 205.44 66.2057 205.305 66.1953C205.174 66.1849 205.044 66.1797 204.914 66.1797C204.591 66.1797 204.307 66.2266 204.062 66.3203C203.818 66.4089 203.612 66.5391 203.445 66.7109C203.284 66.8776 203.159 67.0807 203.07 67.3203C202.982 67.5599 202.93 67.8281 202.914 68.125L202.484 68.1562C202.484 67.625 202.536 67.1328 202.641 66.6797C202.745 66.2266 202.901 65.8281 203.109 65.4844C203.323 65.1406 203.589 64.8724 203.906 64.6797C204.229 64.487 204.602 64.3906 205.023 64.3906C205.138 64.3906 205.26 64.401 205.391 64.4219C205.526 64.4427 205.628 64.4661 205.695 64.4922ZM211.359 71.3047V67.2734C211.359 66.9714 211.305 66.7109 211.195 66.4922C211.086 66.2734 210.919 66.1042 210.695 65.9844C210.477 65.8646 210.201 65.8047 209.867 65.8047C209.56 65.8047 209.294 65.8568 209.07 65.9609C208.846 66.0651 208.672 66.2057 208.547 66.3828C208.422 66.5599 208.359 66.7604 208.359 66.9844H206.484C206.484 66.651 206.565 66.3281 206.727 66.0156C206.888 65.7031 207.122 65.4245 207.43 65.1797C207.737 64.9349 208.104 64.7422 208.531 64.6016C208.958 64.4609 209.438 64.3906 209.969 64.3906C210.604 64.3906 211.167 64.4974 211.656 64.7109C212.151 64.9245 212.539 65.2474 212.82 65.6797C213.107 66.1068 213.25 66.6432 213.25 67.2891V71.0469C213.25 71.4323 213.276 71.7786 213.328 72.0859C213.385 72.388 213.466 72.651 213.57 72.875V73H211.641C211.552 72.7969 211.482 72.5391 211.43 72.2266C211.383 71.9089 211.359 71.6016 211.359 71.3047ZM211.633 67.8594L211.648 69.0234H210.297C209.948 69.0234 209.641 69.0573 209.375 69.125C209.109 69.1875 208.888 69.2812 208.711 69.4062C208.534 69.5312 208.401 69.6823 208.312 69.8594C208.224 70.0365 208.18 70.237 208.18 70.4609C208.18 70.6849 208.232 70.8906 208.336 71.0781C208.44 71.2604 208.591 71.4036 208.789 71.5078C208.992 71.612 209.237 71.6641 209.523 71.6641C209.909 71.6641 210.245 71.5859 210.531 71.4297C210.823 71.2682 211.052 71.0729 211.219 70.8438C211.385 70.6094 211.474 70.388 211.484 70.1797L212.094 71.0156C212.031 71.2292 211.924 71.4583 211.773 71.7031C211.622 71.9479 211.424 72.1823 211.18 72.4062C210.94 72.625 210.651 72.8047 210.312 72.9453C209.979 73.0859 209.594 73.1562 209.156 73.1562C208.604 73.1562 208.112 73.0469 207.68 72.8281C207.247 72.6042 206.909 72.3047 206.664 71.9297C206.419 71.5495 206.297 71.1198 206.297 70.6406C206.297 70.1927 206.38 69.7969 206.547 69.4531C206.719 69.1042 206.969 68.8125 207.297 68.5781C207.63 68.3438 208.036 68.1667 208.516 68.0469C208.995 67.9219 209.542 67.8594 210.156 67.8594H211.633ZM215.297 72.0625C215.297 71.7708 215.396 71.526 215.594 71.3281C215.792 71.125 216.06 71.0234 216.398 71.0234C216.742 71.0234 217.01 71.125 217.203 71.3281C217.401 71.526 217.5 71.7708 217.5 72.0625C217.5 72.3542 217.401 72.599 217.203 72.7969C217.01 72.9948 216.742 73.0938 216.398 73.0938C216.06 73.0938 215.792 72.9948 215.594 72.7969C215.396 72.599 215.297 72.3542 215.297 72.0625ZM219.75 72.0625C219.75 71.7708 219.849 71.526 220.047 71.3281C220.245 71.125 220.513 71.0234 220.852 71.0234C221.195 71.0234 221.464 71.125 221.656 71.3281C221.854 71.526 221.953 71.7708 221.953 72.0625C221.953 72.3542 221.854 72.599 221.656 72.7969C221.464 72.9948 221.195 73.0938 220.852 73.0938C220.513 73.0938 220.245 72.9948 220.047 72.7969C219.849 72.599 219.75 72.3542 219.75 72.0625ZM224.203 72.0625C224.203 71.7708 224.302 71.526 224.5 71.3281C224.698 71.125 224.966 71.0234 225.305 71.0234C225.648 71.0234 225.917 71.125 226.109 71.3281C226.307 71.526 226.406 71.7708 226.406 72.0625C226.406 72.3542 226.307 72.599 226.109 72.7969C225.917 72.9948 225.648 73.0938 225.305 73.0938C224.966 73.0938 224.698 72.9948 224.5 72.7969C224.302 72.599 224.203 72.3542 224.203 72.0625Z" fill="#878787"/>
<path d="M133.637 36.3945H129.277L129.254 34.1211H132.992C133.633 34.1211 134.168 34.0312 134.598 33.8516C135.027 33.6719 135.352 33.4102 135.57 33.0664C135.797 32.7227 135.91 32.3047 135.91 31.8125C135.91 31.2656 135.805 30.8203 135.594 30.4766C135.391 30.1328 135.07 29.8828 134.633 29.7266C134.195 29.5625 133.641 29.4805 132.969 29.4805H130.32V44H127.098V26.9375H132.969C133.938 26.9375 134.801 27.0312 135.559 27.2188C136.324 27.3984 136.973 27.6797 137.504 28.0625C138.035 28.4453 138.438 28.9258 138.711 29.5039C138.992 30.082 139.133 30.7695 139.133 31.5664C139.133 32.2695 138.969 32.918 138.641 33.5117C138.32 34.0977 137.824 34.5742 137.152 34.9414C136.488 35.3086 135.645 35.5195 134.621 35.5742L133.637 36.3945ZM133.496 44H128.328L129.676 41.4688H133.496C134.137 41.4688 134.664 41.3633 135.078 41.1523C135.5 40.9414 135.812 40.6523 136.016 40.2852C136.227 39.9102 136.332 39.4805 136.332 38.9961C136.332 38.4648 136.238 38.0039 136.051 37.6133C135.871 37.2227 135.582 36.9219 135.184 36.7109C134.793 36.5 134.277 36.3945 133.637 36.3945H130.285L130.309 34.1211H134.574L135.312 35C136.297 35.0078 137.098 35.2031 137.715 35.5859C138.34 35.9688 138.801 36.4609 139.098 37.0625C139.395 37.6641 139.543 38.3125 139.543 39.0078C139.543 40.1016 139.305 41.0195 138.828 41.7617C138.359 42.5039 137.672 43.0625 136.766 43.4375C135.867 43.8125 134.777 44 133.496 44ZM149.082 41.3047V35.457C149.082 35.0273 149.008 34.6562 148.859 34.3438C148.711 34.0312 148.484 33.7891 148.18 33.6172C147.875 33.4453 147.488 33.3594 147.02 33.3594C146.605 33.3594 146.242 33.4297 145.93 33.5703C145.625 33.7109 145.391 33.9102 145.227 34.168C145.062 34.418 144.98 34.707 144.98 35.0352H141.875C141.875 34.5117 142 34.0156 142.25 33.5469C142.5 33.0703 142.855 32.6484 143.316 32.2812C143.785 31.9062 144.344 31.6133 144.992 31.4023C145.648 31.1914 146.383 31.0859 147.195 31.0859C148.156 31.0859 149.012 31.25 149.762 31.5781C150.52 31.8984 151.113 32.3828 151.543 33.0312C151.98 33.6797 152.199 34.4961 152.199 35.4805V41.0117C152.199 41.6445 152.238 42.1875 152.316 42.6406C152.402 43.0859 152.527 43.4727 152.691 43.8008V44H149.539C149.391 43.6797 149.277 43.2734 149.199 42.7812C149.121 42.2812 149.082 41.7891 149.082 41.3047ZM149.516 36.2773L149.539 38.1172H147.582C147.098 38.1172 146.672 38.168 146.305 38.2695C145.938 38.3633 145.637 38.5039 145.402 38.6914C145.168 38.8711 144.992 39.0898 144.875 39.3477C144.758 39.5977 144.699 39.8828 144.699 40.2031C144.699 40.5156 144.77 40.7969 144.91 41.0469C145.059 41.2969 145.27 41.4961 145.543 41.6445C145.824 41.7852 146.152 41.8555 146.527 41.8555C147.074 41.8555 147.551 41.7461 147.957 41.5273C148.363 41.3008 148.68 41.0273 148.906 40.707C149.133 40.3867 149.254 40.082 149.27 39.793L150.16 41.1289C150.051 41.4492 149.887 41.7891 149.668 42.1484C149.449 42.5078 149.168 42.8438 148.824 43.1562C148.48 43.4688 148.066 43.7266 147.582 43.9297C147.098 44.1328 146.535 44.2344 145.895 44.2344C145.074 44.2344 144.34 44.0703 143.691 43.7422C143.043 43.4141 142.531 42.9648 142.156 42.3945C141.781 41.8242 141.594 41.1758 141.594 40.4492C141.594 39.7773 141.719 39.1836 141.969 38.668C142.219 38.1523 142.59 37.7188 143.082 37.3672C143.574 37.0078 144.184 36.7383 144.91 36.5586C145.645 36.3711 146.484 36.2773 147.43 36.2773H149.516ZM160.988 31.3203V33.5469H153.723V31.3203H160.988ZM155.668 28.2031H158.773V40.3438C158.773 40.7188 158.824 41.0078 158.926 41.2109C159.027 41.4141 159.18 41.5508 159.383 41.6211C159.586 41.6914 159.828 41.7266 160.109 41.7266C160.312 41.7266 160.5 41.7148 160.672 41.6914C160.844 41.668 160.988 41.6445 161.105 41.6211L161.117 43.9414C160.859 44.0273 160.566 44.0977 160.238 44.1523C159.918 44.207 159.555 44.2344 159.148 44.2344C158.453 44.2344 157.844 44.1172 157.32 43.8828C156.797 43.6406 156.391 43.2539 156.102 42.7227C155.812 42.1836 155.668 41.4727 155.668 40.5898V28.2031ZM168.746 44.2344C167.785 44.2344 166.922 44.0781 166.156 43.7656C165.391 43.4531 164.738 43.0195 164.199 42.4648C163.668 41.9023 163.258 41.25 162.969 40.5078C162.688 39.7578 162.547 38.9531 162.547 38.0938V37.625C162.547 36.6484 162.688 35.7617 162.969 34.9648C163.25 34.1602 163.648 33.4688 164.164 32.8906C164.68 32.3125 165.297 31.8672 166.016 31.5547C166.734 31.2422 167.527 31.0859 168.395 31.0859C169.293 31.0859 170.086 31.2383 170.773 31.543C171.461 31.8398 172.035 32.2617 172.496 32.8086C172.957 33.3555 173.305 34.0117 173.539 34.7773C173.773 35.5352 173.891 36.375 173.891 37.2969V38.5977H163.953V36.4648H170.844V36.2305C170.828 35.7383 170.734 35.2891 170.562 34.8828C170.391 34.4688 170.125 34.1406 169.766 33.8984C169.406 33.6484 168.941 33.5234 168.371 33.5234C167.91 33.5234 167.508 33.625 167.164 33.8281C166.828 34.0234 166.547 34.3047 166.32 34.6719C166.102 35.0312 165.938 35.4609 165.828 35.9609C165.719 36.4609 165.664 37.0156 165.664 37.625V38.0938C165.664 38.625 165.734 39.1172 165.875 39.5703C166.023 40.0234 166.238 40.418 166.52 40.7539C166.809 41.082 167.152 41.3398 167.551 41.5273C167.957 41.707 168.418 41.7969 168.934 41.7969C169.582 41.7969 170.168 41.6719 170.691 41.4219C171.223 41.1641 171.684 40.7852 172.074 40.2852L173.633 41.9023C173.367 42.293 173.008 42.668 172.555 43.0273C172.109 43.3867 171.57 43.6797 170.938 43.9062C170.305 44.125 169.574 44.2344 168.746 44.2344ZM179.059 33.9102V44H175.965V31.3203H178.895L179.059 33.9102ZM182.914 31.2383L182.867 34.1211C182.695 34.0898 182.5 34.0664 182.281 34.0508C182.07 34.0352 181.871 34.0273 181.684 34.0273C181.207 34.0273 180.789 34.0938 180.43 34.2266C180.07 34.3516 179.77 34.5352 179.527 34.7773C179.293 35.0195 179.113 35.3164 178.988 35.668C178.863 36.0117 178.793 36.4023 178.777 36.8398L178.109 36.7578C178.109 35.9531 178.191 35.207 178.355 34.5195C178.52 33.832 178.758 33.2305 179.07 32.7148C179.383 32.1992 179.773 31.8008 180.242 31.5195C180.719 31.2305 181.266 31.0859 181.883 31.0859C182.055 31.0859 182.238 31.1016 182.434 31.1328C182.637 31.1562 182.797 31.1914 182.914 31.2383ZM187.953 31.3203V44H184.848V31.3203H187.953ZM184.906 29.7031L187.203 26.1406H190.625L187.426 29.7031H184.906ZM198.02 41.3047V35.457C198.02 35.0273 197.945 34.6562 197.797 34.3438C197.648 34.0312 197.422 33.7891 197.117 33.6172C196.812 33.4453 196.426 33.3594 195.957 33.3594C195.543 33.3594 195.18 33.4297 194.867 33.5703C194.562 33.7109 194.328 33.9102 194.164 34.168C194 34.418 193.918 34.707 193.918 35.0352H190.812C190.812 34.5117 190.938 34.0156 191.188 33.5469C191.438 33.0703 191.793 32.6484 192.254 32.2812C192.723 31.9062 193.281 31.6133 193.93 31.4023C194.586 31.1914 195.32 31.0859 196.133 31.0859C197.094 31.0859 197.949 31.25 198.699 31.5781C199.457 31.8984 200.051 32.3828 200.48 33.0312C200.918 33.6797 201.137 34.4961 201.137 35.4805V41.0117C201.137 41.6445 201.176 42.1875 201.254 42.6406C201.34 43.0859 201.465 43.4727 201.629 43.8008V44H198.477C198.328 43.6797 198.215 43.2734 198.137 42.7812C198.059 42.2812 198.02 41.7891 198.02 41.3047ZM198.453 36.2773L198.477 38.1172H196.52C196.035 38.1172 195.609 38.168 195.242 38.2695C194.875 38.3633 194.574 38.5039 194.34 38.6914C194.105 38.8711 193.93 39.0898 193.812 39.3477C193.695 39.5977 193.637 39.8828 193.637 40.2031C193.637 40.5156 193.707 40.7969 193.848 41.0469C193.996 41.2969 194.207 41.4961 194.48 41.6445C194.762 41.7852 195.09 41.8555 195.465 41.8555C196.012 41.8555 196.488 41.7461 196.895 41.5273C197.301 41.3008 197.617 41.0273 197.844 40.707C198.07 40.3867 198.191 40.082 198.207 39.793L199.098 41.1289C198.988 41.4492 198.824 41.7891 198.605 42.1484C198.387 42.5078 198.105 42.8438 197.762 43.1562C197.418 43.4688 197.004 43.7266 196.52 43.9297C196.035 44.1328 195.473 44.2344 194.832 44.2344C194.012 44.2344 193.277 44.0703 192.629 43.7422C191.98 43.4141 191.469 42.9648 191.094 42.3945C190.719 41.8242 190.531 41.1758 190.531 40.4492C190.531 39.7773 190.656 39.1836 190.906 38.668C191.156 38.1523 191.527 37.7188 192.02 37.3672C192.512 37.0078 193.121 36.7383 193.848 36.5586C194.582 36.3711 195.422 36.2773 196.367 36.2773H198.453Z" fill="#14213D"/>
</svg>
