<svg width="328" height="429" viewBox="0 0 328 429" fill="none" xmlns="http://www.w3.org/2000/svg">
<rect width="328" height="429" rx="12" fill="white"/>
<path d="M31.8079 381.3C30.8399 381.3 30.1039 380.928 29.5999 380.184C29.0959 379.44 28.8439 378.364 28.8439 376.956C28.8439 375.54 29.0959 374.464 29.5999 373.728C30.1039 372.992 30.8399 372.624 31.8079 372.624C32.7839 372.624 33.5199 372.992 34.0159 373.728C34.5199 374.456 34.7719 375.528 34.7719 376.944C34.7719 378.36 34.5159 379.44 34.0039 380.184C33.4999 380.928 32.7679 381.3 31.8079 381.3ZM31.8079 380.448C32.4799 380.448 32.9759 380.164 33.2959 379.596C33.6239 379.028 33.7879 378.144 33.7879 376.944C33.7879 375.744 33.6279 374.868 33.3079 374.316C32.9879 373.756 32.4879 373.476 31.8079 373.476C31.1359 373.476 30.6359 373.756 30.3079 374.316C29.9879 374.876 29.8279 375.752 29.8279 376.944C29.8279 378.144 29.9879 379.028 30.3079 379.596C30.6359 380.164 31.1359 380.448 31.8079 380.448Z" fill="#7C828A"/>
<path d="M10.9363 303.099V302.355L13.8283 299.235C14.2363 298.787 14.5283 298.379 14.7043 298.011C14.8883 297.643 14.9803 297.267 14.9803 296.883C14.9803 295.899 14.4083 295.407 13.2643 295.407C12.4083 295.407 11.6523 295.727 10.9963 296.367L10.6243 295.599C10.9363 295.279 11.3323 295.023 11.8123 294.831C12.3003 294.631 12.8123 294.531 13.3483 294.531C14.1963 294.531 14.8443 294.731 15.2923 295.131C15.7483 295.523 15.9763 296.083 15.9763 296.811C15.9763 297.315 15.8523 297.811 15.6043 298.299C15.3563 298.779 14.9763 299.291 14.4643 299.835L12.1963 302.259H16.3243V303.099H10.9363ZM20.8316 303.207C20.2876 303.207 19.7676 303.119 19.2716 302.943C18.7756 302.767 18.3556 302.519 18.0116 302.199L18.3836 301.419C19.1276 302.027 19.9396 302.331 20.8196 302.331C21.4036 302.331 21.8636 302.167 22.1996 301.839C22.5356 301.511 22.7036 301.079 22.7036 300.543C22.7036 299.991 22.5436 299.539 22.2236 299.187C21.9036 298.835 21.4636 298.659 20.9036 298.659C20.0956 298.659 19.4596 298.995 18.9956 299.667H18.2756V294.639H23.1836V295.479H19.2476V298.503C19.7116 298.039 20.3236 297.807 21.0836 297.807C21.6116 297.807 22.0716 297.919 22.4636 298.143C22.8556 298.367 23.1556 298.683 23.3636 299.091C23.5796 299.491 23.6876 299.959 23.6876 300.495C23.6876 301.023 23.5716 301.491 23.3396 301.899C23.1076 302.307 22.7756 302.627 22.3436 302.859C21.9196 303.091 21.4156 303.207 20.8316 303.207ZM27.6789 303.399L26.9949 303.003L31.9749 294.339L32.6469 294.735L27.6789 303.399ZM26.9589 299.715C26.3189 299.715 25.8189 299.487 25.4589 299.031C25.0989 298.575 24.9189 297.939 24.9189 297.123C24.9189 296.307 25.0989 295.675 25.4589 295.227C25.8189 294.771 26.3189 294.543 26.9589 294.543C27.5909 294.543 28.0869 294.771 28.4469 295.227C28.8149 295.675 28.9989 296.307 28.9989 297.123C28.9989 297.939 28.8149 298.575 28.4469 299.031C28.0869 299.487 27.5909 299.715 26.9589 299.715ZM26.9589 299.007C27.3269 299.007 27.6189 298.851 27.8349 298.539C28.0509 298.219 28.1589 297.747 28.1589 297.123C28.1589 296.499 28.0509 296.031 27.8349 295.719C27.6189 295.407 27.3269 295.251 26.9589 295.251C26.5829 295.251 26.2869 295.407 26.0709 295.719C25.8629 296.031 25.7589 296.499 25.7589 297.123C25.7589 297.747 25.8629 298.219 26.0709 298.539C26.2869 298.851 26.5829 299.007 26.9589 299.007ZM32.6949 303.207C32.0629 303.207 31.5629 302.979 31.1949 302.523C30.8349 302.067 30.6549 301.431 30.6549 300.615C30.6549 299.807 30.8349 299.175 31.1949 298.719C31.5629 298.263 32.0629 298.035 32.6949 298.035C33.3349 298.035 33.8349 298.263 34.1949 298.719C34.5549 299.175 34.7349 299.807 34.7349 300.615C34.7349 301.431 34.5549 302.067 34.1949 302.523C33.8349 302.979 33.3349 303.207 32.6949 303.207ZM32.6949 302.499C33.0709 302.499 33.3629 302.343 33.5709 302.031C33.7869 301.711 33.8949 301.239 33.8949 300.615C33.8949 299.991 33.7869 299.523 33.5709 299.211C33.3629 298.899 33.0709 298.743 32.6949 298.743C32.3269 298.743 32.0349 298.899 31.8189 299.211C31.6109 299.523 31.5069 299.991 31.5069 300.615C31.5069 301.247 31.6109 301.719 31.8189 302.031C32.0349 302.343 32.3269 302.499 32.6949 302.499Z" fill="#7C828A"/>
<path d="M13.6363 225.115C13.0923 225.115 12.5723 225.027 12.0763 224.851C11.5803 224.675 11.1603 224.427 10.8163 224.107L11.1883 223.327C11.9323 223.935 12.7443 224.239 13.6243 224.239C14.2083 224.239 14.6683 224.075 15.0043 223.747C15.3403 223.419 15.5083 222.987 15.5083 222.451C15.5083 221.899 15.3483 221.447 15.0283 221.095C14.7083 220.743 14.2683 220.567 13.7083 220.567C12.9003 220.567 12.2643 220.903 11.8003 221.575H11.0803V216.547H15.9883V217.387H12.0523V220.411C12.5163 219.947 13.1283 219.715 13.8883 219.715C14.4163 219.715 14.8763 219.827 15.2683 220.051C15.6603 220.275 15.9603 220.591 16.1683 220.999C16.3843 221.399 16.4923 221.867 16.4923 222.403C16.4923 222.931 16.3763 223.399 16.1443 223.807C15.9123 224.215 15.5803 224.535 15.1483 224.767C14.7243 224.999 14.2203 225.115 13.6363 225.115ZM20.6516 225.115C19.6836 225.115 18.9476 224.743 18.4436 223.999C17.9396 223.255 17.6876 222.179 17.6876 220.771C17.6876 219.355 17.9396 218.279 18.4436 217.543C18.9476 216.807 19.6836 216.439 20.6516 216.439C21.6276 216.439 22.3636 216.807 22.8596 217.543C23.3636 218.271 23.6156 219.343 23.6156 220.759C23.6156 222.175 23.3596 223.255 22.8476 223.999C22.3436 224.743 21.6116 225.115 20.6516 225.115ZM20.6516 224.263C21.3236 224.263 21.8196 223.979 22.1396 223.411C22.4676 222.843 22.6316 221.959 22.6316 220.759C22.6316 219.559 22.4716 218.683 22.1516 218.131C21.8316 217.571 21.3316 217.291 20.6516 217.291C19.9796 217.291 19.4796 217.571 19.1516 218.131C18.8316 218.691 18.6716 219.567 18.6716 220.759C18.6716 221.959 18.8316 222.843 19.1516 223.411C19.4796 223.979 19.9796 224.263 20.6516 224.263ZM27.6789 225.307L26.9949 224.911L31.9749 216.247L32.6469 216.643L27.6789 225.307ZM26.9589 221.623C26.3189 221.623 25.8189 221.395 25.4589 220.939C25.0989 220.483 24.9189 219.847 24.9189 219.031C24.9189 218.215 25.0989 217.583 25.4589 217.135C25.8189 216.679 26.3189 216.451 26.9589 216.451C27.5909 216.451 28.0869 216.679 28.4469 217.135C28.8149 217.583 28.9989 218.215 28.9989 219.031C28.9989 219.847 28.8149 220.483 28.4469 220.939C28.0869 221.395 27.5909 221.623 26.9589 221.623ZM26.9589 220.915C27.3269 220.915 27.6189 220.759 27.8349 220.447C28.0509 220.127 28.1589 219.655 28.1589 219.031C28.1589 218.407 28.0509 217.939 27.8349 217.627C27.6189 217.315 27.3269 217.159 26.9589 217.159C26.5829 217.159 26.2869 217.315 26.0709 217.627C25.8629 217.939 25.7589 218.407 25.7589 219.031C25.7589 219.655 25.8629 220.127 26.0709 220.447C26.2869 220.759 26.5829 220.915 26.9589 220.915ZM32.6949 225.115C32.0629 225.115 31.5629 224.887 31.1949 224.431C30.8349 223.975 30.6549 223.339 30.6549 222.523C30.6549 221.715 30.8349 221.083 31.1949 220.627C31.5629 220.171 32.0629 219.943 32.6949 219.943C33.3349 219.943 33.8349 220.171 34.1949 220.627C34.5549 221.083 34.7349 221.715 34.7349 222.523C34.7349 223.339 34.5549 223.975 34.1949 224.431C33.8349 224.887 33.3349 225.115 32.6949 225.115ZM32.6949 224.407C33.0709 224.407 33.3629 224.251 33.5709 223.939C33.7869 223.619 33.8949 223.147 33.8949 222.523C33.8949 221.899 33.7869 221.431 33.5709 221.119C33.3629 220.807 33.0709 220.651 32.6949 220.651C32.3269 220.651 32.0349 220.807 31.8189 221.119C31.6109 221.431 31.5069 221.899 31.5069 222.523C31.5069 223.155 31.6109 223.627 31.8189 223.939C32.0349 224.251 32.3269 224.407 32.6949 224.407Z" fill="#7C828A"/>
<path d="M4.14899 157.057V156.217H6.08099V149.785L4.55699 150.745L4.13699 150.013L6.35699 148.597H7.06499V156.217H8.87699V157.057H4.14899ZM13.4563 157.165C12.4883 157.165 11.7523 156.793 11.2483 156.049C10.7443 155.305 10.4923 154.229 10.4923 152.821C10.4923 151.405 10.7443 150.329 11.2483 149.593C11.7523 148.857 12.4883 148.489 13.4563 148.489C14.4323 148.489 15.1683 148.857 15.6643 149.593C16.1683 150.321 16.4203 151.393 16.4203 152.809C16.4203 154.225 16.1643 155.305 15.6523 156.049C15.1483 156.793 14.4163 157.165 13.4563 157.165ZM13.4563 156.313C14.1283 156.313 14.6243 156.029 14.9443 155.461C15.2723 154.893 15.4363 154.009 15.4363 152.809C15.4363 151.609 15.2763 150.733 14.9563 150.181C14.6363 149.621 14.1363 149.341 13.4563 149.341C12.7843 149.341 12.2843 149.621 11.9563 150.181C11.6363 150.741 11.4763 151.617 11.4763 152.809C11.4763 154.009 11.6363 154.893 11.9563 155.461C12.2843 156.029 12.7843 156.313 13.4563 156.313ZM20.6516 157.165C19.6836 157.165 18.9476 156.793 18.4436 156.049C17.9396 155.305 17.6876 154.229 17.6876 152.821C17.6876 151.405 17.9396 150.329 18.4436 149.593C18.9476 148.857 19.6836 148.489 20.6516 148.489C21.6276 148.489 22.3636 148.857 22.8596 149.593C23.3636 150.321 23.6156 151.393 23.6156 152.809C23.6156 154.225 23.3596 155.305 22.8476 156.049C22.3436 156.793 21.6116 157.165 20.6516 157.165ZM20.6516 156.313C21.3236 156.313 21.8196 156.029 22.1396 155.461C22.4676 154.893 22.6316 154.009 22.6316 152.809C22.6316 151.609 22.4716 150.733 22.1516 150.181C21.8316 149.621 21.3316 149.341 20.6516 149.341C19.9796 149.341 19.4796 149.621 19.1516 150.181C18.8316 150.741 18.6716 151.617 18.6716 152.809C18.6716 154.009 18.8316 154.893 19.1516 155.461C19.4796 156.029 19.9796 156.313 20.6516 156.313ZM27.6789 157.357L26.9949 156.961L31.9749 148.297L32.6469 148.693L27.6789 157.357ZM26.9589 153.673C26.3189 153.673 25.8189 153.445 25.4589 152.989C25.0989 152.533 24.9189 151.897 24.9189 151.081C24.9189 150.265 25.0989 149.633 25.4589 149.185C25.8189 148.729 26.3189 148.501 26.9589 148.501C27.5909 148.501 28.0869 148.729 28.4469 149.185C28.8149 149.633 28.9989 150.265 28.9989 151.081C28.9989 151.897 28.8149 152.533 28.4469 152.989C28.0869 153.445 27.5909 153.673 26.9589 153.673ZM26.9589 152.965C27.3269 152.965 27.6189 152.809 27.8349 152.497C28.0509 152.177 28.1589 151.705 28.1589 151.081C28.1589 150.457 28.0509 149.989 27.8349 149.677C27.6189 149.365 27.3269 149.209 26.9589 149.209C26.5829 149.209 26.2869 149.365 26.0709 149.677C25.8629 149.989 25.7589 150.457 25.7589 151.081C25.7589 151.705 25.8629 152.177 26.0709 152.497C26.2869 152.809 26.5829 152.965 26.9589 152.965ZM32.6949 157.165C32.0629 157.165 31.5629 156.937 31.1949 156.481C30.8349 156.025 30.6549 155.389 30.6549 154.573C30.6549 153.765 30.8349 153.133 31.1949 152.677C31.5629 152.221 32.0629 151.993 32.6949 151.993C33.3349 151.993 33.8349 152.221 34.1949 152.677C34.5549 153.133 34.7349 153.765 34.7349 154.573C34.7349 155.389 34.5549 156.025 34.1949 156.481C33.8349 156.937 33.3349 157.165 32.6949 157.165ZM32.6949 156.457C33.0709 156.457 33.3629 156.301 33.5709 155.989C33.7869 155.669 33.8949 155.197 33.8949 154.573C33.8949 153.949 33.7869 153.481 33.5709 153.169C33.3629 152.857 33.0709 152.701 32.6949 152.701C32.3269 152.701 32.0349 152.857 31.8189 153.169C31.6109 153.481 31.5069 153.949 31.5069 154.573C31.5069 155.205 31.6109 155.677 31.8189 155.989C32.0349 156.301 32.3269 156.457 32.6949 156.457Z" fill="#7C828A"/>
<path d="M55.5579 404.518V396.058H58.8699C60.3099 396.058 61.4259 396.426 62.2179 397.162C63.0099 397.89 63.4059 398.93 63.4059 400.282C63.4059 401.634 63.0099 402.678 62.2179 403.414C61.4259 404.15 60.3099 404.518 58.8699 404.518H55.5579ZM57.4179 402.994H58.7619C60.5619 402.994 61.4619 402.09 61.4619 400.282C61.4619 398.482 60.5619 397.582 58.7619 397.582H57.4179V402.994Z" fill="black"/>
<path d="M94.7713 404.518V396.058H96.6313V402.946H100.543V404.518H94.7713Z" fill="black"/>
<path d="M131.506 404.518V396.058H133.054L135.91 401.254L138.754 396.058H140.278V404.518H138.586V399.358L136.402 403.246H135.358L133.186 399.394V404.518H131.506Z" fill="black"/>
<path d="M168.471 404.518V396.058H170.019L172.875 401.254L175.719 396.058H177.243V404.518H175.551V399.358L173.367 403.246H172.323L170.151 399.394V404.518H168.471Z" fill="black"/>
<path d="M209.151 404.638L209.019 403.126L209.943 403.078C210.583 403.038 210.903 402.702 210.903 402.07V396.058H212.763V402.046C212.763 403.63 211.923 404.478 210.243 404.59L209.151 404.638Z" fill="black"/>
<path d="M249.145 404.518L245.341 396.058H247.333L249.949 402.13L252.565 396.058H254.473L250.669 404.518H249.145Z" fill="black"/>
<path d="M287.423 404.65C286.759 404.65 286.131 404.566 285.539 404.398C284.955 404.23 284.467 404.002 284.075 403.714L284.615 402.25C284.991 402.514 285.419 402.722 285.899 402.874C286.387 403.026 286.895 403.102 287.423 403.102C287.999 403.102 288.411 403.014 288.659 402.838C288.915 402.654 289.043 402.426 289.043 402.154C289.043 401.922 288.955 401.738 288.779 401.602C288.603 401.466 288.295 401.35 287.855 401.254L286.499 400.966C284.987 400.646 284.231 399.862 284.231 398.614C284.231 398.078 284.375 397.61 284.663 397.21C284.951 396.802 285.351 396.486 285.863 396.262C286.383 396.038 286.983 395.926 287.663 395.926C288.247 395.926 288.795 396.01 289.307 396.178C289.819 396.346 290.243 396.582 290.579 396.886L290.039 398.254C289.383 397.734 288.587 397.474 287.651 397.474C287.147 397.474 286.755 397.574 286.475 397.774C286.203 397.966 286.067 398.218 286.067 398.53C286.067 398.762 286.151 398.95 286.319 399.094C286.487 399.238 286.779 399.354 287.195 399.442L288.551 399.73C290.103 400.066 290.879 400.826 290.879 402.01C290.879 402.538 290.735 403.002 290.447 403.402C290.167 403.794 289.767 404.102 289.247 404.326C288.735 404.542 288.127 404.65 287.423 404.65Z" fill="black"/>
<rect x="274.895" y="293.099" width="20.8254" height="88.234" rx="4" fill="#7388A9" fill-opacity="0.353283"/>
<rect x="237.41" y="261.66" width="20.8254" height="119.674" rx="4" fill="#7388A9" fill-opacity="0.353283"/>
<rect x="199.924" y="206.894" width="20.8254" height="174.44" rx="4" fill="#7388A9" fill-opacity="0.353283"/>
<rect x="162.438" y="277.886" width="20.8254" height="103.447" rx="4" fill="#7388A9" fill-opacity="0.353283"/>
<rect x="124.952" y="158.213" width="20.8254" height="223.121" rx="4" fill="#FCA311"/>
<rect x="87.4667" y="238.333" width="20.8254" height="143" rx="4" fill="#7388A9" fill-opacity="0.353283"/>
<rect x="49.981" y="310.34" width="20.8254" height="70.9929" rx="4" fill="#7388A9" fill-opacity="0.353283"/>
<path d="M100.015 73.8085V72.6885H102.591V64.1125L100.559 65.3925L99.9993 64.4165L102.959 62.5285H103.903V72.6885H106.319V73.8085H100.015ZM112.665 73.9525C111.94 73.9525 111.246 73.8352 110.585 73.6005C109.924 73.3659 109.364 73.0352 108.905 72.6085L109.401 71.5685C110.393 72.3792 111.476 72.7845 112.649 72.7845C113.428 72.7845 114.041 72.5659 114.489 72.1285C114.937 71.6912 115.161 71.1152 115.161 70.4005C115.161 69.6645 114.948 69.0619 114.521 68.5925C114.094 68.1232 113.508 67.8885 112.761 67.8885C111.684 67.8885 110.836 68.3365 110.217 69.2325H109.257V62.5285H115.801V63.6485H110.553V67.6805C111.172 67.0619 111.988 66.7525 113.001 66.7525C113.705 66.7525 114.318 66.9019 114.841 67.2005C115.364 67.4992 115.764 67.9205 116.041 68.4645C116.329 68.9979 116.473 69.6219 116.473 70.3365C116.473 71.0405 116.318 71.6645 116.009 72.2085C115.7 72.7525 115.257 73.1792 114.681 73.4885C114.116 73.7979 113.444 73.9525 112.665 73.9525ZM121.632 73.8085L126.608 62.5285H127.728L132.704 73.8085H131.344L130.096 70.9285H124.224L122.992 73.8085H121.632ZM127.152 64.0645L124.704 69.8245H129.632L127.184 64.0645H127.152ZM134.2 76.6885V66.0325H135.464V67.4245C135.699 66.9445 136.046 66.5712 136.504 66.3045C136.974 66.0272 137.518 65.8885 138.136 65.8885C138.83 65.8885 139.432 66.0539 139.944 66.3845C140.467 66.7045 140.867 67.1685 141.144 67.7765C141.432 68.3739 141.576 69.0885 141.576 69.9205C141.576 70.7419 141.432 71.4565 141.144 72.0645C140.867 72.6619 140.467 73.1259 139.944 73.4565C139.432 73.7872 138.83 73.9525 138.136 73.9525C137.539 73.9525 137.006 73.8192 136.536 73.5525C136.067 73.2859 135.72 72.9179 135.496 72.4485V76.6885H134.2ZM137.864 72.9125C138.59 72.9125 139.171 72.6565 139.608 72.1445C140.046 71.6219 140.264 70.8805 140.264 69.9205C140.264 68.9499 140.046 68.2085 139.608 67.6965C139.171 67.1845 138.59 66.9285 137.864 66.9285C137.139 66.9285 136.558 67.1845 136.12 67.6965C135.683 68.2085 135.464 68.9499 135.464 69.9205C135.464 70.8805 135.683 71.6219 136.12 72.1445C136.558 72.6565 137.139 72.9125 137.864 72.9125ZM143.529 73.8085V66.0325H144.793V67.4245C145.209 66.4859 146.062 65.9685 147.353 65.8725L147.817 65.8245L147.913 66.9445L147.097 67.0405C146.361 67.1045 145.801 67.3392 145.417 67.7445C145.033 68.1392 144.841 68.6832 144.841 69.3765V73.8085H143.529ZM149.103 64.0965V62.6405H150.703V64.0965H149.103ZM149.263 73.8085V66.0325H150.559V73.8085H149.263ZM155.366 73.9525C154.576 73.9525 153.979 73.7232 153.574 73.2645C153.179 72.7952 152.982 72.1179 152.982 71.2325V62.5285H154.278V71.1365C154.278 72.2779 154.731 72.8485 155.638 72.8485C155.904 72.8485 156.144 72.8165 156.358 72.7525L156.326 73.8405C155.995 73.9152 155.675 73.9525 155.366 73.9525ZM161.761 70.0805V69.0085H166.241V70.0805H161.761ZM172.94 73.8085V72.8165L176.796 68.6565C177.34 68.0592 177.729 67.5152 177.964 67.0245C178.209 66.5339 178.332 66.0325 178.332 65.5205C178.332 64.2085 177.569 63.5525 176.044 63.5525C174.903 63.5525 173.895 63.9792 173.02 64.8325L172.524 63.8085C172.94 63.3819 173.468 63.0405 174.108 62.7845C174.759 62.5179 175.441 62.3845 176.156 62.3845C177.287 62.3845 178.151 62.6512 178.748 63.1845C179.356 63.7072 179.66 64.4539 179.66 65.4245C179.66 66.0965 179.495 66.7579 179.164 67.4085C178.833 68.0485 178.327 68.7312 177.644 69.4565L174.62 72.6885H180.124V73.8085H172.94ZM183.078 73.8085V72.6885H185.654V64.1125L183.622 65.3925L183.062 64.4165L186.022 62.5285H186.966V72.6885H189.382V73.8085H183.078ZM195.101 73.8085L200.077 62.5285H201.197L206.173 73.8085H204.813L203.565 70.9285H197.693L196.461 73.8085H195.101ZM200.621 64.0645L198.173 69.8245H203.101L200.653 64.0645H200.621ZM207.669 76.6885V66.0325H208.933V67.4245C209.168 66.9445 209.514 66.5712 209.973 66.3045C210.442 66.0272 210.986 65.8885 211.605 65.8885C212.298 65.8885 212.901 66.0539 213.413 66.3845C213.936 66.7045 214.336 67.1685 214.613 67.7765C214.901 68.3739 215.045 69.0885 215.045 69.9205C215.045 70.7419 214.901 71.4565 214.613 72.0645C214.336 72.6619 213.936 73.1259 213.413 73.4565C212.901 73.7872 212.298 73.9525 211.605 73.9525C211.008 73.9525 210.474 73.8192 210.005 73.5525C209.536 73.2859 209.189 72.9179 208.965 72.4485V76.6885H207.669ZM211.333 72.9125C212.058 72.9125 212.64 72.6565 213.077 72.1445C213.514 71.6219 213.733 70.8805 213.733 69.9205C213.733 68.9499 213.514 68.2085 213.077 67.6965C212.64 67.1845 212.058 66.9285 211.333 66.9285C210.608 66.9285 210.026 67.1845 209.589 67.6965C209.152 68.2085 208.933 68.9499 208.933 69.9205C208.933 70.8805 209.152 71.6219 209.589 72.1445C210.026 72.6565 210.608 72.9125 211.333 72.9125ZM216.997 73.8085V66.0325H218.261V67.4245C218.677 66.4859 219.531 65.9685 220.821 65.8725L221.285 65.8245L221.381 66.9445L220.565 67.0405C219.829 67.1045 219.269 67.3392 218.885 67.7445C218.501 68.1392 218.309 68.6832 218.309 69.3765V73.8085H216.997ZM222.572 64.0965V62.6405H224.172V64.0965H222.572ZM222.732 73.8085V66.0325H224.028V73.8085H222.732ZM228.834 73.9525C228.045 73.9525 227.448 73.7232 227.042 73.2645C226.648 72.7952 226.45 72.1179 226.45 71.2325V62.5285H227.746V71.1365C227.746 72.2779 228.2 72.8485 229.106 72.8485C229.373 72.8485 229.613 72.8165 229.826 72.7525L229.794 73.8405C229.464 73.9152 229.144 73.9525 228.834 73.9525Z" fill="#7C828A"/>
<path d="M27.1815 44.5321C25.5682 44.5321 24.1822 44.2094 23.0235 43.5641C21.8795 42.9041 20.9995 41.9801 20.3835 40.7921C19.7675 39.5894 19.4595 38.1741 19.4595 36.5461C19.4595 34.9181 19.7675 33.5101 20.3835 32.3221C20.9995 31.1341 21.8795 30.2174 23.0235 29.5721C24.1822 28.9121 25.5682 28.5821 27.1815 28.5821C28.2228 28.5821 29.2055 28.7434 30.1295 29.0661C31.0682 29.3887 31.8382 29.8507 32.4395 30.4521L31.5155 32.6961C30.8555 32.1387 30.1808 31.7354 29.4915 31.4861C28.8022 31.2221 28.0615 31.0901 27.2695 31.0901C25.7002 31.0901 24.5048 31.5667 23.6835 32.5201C22.8622 33.4587 22.4515 34.8007 22.4515 36.5461C22.4515 38.2914 22.8622 39.6407 23.6835 40.5941C24.5048 41.5474 25.7002 42.0241 27.2695 42.0241C28.0615 42.0241 28.8022 41.8994 29.4915 41.6501C30.1808 41.3861 30.8555 40.9754 31.5155 40.4181L32.4395 42.6621C31.8382 43.2487 31.0682 43.7107 30.1295 44.0481C29.2055 44.3707 28.2228 44.5321 27.1815 44.5321ZM34.4571 31.2441V28.5601H37.5371V31.2441H34.4571ZM34.6331 44.3121V33.5541H37.3831V44.3121H34.6331ZM45.2125 44.5321C44.0832 44.5321 43.1005 44.3047 42.2645 43.8501C41.4285 43.3807 40.7832 42.7207 40.3285 41.8701C39.8739 41.0194 39.6465 40.0221 39.6465 38.8781C39.6465 37.7341 39.8739 36.7514 40.3285 35.9301C40.7832 35.0941 41.4285 34.4561 42.2645 34.0161C43.1005 33.5614 44.0832 33.3341 45.2125 33.3341C45.9019 33.3341 46.5839 33.4441 47.2585 33.6641C47.9332 33.8841 48.4905 34.1921 48.9305 34.5881L48.1165 36.5021C47.7352 36.1647 47.3025 35.9081 46.8185 35.7321C46.3492 35.5561 45.8945 35.4681 45.4545 35.4681C44.5012 35.4681 43.7605 35.7687 43.2325 36.3701C42.7192 36.9567 42.4625 37.8001 42.4625 38.9001C42.4625 39.9854 42.7192 40.8434 43.2325 41.4741C43.7605 42.0901 44.5012 42.3981 45.4545 42.3981C45.8799 42.3981 46.3345 42.3101 46.8185 42.1341C47.3025 41.9581 47.7352 41.6941 48.1165 41.3421L48.9305 43.2781C48.4905 43.6594 47.9259 43.9674 47.2365 44.2021C46.5619 44.4221 45.8872 44.5321 45.2125 44.5321ZM54.3575 44.5321C53.0815 44.5321 52.1355 44.1874 51.5195 43.4981C50.9182 42.7941 50.6175 41.7674 50.6175 40.4181V28.8021H53.3675V40.2861C53.3675 41.6061 53.9248 42.2661 55.0395 42.2661C55.2008 42.2661 55.3622 42.2587 55.5235 42.2441C55.6848 42.2294 55.8388 42.2001 55.9855 42.1561L55.9415 44.3341C55.4135 44.4661 54.8855 44.5321 54.3575 44.5321ZM62.4415 44.5321C61.3268 44.5321 60.3588 44.3047 59.5375 43.8501C58.7161 43.3954 58.0781 42.7501 57.6235 41.9141C57.1688 41.0634 56.9415 40.0661 56.9415 38.9221C56.9415 37.7781 57.1688 36.7881 57.6235 35.9521C58.0781 35.1161 58.7161 34.4707 59.5375 34.0161C60.3588 33.5614 61.3268 33.3341 62.4415 33.3341C63.5561 33.3341 64.5241 33.5614 65.3455 34.0161C66.1668 34.4707 66.8048 35.1161 67.2595 35.9521C67.7141 36.7881 67.9415 37.7781 67.9415 38.9221C67.9415 40.0661 67.7141 41.0634 67.2595 41.9141C66.8048 42.7501 66.1668 43.3954 65.3455 43.8501C64.5241 44.3047 63.5561 44.5321 62.4415 44.5321ZM62.4415 42.4421C63.2628 42.4421 63.9228 42.1487 64.4215 41.5621C64.9201 40.9607 65.1695 40.0807 65.1695 38.9221C65.1695 37.7487 64.9201 36.8761 64.4215 36.3041C63.9228 35.7174 63.2628 35.4241 62.4415 35.4241C61.6201 35.4241 60.9601 35.7174 60.4615 36.3041C59.9628 36.8761 59.7135 37.7487 59.7135 38.9221C59.7135 40.0807 59.9628 40.9607 60.4615 41.5621C60.9601 42.1487 61.6201 42.4421 62.4415 42.4421ZM74.1493 44.5321C73.2399 44.5321 72.3893 44.4221 71.5973 44.2021C70.8053 43.9821 70.1453 43.6667 69.6173 43.2561L70.3213 41.4521C70.8639 41.8187 71.4726 42.1047 72.1473 42.3101C72.8219 42.5007 73.4966 42.5961 74.1713 42.5961C74.8753 42.5961 75.3959 42.4787 75.7333 42.2441C76.0853 41.9947 76.2613 41.6721 76.2613 41.2761C76.2613 40.6601 75.8066 40.2641 74.8973 40.0881L72.6973 39.6701C70.8346 39.3181 69.9033 38.3501 69.9033 36.7661C69.9033 36.0621 70.0939 35.4534 70.4753 34.9401C70.8713 34.4267 71.4139 34.0307 72.1033 33.7521C72.7926 33.4734 73.5846 33.3341 74.4793 33.3341C75.2419 33.3341 75.9753 33.4441 76.6793 33.6641C77.3833 33.8694 77.9846 34.1847 78.4833 34.6101L77.7353 36.4141C77.3099 36.0621 76.7966 35.7834 76.1953 35.5781C75.6086 35.3727 75.0439 35.2701 74.5013 35.2701C73.7826 35.2701 73.2473 35.3947 72.8953 35.6441C72.5579 35.8934 72.3893 36.2234 72.3893 36.6341C72.3893 37.2794 72.8073 37.6754 73.6433 37.8221L75.8433 38.2401C76.7966 38.4161 77.5153 38.7387 77.9993 39.2081C78.4979 39.6774 78.7473 40.3081 78.7473 41.1001C78.7473 42.1707 78.3293 43.0141 77.4933 43.6301C76.6573 44.2314 75.5426 44.5321 74.1493 44.5321ZM91.0191 44.5321C90.0805 44.5321 89.2518 44.3047 88.5331 43.8501C87.8291 43.3954 87.2791 42.7501 86.8831 41.9141C86.4871 41.0634 86.2891 40.0661 86.2891 38.9221C86.2891 37.7634 86.4871 36.7734 86.8831 35.9521C87.2791 35.1161 87.8291 34.4707 88.5331 34.0161C89.2518 33.5614 90.0805 33.3341 91.0191 33.3341C91.7818 33.3341 92.4711 33.5027 93.0871 33.8401C93.7031 34.1774 94.1651 34.6247 94.4731 35.1821V28.8021H97.2231V44.3121H94.5391V42.5301C94.2458 43.1461 93.7838 43.6374 93.1531 44.0041C92.5225 44.3561 91.8111 44.5321 91.0191 44.5321ZM91.7891 42.4421C92.6105 42.4421 93.2705 42.1487 93.7691 41.5621C94.2678 40.9607 94.5171 40.0807 94.5171 38.9221C94.5171 37.7487 94.2678 36.8761 93.7691 36.3041C93.2705 35.7174 92.6105 35.4241 91.7891 35.4241C90.9678 35.4241 90.3078 35.7174 89.8091 36.3041C89.3105 36.8761 89.0611 37.7487 89.0611 38.9221C89.0611 40.0807 89.3105 40.9607 89.8091 41.5621C90.3078 42.1487 90.9678 42.4421 91.7891 42.4421ZM105.377 44.5321C104.159 44.5321 103.111 44.3047 102.231 43.8501C101.351 43.3954 100.669 42.7501 100.185 41.9141C99.7152 41.0781 99.4805 40.0881 99.4805 38.9441C99.4805 37.8294 99.7079 36.8541 100.163 36.0181C100.632 35.1821 101.27 34.5294 102.077 34.0601C102.898 33.5761 103.829 33.3341 104.871 33.3341C106.396 33.3341 107.599 33.8181 108.479 34.7861C109.373 35.7541 109.821 37.0741 109.821 38.7461V39.5601H102.121C102.326 41.4814 103.426 42.4421 105.421 42.4421C106.022 42.4421 106.623 42.3541 107.225 42.1781C107.826 41.9874 108.376 41.6941 108.875 41.2981L109.645 43.1461C109.131 43.5714 108.486 43.9087 107.709 44.1581C106.931 44.4074 106.154 44.5321 105.377 44.5321ZM104.981 35.2041C104.174 35.2041 103.521 35.4534 103.023 35.9521C102.524 36.4507 102.223 37.1254 102.121 37.9761H107.533C107.474 37.0814 107.225 36.3994 106.785 35.9301C106.359 35.4461 105.758 35.2041 104.981 35.2041ZM122.9 44.5321C121.771 44.5321 120.788 44.3047 119.952 43.8501C119.116 43.3807 118.471 42.7207 118.016 41.8701C117.561 41.0194 117.334 40.0221 117.334 38.8781C117.334 37.7341 117.561 36.7514 118.016 35.9301C118.471 35.0941 119.116 34.4561 119.952 34.0161C120.788 33.5614 121.771 33.3341 122.9 33.3341C123.589 33.3341 124.271 33.4441 124.946 33.6641C125.621 33.8841 126.178 34.1921 126.618 34.5881L125.804 36.5021C125.423 36.1647 124.99 35.9081 124.506 35.7321C124.037 35.5561 123.582 35.4681 123.142 35.4681C122.189 35.4681 121.448 35.7687 120.92 36.3701C120.407 36.9567 120.15 37.8001 120.15 38.9001C120.15 39.9854 120.407 40.8434 120.92 41.4741C121.448 42.0901 122.189 42.3981 123.142 42.3981C123.567 42.3981 124.022 42.3101 124.506 42.1341C124.99 41.9581 125.423 41.6941 125.804 41.3421L126.618 43.2781C126.178 43.6594 125.613 43.9674 124.924 44.2021C124.249 44.4221 123.575 44.5321 122.9 44.5321ZM131.783 44.5321C131.005 44.5321 130.309 44.3854 129.693 44.0921C129.091 43.7841 128.615 43.3734 128.263 42.8601C127.925 42.3467 127.757 41.7674 127.757 41.1221C127.757 40.3301 127.962 39.7067 128.373 39.2521C128.783 38.7827 129.451 38.4454 130.375 38.2401C131.299 38.0347 132.538 37.9321 134.093 37.9321H134.863V37.4701C134.863 36.7367 134.701 36.2087 134.379 35.8861C134.056 35.5634 133.513 35.4021 132.751 35.4021C132.149 35.4021 131.533 35.4974 130.903 35.6881C130.272 35.8641 129.634 36.1427 128.989 36.5241L128.197 34.6541C128.578 34.3901 129.025 34.1627 129.539 33.9721C130.067 33.7667 130.617 33.6127 131.189 33.5101C131.775 33.3927 132.325 33.3341 132.839 33.3341C134.408 33.3341 135.574 33.7007 136.337 34.4341C137.099 35.1527 137.481 36.2747 137.481 37.8001V44.3121H134.907V42.5961C134.657 43.1974 134.261 43.6741 133.719 44.0261C133.176 44.3634 132.531 44.5321 131.783 44.5321ZM132.355 42.6401C133.073 42.6401 133.667 42.3907 134.137 41.8921C134.621 41.3934 134.863 40.7627 134.863 40.0001V39.5161H134.115C132.736 39.5161 131.775 39.6261 131.233 39.8461C130.705 40.0514 130.441 40.4327 130.441 40.9901C130.441 41.4741 130.609 41.8701 130.947 42.1781C131.284 42.4861 131.753 42.6401 132.355 42.6401ZM140.272 44.3121V33.5541H142.956V35.4461C143.484 34.1701 144.613 33.4661 146.344 33.3341L147.18 33.2681L147.356 35.6001L145.772 35.7541C143.968 35.9301 143.066 36.8541 143.066 38.5261V44.3121H140.272ZM153.731 48.4921C152.734 48.4921 151.795 48.3747 150.915 48.1401C150.05 47.9201 149.287 47.5754 148.627 47.1061L149.419 45.1921C150.035 45.6027 150.695 45.9034 151.399 46.0941C152.103 46.2994 152.807 46.4021 153.511 46.4021C155.476 46.4021 156.459 45.4561 156.459 43.5641V42.0901C156.151 42.6914 155.674 43.1681 155.029 43.5201C154.398 43.8721 153.694 44.0481 152.917 44.0481C151.949 44.0481 151.106 43.8281 150.387 43.3881C149.668 42.9334 149.111 42.3027 148.715 41.4961C148.319 40.6894 148.121 39.7507 148.121 38.6801C148.121 37.6094 148.319 36.6781 148.715 35.8861C149.111 35.0794 149.668 34.4561 150.387 34.0161C151.106 33.5614 151.949 33.3341 152.917 33.3341C153.724 33.3341 154.442 33.5174 155.073 33.8841C155.704 34.2361 156.166 34.7127 156.459 35.3141V33.5541H159.143V43.2341C159.143 44.9794 158.681 46.2921 157.757 47.1721C156.833 48.0521 155.491 48.4921 153.731 48.4921ZM153.665 41.9581C154.516 41.9581 155.19 41.6647 155.689 41.0781C156.188 40.4914 156.437 39.6921 156.437 38.6801C156.437 37.6681 156.188 36.8761 155.689 36.3041C155.19 35.7174 154.516 35.4241 153.665 35.4241C152.814 35.4241 152.14 35.7174 151.641 36.3041C151.142 36.8761 150.893 37.6681 150.893 38.6801C150.893 39.6921 151.142 40.4914 151.641 41.0781C152.14 41.6647 152.814 41.9581 153.665 41.9581ZM165.535 44.5321C164.757 44.5321 164.061 44.3854 163.445 44.0921C162.843 43.7841 162.367 43.3734 162.014 42.8601C161.677 42.3467 161.509 41.7674 161.509 41.1221C161.509 40.3301 161.714 39.7067 162.125 39.2521C162.535 38.7827 163.203 38.4454 164.127 38.2401C165.051 38.0347 166.29 37.9321 167.845 37.9321H168.615V37.4701C168.615 36.7367 168.453 36.2087 168.131 35.8861C167.808 35.5634 167.265 35.4021 166.503 35.4021C165.901 35.4021 165.285 35.4974 164.655 35.6881C164.024 35.8641 163.386 36.1427 162.741 36.5241L161.949 34.6541C162.33 34.3901 162.777 34.1627 163.291 33.9721C163.819 33.7667 164.369 33.6127 164.941 33.5101C165.527 33.3927 166.077 33.3341 166.591 33.3341C168.16 33.3341 169.326 33.7007 170.089 34.4341C170.851 35.1527 171.233 36.2747 171.233 37.8001V44.3121H168.659V42.5961C168.409 43.1974 168.013 43.6741 167.471 44.0261C166.928 44.3634 166.283 44.5321 165.535 44.5321ZM166.107 42.6401C166.825 42.6401 167.419 42.3907 167.889 41.8921C168.373 41.3934 168.615 40.7627 168.615 40.0001V39.5161H167.867C166.488 39.5161 165.527 39.6261 164.985 39.8461C164.457 40.0514 164.193 40.4327 164.193 40.9901C164.193 41.4741 164.361 41.8701 164.699 42.1781C165.036 42.4861 165.505 42.6401 166.107 42.6401ZM184.925 44.5321C183.796 44.5321 182.813 44.3047 181.977 43.8501C181.141 43.3807 180.496 42.7207 180.041 41.8701C179.587 41.0194 179.359 40.0221 179.359 38.8781C179.359 37.7341 179.587 36.7514 180.041 35.9301C180.496 35.0941 181.141 34.4561 181.977 34.0161C182.813 33.5614 183.796 33.3341 184.925 33.3341C185.615 33.3341 186.297 33.4441 186.971 33.6641C187.646 33.8841 188.203 34.1921 188.643 34.5881L187.829 36.5021C187.448 36.1647 187.015 35.9081 186.531 35.7321C186.062 35.5561 185.607 35.4681 185.167 35.4681C184.214 35.4681 183.473 35.7687 182.945 36.3701C182.432 36.9567 182.175 37.8001 182.175 38.9001C182.175 39.9854 182.432 40.8434 182.945 41.4741C183.473 42.0901 184.214 42.3981 185.167 42.3981C185.593 42.3981 186.047 42.3101 186.531 42.1341C187.015 41.9581 187.448 41.6941 187.829 41.3421L188.643 43.2781C188.203 43.6594 187.639 43.9674 186.949 44.2021C186.275 44.4221 185.6 44.5321 184.925 44.5321ZM195.022 44.5321C193.907 44.5321 192.939 44.3047 192.118 43.8501C191.296 43.3954 190.658 42.7501 190.204 41.9141C189.749 41.0634 189.522 40.0661 189.522 38.9221C189.522 37.7781 189.749 36.7881 190.204 35.9521C190.658 35.1161 191.296 34.4707 192.118 34.0161C192.939 33.5614 193.907 33.3341 195.022 33.3341C196.136 33.3341 197.104 33.5614 197.926 34.0161C198.747 34.4707 199.385 35.1161 199.84 35.9521C200.294 36.7881 200.522 37.7781 200.522 38.9221C200.522 40.0661 200.294 41.0634 199.84 41.9141C199.385 42.7501 198.747 43.3954 197.926 43.8501C197.104 44.3047 196.136 44.5321 195.022 44.5321ZM195.022 42.4421C195.843 42.4421 196.503 42.1487 197.002 41.5621C197.5 40.9607 197.75 40.0807 197.75 38.9221C197.75 37.7487 197.5 36.8761 197.002 36.3041C196.503 35.7174 195.843 35.4241 195.022 35.4241C194.2 35.4241 193.54 35.7174 193.042 36.3041C192.543 36.8761 192.294 37.7487 192.294 38.9221C192.294 40.0807 192.543 40.9607 193.042 41.5621C193.54 42.1487 194.2 42.4421 195.022 42.4421ZM202.835 44.3121V33.5541H205.519V35.2041C205.842 34.6174 206.289 34.1627 206.861 33.8401C207.433 33.5027 208.093 33.3341 208.841 33.3341C210.455 33.3341 211.511 34.0381 212.009 35.4461C212.347 34.7861 212.831 34.2727 213.461 33.9061C214.092 33.5247 214.811 33.3341 215.617 33.3341C218.037 33.3341 219.247 34.8081 219.247 37.7561V44.3121H216.497V37.8661C216.497 37.0447 216.358 36.4434 216.079 36.0621C215.815 35.6807 215.361 35.4901 214.715 35.4901C213.997 35.4901 213.432 35.7467 213.021 36.2601C212.611 36.7587 212.405 37.4554 212.405 38.3501V44.3121H209.655V37.8661C209.655 37.0447 209.516 36.4434 209.237 36.0621C208.973 35.6807 208.526 35.4901 207.895 35.4901C207.177 35.4901 206.612 35.7467 206.201 36.2601C205.791 36.7587 205.585 37.4554 205.585 38.3501V44.3121H202.835ZM222.084 48.2721V33.5541H224.768V35.2701C225.076 34.6834 225.538 34.2141 226.154 33.8621C226.785 33.5101 227.496 33.3341 228.288 33.3341C229.227 33.3341 230.048 33.5614 230.752 34.0161C231.471 34.4707 232.028 35.1161 232.424 35.9521C232.82 36.7734 233.018 37.7634 233.018 38.9221C233.018 40.0661 232.82 41.0634 232.424 41.9141C232.028 42.7501 231.478 43.3954 230.774 43.8501C230.07 44.3047 229.242 44.5321 228.288 44.5321C227.526 44.5321 226.836 44.3707 226.22 44.0481C225.619 43.7107 225.157 43.2634 224.834 42.7061V48.2721H222.084ZM227.518 42.4421C228.34 42.4421 229 42.1487 229.498 41.5621C229.997 40.9607 230.246 40.0807 230.246 38.9221C230.246 37.7487 229.997 36.8761 229.498 36.3041C229 35.7174 228.34 35.4241 227.518 35.4241C226.697 35.4241 226.037 35.7174 225.538 36.3041C225.04 36.8761 224.79 37.7487 224.79 38.9221C224.79 40.0807 225.04 40.9607 225.538 41.5621C226.037 42.1487 226.697 42.4421 227.518 42.4421ZM239.016 44.5321C237.74 44.5321 236.794 44.1874 236.178 43.4981C235.576 42.7941 235.276 41.7674 235.276 40.4181V28.8021H238.026V40.2861C238.026 41.6061 238.583 42.2661 239.698 42.2661C239.859 42.2661 240.02 42.2587 240.182 42.2441C240.343 42.2294 240.497 42.2001 240.644 42.1561L240.6 44.3341C240.072 44.4661 239.544 44.5321 239.016 44.5321ZM247.496 44.5321C246.278 44.5321 245.23 44.3047 244.35 43.8501C243.47 43.3954 242.788 42.7501 242.304 41.9141C241.834 41.0781 241.6 40.0881 241.6 38.9441C241.6 37.8294 241.827 36.8541 242.282 36.0181C242.751 35.1821 243.389 34.5294 244.196 34.0601C245.017 33.5761 245.948 33.3341 246.99 33.3341C248.515 33.3341 249.718 33.8181 250.598 34.7861C251.492 35.7541 251.94 37.0741 251.94 38.7461V39.5601H244.24C244.445 41.4814 245.545 42.4421 247.54 42.4421C248.141 42.4421 248.742 42.3541 249.344 42.1781C249.945 41.9874 250.495 41.6941 250.994 41.2981L251.764 43.1461C251.25 43.5714 250.605 43.9087 249.828 44.1581C249.05 44.4074 248.273 44.5321 247.496 44.5321ZM247.1 35.2041C246.293 35.2041 245.64 35.4534 245.142 35.9521C244.643 36.4507 244.342 37.1254 244.24 37.9761H249.652C249.593 37.0814 249.344 36.3994 248.904 35.9301C248.478 35.4461 247.877 35.2041 247.1 35.2041ZM259.003 44.5321C256.157 44.5321 254.735 43.1241 254.735 40.3081V35.6221H252.667V33.5541H254.735V30.3421H257.485V33.5541H260.741V35.6221H257.485V40.1541C257.485 40.8581 257.639 41.3861 257.947 41.7381C258.255 42.0901 258.753 42.2661 259.443 42.2661C259.648 42.2661 259.861 42.2441 260.081 42.2001C260.301 42.1414 260.528 42.0827 260.763 42.0241L261.181 44.0481C260.917 44.1947 260.579 44.3121 260.169 44.4001C259.773 44.4881 259.384 44.5321 259.003 44.5321ZM266.06 44.5321C265.283 44.5321 264.586 44.3854 263.97 44.0921C263.369 43.7841 262.892 43.3734 262.54 42.8601C262.203 42.3467 262.034 41.7674 262.034 41.1221C262.034 40.3301 262.239 39.7067 262.65 39.2521C263.061 38.7827 263.728 38.4454 264.652 38.2401C265.576 38.0347 266.815 37.9321 268.37 37.9321H269.14V37.4701C269.14 36.7367 268.979 36.2087 268.656 35.8861C268.333 35.5634 267.791 35.4021 267.028 35.4021C266.427 35.4021 265.811 35.4974 265.18 35.6881C264.549 35.8641 263.911 36.1427 263.266 36.5241L262.474 34.6541C262.855 34.3901 263.303 34.1627 263.816 33.9721C264.344 33.7667 264.894 33.6127 265.466 33.5101C266.053 33.3927 266.603 33.3341 267.116 33.3341C268.685 33.3341 269.851 33.7007 270.614 34.4341C271.377 35.1527 271.758 36.2747 271.758 37.8001V44.3121H269.184V42.5961C268.935 43.1974 268.539 43.6741 267.996 44.0261C267.453 44.3634 266.808 44.5321 266.06 44.5321ZM266.632 42.6401C267.351 42.6401 267.945 42.3907 268.414 41.8921C268.898 41.3934 269.14 40.7627 269.14 40.0001V39.5161H268.392C267.013 39.5161 266.053 39.6261 265.51 39.8461C264.982 40.0514 264.718 40.4327 264.718 40.9901C264.718 41.4741 264.887 41.8701 265.224 42.1781C265.561 42.4861 266.031 42.6401 266.632 42.6401ZM278.685 44.5321C277.746 44.5321 276.918 44.3047 276.199 43.8501C275.495 43.3954 274.945 42.7501 274.549 41.9141C274.153 41.0634 273.955 40.0661 273.955 38.9221C273.955 37.7634 274.153 36.7734 274.549 35.9521C274.945 35.1161 275.495 34.4707 276.199 34.0161C276.918 33.5614 277.746 33.3341 278.685 33.3341C279.448 33.3341 280.137 33.5027 280.753 33.8401C281.369 34.1774 281.831 34.6247 282.139 35.1821V28.8021H284.889V44.3121H282.205V42.5301C281.912 43.1461 281.45 43.6374 280.819 44.0041C280.188 44.3561 279.477 44.5321 278.685 44.5321ZM279.455 42.4421C280.276 42.4421 280.936 42.1487 281.435 41.5621C281.934 40.9607 282.183 40.0807 282.183 38.9221C282.183 37.7487 281.934 36.8761 281.435 36.3041C280.936 35.7174 280.276 35.4241 279.455 35.4241C278.634 35.4241 277.974 35.7174 277.475 36.3041C276.976 36.8761 276.727 37.7487 276.727 38.9221C276.727 40.0807 276.976 40.9607 277.475 41.5621C277.974 42.1487 278.634 42.4421 279.455 42.4421ZM292.647 44.5321C291.532 44.5321 290.564 44.3047 289.743 43.8501C288.921 43.3954 288.283 42.7501 287.829 41.9141C287.374 41.0634 287.147 40.0661 287.147 38.9221C287.147 37.7781 287.374 36.7881 287.829 35.9521C288.283 35.1161 288.921 34.4707 289.743 34.0161C290.564 33.5614 291.532 33.3341 292.647 33.3341C293.761 33.3341 294.729 33.5614 295.551 34.0161C296.372 34.4707 297.01 35.1161 297.465 35.9521C297.919 36.7881 298.147 37.7781 298.147 38.9221C298.147 40.0661 297.919 41.0634 297.465 41.9141C297.01 42.7501 296.372 43.3954 295.551 43.8501C294.729 44.3047 293.761 44.5321 292.647 44.5321ZM292.647 42.4421C293.468 42.4421 294.128 42.1487 294.627 41.5621C295.125 40.9607 295.375 40.0807 295.375 38.9221C295.375 37.7487 295.125 36.8761 294.627 36.3041C294.128 35.7174 293.468 35.4241 292.647 35.4241C291.825 35.4241 291.165 35.7174 290.667 36.3041C290.168 36.8761 289.919 37.7487 289.919 38.9221C289.919 40.0807 290.168 40.9607 290.667 41.5621C291.165 42.1487 291.825 42.4421 292.647 42.4421ZM304.354 44.5321C303.445 44.5321 302.594 44.4221 301.802 44.2021C301.01 43.9821 300.35 43.6667 299.822 43.2561L300.526 41.4521C301.069 41.8187 301.678 42.1047 302.352 42.3101C303.027 42.5007 303.702 42.5961 304.376 42.5961C305.08 42.5961 305.601 42.4787 305.938 42.2441C306.29 41.9947 306.466 41.6721 306.466 41.2761C306.466 40.6601 306.012 40.2641 305.102 40.0881L302.902 39.6701C301.04 39.3181 300.108 38.3501 300.108 36.7661C300.108 36.0621 300.299 35.4534 300.68 34.9401C301.076 34.4267 301.619 34.0307 302.308 33.7521C302.998 33.4734 303.79 33.3341 304.684 33.3341C305.447 33.3341 306.18 33.4441 306.884 33.6641C307.588 33.8694 308.19 34.1847 308.688 34.6101L307.94 36.4141C307.515 36.0621 307.002 35.7834 306.4 35.5781C305.814 35.3727 305.249 35.2701 304.706 35.2701C303.988 35.2701 303.452 35.3947 303.1 35.6441C302.763 35.8934 302.594 36.2234 302.594 36.6341C302.594 37.2794 303.012 37.6754 303.848 37.8221L306.048 38.2401C307.002 38.4161 307.72 38.7387 308.204 39.2081C308.703 39.6774 308.952 40.3081 308.952 41.1001C308.952 42.1707 308.534 43.0141 307.698 43.6301C306.862 44.2314 305.748 44.5321 304.354 44.5321Z" fill="black"/>
</svg>
