<svg width="340" height="459" viewBox="0 0 340 459" fill="none" xmlns="http://www.w3.org/2000/svg">
<g filter="url(#filter0_d_439_1324)">
<rect x="6" y="54.0578" width="328" height="388.233" rx="20" fill="white"/>
</g>
<path d="M159.266 318.611V325.345H157.383V316.892H159.156L159.266 318.611ZM158.961 320.806L158.32 320.798C158.32 320.215 158.393 319.676 158.539 319.181C158.685 318.686 158.898 318.256 159.18 317.892C159.461 317.522 159.81 317.238 160.227 317.04C160.648 316.837 161.135 316.736 161.688 316.736C162.073 316.736 162.424 316.793 162.742 316.907C163.065 317.017 163.344 317.191 163.578 317.431C163.818 317.67 164 317.978 164.125 318.353C164.255 318.728 164.32 319.181 164.32 319.712V325.345H162.438V319.876C162.438 319.465 162.375 319.142 162.25 318.907C162.13 318.673 161.956 318.506 161.727 318.407C161.503 318.303 161.234 318.251 160.922 318.251C160.568 318.251 160.266 318.319 160.016 318.454C159.771 318.59 159.57 318.775 159.414 319.009C159.258 319.243 159.143 319.514 159.07 319.822C158.997 320.129 158.961 320.457 158.961 320.806ZM164.203 320.306L163.32 320.501C163.32 319.991 163.391 319.509 163.531 319.056C163.677 318.598 163.888 318.197 164.164 317.853C164.445 317.504 164.792 317.23 165.203 317.032C165.615 316.835 166.086 316.736 166.617 316.736C167.049 316.736 167.435 316.795 167.773 316.915C168.117 317.03 168.409 317.212 168.648 317.462C168.888 317.712 169.07 318.038 169.195 318.439C169.32 318.835 169.383 319.314 169.383 319.876V325.345H167.492V319.868C167.492 319.441 167.43 319.111 167.305 318.876C167.185 318.642 167.013 318.48 166.789 318.392C166.565 318.298 166.297 318.251 165.984 318.251C165.693 318.251 165.435 318.306 165.211 318.415C164.992 318.519 164.807 318.668 164.656 318.861C164.505 319.048 164.391 319.264 164.312 319.509C164.24 319.754 164.203 320.019 164.203 320.306ZM171.328 313.345H173.211V323.54L173.031 325.345H171.328V313.345ZM178.727 321.04V321.204C178.727 321.829 178.656 322.405 178.516 322.931C178.38 323.452 178.172 323.905 177.891 324.29C177.615 324.676 177.271 324.975 176.859 325.189C176.453 325.397 175.982 325.501 175.445 325.501C174.919 325.501 174.461 325.402 174.07 325.204C173.68 325.006 173.352 324.725 173.086 324.361C172.826 323.996 172.615 323.561 172.453 323.056C172.292 322.551 172.177 321.993 172.109 321.384V320.861C172.177 320.246 172.292 319.689 172.453 319.189C172.615 318.684 172.826 318.249 173.086 317.884C173.352 317.514 173.677 317.23 174.062 317.032C174.453 316.835 174.909 316.736 175.43 316.736C175.971 316.736 176.448 316.84 176.859 317.048C177.276 317.256 177.622 317.553 177.898 317.939C178.174 318.319 178.38 318.772 178.516 319.298C178.656 319.824 178.727 320.405 178.727 321.04ZM176.844 321.204V321.04C176.844 320.66 176.812 320.303 176.75 319.97C176.688 319.631 176.583 319.335 176.438 319.079C176.297 318.824 176.104 318.624 175.859 318.478C175.62 318.327 175.32 318.251 174.961 318.251C174.628 318.251 174.341 318.309 174.102 318.423C173.862 318.538 173.661 318.694 173.5 318.892C173.339 319.09 173.211 319.319 173.117 319.579C173.029 319.84 172.969 320.121 172.938 320.423V321.837C172.984 322.228 173.083 322.587 173.234 322.915C173.391 323.238 173.609 323.499 173.891 323.697C174.172 323.889 174.534 323.986 174.977 323.986C175.326 323.986 175.62 323.915 175.859 323.775C176.099 323.634 176.289 323.439 176.43 323.189C176.576 322.934 176.68 322.637 176.742 322.298C176.81 321.96 176.844 321.595 176.844 321.204ZM182.211 318.517V328.595H180.328V316.892H182.062L182.211 318.517ZM187.719 321.04V321.204C187.719 321.819 187.646 322.389 187.5 322.915C187.359 323.436 187.148 323.892 186.867 324.282C186.591 324.668 186.25 324.967 185.844 325.181C185.438 325.394 184.969 325.501 184.438 325.501C183.911 325.501 183.451 325.405 183.055 325.212C182.664 325.014 182.333 324.736 182.062 324.376C181.792 324.017 181.573 323.595 181.406 323.111C181.245 322.621 181.13 322.085 181.062 321.501V320.868C181.13 320.249 181.245 319.686 181.406 319.181C181.573 318.676 181.792 318.241 182.062 317.876C182.333 317.512 182.664 317.23 183.055 317.032C183.445 316.835 183.901 316.736 184.422 316.736C184.953 316.736 185.424 316.84 185.836 317.048C186.247 317.251 186.594 317.543 186.875 317.923C187.156 318.298 187.367 318.751 187.508 319.282C187.648 319.809 187.719 320.394 187.719 321.04ZM185.836 321.204V321.04C185.836 320.65 185.799 320.288 185.727 319.954C185.654 319.616 185.539 319.319 185.383 319.064C185.227 318.809 185.026 318.611 184.781 318.47C184.542 318.324 184.253 318.251 183.914 318.251C183.581 318.251 183.294 318.309 183.055 318.423C182.815 318.532 182.615 318.686 182.453 318.884C182.292 319.082 182.167 319.314 182.078 319.579C181.99 319.84 181.927 320.124 181.891 320.431V321.947C181.953 322.322 182.06 322.665 182.211 322.978C182.362 323.29 182.576 323.54 182.852 323.728C183.133 323.91 183.492 324.001 183.93 324.001C184.268 324.001 184.557 323.928 184.797 323.782C185.036 323.637 185.232 323.436 185.383 323.181C185.539 322.92 185.654 322.621 185.727 322.282C185.799 321.944 185.836 321.585 185.836 321.204ZM194.062 323.056C194.062 322.868 194.016 322.699 193.922 322.548C193.828 322.392 193.648 322.251 193.383 322.126C193.122 322.001 192.737 321.887 192.227 321.782C191.779 321.684 191.367 321.566 190.992 321.431C190.622 321.29 190.305 321.121 190.039 320.923C189.773 320.725 189.568 320.491 189.422 320.22C189.276 319.949 189.203 319.637 189.203 319.282C189.203 318.939 189.279 318.613 189.43 318.306C189.581 317.999 189.797 317.728 190.078 317.493C190.359 317.259 190.701 317.074 191.102 316.939C191.508 316.803 191.961 316.736 192.461 316.736C193.169 316.736 193.776 316.855 194.281 317.095C194.792 317.329 195.182 317.65 195.453 318.056C195.724 318.457 195.859 318.91 195.859 319.415H193.977C193.977 319.191 193.919 318.983 193.805 318.79C193.695 318.592 193.529 318.434 193.305 318.314C193.081 318.189 192.799 318.126 192.461 318.126C192.138 318.126 191.87 318.178 191.656 318.282C191.448 318.381 191.292 318.512 191.188 318.673C191.089 318.835 191.039 319.012 191.039 319.204C191.039 319.345 191.065 319.473 191.117 319.587C191.174 319.697 191.268 319.798 191.398 319.892C191.529 319.98 191.706 320.064 191.93 320.142C192.159 320.22 192.445 320.295 192.789 320.368C193.435 320.504 193.99 320.678 194.453 320.892C194.922 321.1 195.281 321.371 195.531 321.704C195.781 322.032 195.906 322.449 195.906 322.954C195.906 323.329 195.826 323.673 195.664 323.986C195.508 324.293 195.279 324.561 194.977 324.79C194.674 325.014 194.312 325.189 193.891 325.314C193.474 325.439 193.005 325.501 192.484 325.501C191.719 325.501 191.07 325.366 190.539 325.095C190.008 324.819 189.604 324.467 189.328 324.04C189.057 323.608 188.922 323.16 188.922 322.697H190.742C190.763 323.045 190.859 323.324 191.031 323.532C191.208 323.736 191.427 323.884 191.688 323.978C191.953 324.066 192.227 324.111 192.508 324.111C192.846 324.111 193.13 324.066 193.359 323.978C193.589 323.884 193.763 323.759 193.883 323.603C194.003 323.441 194.062 323.259 194.062 323.056Z" fill="#1E1B39"/>
<path d="M153.555 339.535V350.91H151.609V339.535H153.555ZM157.125 339.535V341.097H148.07V339.535H157.125ZM161.414 351.066C160.789 351.066 160.224 350.964 159.719 350.761C159.219 350.553 158.792 350.264 158.438 349.894C158.089 349.524 157.82 349.089 157.633 348.589C157.445 348.089 157.352 347.55 157.352 346.972V346.66C157.352 345.998 157.448 345.399 157.641 344.863C157.833 344.326 158.102 343.868 158.445 343.488C158.789 343.102 159.195 342.808 159.664 342.605C160.133 342.402 160.641 342.3 161.188 342.3C161.792 342.3 162.32 342.402 162.773 342.605C163.227 342.808 163.602 343.095 163.898 343.464C164.201 343.829 164.424 344.264 164.57 344.769C164.721 345.274 164.797 345.832 164.797 346.441V347.246H158.266V345.894H162.938V345.746C162.927 345.407 162.859 345.089 162.734 344.793C162.615 344.496 162.43 344.256 162.18 344.074C161.93 343.892 161.596 343.8 161.18 343.8C160.867 343.8 160.589 343.868 160.344 344.004C160.104 344.134 159.904 344.324 159.742 344.574C159.581 344.824 159.456 345.126 159.367 345.48C159.284 345.829 159.242 346.222 159.242 346.66V346.972C159.242 347.342 159.292 347.686 159.391 348.004C159.495 348.316 159.646 348.589 159.844 348.824C160.042 349.058 160.281 349.243 160.562 349.379C160.844 349.509 161.164 349.574 161.523 349.574C161.977 349.574 162.38 349.483 162.734 349.3C163.089 349.118 163.396 348.86 163.656 348.527L164.648 349.488C164.466 349.754 164.229 350.009 163.938 350.254C163.646 350.493 163.289 350.688 162.867 350.839C162.451 350.99 161.966 351.066 161.414 351.066ZM171.008 348.621C171.008 348.433 170.961 348.264 170.867 348.113C170.773 347.957 170.594 347.816 170.328 347.691C170.068 347.566 169.682 347.451 169.172 347.347C168.724 347.248 168.312 347.131 167.938 346.996C167.568 346.855 167.25 346.686 166.984 346.488C166.719 346.29 166.513 346.056 166.367 345.785C166.221 345.514 166.148 345.201 166.148 344.847C166.148 344.504 166.224 344.178 166.375 343.871C166.526 343.563 166.742 343.293 167.023 343.058C167.305 342.824 167.646 342.639 168.047 342.504C168.453 342.368 168.906 342.3 169.406 342.3C170.115 342.3 170.721 342.42 171.227 342.66C171.737 342.894 172.128 343.214 172.398 343.621C172.669 344.022 172.805 344.475 172.805 344.98H170.922C170.922 344.756 170.865 344.548 170.75 344.355C170.641 344.157 170.474 343.998 170.25 343.879C170.026 343.754 169.745 343.691 169.406 343.691C169.083 343.691 168.815 343.743 168.602 343.847C168.393 343.946 168.237 344.076 168.133 344.238C168.034 344.399 167.984 344.576 167.984 344.769C167.984 344.91 168.01 345.037 168.062 345.152C168.12 345.261 168.214 345.363 168.344 345.457C168.474 345.545 168.651 345.629 168.875 345.707C169.104 345.785 169.391 345.86 169.734 345.933C170.38 346.069 170.935 346.243 171.398 346.457C171.867 346.665 172.227 346.936 172.477 347.269C172.727 347.597 172.852 348.014 172.852 348.519C172.852 348.894 172.771 349.238 172.609 349.55C172.453 349.858 172.224 350.126 171.922 350.355C171.62 350.579 171.258 350.754 170.836 350.879C170.419 351.004 169.951 351.066 169.43 351.066C168.664 351.066 168.016 350.931 167.484 350.66C166.953 350.384 166.549 350.032 166.273 349.605C166.003 349.173 165.867 348.725 165.867 348.261H167.688C167.708 348.61 167.805 348.889 167.977 349.097C168.154 349.3 168.372 349.449 168.633 349.543C168.898 349.631 169.172 349.675 169.453 349.675C169.792 349.675 170.076 349.631 170.305 349.543C170.534 349.449 170.708 349.324 170.828 349.168C170.948 349.006 171.008 348.824 171.008 348.621ZM178.375 342.457V343.832H173.609V342.457H178.375ZM174.984 340.386H176.867V348.574C176.867 348.834 176.904 349.035 176.977 349.175C177.055 349.311 177.161 349.402 177.297 349.449C177.432 349.496 177.591 349.519 177.773 349.519C177.904 349.519 178.029 349.511 178.148 349.496C178.268 349.48 178.365 349.464 178.438 349.449L178.445 350.886C178.289 350.933 178.107 350.975 177.898 351.011C177.695 351.048 177.461 351.066 177.195 351.066C176.763 351.066 176.38 350.99 176.047 350.839C175.714 350.683 175.453 350.431 175.266 350.082C175.078 349.733 174.984 349.269 174.984 348.691V340.386ZM181.844 342.457V350.91H179.953V342.457H181.844ZM179.828 340.238C179.828 339.951 179.922 339.714 180.109 339.527C180.302 339.334 180.568 339.238 180.906 339.238C181.24 339.238 181.503 339.334 181.695 339.527C181.888 339.714 181.984 339.951 181.984 340.238C181.984 340.519 181.888 340.754 181.695 340.941C181.503 341.129 181.24 341.222 180.906 341.222C180.568 341.222 180.302 341.129 180.109 340.941C179.922 340.754 179.828 340.519 179.828 340.238ZM185.773 344.261V350.91H183.891V342.457H185.664L185.773 344.261ZM185.438 346.371L184.828 346.363C184.833 345.764 184.917 345.214 185.078 344.714C185.245 344.214 185.474 343.785 185.766 343.425C186.062 343.066 186.417 342.79 186.828 342.597C187.24 342.399 187.698 342.3 188.203 342.3C188.609 342.3 188.977 342.358 189.305 342.472C189.638 342.582 189.922 342.761 190.156 343.011C190.396 343.261 190.578 343.587 190.703 343.988C190.828 344.384 190.891 344.871 190.891 345.449V350.91H189V345.441C189 345.035 188.94 344.714 188.82 344.48C188.706 344.24 188.536 344.071 188.312 343.972C188.094 343.868 187.82 343.816 187.492 343.816C187.169 343.816 186.88 343.884 186.625 344.019C186.37 344.155 186.154 344.339 185.977 344.574C185.805 344.808 185.672 345.079 185.578 345.386C185.484 345.694 185.438 346.022 185.438 346.371ZM198.227 342.457H199.938V350.675C199.938 351.436 199.776 352.082 199.453 352.613C199.13 353.144 198.68 353.548 198.102 353.824C197.523 354.105 196.854 354.246 196.094 354.246C195.771 354.246 195.411 354.199 195.016 354.105C194.625 354.011 194.245 353.86 193.875 353.652C193.51 353.449 193.206 353.181 192.961 352.847L193.844 351.738C194.146 352.097 194.479 352.36 194.844 352.527C195.208 352.694 195.591 352.777 195.992 352.777C196.424 352.777 196.792 352.696 197.094 352.535C197.401 352.379 197.638 352.147 197.805 351.839C197.971 351.532 198.055 351.157 198.055 350.714V344.371L198.227 342.457ZM192.484 346.777V346.613C192.484 345.972 192.562 345.389 192.719 344.863C192.875 344.332 193.099 343.876 193.391 343.496C193.682 343.11 194.036 342.816 194.453 342.613C194.87 342.405 195.341 342.3 195.867 342.3C196.414 342.3 196.88 342.399 197.266 342.597C197.656 342.795 197.982 343.079 198.242 343.449C198.503 343.813 198.706 344.251 198.852 344.761C199.003 345.267 199.115 345.829 199.188 346.449V346.972C199.12 347.576 199.005 348.129 198.844 348.629C198.682 349.129 198.469 349.561 198.203 349.925C197.938 350.29 197.609 350.571 197.219 350.769C196.833 350.967 196.378 351.066 195.852 351.066C195.336 351.066 194.87 350.959 194.453 350.746C194.042 350.532 193.688 350.233 193.391 349.847C193.099 349.462 192.875 349.009 192.719 348.488C192.562 347.962 192.484 347.392 192.484 346.777ZM194.367 346.613V346.777C194.367 347.162 194.404 347.522 194.477 347.855C194.555 348.188 194.672 348.483 194.828 348.738C194.99 348.988 195.193 349.186 195.438 349.332C195.688 349.472 195.982 349.543 196.32 349.543C196.763 349.543 197.125 349.449 197.406 349.261C197.693 349.074 197.911 348.821 198.062 348.504C198.219 348.181 198.328 347.821 198.391 347.425V346.011C198.359 345.704 198.294 345.418 198.195 345.152C198.102 344.886 197.974 344.655 197.812 344.457C197.651 344.254 197.448 344.097 197.203 343.988C196.958 343.873 196.669 343.816 196.336 343.816C195.997 343.816 195.703 343.889 195.453 344.035C195.203 344.181 194.997 344.381 194.836 344.636C194.68 344.892 194.562 345.188 194.484 345.527C194.406 345.865 194.367 346.227 194.367 346.613ZM201.969 349.972C201.969 349.681 202.068 349.436 202.266 349.238C202.464 349.035 202.732 348.933 203.07 348.933C203.414 348.933 203.682 349.035 203.875 349.238C204.073 349.436 204.172 349.681 204.172 349.972C204.172 350.264 204.073 350.509 203.875 350.707C203.682 350.905 203.414 351.004 203.07 351.004C202.732 351.004 202.464 350.905 202.266 350.707C202.068 350.509 201.969 350.264 201.969 349.972ZM206.422 349.972C206.422 349.681 206.521 349.436 206.719 349.238C206.917 349.035 207.185 348.933 207.523 348.933C207.867 348.933 208.135 349.035 208.328 349.238C208.526 349.436 208.625 349.681 208.625 349.972C208.625 350.264 208.526 350.509 208.328 350.707C208.135 350.905 207.867 351.004 207.523 351.004C207.185 351.004 206.917 350.905 206.719 350.707C206.521 350.509 206.422 350.264 206.422 349.972ZM210.875 349.972C210.875 349.681 210.974 349.436 211.172 349.238C211.37 349.035 211.638 348.933 211.977 348.933C212.32 348.933 212.589 349.035 212.781 349.238C212.979 349.436 213.078 349.681 213.078 349.972C213.078 350.264 212.979 350.509 212.781 350.707C212.589 350.905 212.32 351.004 211.977 351.004C211.638 351.004 211.37 350.905 211.172 350.707C210.974 350.509 210.875 350.264 210.875 349.972Z" fill="#878787"/>
<path d="M157.633 281.586L152.242 280.297L154.188 263H173.359V268.461H159.742L158.898 276.031C159.352 275.766 160.039 275.484 160.961 275.188C161.883 274.875 162.914 274.719 164.055 274.719C165.711 274.719 167.18 274.977 168.461 275.492C169.742 276.008 170.828 276.758 171.719 277.742C172.625 278.727 173.312 279.93 173.781 281.352C174.25 282.774 174.484 284.383 174.484 286.18C174.484 287.695 174.25 289.141 173.781 290.516C173.312 291.875 172.602 293.094 171.648 294.172C170.695 295.234 169.5 296.07 168.062 296.68C166.625 297.289 164.922 297.594 162.953 297.594C161.484 297.594 160.062 297.375 158.688 296.938C157.328 296.5 156.102 295.852 155.008 294.992C153.93 294.133 153.062 293.094 152.406 291.875C151.766 290.641 151.43 289.234 151.398 287.656H158.102C158.195 288.625 158.445 289.461 158.852 290.164C159.273 290.852 159.828 291.383 160.516 291.758C161.203 292.133 162.008 292.32 162.93 292.32C163.789 292.32 164.523 292.156 165.133 291.828C165.742 291.5 166.234 291.047 166.609 290.469C166.984 289.875 167.258 289.188 167.43 288.406C167.617 287.609 167.711 286.75 167.711 285.828C167.711 284.906 167.602 284.07 167.383 283.32C167.164 282.57 166.828 281.922 166.375 281.375C165.922 280.828 165.344 280.406 164.641 280.109C163.953 279.813 163.148 279.664 162.227 279.664C160.977 279.664 160.008 279.859 159.32 280.25C158.648 280.641 158.086 281.086 157.633 281.586ZM201.812 277.063V282.969C201.812 285.531 201.539 287.742 200.992 289.602C200.445 291.445 199.656 292.961 198.625 294.149C197.609 295.32 196.398 296.188 194.992 296.75C193.586 297.313 192.023 297.594 190.305 297.594C188.93 297.594 187.648 297.422 186.461 297.078C185.273 296.719 184.203 296.164 183.25 295.414C182.312 294.664 181.5 293.719 180.812 292.578C180.141 291.422 179.625 290.047 179.266 288.453C178.906 286.859 178.727 285.031 178.727 282.969V277.063C178.727 274.5 179 272.305 179.547 270.477C180.109 268.633 180.898 267.125 181.914 265.953C182.945 264.781 184.164 263.922 185.57 263.375C186.977 262.813 188.539 262.531 190.258 262.531C191.633 262.531 192.906 262.711 194.078 263.07C195.266 263.414 196.336 263.953 197.289 264.688C198.242 265.422 199.055 266.367 199.727 267.524C200.398 268.664 200.914 270.031 201.273 271.625C201.633 273.203 201.812 275.016 201.812 277.063ZM195.039 283.859V276.149C195.039 274.914 194.969 273.836 194.828 272.914C194.703 271.992 194.508 271.211 194.242 270.57C193.977 269.914 193.648 269.383 193.258 268.977C192.867 268.57 192.422 268.274 191.922 268.086C191.422 267.899 190.867 267.805 190.258 267.805C189.492 267.805 188.812 267.953 188.219 268.25C187.641 268.547 187.148 269.024 186.742 269.68C186.336 270.32 186.023 271.18 185.805 272.258C185.602 273.32 185.5 274.617 185.5 276.149V283.859C185.5 285.094 185.562 286.18 185.688 287.117C185.828 288.055 186.031 288.859 186.297 289.531C186.578 290.188 186.906 290.727 187.281 291.149C187.672 291.555 188.117 291.852 188.617 292.039C189.133 292.227 189.695 292.32 190.305 292.32C191.055 292.32 191.719 292.172 192.297 291.875C192.891 291.563 193.391 291.078 193.797 290.422C194.219 289.75 194.531 288.875 194.734 287.797C194.938 286.719 195.039 285.406 195.039 283.859Z" fill="#1E1B39"/>
<mask id="mask0_439_1324" style="mask-type:alpha" maskUnits="userSpaceOnUse" x="29" y="152" width="282" height="177">
<rect x="29.5723" y="152.531" width="280.856" height="175.892" fill="#D9D9D9"/>
</mask>
<g mask="url(#mask0_439_1324)">
<mask id="path-6-inside-1_439_1324" fill="white">
<path d="M37.9276 321.634C33.7897 321.634 30.4203 318.278 30.5785 314.143C31.3038 295.18 34.7791 276.491 40.8645 258.918C47.7498 239.035 57.8419 220.968 70.5643 205.75C83.2868 190.532 98.3906 178.461 115.013 170.225C128.873 163.358 143.562 159.27 158.491 158.1C163.426 157.714 167.444 161.762 167.444 166.712V166.712C167.444 171.662 163.424 175.633 158.494 176.067C145.534 177.207 132.789 180.818 120.748 186.784C105.943 194.12 92.4911 204.871 81.1601 218.425C69.8291 231.978 60.8408 248.069 54.7085 265.777C49.3762 281.176 46.2942 297.535 45.5807 314.144C45.4031 318.278 42.0655 321.634 37.9276 321.634V321.634Z"/>
</mask>
<path d="M37.9276 321.634C33.7897 321.634 30.4203 318.278 30.5785 314.143C31.3038 295.18 34.7791 276.491 40.8645 258.918C47.7498 239.035 57.8419 220.968 70.5643 205.75C83.2868 190.532 98.3906 178.461 115.013 170.225C128.873 163.358 143.562 159.27 158.491 158.1C163.426 157.714 167.444 161.762 167.444 166.712V166.712C167.444 171.662 163.424 175.633 158.494 176.067C145.534 177.207 132.789 180.818 120.748 186.784C105.943 194.12 92.4911 204.871 81.1601 218.425C69.8291 231.978 60.8408 248.069 54.7085 265.777C49.3762 281.176 46.2942 297.535 45.5807 314.144C45.4031 318.278 42.0655 321.634 37.9276 321.634V321.634Z" stroke="#FF718B" stroke-width="28.3966" stroke-linecap="round" stroke-linejoin="round" mask="url(#path-6-inside-1_439_1324)"/>
<mask id="path-7-inside-2_439_1324" fill="white">
<path d="M175.18 166.764C175.347 161.87 179.484 158.023 184.346 158.602C199.432 160.399 214.167 165.02 227.969 172.285C231.787 174.294 233.22 178.962 231.441 182.892V182.892C229.343 187.528 223.679 189.269 219.12 187.009C207.795 181.392 195.805 177.749 183.547 176.199C178.766 175.595 175.016 171.58 175.18 166.764V166.764Z"/>
</mask>
<path d="M175.18 166.764C175.347 161.87 179.484 158.023 184.346 158.602C199.432 160.399 214.167 165.02 227.969 172.285C231.787 174.294 233.22 178.962 231.441 182.892V182.892C229.343 187.528 223.679 189.269 219.12 187.009C207.795 181.392 195.805 177.749 183.547 176.199C178.766 175.595 175.016 171.58 175.18 166.764V166.764Z" stroke="#FCB5C3" stroke-width="28.3966" stroke-linecap="round" stroke-linejoin="round" mask="url(#path-7-inside-2_439_1324)"/>
<mask id="path-8-inside-3_439_1324" fill="white">
<path d="M237.215 189.042C239.553 184.533 245.329 183.083 249.303 186.246C259.621 194.46 268.936 204.242 276.993 215.331C279.344 218.566 278.733 223.033 275.729 225.674V225.674C272.083 228.88 266.459 228.114 263.523 224.248C256.539 215.053 248.562 206.923 239.786 200.06C236.435 197.439 235.256 192.818 237.215 189.042V189.042Z"/>
</mask>
<path d="M237.215 189.042C239.553 184.533 245.329 183.083 249.303 186.246C259.621 194.46 268.936 204.242 276.993 215.331C279.344 218.566 278.733 223.033 275.729 225.674V225.674C272.083 228.88 266.459 228.114 263.523 224.248C256.539 215.053 248.562 206.923 239.786 200.06C236.435 197.439 235.256 192.818 237.215 189.042V189.042Z" stroke="#FFEB3A" stroke-width="28.3966" stroke-linecap="round" stroke-linejoin="round" mask="url(#path-8-inside-3_439_1324)"/>
<mask id="path-9-inside-4_439_1324" fill="white">
<path d="M278.592 234.309C282.385 231.364 287.915 232.426 290.108 236.697C302.174 260.199 308.856 286.869 309.511 314.186C309.612 318.417 306.093 321.783 301.862 321.685V321.685C297.665 321.587 294.353 318.117 294.233 313.921C293.535 289.471 287.417 265.629 276.462 244.674C274.615 241.142 275.444 236.754 278.592 234.309V234.309Z"/>
</mask>
<path d="M278.592 234.309C282.385 231.364 287.915 232.426 290.108 236.697C302.174 260.199 308.856 286.869 309.511 314.186C309.612 318.417 306.093 321.783 301.862 321.685V321.685C297.665 321.587 294.353 318.117 294.233 313.921C293.535 289.471 287.417 265.629 276.462 244.674C274.615 241.142 275.444 236.754 278.592 234.309V234.309Z" stroke="#7FE47E" stroke-width="28.3966" stroke-linecap="round" stroke-linejoin="round" mask="url(#path-9-inside-4_439_1324)"/>
<g filter="url(#filter1_d_439_1324)">
<ellipse cx="294.009" cy="267.967" rx="14.155" ry="16.6216" fill="white"/>
<path d="M304.664 267.967C304.664 275.763 299.388 281.089 294.009 281.089C288.631 281.089 283.354 275.763 283.354 267.967C283.354 260.172 288.631 254.846 294.009 254.846C299.388 254.846 304.664 260.172 304.664 267.967Z" stroke="#7FE47E" stroke-width="7"/>
</g>
</g>
<path d="M34.334 76.7841V73.995H47.4746V76.7841H42.5762V89.995H39.2324V76.7841H34.334ZM53.3047 90.2294C52.0703 90.2294 51.0078 89.9794 50.1172 89.4794C49.2318 88.9742 48.5495 88.2606 48.0703 87.3387C47.5911 86.4117 47.3516 85.3153 47.3516 84.0497C47.3516 82.8153 47.5911 81.732 48.0703 80.7997C48.5495 79.8674 49.224 79.1408 50.0938 78.62C50.9688 78.0992 51.9948 77.8387 53.1719 77.8387C53.9635 77.8387 54.7005 77.9663 55.3828 78.2216C56.0703 78.4716 56.6693 78.8492 57.1797 79.3544C57.6953 79.8596 58.0964 80.495 58.3828 81.2606C58.6693 82.021 58.8125 82.9117 58.8125 83.9325V84.8466H48.6797V82.7841H55.6797C55.6797 82.3049 55.5755 81.8804 55.3672 81.5106C55.1589 81.1408 54.8698 80.8518 54.5 80.6434C54.1354 80.4299 53.7109 80.3231 53.2266 80.3231C52.7214 80.3231 52.2734 80.4403 51.8828 80.6747C51.4974 80.9038 51.1953 81.2137 50.9766 81.6044C50.7578 81.9898 50.6458 82.4195 50.6406 82.8934V84.8544C50.6406 85.4481 50.75 85.9611 50.9688 86.3934C51.1927 86.8257 51.5078 87.1591 51.9141 87.3934C52.3203 87.6278 52.8021 87.745 53.3594 87.745C53.7292 87.745 54.0677 87.6929 54.375 87.5887C54.6823 87.4846 54.9453 87.3283 55.1641 87.12C55.3828 86.9117 55.5495 86.6565 55.6641 86.3544L58.7422 86.5575C58.5859 87.2971 58.2656 87.9429 57.7813 88.495C57.3021 89.0419 56.6823 89.469 55.9219 89.7762C55.1667 90.0783 54.2943 90.2294 53.3047 90.2294ZM70.9688 81.4169L67.9219 81.6044C67.8698 81.344 67.7578 81.1096 67.5859 80.9012C67.4141 80.6877 67.1875 80.5184 66.9063 80.3934C66.6302 80.2632 66.2995 80.1981 65.9141 80.1981C65.3984 80.1981 64.9635 80.3075 64.6094 80.5262C64.2552 80.7398 64.0781 81.0262 64.0781 81.3856C64.0781 81.6721 64.1927 81.9143 64.4219 82.1122C64.651 82.3101 65.0443 82.469 65.6016 82.5887L67.7734 83.0262C68.9401 83.2658 69.8099 83.6512 70.3828 84.1825C70.9557 84.7137 71.2422 85.4117 71.2422 86.2762C71.2422 87.0627 71.0104 87.7528 70.5469 88.3466C70.0885 88.9403 69.4583 89.4038 68.6563 89.7372C67.8594 90.0653 66.9401 90.2294 65.8984 90.2294C64.3099 90.2294 63.0443 89.8986 62.1016 89.2372C61.1641 88.5705 60.6146 87.6643 60.4531 86.5184L63.7266 86.3466C63.8255 86.8309 64.0651 87.2007 64.4453 87.4559C64.8255 87.7059 65.3125 87.8309 65.9062 87.8309C66.4896 87.8309 66.9583 87.719 67.3125 87.495C67.6719 87.2658 67.8542 86.9716 67.8594 86.6122C67.8542 86.3101 67.7266 86.0627 67.4766 85.87C67.2266 85.6721 66.8411 85.521 66.3203 85.4169L64.2422 85.0028C63.0703 84.7684 62.1979 84.3622 61.625 83.7841C61.0573 83.2059 60.7734 82.469 60.7734 81.5731C60.7734 80.8023 60.9818 80.1382 61.3984 79.5809C61.8203 79.0236 62.4115 78.594 63.1719 78.2919C63.9375 77.9898 64.8333 77.8387 65.8594 77.8387C67.375 77.8387 68.5677 78.1591 69.4375 78.7997C70.3125 79.4403 70.8229 80.3127 70.9688 81.4169ZM79.7207 77.995V80.495H72.4941V77.995H79.7207ZM74.1348 75.12H77.4629V86.3075C77.4629 86.6148 77.5098 86.8544 77.6035 87.0262C77.6973 87.1929 77.8275 87.3101 77.9941 87.3778C78.166 87.4455 78.3639 87.4794 78.5879 87.4794C78.7441 87.4794 78.9004 87.4663 79.0566 87.4403C79.2129 87.4091 79.3327 87.3856 79.416 87.37L79.9395 89.8466C79.7728 89.8986 79.5384 89.9585 79.2363 90.0262C78.9342 90.0992 78.5671 90.1434 78.1348 90.1591C77.3327 90.1903 76.6296 90.0835 76.0254 89.8387C75.4264 89.594 74.9603 89.2137 74.627 88.6981C74.2936 88.1825 74.1296 87.5315 74.1348 86.745V75.12ZM91.4023 90.1903C90.4909 90.1903 89.6654 89.9559 88.9258 89.4872C88.1914 89.0132 87.6081 88.3179 87.1758 87.4012C86.7487 86.4794 86.5352 85.3492 86.5352 84.0106C86.5352 82.6356 86.7565 81.4924 87.1992 80.5809C87.6419 79.6643 88.2305 78.9794 88.9648 78.5262C89.7044 78.0679 90.5143 77.8387 91.3945 77.8387C92.0664 77.8387 92.6263 77.9533 93.0742 78.1825C93.5273 78.4065 93.8919 78.6877 94.168 79.0262C94.4492 79.3596 94.6628 79.6877 94.8086 80.0106H94.9102V73.995H98.2305V89.995H94.9492V88.0731H94.8086C94.6523 88.4065 94.431 88.7372 94.1445 89.0653C93.8633 89.3882 93.4961 89.6565 93.043 89.87C92.5951 90.0835 92.0482 90.1903 91.4023 90.1903ZM92.457 87.5419C92.9935 87.5419 93.4466 87.396 93.8164 87.1044C94.1914 86.8075 94.4779 86.3934 94.6758 85.8622C94.8789 85.3309 94.9805 84.7085 94.9805 83.995C94.9805 83.2815 94.8815 82.6617 94.6836 82.1356C94.4857 81.6096 94.1992 81.2033 93.8242 80.9169C93.4492 80.6304 92.9935 80.4872 92.457 80.4872C91.9102 80.4872 91.4492 80.6356 91.0742 80.9325C90.6992 81.2294 90.4154 81.6408 90.2227 82.1669C90.0299 82.6929 89.9336 83.3023 89.9336 83.995C89.9336 84.6929 90.0299 85.3101 90.2227 85.8466C90.4206 86.3778 90.7044 86.7945 91.0742 87.0966C91.4492 87.3934 91.9102 87.5419 92.457 87.5419ZM106.436 90.2294C105.201 90.2294 104.139 89.9794 103.248 89.4794C102.363 88.9742 101.68 88.2606 101.201 87.3387C100.722 86.4117 100.482 85.3153 100.482 84.0497C100.482 82.8153 100.722 81.732 101.201 80.7997C101.68 79.8674 102.355 79.1408 103.225 78.62C104.1 78.0992 105.126 77.8387 106.303 77.8387C107.094 77.8387 107.831 77.9663 108.514 78.2216C109.201 78.4716 109.8 78.8492 110.311 79.3544C110.826 79.8596 111.227 80.495 111.514 81.2606C111.8 82.021 111.943 82.9117 111.943 83.9325V84.8466H101.811V82.7841H108.811C108.811 82.3049 108.706 81.8804 108.498 81.5106C108.29 81.1408 108.001 80.8518 107.631 80.6434C107.266 80.4299 106.842 80.3231 106.357 80.3231C105.852 80.3231 105.404 80.4403 105.014 80.6747C104.628 80.9038 104.326 81.2137 104.107 81.6044C103.889 81.9898 103.777 82.4195 103.771 82.8934V84.8544C103.771 85.4481 103.881 85.9611 104.1 86.3934C104.324 86.8257 104.639 87.1591 105.045 87.3934C105.451 87.6278 105.933 87.745 106.49 87.745C106.86 87.745 107.199 87.6929 107.506 87.5887C107.813 87.4846 108.076 87.3283 108.295 87.12C108.514 86.9117 108.68 86.6565 108.795 86.3544L111.873 86.5575C111.717 87.2971 111.396 87.9429 110.912 88.495C110.433 89.0419 109.813 89.469 109.053 89.7762C108.298 90.0783 107.425 90.2294 106.436 90.2294ZM46.0684 105.995L41.873 117.995H38.123L33.9277 105.995H37.4434L39.9355 114.581H40.0605L42.5449 105.995H46.0684ZM52.8535 118.229C51.6191 118.229 50.5566 117.979 49.666 117.479C48.7806 116.974 48.0983 116.261 47.6191 115.339C47.14 114.412 46.9004 113.315 46.9004 112.05C46.9004 110.815 47.14 109.732 47.6191 108.8C48.0983 107.867 48.7728 107.141 49.6426 106.62C50.5176 106.099 51.5436 105.839 52.7207 105.839C53.5124 105.839 54.2493 105.966 54.9316 106.222C55.6191 106.472 56.2181 106.849 56.7285 107.354C57.2441 107.86 57.6452 108.495 57.9316 109.261C58.2181 110.021 58.3613 110.912 58.3613 111.932V112.847H48.2285V110.784H55.2285C55.2285 110.305 55.1243 109.88 54.916 109.511C54.7077 109.141 54.4186 108.852 54.0488 108.643C53.6842 108.43 53.2598 108.323 52.7754 108.323C52.2702 108.323 51.8223 108.44 51.4316 108.675C51.0462 108.904 50.7441 109.214 50.5254 109.604C50.3066 109.99 50.1947 110.419 50.1895 110.893V112.854C50.1895 113.448 50.2988 113.961 50.5176 114.393C50.7415 114.826 51.0566 115.159 51.4629 115.393C51.8691 115.628 52.3509 115.745 52.9082 115.745C53.278 115.745 53.6165 115.693 53.9238 115.589C54.2311 115.485 54.4941 115.328 54.7129 115.12C54.9316 114.912 55.0983 114.656 55.2129 114.354L58.291 114.557C58.1348 115.297 57.8145 115.943 57.3301 116.495C56.8509 117.042 56.2311 117.469 55.4707 117.776C54.7155 118.078 53.8431 118.229 52.8535 118.229ZM63.8613 101.995V117.995H60.5332V101.995H63.8613ZM71.9492 118.229C70.7357 118.229 69.6862 117.972 68.8008 117.456C67.9206 116.935 67.2409 116.211 66.7617 115.284C66.2826 114.352 66.043 113.271 66.043 112.042C66.043 110.802 66.2826 109.719 66.7617 108.792C67.2409 107.86 67.9206 107.136 68.8008 106.62C69.6862 106.099 70.7357 105.839 71.9492 105.839C73.1628 105.839 74.2096 106.099 75.0898 106.62C75.9753 107.136 76.6576 107.86 77.1367 108.792C77.6159 109.719 77.8555 110.802 77.8555 112.042C77.8555 113.271 77.6159 114.352 77.1367 115.284C76.6576 116.211 75.9753 116.935 75.0898 117.456C74.2096 117.972 73.1628 118.229 71.9492 118.229ZM71.9648 115.651C72.5169 115.651 72.9779 115.495 73.3477 115.182C73.7174 114.865 73.9961 114.432 74.1836 113.886C74.3763 113.339 74.4727 112.716 74.4727 112.018C74.4727 111.321 74.3763 110.698 74.1836 110.151C73.9961 109.604 73.7174 109.172 73.3477 108.854C72.9779 108.537 72.5169 108.378 71.9648 108.378C71.4076 108.378 70.9388 108.537 70.5586 108.854C70.1836 109.172 69.8997 109.604 69.707 110.151C69.5195 110.698 69.4258 111.321 69.4258 112.018C69.4258 112.716 69.5195 113.339 69.707 113.886C69.8997 114.432 70.1836 114.865 70.5586 115.182C70.9388 115.495 71.4076 115.651 71.9648 115.651ZM85.4414 118.229C84.2122 118.229 83.1549 117.969 82.2695 117.448C81.3893 116.922 80.7122 116.193 80.2383 115.261C79.7695 114.328 79.5352 113.255 79.5352 112.042C79.5352 110.813 79.7721 109.735 80.2461 108.807C80.7253 107.875 81.4049 107.149 82.2852 106.628C83.1654 106.102 84.2122 105.839 85.4258 105.839C86.4727 105.839 87.3893 106.029 88.1758 106.409C88.9622 106.789 89.5846 107.323 90.043 108.011C90.5013 108.698 90.7539 109.505 90.8008 110.432H87.6602C87.5716 109.834 87.3372 109.352 86.957 108.987C86.582 108.617 86.0898 108.432 85.4805 108.432C84.9648 108.432 84.5143 108.573 84.1289 108.854C83.7487 109.13 83.4518 109.534 83.2383 110.065C83.0247 110.597 82.918 111.24 82.918 111.995C82.918 112.761 83.0221 113.412 83.2305 113.948C83.444 114.485 83.7435 114.893 84.1289 115.175C84.5143 115.456 84.9648 115.597 85.4805 115.597C85.8607 115.597 86.2018 115.518 86.5039 115.362C86.8112 115.206 87.0638 114.979 87.2617 114.682C87.4648 114.38 87.5977 114.018 87.6602 113.597H90.8008C90.7487 114.513 90.4987 115.321 90.0508 116.018C89.6081 116.711 88.9961 117.253 88.2148 117.643C87.4336 118.034 86.5091 118.229 85.4414 118.229ZM92.9316 117.995V105.995H96.2598V117.995H92.9316ZM94.6035 104.448C94.1087 104.448 93.6842 104.284 93.3301 103.956C92.9811 103.623 92.8066 103.224 92.8066 102.761C92.8066 102.302 92.9811 101.909 93.3301 101.581C93.6842 101.248 94.1087 101.081 94.6035 101.081C95.0983 101.081 95.5202 101.248 95.8691 101.581C96.2233 101.909 96.4004 102.302 96.4004 102.761C96.4004 103.224 96.2233 103.623 95.8691 103.956C95.5202 104.284 95.0983 104.448 94.6035 104.448ZM103.348 118.19C102.436 118.19 101.611 117.956 100.871 117.487C100.137 117.013 99.5534 116.318 99.1211 115.401C98.694 114.479 98.4805 113.349 98.4805 112.011C98.4805 110.636 98.7018 109.492 99.1445 108.581C99.5872 107.664 100.176 106.979 100.91 106.526C101.65 106.068 102.46 105.839 103.34 105.839C104.012 105.839 104.572 105.953 105.02 106.182C105.473 106.406 105.837 106.688 106.113 107.026C106.395 107.36 106.608 107.688 106.754 108.011H106.855V101.995H110.176V117.995H106.895V116.073H106.754C106.598 116.406 106.376 116.737 106.09 117.065C105.809 117.388 105.441 117.656 104.988 117.87C104.54 118.084 103.993 118.19 103.348 118.19ZM104.402 115.542C104.939 115.542 105.392 115.396 105.762 115.104C106.137 114.807 106.423 114.393 106.621 113.862C106.824 113.331 106.926 112.709 106.926 111.995C106.926 111.281 106.827 110.662 106.629 110.136C106.431 109.61 106.145 109.203 105.77 108.917C105.395 108.63 104.939 108.487 104.402 108.487C103.855 108.487 103.395 108.636 103.02 108.932C102.645 109.229 102.361 109.641 102.168 110.167C101.975 110.693 101.879 111.302 101.879 111.995C101.879 112.693 101.975 113.31 102.168 113.847C102.366 114.378 102.65 114.794 103.02 115.097C103.395 115.393 103.855 115.542 104.402 115.542ZM116.334 118.222C115.568 118.222 114.886 118.089 114.287 117.823C113.688 117.552 113.214 117.154 112.865 116.628C112.521 116.097 112.35 115.435 112.35 114.643C112.35 113.977 112.472 113.417 112.717 112.964C112.962 112.511 113.295 112.146 113.717 111.87C114.139 111.594 114.618 111.386 115.154 111.245C115.696 111.104 116.264 111.005 116.857 110.948C117.555 110.875 118.118 110.807 118.545 110.745C118.972 110.677 119.282 110.578 119.475 110.448C119.667 110.318 119.764 110.125 119.764 109.87V109.823C119.764 109.328 119.607 108.946 119.295 108.675C118.988 108.404 118.55 108.268 117.982 108.268C117.383 108.268 116.907 108.401 116.553 108.667C116.199 108.927 115.964 109.255 115.85 109.651L112.771 109.401C112.928 108.672 113.235 108.042 113.693 107.511C114.152 106.974 114.743 106.563 115.467 106.276C116.196 105.985 117.04 105.839 117.998 105.839C118.665 105.839 119.303 105.917 119.912 106.073C120.527 106.229 121.071 106.472 121.545 106.8C122.024 107.128 122.402 107.55 122.678 108.065C122.954 108.576 123.092 109.188 123.092 109.901V117.995H119.936V116.331H119.842C119.649 116.706 119.391 117.037 119.068 117.323C118.745 117.604 118.357 117.826 117.904 117.987C117.451 118.143 116.928 118.222 116.334 118.222ZM117.287 115.925C117.777 115.925 118.209 115.828 118.584 115.636C118.959 115.438 119.253 115.172 119.467 114.839C119.68 114.505 119.787 114.128 119.787 113.706V112.432C119.683 112.5 119.54 112.563 119.357 112.62C119.18 112.672 118.98 112.722 118.756 112.768C118.532 112.81 118.308 112.849 118.084 112.886C117.86 112.917 117.657 112.946 117.475 112.972C117.084 113.029 116.743 113.12 116.451 113.245C116.16 113.37 115.933 113.539 115.771 113.753C115.61 113.961 115.529 114.222 115.529 114.534C115.529 114.987 115.693 115.334 116.021 115.573C116.355 115.807 116.777 115.925 117.287 115.925ZM130.096 118.19C129.184 118.19 128.359 117.956 127.619 117.487C126.885 117.013 126.301 116.318 125.869 115.401C125.442 114.479 125.229 113.349 125.229 112.011C125.229 110.636 125.45 109.492 125.893 108.581C126.335 107.664 126.924 106.979 127.658 106.526C128.398 106.068 129.208 105.839 130.088 105.839C130.76 105.839 131.32 105.953 131.768 106.182C132.221 106.406 132.585 106.688 132.861 107.026C133.143 107.36 133.356 107.688 133.502 108.011H133.604V101.995H136.924V117.995H133.643V116.073H133.502C133.346 116.406 133.124 116.737 132.838 117.065C132.557 117.388 132.189 117.656 131.736 117.87C131.288 118.084 130.742 118.19 130.096 118.19ZM131.15 115.542C131.687 115.542 132.14 115.396 132.51 115.104C132.885 114.807 133.171 114.393 133.369 113.862C133.572 113.331 133.674 112.709 133.674 111.995C133.674 111.281 133.575 110.662 133.377 110.136C133.179 109.61 132.893 109.203 132.518 108.917C132.143 108.63 131.687 108.487 131.15 108.487C130.604 108.487 130.143 108.636 129.768 108.932C129.393 109.229 129.109 109.641 128.916 110.167C128.723 110.693 128.627 111.302 128.627 111.995C128.627 112.693 128.723 113.31 128.916 113.847C129.114 114.378 129.398 114.794 129.768 115.097C130.143 115.393 130.604 115.542 131.15 115.542Z" fill="#1E1B39"/>
<path d="M81.5469 379.555H81.7812V381.094H81.6484C80.9766 381.094 80.3958 381.198 79.9062 381.406C79.4219 381.615 79.0234 381.901 78.7109 382.266C78.3984 382.63 78.1641 383.057 78.0078 383.547C77.8568 384.031 77.7812 384.547 77.7812 385.094V386.883C77.7812 387.336 77.8307 387.737 77.9297 388.086C78.0286 388.43 78.1667 388.719 78.3438 388.953C78.526 389.182 78.7344 389.357 78.9688 389.477C79.2031 389.596 79.4557 389.656 79.7266 389.656C80.0078 389.656 80.263 389.599 80.4922 389.484C80.7214 389.365 80.9167 389.201 81.0781 388.992C81.2396 388.784 81.362 388.536 81.4453 388.25C81.5286 387.964 81.5703 387.651 81.5703 387.312C81.5703 386.99 81.5286 386.688 81.4453 386.406C81.3672 386.12 81.25 385.87 81.0938 385.656C80.9375 385.438 80.7422 385.268 80.5078 385.148C80.2786 385.023 80.013 384.961 79.7109 384.961C79.3359 384.961 78.9948 385.049 78.6875 385.227C78.3854 385.404 78.1406 385.635 77.9531 385.922C77.7708 386.203 77.6719 386.503 77.6562 386.82L76.9375 386.586C76.9792 386.102 77.0859 385.667 77.2578 385.281C77.4349 384.896 77.6667 384.568 77.9531 384.297C78.2396 384.026 78.5703 383.82 78.9453 383.68C79.3255 383.534 79.7422 383.461 80.1953 383.461C80.7474 383.461 81.2266 383.565 81.6328 383.773C82.0391 383.982 82.375 384.266 82.6406 384.625C82.9115 384.979 83.112 385.385 83.2422 385.844C83.3776 386.297 83.4453 386.771 83.4453 387.266C83.4453 387.812 83.362 388.323 83.1953 388.797C83.0286 389.266 82.7839 389.677 82.4609 390.031C82.1432 390.385 81.7552 390.661 81.2969 390.859C80.8438 391.057 80.3281 391.156 79.75 391.156C79.1406 391.156 78.5964 391.039 78.1172 390.805C77.6432 390.57 77.2396 390.247 76.9062 389.836C76.5781 389.424 76.3281 388.951 76.1562 388.414C75.9844 387.878 75.8984 387.31 75.8984 386.711V385.93C75.8984 385.065 76.0078 384.25 76.2266 383.484C76.4453 382.714 76.7812 382.034 77.2344 381.445C77.6927 380.857 78.2786 380.396 78.9922 380.062C79.7057 379.724 80.5573 379.555 81.5469 379.555ZM85.1406 390.062C85.1406 389.771 85.2396 389.526 85.4375 389.328C85.6354 389.125 85.9036 389.023 86.2422 389.023C86.5859 389.023 86.8542 389.125 87.0469 389.328C87.2448 389.526 87.3438 389.771 87.3438 390.062C87.3438 390.354 87.2448 390.599 87.0469 390.797C86.8542 390.995 86.5859 391.094 86.2422 391.094C85.9036 391.094 85.6354 390.995 85.4375 390.797C85.2396 390.599 85.1406 390.354 85.1406 390.062ZM97.2422 386.945V388.445H89.0391L88.9766 387.312L93.8828 379.625H95.3906L93.7578 382.422L90.9375 386.945H97.2422ZM95.8203 379.625V391H93.9375V379.625H95.8203ZM106.125 389.5V391H98.5V389.711L102.203 385.672C102.609 385.214 102.93 384.818 103.164 384.484C103.398 384.151 103.562 383.852 103.656 383.586C103.755 383.315 103.805 383.052 103.805 382.797C103.805 382.438 103.737 382.122 103.602 381.852C103.471 381.576 103.279 381.359 103.023 381.203C102.768 381.042 102.458 380.961 102.094 380.961C101.672 380.961 101.318 381.052 101.031 381.234C100.745 381.417 100.529 381.669 100.383 381.992C100.237 382.31 100.164 382.674 100.164 383.086H98.2812C98.2812 382.424 98.4323 381.82 98.7344 381.273C99.0365 380.721 99.474 380.284 100.047 379.961C100.62 379.633 101.31 379.469 102.117 379.469C102.878 379.469 103.523 379.596 104.055 379.852C104.586 380.107 104.99 380.469 105.266 380.938C105.547 381.406 105.688 381.961 105.688 382.602C105.688 382.956 105.63 383.307 105.516 383.656C105.401 384.005 105.237 384.354 105.023 384.703C104.815 385.047 104.568 385.393 104.281 385.742C103.995 386.086 103.68 386.435 103.336 386.789L100.875 389.5H106.125Z" fill="#878787"/>
<path d="M37.8359 398.625H39.5859L42.875 407.398L46.1562 398.625H47.9062L43.5625 410H42.1719L37.8359 398.625ZM37.0391 398.625H38.7031L38.9922 406.219V410H37.0391V398.625ZM47.0391 398.625H48.7109V410H46.75V406.219L47.0391 398.625ZM50.8594 398H52.7422V408.195L52.5625 410H50.8594V398ZM58.2578 405.695V405.859C58.2578 406.484 58.1875 407.06 58.0469 407.586C57.9115 408.107 57.7031 408.56 57.4219 408.945C57.1458 409.331 56.8021 409.63 56.3906 409.844C55.9844 410.052 55.513 410.156 54.9766 410.156C54.4505 410.156 53.9922 410.057 53.6016 409.859C53.2109 409.661 52.8828 409.38 52.6172 409.016C52.3568 408.651 52.1458 408.216 51.9844 407.711C51.8229 407.206 51.7083 406.648 51.6406 406.039V405.516C51.7083 404.901 51.8229 404.344 51.9844 403.844C52.1458 403.339 52.3568 402.904 52.6172 402.539C52.8828 402.169 53.2083 401.885 53.5938 401.688C53.9844 401.49 54.4401 401.391 54.9609 401.391C55.5026 401.391 55.9792 401.495 56.3906 401.703C56.8073 401.911 57.1536 402.208 57.4297 402.594C57.7057 402.974 57.9115 403.427 58.0469 403.953C58.1875 404.479 58.2578 405.06 58.2578 405.695ZM56.375 405.859V405.695C56.375 405.315 56.3438 404.958 56.2812 404.625C56.2188 404.286 56.1146 403.99 55.9688 403.734C55.8281 403.479 55.6354 403.279 55.3906 403.133C55.151 402.982 54.8516 402.906 54.4922 402.906C54.1589 402.906 53.8724 402.964 53.6328 403.078C53.3932 403.193 53.1927 403.349 53.0312 403.547C52.8698 403.745 52.7422 403.974 52.6484 404.234C52.5599 404.495 52.5 404.776 52.4688 405.078V406.492C52.5156 406.883 52.6146 407.242 52.7656 407.57C52.9219 407.893 53.1406 408.154 53.4219 408.352C53.7031 408.544 54.0651 408.641 54.5078 408.641C54.8568 408.641 55.151 408.57 55.3906 408.43C55.6302 408.289 55.8203 408.094 55.9609 407.844C56.1068 407.589 56.2109 407.292 56.2734 406.953C56.3411 406.615 56.375 406.25 56.375 405.859ZM61.7422 403.172V413.25H59.8594V401.547H61.5938L61.7422 403.172ZM67.25 405.695V405.859C67.25 406.474 67.1771 407.044 67.0312 407.57C66.8906 408.091 66.6797 408.547 66.3984 408.938C66.1224 409.323 65.7812 409.622 65.375 409.836C64.9688 410.049 64.5 410.156 63.9688 410.156C63.4427 410.156 62.9818 410.06 62.5859 409.867C62.1953 409.669 61.8646 409.391 61.5938 409.031C61.3229 408.672 61.1042 408.25 60.9375 407.766C60.776 407.276 60.6615 406.74 60.5938 406.156V405.523C60.6615 404.904 60.776 404.341 60.9375 403.836C61.1042 403.331 61.3229 402.896 61.5938 402.531C61.8646 402.167 62.1953 401.885 62.5859 401.688C62.9766 401.49 63.4323 401.391 63.9531 401.391C64.4844 401.391 64.9557 401.495 65.3672 401.703C65.7786 401.906 66.125 402.198 66.4062 402.578C66.6875 402.953 66.8984 403.406 67.0391 403.938C67.1797 404.464 67.25 405.049 67.25 405.695ZM65.3672 405.859V405.695C65.3672 405.305 65.3307 404.943 65.2578 404.609C65.1849 404.271 65.0703 403.974 64.9141 403.719C64.7578 403.464 64.5573 403.266 64.3125 403.125C64.0729 402.979 63.7839 402.906 63.4453 402.906C63.112 402.906 62.8255 402.964 62.5859 403.078C62.3464 403.188 62.1458 403.341 61.9844 403.539C61.8229 403.737 61.6979 403.969 61.6094 404.234C61.5208 404.495 61.4583 404.779 61.4219 405.086V406.602C61.4844 406.977 61.5911 407.32 61.7422 407.633C61.8932 407.945 62.1068 408.195 62.3828 408.383C62.6641 408.565 63.0234 408.656 63.4609 408.656C63.7995 408.656 64.0885 408.583 64.3281 408.438C64.5677 408.292 64.763 408.091 64.9141 407.836C65.0703 407.576 65.1849 407.276 65.2578 406.938C65.3307 406.599 65.3672 406.24 65.3672 405.859ZM73.5938 407.711C73.5938 407.523 73.5469 407.354 73.4531 407.203C73.3594 407.047 73.1797 406.906 72.9141 406.781C72.6536 406.656 72.2682 406.542 71.7578 406.438C71.3099 406.339 70.8984 406.221 70.5234 406.086C70.1536 405.945 69.8359 405.776 69.5703 405.578C69.3047 405.38 69.099 405.146 68.9531 404.875C68.8073 404.604 68.7344 404.292 68.7344 403.938C68.7344 403.594 68.8099 403.268 68.9609 402.961C69.112 402.654 69.3281 402.383 69.6094 402.148C69.8906 401.914 70.2318 401.729 70.6328 401.594C71.0391 401.458 71.4922 401.391 71.9922 401.391C72.7005 401.391 73.3073 401.51 73.8125 401.75C74.3229 401.984 74.7135 402.305 74.9844 402.711C75.2552 403.112 75.3906 403.565 75.3906 404.07H73.5078C73.5078 403.846 73.4505 403.638 73.3359 403.445C73.2266 403.247 73.0599 403.089 72.8359 402.969C72.612 402.844 72.3307 402.781 71.9922 402.781C71.6693 402.781 71.401 402.833 71.1875 402.938C70.9792 403.036 70.8229 403.167 70.7188 403.328C70.6198 403.49 70.5703 403.667 70.5703 403.859C70.5703 404 70.5964 404.128 70.6484 404.242C70.7057 404.352 70.7995 404.453 70.9297 404.547C71.0599 404.635 71.237 404.719 71.4609 404.797C71.6901 404.875 71.9766 404.951 72.3203 405.023C72.9661 405.159 73.5208 405.333 73.9844 405.547C74.4531 405.755 74.8125 406.026 75.0625 406.359C75.3125 406.688 75.4375 407.104 75.4375 407.609C75.4375 407.984 75.3568 408.328 75.1953 408.641C75.0391 408.948 74.8099 409.216 74.5078 409.445C74.2057 409.669 73.8438 409.844 73.4219 409.969C73.0052 410.094 72.5365 410.156 72.0156 410.156C71.25 410.156 70.6016 410.021 70.0703 409.75C69.5391 409.474 69.1354 409.122 68.8594 408.695C68.5885 408.263 68.4531 407.815 68.4531 407.352H70.2734C70.2943 407.701 70.3906 407.979 70.5625 408.188C70.7396 408.391 70.9583 408.539 71.2188 408.633C71.4844 408.721 71.7578 408.766 72.0391 408.766C72.3776 408.766 72.6615 408.721 72.8906 408.633C73.1198 408.539 73.2943 408.414 73.4141 408.258C73.5339 408.096 73.5938 407.914 73.5938 407.711ZM86.2266 408.25V398H88.1172V410H86.4062L86.2266 408.25ZM80.7266 405.867V405.703C80.7266 405.062 80.8021 404.479 80.9531 403.953C81.1042 403.422 81.3229 402.966 81.6094 402.586C81.8958 402.201 82.2448 401.906 82.6562 401.703C83.0677 401.495 83.5312 401.391 84.0469 401.391C84.5573 401.391 85.0052 401.49 85.3906 401.688C85.776 401.885 86.1042 402.169 86.375 402.539C86.6458 402.904 86.862 403.341 87.0234 403.852C87.1849 404.357 87.2995 404.919 87.3672 405.539V406.062C87.2995 406.667 87.1849 407.219 87.0234 407.719C86.862 408.219 86.6458 408.651 86.375 409.016C86.1042 409.38 85.7734 409.661 85.3828 409.859C84.9974 410.057 84.5469 410.156 84.0312 410.156C83.5208 410.156 83.0599 410.049 82.6484 409.836C82.2422 409.622 81.8958 409.323 81.6094 408.938C81.3229 408.552 81.1042 408.099 80.9531 407.578C80.8021 407.052 80.7266 406.482 80.7266 405.867ZM82.6094 405.703V405.867C82.6094 406.253 82.6432 406.612 82.7109 406.945C82.7839 407.279 82.8958 407.573 83.0469 407.828C83.1979 408.078 83.3932 408.276 83.6328 408.422C83.8776 408.562 84.1693 408.633 84.5078 408.633C84.9349 408.633 85.2865 408.539 85.5625 408.352C85.8385 408.164 86.0547 407.911 86.2109 407.594C86.3724 407.271 86.4818 406.911 86.5391 406.516V405.102C86.5078 404.794 86.4427 404.508 86.3438 404.242C86.25 403.977 86.1224 403.745 85.9609 403.547C85.7995 403.344 85.599 403.188 85.3594 403.078C85.125 402.964 84.8464 402.906 84.5234 402.906C84.1797 402.906 83.888 402.979 83.6484 403.125C83.4089 403.271 83.2109 403.471 83.0547 403.727C82.9036 403.982 82.7917 404.279 82.7188 404.617C82.6458 404.956 82.6094 405.318 82.6094 405.703ZM93.8125 410.156C93.1875 410.156 92.6224 410.055 92.1172 409.852C91.6172 409.643 91.1901 409.354 90.8359 408.984C90.487 408.615 90.2188 408.18 90.0312 407.68C89.8438 407.18 89.75 406.641 89.75 406.062V405.75C89.75 405.089 89.8464 404.49 90.0391 403.953C90.2318 403.417 90.5 402.958 90.8438 402.578C91.1875 402.193 91.5938 401.898 92.0625 401.695C92.5312 401.492 93.0391 401.391 93.5859 401.391C94.1901 401.391 94.7188 401.492 95.1719 401.695C95.625 401.898 96 402.185 96.2969 402.555C96.599 402.919 96.8229 403.354 96.9688 403.859C97.1198 404.365 97.1953 404.922 97.1953 405.531V406.336H90.6641V404.984H95.3359V404.836C95.3255 404.497 95.2578 404.18 95.1328 403.883C95.013 403.586 94.8281 403.346 94.5781 403.164C94.3281 402.982 93.9948 402.891 93.5781 402.891C93.2656 402.891 92.987 402.958 92.7422 403.094C92.5026 403.224 92.3021 403.414 92.1406 403.664C91.9792 403.914 91.8542 404.216 91.7656 404.57C91.6823 404.919 91.6406 405.312 91.6406 405.75V406.062C91.6406 406.432 91.6901 406.776 91.7891 407.094C91.8932 407.406 92.0443 407.68 92.2422 407.914C92.4401 408.148 92.6797 408.333 92.9609 408.469C93.2422 408.599 93.5625 408.664 93.9219 408.664C94.375 408.664 94.7786 408.573 95.1328 408.391C95.487 408.208 95.7943 407.951 96.0547 407.617L97.0469 408.578C96.8646 408.844 96.6276 409.099 96.3359 409.344C96.0443 409.583 95.6875 409.779 95.2656 409.93C94.849 410.081 94.3646 410.156 93.8125 410.156ZM103.406 407.711C103.406 407.523 103.359 407.354 103.266 407.203C103.172 407.047 102.992 406.906 102.727 406.781C102.466 406.656 102.081 406.542 101.57 406.438C101.122 406.339 100.711 406.221 100.336 406.086C99.9661 405.945 99.6484 405.776 99.3828 405.578C99.1172 405.38 98.9115 405.146 98.7656 404.875C98.6198 404.604 98.5469 404.292 98.5469 403.938C98.5469 403.594 98.6224 403.268 98.7734 402.961C98.9245 402.654 99.1406 402.383 99.4219 402.148C99.7031 401.914 100.044 401.729 100.445 401.594C100.852 401.458 101.305 401.391 101.805 401.391C102.513 401.391 103.12 401.51 103.625 401.75C104.135 401.984 104.526 402.305 104.797 402.711C105.068 403.112 105.203 403.565 105.203 404.07H103.32C103.32 403.846 103.263 403.638 103.148 403.445C103.039 403.247 102.872 403.089 102.648 402.969C102.424 402.844 102.143 402.781 101.805 402.781C101.482 402.781 101.214 402.833 101 402.938C100.792 403.036 100.635 403.167 100.531 403.328C100.432 403.49 100.383 403.667 100.383 403.859C100.383 404 100.409 404.128 100.461 404.242C100.518 404.352 100.612 404.453 100.742 404.547C100.872 404.635 101.049 404.719 101.273 404.797C101.503 404.875 101.789 404.951 102.133 405.023C102.779 405.159 103.333 405.333 103.797 405.547C104.266 405.755 104.625 406.026 104.875 406.359C105.125 406.688 105.25 407.104 105.25 407.609C105.25 407.984 105.169 408.328 105.008 408.641C104.852 408.948 104.622 409.216 104.32 409.445C104.018 409.669 103.656 409.844 103.234 409.969C102.818 410.094 102.349 410.156 101.828 410.156C101.062 410.156 100.414 410.021 99.8828 409.75C99.3516 409.474 98.9479 409.122 98.6719 408.695C98.401 408.263 98.2656 407.815 98.2656 407.352H100.086C100.107 407.701 100.203 407.979 100.375 408.188C100.552 408.391 100.771 408.539 101.031 408.633C101.297 408.721 101.57 408.766 101.852 408.766C102.19 408.766 102.474 408.721 102.703 408.633C102.932 408.539 103.107 408.414 103.227 408.258C103.346 408.096 103.406 407.914 103.406 407.711ZM110.352 408.656C110.659 408.656 110.935 408.596 111.18 408.477C111.43 408.352 111.63 408.18 111.781 407.961C111.938 407.742 112.023 407.49 112.039 407.203H113.812C113.802 407.75 113.641 408.247 113.328 408.695C113.016 409.143 112.602 409.5 112.086 409.766C111.57 410.026 111 410.156 110.375 410.156C109.729 410.156 109.167 410.047 108.688 409.828C108.208 409.604 107.81 409.297 107.492 408.906C107.174 408.516 106.935 408.065 106.773 407.555C106.617 407.044 106.539 406.497 106.539 405.914V405.641C106.539 405.057 106.617 404.51 106.773 404C106.935 403.484 107.174 403.031 107.492 402.641C107.81 402.25 108.208 401.945 108.688 401.727C109.167 401.503 109.727 401.391 110.367 401.391C111.044 401.391 111.638 401.526 112.148 401.797C112.659 402.062 113.06 402.435 113.352 402.914C113.648 403.388 113.802 403.94 113.812 404.57H112.039C112.023 404.258 111.945 403.977 111.805 403.727C111.669 403.471 111.477 403.268 111.227 403.117C110.982 402.966 110.688 402.891 110.344 402.891C109.964 402.891 109.648 402.969 109.398 403.125C109.148 403.276 108.953 403.484 108.812 403.75C108.672 404.01 108.57 404.305 108.508 404.633C108.451 404.956 108.422 405.292 108.422 405.641V405.914C108.422 406.263 108.451 406.602 108.508 406.93C108.565 407.258 108.664 407.552 108.805 407.812C108.951 408.068 109.148 408.273 109.398 408.43C109.648 408.581 109.966 408.656 110.352 408.656ZM120.023 408.305V404.273C120.023 403.971 119.969 403.711 119.859 403.492C119.75 403.273 119.583 403.104 119.359 402.984C119.141 402.865 118.865 402.805 118.531 402.805C118.224 402.805 117.958 402.857 117.734 402.961C117.51 403.065 117.336 403.206 117.211 403.383C117.086 403.56 117.023 403.76 117.023 403.984H115.148C115.148 403.651 115.229 403.328 115.391 403.016C115.552 402.703 115.786 402.424 116.094 402.18C116.401 401.935 116.768 401.742 117.195 401.602C117.622 401.461 118.102 401.391 118.633 401.391C119.268 401.391 119.831 401.497 120.32 401.711C120.815 401.924 121.203 402.247 121.484 402.68C121.771 403.107 121.914 403.643 121.914 404.289V408.047C121.914 408.432 121.94 408.779 121.992 409.086C122.049 409.388 122.13 409.651 122.234 409.875V410H120.305C120.216 409.797 120.146 409.539 120.094 409.227C120.047 408.909 120.023 408.602 120.023 408.305ZM120.297 404.859L120.312 406.023H118.961C118.612 406.023 118.305 406.057 118.039 406.125C117.773 406.188 117.552 406.281 117.375 406.406C117.198 406.531 117.065 406.682 116.977 406.859C116.888 407.036 116.844 407.237 116.844 407.461C116.844 407.685 116.896 407.891 117 408.078C117.104 408.26 117.255 408.404 117.453 408.508C117.656 408.612 117.901 408.664 118.188 408.664C118.573 408.664 118.909 408.586 119.195 408.43C119.487 408.268 119.716 408.073 119.883 407.844C120.049 407.609 120.138 407.388 120.148 407.18L120.758 408.016C120.695 408.229 120.589 408.458 120.438 408.703C120.286 408.948 120.089 409.182 119.844 409.406C119.604 409.625 119.315 409.805 118.977 409.945C118.643 410.086 118.258 410.156 117.82 410.156C117.268 410.156 116.776 410.047 116.344 409.828C115.911 409.604 115.573 409.305 115.328 408.93C115.083 408.549 114.961 408.12 114.961 407.641C114.961 407.193 115.044 406.797 115.211 406.453C115.383 406.104 115.633 405.812 115.961 405.578C116.294 405.344 116.701 405.167 117.18 405.047C117.659 404.922 118.206 404.859 118.82 404.859H120.297ZM125.773 403.156V410H123.891V401.547H125.688L125.773 403.156ZM128.359 401.492L128.344 403.242C128.229 403.221 128.104 403.206 127.969 403.195C127.839 403.185 127.708 403.18 127.578 403.18C127.255 403.18 126.971 403.227 126.727 403.32C126.482 403.409 126.276 403.539 126.109 403.711C125.948 403.878 125.823 404.081 125.734 404.32C125.646 404.56 125.594 404.828 125.578 405.125L125.148 405.156C125.148 404.625 125.201 404.133 125.305 403.68C125.409 403.227 125.565 402.828 125.773 402.484C125.987 402.141 126.253 401.872 126.57 401.68C126.893 401.487 127.266 401.391 127.688 401.391C127.802 401.391 127.924 401.401 128.055 401.422C128.19 401.443 128.292 401.466 128.359 401.492ZM134.797 401.547H136.508V409.766C136.508 410.526 136.346 411.172 136.023 411.703C135.701 412.234 135.25 412.638 134.672 412.914C134.094 413.195 133.424 413.336 132.664 413.336C132.341 413.336 131.982 413.289 131.586 413.195C131.195 413.102 130.815 412.951 130.445 412.742C130.081 412.539 129.776 412.271 129.531 411.938L130.414 410.828C130.716 411.188 131.049 411.451 131.414 411.617C131.779 411.784 132.161 411.867 132.562 411.867C132.995 411.867 133.362 411.786 133.664 411.625C133.971 411.469 134.208 411.237 134.375 410.93C134.542 410.622 134.625 410.247 134.625 409.805V403.461L134.797 401.547ZM129.055 405.867V405.703C129.055 405.062 129.133 404.479 129.289 403.953C129.445 403.422 129.669 402.966 129.961 402.586C130.253 402.201 130.607 401.906 131.023 401.703C131.44 401.495 131.911 401.391 132.438 401.391C132.984 401.391 133.451 401.49 133.836 401.688C134.227 401.885 134.552 402.169 134.812 402.539C135.073 402.904 135.276 403.341 135.422 403.852C135.573 404.357 135.685 404.919 135.758 405.539V406.062C135.69 406.667 135.576 407.219 135.414 407.719C135.253 408.219 135.039 408.651 134.773 409.016C134.508 409.38 134.18 409.661 133.789 409.859C133.404 410.057 132.948 410.156 132.422 410.156C131.906 410.156 131.44 410.049 131.023 409.836C130.612 409.622 130.258 409.323 129.961 408.938C129.669 408.552 129.445 408.099 129.289 407.578C129.133 407.052 129.055 406.482 129.055 405.867ZM130.938 405.703V405.867C130.938 406.253 130.974 406.612 131.047 406.945C131.125 407.279 131.242 407.573 131.398 407.828C131.56 408.078 131.763 408.276 132.008 408.422C132.258 408.562 132.552 408.633 132.891 408.633C133.333 408.633 133.695 408.539 133.977 408.352C134.263 408.164 134.482 407.911 134.633 407.594C134.789 407.271 134.898 406.911 134.961 406.516V405.102C134.93 404.794 134.865 404.508 134.766 404.242C134.672 403.977 134.544 403.745 134.383 403.547C134.221 403.344 134.018 403.188 133.773 403.078C133.529 402.964 133.24 402.906 132.906 402.906C132.568 402.906 132.273 402.979 132.023 403.125C131.773 403.271 131.568 403.471 131.406 403.727C131.25 403.982 131.133 404.279 131.055 404.617C130.977 404.956 130.938 405.318 130.938 405.703ZM143.227 408.305V404.273C143.227 403.971 143.172 403.711 143.062 403.492C142.953 403.273 142.786 403.104 142.562 402.984C142.344 402.865 142.068 402.805 141.734 402.805C141.427 402.805 141.161 402.857 140.938 402.961C140.714 403.065 140.539 403.206 140.414 403.383C140.289 403.56 140.227 403.76 140.227 403.984H138.352C138.352 403.651 138.432 403.328 138.594 403.016C138.755 402.703 138.99 402.424 139.297 402.18C139.604 401.935 139.971 401.742 140.398 401.602C140.826 401.461 141.305 401.391 141.836 401.391C142.471 401.391 143.034 401.497 143.523 401.711C144.018 401.924 144.406 402.247 144.688 402.68C144.974 403.107 145.117 403.643 145.117 404.289V408.047C145.117 408.432 145.143 408.779 145.195 409.086C145.253 409.388 145.333 409.651 145.438 409.875V410H143.508C143.419 409.797 143.349 409.539 143.297 409.227C143.25 408.909 143.227 408.602 143.227 408.305ZM143.5 404.859L143.516 406.023H142.164C141.815 406.023 141.508 406.057 141.242 406.125C140.977 406.188 140.755 406.281 140.578 406.406C140.401 406.531 140.268 406.682 140.18 406.859C140.091 407.036 140.047 407.237 140.047 407.461C140.047 407.685 140.099 407.891 140.203 408.078C140.307 408.26 140.458 408.404 140.656 408.508C140.859 408.612 141.104 408.664 141.391 408.664C141.776 408.664 142.112 408.586 142.398 408.43C142.69 408.268 142.919 408.073 143.086 407.844C143.253 407.609 143.341 407.388 143.352 407.18L143.961 408.016C143.898 408.229 143.792 408.458 143.641 408.703C143.49 408.948 143.292 409.182 143.047 409.406C142.807 409.625 142.518 409.805 142.18 409.945C141.846 410.086 141.461 410.156 141.023 410.156C140.471 410.156 139.979 410.047 139.547 409.828C139.115 409.604 138.776 409.305 138.531 408.93C138.286 408.549 138.164 408.12 138.164 407.641C138.164 407.193 138.247 406.797 138.414 406.453C138.586 406.104 138.836 405.812 139.164 405.578C139.497 405.344 139.904 405.167 140.383 405.047C140.862 404.922 141.409 404.859 142.023 404.859H143.5Z" fill="#878787"/>
<path d="M248.547 379.555H248.781V381.094H248.648C247.977 381.094 247.396 381.198 246.906 381.406C246.422 381.615 246.023 381.901 245.711 382.266C245.398 382.63 245.164 383.057 245.008 383.547C244.857 384.031 244.781 384.547 244.781 385.094V386.883C244.781 387.336 244.831 387.737 244.93 388.086C245.029 388.43 245.167 388.719 245.344 388.953C245.526 389.182 245.734 389.357 245.969 389.477C246.203 389.596 246.456 389.656 246.727 389.656C247.008 389.656 247.263 389.599 247.492 389.484C247.721 389.365 247.917 389.201 248.078 388.992C248.24 388.784 248.362 388.536 248.445 388.25C248.529 387.964 248.57 387.651 248.57 387.312C248.57 386.99 248.529 386.688 248.445 386.406C248.367 386.12 248.25 385.87 248.094 385.656C247.938 385.438 247.742 385.268 247.508 385.148C247.279 385.023 247.013 384.961 246.711 384.961C246.336 384.961 245.995 385.049 245.688 385.227C245.385 385.404 245.141 385.635 244.953 385.922C244.771 386.203 244.672 386.503 244.656 386.82L243.938 386.586C243.979 386.102 244.086 385.667 244.258 385.281C244.435 384.896 244.667 384.568 244.953 384.297C245.24 384.026 245.57 383.82 245.945 383.68C246.326 383.534 246.742 383.461 247.195 383.461C247.747 383.461 248.227 383.565 248.633 383.773C249.039 383.982 249.375 384.266 249.641 384.625C249.911 384.979 250.112 385.385 250.242 385.844C250.378 386.297 250.445 386.771 250.445 387.266C250.445 387.812 250.362 388.323 250.195 388.797C250.029 389.266 249.784 389.677 249.461 390.031C249.143 390.385 248.755 390.661 248.297 390.859C247.844 391.057 247.328 391.156 246.75 391.156C246.141 391.156 245.596 391.039 245.117 390.805C244.643 390.57 244.24 390.247 243.906 389.836C243.578 389.424 243.328 388.951 243.156 388.414C242.984 387.878 242.898 387.31 242.898 386.711V385.93C242.898 385.065 243.008 384.25 243.227 383.484C243.445 382.714 243.781 382.034 244.234 381.445C244.693 380.857 245.279 380.396 245.992 380.062C246.706 379.724 247.557 379.555 248.547 379.555ZM252.141 390.062C252.141 389.771 252.24 389.526 252.438 389.328C252.635 389.125 252.904 389.023 253.242 389.023C253.586 389.023 253.854 389.125 254.047 389.328C254.245 389.526 254.344 389.771 254.344 390.062C254.344 390.354 254.245 390.599 254.047 390.797C253.854 390.995 253.586 391.094 253.242 391.094C252.904 391.094 252.635 390.995 252.438 390.797C252.24 390.599 252.141 390.354 252.141 390.062ZM264.242 386.945V388.445H256.039L255.977 387.312L260.883 379.625H262.391L260.758 382.422L257.938 386.945H264.242ZM262.82 379.625V391H260.938V379.625H262.82ZM273.125 389.5V391H265.5V389.711L269.203 385.672C269.609 385.214 269.93 384.818 270.164 384.484C270.398 384.151 270.562 383.852 270.656 383.586C270.755 383.315 270.805 383.052 270.805 382.797C270.805 382.438 270.737 382.122 270.602 381.852C270.471 381.576 270.279 381.359 270.023 381.203C269.768 381.042 269.458 380.961 269.094 380.961C268.672 380.961 268.318 381.052 268.031 381.234C267.745 381.417 267.529 381.669 267.383 381.992C267.237 382.31 267.164 382.674 267.164 383.086H265.281C265.281 382.424 265.432 381.82 265.734 381.273C266.036 380.721 266.474 380.284 267.047 379.961C267.62 379.633 268.31 379.469 269.117 379.469C269.878 379.469 270.523 379.596 271.055 379.852C271.586 380.107 271.99 380.469 272.266 380.938C272.547 381.406 272.688 381.961 272.688 382.602C272.688 382.956 272.63 383.307 272.516 383.656C272.401 384.005 272.237 384.354 272.023 384.703C271.815 385.047 271.568 385.393 271.281 385.742C270.995 386.086 270.68 386.435 270.336 386.789L267.875 389.5H273.125Z" fill="#878787"/>
<path d="M213.453 398.625H215.203L218.492 407.398L221.773 398.625H223.523L219.18 410H217.789L213.453 398.625ZM212.656 398.625H214.32L214.609 406.219V410H212.656V398.625ZM222.656 398.625H224.328V410H222.367V406.219L222.656 398.625ZM226.477 398H228.359V408.195L228.18 410H226.477V398ZM233.875 405.695V405.859C233.875 406.484 233.805 407.06 233.664 407.586C233.529 408.107 233.32 408.56 233.039 408.945C232.763 409.331 232.419 409.63 232.008 409.844C231.602 410.052 231.13 410.156 230.594 410.156C230.068 410.156 229.609 410.057 229.219 409.859C228.828 409.661 228.5 409.38 228.234 409.016C227.974 408.651 227.763 408.216 227.602 407.711C227.44 407.206 227.326 406.648 227.258 406.039V405.516C227.326 404.901 227.44 404.344 227.602 403.844C227.763 403.339 227.974 402.904 228.234 402.539C228.5 402.169 228.826 401.885 229.211 401.688C229.602 401.49 230.057 401.391 230.578 401.391C231.12 401.391 231.596 401.495 232.008 401.703C232.424 401.911 232.771 402.208 233.047 402.594C233.323 402.974 233.529 403.427 233.664 403.953C233.805 404.479 233.875 405.06 233.875 405.695ZM231.992 405.859V405.695C231.992 405.315 231.961 404.958 231.898 404.625C231.836 404.286 231.732 403.99 231.586 403.734C231.445 403.479 231.253 403.279 231.008 403.133C230.768 402.982 230.469 402.906 230.109 402.906C229.776 402.906 229.49 402.964 229.25 403.078C229.01 403.193 228.81 403.349 228.648 403.547C228.487 403.745 228.359 403.974 228.266 404.234C228.177 404.495 228.117 404.776 228.086 405.078V406.492C228.133 406.883 228.232 407.242 228.383 407.57C228.539 407.893 228.758 408.154 229.039 408.352C229.32 408.544 229.682 408.641 230.125 408.641C230.474 408.641 230.768 408.57 231.008 408.43C231.247 408.289 231.438 408.094 231.578 407.844C231.724 407.589 231.828 407.292 231.891 406.953C231.958 406.615 231.992 406.25 231.992 405.859ZM237.359 403.172V413.25H235.477V401.547H237.211L237.359 403.172ZM242.867 405.695V405.859C242.867 406.474 242.794 407.044 242.648 407.57C242.508 408.091 242.297 408.547 242.016 408.938C241.74 409.323 241.398 409.622 240.992 409.836C240.586 410.049 240.117 410.156 239.586 410.156C239.06 410.156 238.599 410.06 238.203 409.867C237.812 409.669 237.482 409.391 237.211 409.031C236.94 408.672 236.721 408.25 236.555 407.766C236.393 407.276 236.279 406.74 236.211 406.156V405.523C236.279 404.904 236.393 404.341 236.555 403.836C236.721 403.331 236.94 402.896 237.211 402.531C237.482 402.167 237.812 401.885 238.203 401.688C238.594 401.49 239.049 401.391 239.57 401.391C240.102 401.391 240.573 401.495 240.984 401.703C241.396 401.906 241.742 402.198 242.023 402.578C242.305 402.953 242.516 403.406 242.656 403.938C242.797 404.464 242.867 405.049 242.867 405.695ZM240.984 405.859V405.695C240.984 405.305 240.948 404.943 240.875 404.609C240.802 404.271 240.688 403.974 240.531 403.719C240.375 403.464 240.174 403.266 239.93 403.125C239.69 402.979 239.401 402.906 239.062 402.906C238.729 402.906 238.443 402.964 238.203 403.078C237.964 403.188 237.763 403.341 237.602 403.539C237.44 403.737 237.315 403.969 237.227 404.234C237.138 404.495 237.076 404.779 237.039 405.086V406.602C237.102 406.977 237.208 407.32 237.359 407.633C237.51 407.945 237.724 408.195 238 408.383C238.281 408.565 238.641 408.656 239.078 408.656C239.417 408.656 239.706 408.583 239.945 408.438C240.185 408.292 240.38 408.091 240.531 407.836C240.688 407.576 240.802 407.276 240.875 406.938C240.948 406.599 240.984 406.24 240.984 405.859ZM249.211 407.711C249.211 407.523 249.164 407.354 249.07 407.203C248.977 407.047 248.797 406.906 248.531 406.781C248.271 406.656 247.885 406.542 247.375 406.438C246.927 406.339 246.516 406.221 246.141 406.086C245.771 405.945 245.453 405.776 245.188 405.578C244.922 405.38 244.716 405.146 244.57 404.875C244.424 404.604 244.352 404.292 244.352 403.938C244.352 403.594 244.427 403.268 244.578 402.961C244.729 402.654 244.945 402.383 245.227 402.148C245.508 401.914 245.849 401.729 246.25 401.594C246.656 401.458 247.109 401.391 247.609 401.391C248.318 401.391 248.924 401.51 249.43 401.75C249.94 401.984 250.331 402.305 250.602 402.711C250.872 403.112 251.008 403.565 251.008 404.07H249.125C249.125 403.846 249.068 403.638 248.953 403.445C248.844 403.247 248.677 403.089 248.453 402.969C248.229 402.844 247.948 402.781 247.609 402.781C247.286 402.781 247.018 402.833 246.805 402.938C246.596 403.036 246.44 403.167 246.336 403.328C246.237 403.49 246.188 403.667 246.188 403.859C246.188 404 246.214 404.128 246.266 404.242C246.323 404.352 246.417 404.453 246.547 404.547C246.677 404.635 246.854 404.719 247.078 404.797C247.307 404.875 247.594 404.951 247.938 405.023C248.583 405.159 249.138 405.333 249.602 405.547C250.07 405.755 250.43 406.026 250.68 406.359C250.93 406.688 251.055 407.104 251.055 407.609C251.055 407.984 250.974 408.328 250.812 408.641C250.656 408.948 250.427 409.216 250.125 409.445C249.823 409.669 249.461 409.844 249.039 409.969C248.622 410.094 248.154 410.156 247.633 410.156C246.867 410.156 246.219 410.021 245.688 409.75C245.156 409.474 244.753 409.122 244.477 408.695C244.206 408.263 244.07 407.815 244.07 407.352H245.891C245.911 407.701 246.008 407.979 246.18 408.188C246.357 408.391 246.576 408.539 246.836 408.633C247.102 408.721 247.375 408.766 247.656 408.766C247.995 408.766 248.279 408.721 248.508 408.633C248.737 408.539 248.911 408.414 249.031 408.258C249.151 408.096 249.211 407.914 249.211 407.711ZM261.43 407.711C261.43 407.523 261.383 407.354 261.289 407.203C261.195 407.047 261.016 406.906 260.75 406.781C260.49 406.656 260.104 406.542 259.594 406.438C259.146 406.339 258.734 406.221 258.359 406.086C257.99 405.945 257.672 405.776 257.406 405.578C257.141 405.38 256.935 405.146 256.789 404.875C256.643 404.604 256.57 404.292 256.57 403.938C256.57 403.594 256.646 403.268 256.797 402.961C256.948 402.654 257.164 402.383 257.445 402.148C257.727 401.914 258.068 401.729 258.469 401.594C258.875 401.458 259.328 401.391 259.828 401.391C260.536 401.391 261.143 401.51 261.648 401.75C262.159 401.984 262.549 402.305 262.82 402.711C263.091 403.112 263.227 403.565 263.227 404.07H261.344C261.344 403.846 261.286 403.638 261.172 403.445C261.062 403.247 260.896 403.089 260.672 402.969C260.448 402.844 260.167 402.781 259.828 402.781C259.505 402.781 259.237 402.833 259.023 402.938C258.815 403.036 258.659 403.167 258.555 403.328C258.456 403.49 258.406 403.667 258.406 403.859C258.406 404 258.432 404.128 258.484 404.242C258.542 404.352 258.635 404.453 258.766 404.547C258.896 404.635 259.073 404.719 259.297 404.797C259.526 404.875 259.812 404.951 260.156 405.023C260.802 405.159 261.357 405.333 261.82 405.547C262.289 405.755 262.648 406.026 262.898 406.359C263.148 406.688 263.273 407.104 263.273 407.609C263.273 407.984 263.193 408.328 263.031 408.641C262.875 408.948 262.646 409.216 262.344 409.445C262.042 409.669 261.68 409.844 261.258 409.969C260.841 410.094 260.372 410.156 259.852 410.156C259.086 410.156 258.438 410.021 257.906 409.75C257.375 409.474 256.971 409.122 256.695 408.695C256.424 408.263 256.289 407.815 256.289 407.352H258.109C258.13 407.701 258.227 407.979 258.398 408.188C258.576 408.391 258.794 408.539 259.055 408.633C259.32 408.721 259.594 408.766 259.875 408.766C260.214 408.766 260.497 408.721 260.727 408.633C260.956 408.539 261.13 408.414 261.25 408.258C261.37 408.096 261.43 407.914 261.43 407.711ZM270.008 408.008V401.547H271.898V410H270.117L270.008 408.008ZM270.273 406.25L270.906 406.234C270.906 406.802 270.844 407.326 270.719 407.805C270.594 408.279 270.401 408.693 270.141 409.047C269.88 409.396 269.547 409.669 269.141 409.867C268.734 410.06 268.247 410.156 267.68 410.156C267.268 410.156 266.891 410.096 266.547 409.977C266.203 409.857 265.906 409.672 265.656 409.422C265.411 409.172 265.221 408.846 265.086 408.445C264.951 408.044 264.883 407.565 264.883 407.008V401.547H266.766V407.023C266.766 407.331 266.802 407.589 266.875 407.797C266.948 408 267.047 408.164 267.172 408.289C267.297 408.414 267.443 408.503 267.609 408.555C267.776 408.607 267.953 408.633 268.141 408.633C268.677 408.633 269.099 408.529 269.406 408.32C269.719 408.107 269.94 407.82 270.07 407.461C270.206 407.102 270.273 406.698 270.273 406.25ZM273.836 398H275.719V408.195L275.539 410H273.836V398ZM281.234 405.695V405.859C281.234 406.484 281.164 407.06 281.023 407.586C280.888 408.107 280.68 408.56 280.398 408.945C280.122 409.331 279.779 409.63 279.367 409.844C278.961 410.052 278.49 410.156 277.953 410.156C277.427 410.156 276.969 410.057 276.578 409.859C276.188 409.661 275.859 409.38 275.594 409.016C275.333 408.651 275.122 408.216 274.961 407.711C274.799 407.206 274.685 406.648 274.617 406.039V405.516C274.685 404.901 274.799 404.344 274.961 403.844C275.122 403.339 275.333 402.904 275.594 402.539C275.859 402.169 276.185 401.885 276.57 401.688C276.961 401.49 277.417 401.391 277.938 401.391C278.479 401.391 278.956 401.495 279.367 401.703C279.784 401.911 280.13 402.208 280.406 402.594C280.682 402.974 280.888 403.427 281.023 403.953C281.164 404.479 281.234 405.06 281.234 405.695ZM279.352 405.859V405.695C279.352 405.315 279.32 404.958 279.258 404.625C279.195 404.286 279.091 403.99 278.945 403.734C278.805 403.479 278.612 403.279 278.367 403.133C278.128 402.982 277.828 402.906 277.469 402.906C277.135 402.906 276.849 402.964 276.609 403.078C276.37 403.193 276.169 403.349 276.008 403.547C275.846 403.745 275.719 403.974 275.625 404.234C275.536 404.495 275.477 404.776 275.445 405.078V406.492C275.492 406.883 275.591 407.242 275.742 407.57C275.898 407.893 276.117 408.154 276.398 408.352C276.68 408.544 277.042 408.641 277.484 408.641C277.833 408.641 278.128 408.57 278.367 408.43C278.607 408.289 278.797 408.094 278.938 407.844C279.083 407.589 279.188 407.292 279.25 406.953C279.318 406.615 279.352 406.25 279.352 405.859ZM284.844 401.547V410H282.953V401.547H284.844ZM282.828 399.328C282.828 399.042 282.922 398.805 283.109 398.617C283.302 398.424 283.568 398.328 283.906 398.328C284.24 398.328 284.503 398.424 284.695 398.617C284.888 398.805 284.984 399.042 284.984 399.328C284.984 399.609 284.888 399.844 284.695 400.031C284.503 400.219 284.24 400.312 283.906 400.312C283.568 400.312 283.302 400.219 283.109 400.031C282.922 399.844 282.828 399.609 282.828 399.328ZM292.062 408.25V398H293.953V410H292.242L292.062 408.25ZM286.562 405.867V405.703C286.562 405.062 286.638 404.479 286.789 403.953C286.94 403.422 287.159 402.966 287.445 402.586C287.732 402.201 288.081 401.906 288.492 401.703C288.904 401.495 289.367 401.391 289.883 401.391C290.393 401.391 290.841 401.49 291.227 401.688C291.612 401.885 291.94 402.169 292.211 402.539C292.482 402.904 292.698 403.341 292.859 403.852C293.021 404.357 293.135 404.919 293.203 405.539V406.062C293.135 406.667 293.021 407.219 292.859 407.719C292.698 408.219 292.482 408.651 292.211 409.016C291.94 409.38 291.609 409.661 291.219 409.859C290.833 410.057 290.383 410.156 289.867 410.156C289.357 410.156 288.896 410.049 288.484 409.836C288.078 409.622 287.732 409.323 287.445 408.938C287.159 408.552 286.94 408.099 286.789 407.578C286.638 407.052 286.562 406.482 286.562 405.867ZM288.445 405.703V405.867C288.445 406.253 288.479 406.612 288.547 406.945C288.62 407.279 288.732 407.573 288.883 407.828C289.034 408.078 289.229 408.276 289.469 408.422C289.714 408.562 290.005 408.633 290.344 408.633C290.771 408.633 291.122 408.539 291.398 408.352C291.674 408.164 291.891 407.911 292.047 407.594C292.208 407.271 292.318 406.911 292.375 406.516V405.102C292.344 404.794 292.279 404.508 292.18 404.242C292.086 403.977 291.958 403.745 291.797 403.547C291.635 403.344 291.435 403.188 291.195 403.078C290.961 402.964 290.682 402.906 290.359 402.906C290.016 402.906 289.724 402.979 289.484 403.125C289.245 403.271 289.047 403.471 288.891 403.727C288.74 403.982 288.628 404.279 288.555 404.617C288.482 404.956 288.445 405.318 288.445 405.703ZM300.688 408.305V404.273C300.688 403.971 300.633 403.711 300.523 403.492C300.414 403.273 300.247 403.104 300.023 402.984C299.805 402.865 299.529 402.805 299.195 402.805C298.888 402.805 298.622 402.857 298.398 402.961C298.174 403.065 298 403.206 297.875 403.383C297.75 403.56 297.688 403.76 297.688 403.984H295.812C295.812 403.651 295.893 403.328 296.055 403.016C296.216 402.703 296.451 402.424 296.758 402.18C297.065 401.935 297.432 401.742 297.859 401.602C298.286 401.461 298.766 401.391 299.297 401.391C299.932 401.391 300.495 401.497 300.984 401.711C301.479 401.924 301.867 402.247 302.148 402.68C302.435 403.107 302.578 403.643 302.578 404.289V408.047C302.578 408.432 302.604 408.779 302.656 409.086C302.714 409.388 302.794 409.651 302.898 409.875V410H300.969C300.88 409.797 300.81 409.539 300.758 409.227C300.711 408.909 300.688 408.602 300.688 408.305ZM300.961 404.859L300.977 406.023H299.625C299.276 406.023 298.969 406.057 298.703 406.125C298.438 406.188 298.216 406.281 298.039 406.406C297.862 406.531 297.729 406.682 297.641 406.859C297.552 407.036 297.508 407.237 297.508 407.461C297.508 407.685 297.56 407.891 297.664 408.078C297.768 408.26 297.919 408.404 298.117 408.508C298.32 408.612 298.565 408.664 298.852 408.664C299.237 408.664 299.573 408.586 299.859 408.43C300.151 408.268 300.38 408.073 300.547 407.844C300.714 407.609 300.802 407.388 300.812 407.18L301.422 408.016C301.359 408.229 301.253 408.458 301.102 408.703C300.951 408.948 300.753 409.182 300.508 409.406C300.268 409.625 299.979 409.805 299.641 409.945C299.307 410.086 298.922 410.156 298.484 410.156C297.932 410.156 297.44 410.047 297.008 409.828C296.576 409.604 296.237 409.305 295.992 408.93C295.747 408.549 295.625 408.12 295.625 407.641C295.625 407.193 295.708 406.797 295.875 406.453C296.047 406.104 296.297 405.812 296.625 405.578C296.958 405.344 297.365 405.167 297.844 405.047C298.323 404.922 298.87 404.859 299.484 404.859H300.961Z" fill="#878787"/>
<defs>
<filter id="filter0_d_439_1324" x="0" y="50.0578" width="340" height="400.233" filterUnits="userSpaceOnUse" color-interpolation-filters="sRGB">
<feFlood flood-opacity="0" result="BackgroundImageFix"/>
<feColorMatrix in="SourceAlpha" type="matrix" values="0 0 0 0 0 0 0 0 0 0 0 0 0 0 0 0 0 0 127 0" result="hardAlpha"/>
<feOffset dy="2"/>
<feGaussianBlur stdDeviation="3"/>
<feComposite in2="hardAlpha" operator="out"/>
<feColorMatrix type="matrix" values="0 0 0 0 0.0509804 0 0 0 0 0.0392157 0 0 0 0 0.172549 0 0 0 0.08 0"/>
<feBlend mode="normal" in2="BackgroundImageFix" result="effect1_dropShadow_439_1324"/>
<feBlend mode="normal" in="SourceGraphic" in2="effect1_dropShadow_439_1324" result="shape"/>
</filter>
<filter id="filter1_d_439_1324" x="271.854" y="251.346" width="44.3101" height="49.2431" filterUnits="userSpaceOnUse" color-interpolation-filters="sRGB">
<feFlood flood-opacity="0" result="BackgroundImageFix"/>
<feColorMatrix in="SourceAlpha" type="matrix" values="0 0 0 0 0 0 0 0 0 0 0 0 0 0 0 0 0 0 127 0" result="hardAlpha"/>
<feOffset dy="8"/>
<feGaussianBlur stdDeviation="4"/>
<feComposite in2="hardAlpha" operator="out"/>
<feColorMatrix type="matrix" values="0 0 0 0 0.0509804 0 0 0 0 0.0392157 0 0 0 0 0.172549 0 0 0 0.08 0"/>
<feBlend mode="normal" in2="BackgroundImageFix" result="effect1_dropShadow_439_1324"/>
<feBlend mode="normal" in="SourceGraphic" in2="effect1_dropShadow_439_1324" result="shape"/>
</filter>
</defs>
</svg>
